<svg xmlns="http://www.w3.org/2000/svg" width="400" height="400"><g fill-rule="evenodd"><path d="M37 40.999c-.22.074-1.092.252-1.939.394-.992.166-2.027.746-2.913 1.632-.756.756-1.583 1.375-1.838 1.375-.258 0-.182.221.173.5.733.576 1.345 2.3.816 2.3-.195 0-1.062 1.079-1.927 2.398-.864 1.319-1.707 2.399-1.872 2.4-.165.001-.3.242-.3.535 0 .328-.469.534-1.213.534-1.92 0-2.187.581-2.187 4.753 0 2.079-.128 3.78-.285 3.78-.156 0-.336 3.785-.4 8.411L23 78.422l1.1.487c1.425.63 1.472 2.249.107 3.722-1.338 1.443-1.149 7.033.386 11.428.546 1.561 1.111 3.732 1.256 4.823.173 1.306.378 1.802.601 1.451.253-.399.355-.331.405.267.037.44.096 1.07.133 1.4.036.33-.093.924-.286 1.32-.214.439-.173 1.259.106 2.104.251.762.623 3.228.825 5.481.98 10.924 4.212 22.408 6.943 24.675.509.422.629 1.563.653 6.169.016 3.108.204 6.641.417 7.851s.535 3.82.715 5.8c.59 6.493 2.827 14.878 3.729 13.977.116-.116.318.066.448.406.13.339.063.617-.151.617-.213 0-.387.191-.387.424 0 .233.208.295.462.138.27-.167.354-.111.202.135-.143.231.002 1.024.322 1.762.328.754.59 1.035.598.641.018-.8.627-.93 1.061-.227.203.328.397.235.63-.3.253-.579.284-.498.124.327-.158.811-.055 1.1.393 1.1.335 0 .608.27.608.6 0 .33.18.6.4.6.824 0 .376 1.628-.567 2.058-1.118.509-3.664 4.35-4.998 7.542-.506 1.21-1.234 2.56-1.617 3-.383.44-1.001 1.587-1.374 2.549-.372.962-1.12 2.581-1.66 3.597-.541 1.016-.984 2.128-.984 2.471 0 .343-.144.794-.32 1.003-.356.423-1.526 3.401-2.927 7.448-.8 2.313-.853 2.798-.396 3.652.326.61.423 1.461.253 2.233-.216.985-.141 1.247.358 1.247.519 0 .632.529.632 2.955v2.956l-1.416.266-1.417.265.117 3.079c.083 2.202.258 3.051.616 2.979.652-.13.652 1.372 0 1.635-.275.111-.32.216-.1.233.252.019.326 1.511.2 4.043l-.2 4.012 1.1.486c1.257.556 1.741 4.691.549 4.691-.495 0-1.778 2.3-1.403 2.513 1.869 1.059 1.954 1.084 1.979.59.037-.734.618.863.927 2.549.285 1.555-1.24 2.466-2.452 1.464-.641-.531-.686 4.704-.06 7.084.231.88.584 3.13.786 5 .672 6.257 1.049 8.62 1.513 9.487.254.473.461 1.313.461 1.866 0 1.072 2.276 7.79 2.855 8.427.19.209.345.792.345 1.296 0 1.094 1.734 6.233 2.825 8.373.426.836.775 1.846.775 2.244 0 .614.948 2.59 4.348 9.063.808 1.539 4.123 4.844 4.857 4.844.866 0 1.595.797 1.595 1.742 0 .76-.025.761-.9.054-.495-.4.361.517 1.903 2.038s3.612 3.306 4.6 3.966c.988.66 2.137 1.507 2.552 1.881.416.375 1.514.94 2.441 1.256.927.316 2.64 1.245 3.807 2.065 1.595 1.121 2.725 1.573 4.559 1.824 3.44.469 3.935.648 8.638 3.12 3.33 1.75 12.746 5.067 11.856 4.176-.095-.094.235-.61.732-1.147.94-1.014 1.986-1.264 2.412-.575.136.22.558.4.937.4.986 0 .844 2.046-.171 2.443-.739.29-.738.302.034.331.44.017 1.97.661 3.4 1.431s3.887 2.016 5.46 2.769c1.59.761 3.189 1.849 3.6 2.449 2.175 3.173 3.99 4.434 12.174 8.456 7.795 3.831 11.581 5.321 13.521 5.321.487 0 1.461.299 2.165.665.704.366 2.45.791 3.88.944 4.1.438 9.36 2.028 12.2 3.686 4.849 2.832 7.079 4.016 8.598 4.565.991.358 3.384 1.363 5.318 2.233 1.934.869 4.454 1.72 5.6 1.891 3.155.47 8.224 1.607 9.42 2.113 2.077.877 25.613 2.01 36.544 1.758 7.638-.176 8.904-.299 10.551-1.027 1.029-.456 2.353-.828 2.943-.828.59 0 1.422-.264 1.85-.587.427-.323 1.046-.599 1.376-.614.33-.014 1.32-.374 2.2-.799.88-.425 1.844-.779 2.142-.786.298-.008 1.077-.464 1.731-1.014.654-.55 1.423-1 1.709-1 .286 0 .744-.27 1.018-.6.274-.33.823-.6 1.22-.6.398 0 .984-.261 1.303-.58.319-.319 1.035-.695 1.591-.834.555-.14 1.432-.728 1.948-1.308.516-.579.623-.812.238-.517-.465.357-.7.386-.7.088 0-.247.045-.456.1-.464l1.644-.239c1.32-.191 3.548-1.152 5.856-2.526.33-.196 1.86-.936 3.4-1.644 1.54-.708 3.524-1.782 4.409-2.388.884-.605 3.584-2.121 6-3.368 2.415-1.247 5.381-2.977 6.591-3.843 1.21-.867 2.527-1.576 2.926-1.576.903-.001 2.133-.636 3.605-1.86.691-.576 1.651-.941 2.471-.941.738 0 1.602-.261 1.921-.58.319-.319 1.046-.697 1.614-.84 1.139-.286 1.656-1.343 1.262-2.582-.178-.563-.037-.882.473-1.071.401-.147 1.467-.866 2.369-1.598.903-.731 1.835-1.329 2.072-1.329.236 0 .702-.272 1.035-.605.54-.54.713-.498 1.61.4 1.536 1.535 8.003.125 8.949-1.952.259-.566.907-1.026 1.662-1.177 1.284-.257 2.866-1.264 4.993-3.181.681-.613 1.688-1.224 2.238-1.357 1.35-.328 5.519-2.431 7-3.532.66-.49 1.74-1.019 2.4-1.175.66-.156 1.47-.515 1.8-.797.33-.283 1.22-.631 1.979-.775 1.607-.304 13.843-6.365 15.021-7.441.44-.402 1.461-1.003 2.268-1.336.807-.332 1.683-1.025 1.946-1.538.263-.514 1.133-1.593 1.932-2.399 3.543-3.569 4.559-5.162 5.433-8.52.335-1.287.857-2.626 1.16-2.977 1.215-1.408 1.924-4.505 1.212-5.292-.788-.871-.46-1.946.594-1.946.423 0 .859-.233.968-.517.236-.615-.61-1.883-1.257-1.883-.634 0-.544-2.657.156-4.6.317-.88.58-1.87.586-2.2.012-.756 1.972-4.784 1.989-4.088.035 1.408 2.338-1.292 2.943-3.449 1.13-4.032 1.228-14.407.143-15.285-.627-.508-.953-.576-1.166-.242-.162.255-.283-.166-.269-.936.014-.77.109-1.196.212-.946.566 1.379 2.026-.474 2.917-3.701 2.823-10.234-.066-25.622-4.871-25.933-.693-.045-1.896-2.745-1.896-4.256 0-.889-.159-1.92-.353-2.29-.571-1.091-.76-6.074-.23-6.074 1.679 0 1.889-6.173.328-9.65-.58-1.292-1.196-2.35-1.37-2.35-.383 0-2.775-4.342-2.775-5.038 0-.272-.225-.586-.5-.697-.4-.161-.4-.208 0-.233.275-.018.503-.527.506-1.132.003-.605.167-1.354.363-1.664.227-.358.132-1.035-.261-1.86-.577-1.21-.561-1.414.237-3.062.47-.972.861-2.025.869-2.34.021-.83 1.064-2.597 1.444-2.444.177.072.387-.063.465-.3.079-.237-.051-.43-.29-.43-.238 0-.433-.27-.433-.6 0-.33.18-.6.4-.6.22 0 .4.208.4.462 0 .262.346.149.8-.262.778-.704.802-.698.877.238.043.529.21-1.378.373-4.238.711-12.503 1.076-16.872 1.499-17.926.248-.619.451-2.942.451-5.161 0-3.425.145-4.344.959-6.074.527-1.122 1.174-2.849 1.437-3.839.264-.99.627-2.088.808-2.441.464-.903 1.521-5.45 1.71-7.359.178-1.781.765-4.178 2.079-8.483.579-1.894.745-3.019.486-3.278-.259-.259-.258-1.08.001-2.393.218-1.1.246-2.235.064-2.523-.216-.34-.351-.033-.388.877-.044 1.114-.124.95-.389-.8-.36-2.38.346-5.498 1.455-6.418.403-.335.602-1.463.657-3.731l.08-3.251.138 2.913c.174 3.662.903 3.455.903-.257 0-1.568.201-2.897.482-3.178 1.883-1.883 2.335-34.009.559-39.727-1.686-5.426-3.26-7.421-5.292-6.707-1.889.664-3.071-1.25-1.985-3.212 1.391-2.51-4.738-4.155-10.091-2.708-1.25.338-3.58.825-5.178 1.082-1.894.305-4.166 1.082-6.527 2.231-1.993.97-3.858 1.763-4.146 1.763-.288 0-.739.258-1.001.574-.262.316-1.004.69-1.649.832-.645.142-1.909.873-2.81 1.626-.901.752-1.802 1.368-2.003 1.368-.201 0-1.434.945-2.739 2.1-3.409 3.016-4.502 3.792-6.631 4.705-1.041.446-2.423 1.257-3.071 1.803-.649.546-1.515.992-1.926.992-.411 0-1.01.376-1.332.836-.322.46-1.796 1.276-3.274 1.812-1.479.537-3.212 1.376-3.852 1.864-2.124 1.62-5.308 4.26-7.352 6.095-1.983 1.78-5.233 3.911-9.182 6.02-1.1.587-2.72 1.639-3.6 2.338-1.963 1.559-5.74 4.011-6.732 4.369-.669.243-3.129 1.755-6.011 3.696a88.62 88.62 0 01-2.434 1.57c-3.299 2.043-4.609 3.054-5.746 4.432l-1.226 1.489-2.326-.504a513.762 513.762 0 01-4.125-.911c-3.208-.728-16.609-.838-19.372-.16a80.414 80.414 0 01-5.228 1.05c-1.54.25-4.41.916-6.377 1.48-3.029.868-3.978.978-6.2.717-1.443-.169-3.433-.254-4.423-.189-.99.065-2.278.136-2.862.157-.584.022-.99.155-.902.297.088.142-.11.361-.438.488-.329.126-.598.505-.598.841 0 .434-.409.613-1.4.613-.77 0-1.4-.063-1.4-.14 0-1.077.968-2.572 1.531-2.364.368.137.05-.279-.707-.924l-1.376-1.172-17.624-.031c-9.693-.017-15.644.073-13.224.2 3.163.166 4.389.372 4.36.731-.141 1.76.027 1.7-4.76 1.7-3.642 0-4.6-.115-4.6-.551 0-1.188-2.158-1.504-9.382-1.375-7.735.138-7.514.069-9.218 2.868-.352.579-.973.621-5.2.358-4.731-.296-4.76-.303-2-.529l2.8-.23-2.486-.07c-2.006-.057-2.566-.221-2.901-.846-.364-.681-.944-.79-4.777-.9-2.399-.069-4.278.01-4.175.175.102.165-.085.3-.418.3-.332 0-.747-.247-.923-.549-.176-.302-2.117-1.42-4.313-2.485-2.196-1.064-4.626-2.502-5.4-3.194-.774-.693-2.056-1.47-2.848-1.727-.793-.258-1.864-.918-2.381-1.468-.517-.55-1.171-.912-1.454-.803-.283.108-.472.059-.419-.109.052-.169-.625-.927-1.505-1.686-.88-.758-1.353-1.064-1.051-.679.359.458.394.7.1.7-.247 0-.449-.174-.449-.386 0-.654-2.458-3.226-2.85-2.983-.203.126-.32.073-.26-.117.234-.735-3.234-4.144-6.199-6.094-1.711-1.125-4.061-2.894-5.223-3.932-1.163-1.039-2.89-2.338-3.839-2.888-.949-.55-2.379-1.561-3.177-2.247-.799-.686-2.235-1.644-3.192-2.129-2.14-1.084-5.14-3.797-5.486-4.961-.389-1.308-5.024-5.863-5.962-5.861-.447.002-2.702-.882-5.012-1.963-2.31-1.081-5.01-2.251-6-2.6-.99-.349-2.971-1.406-4.402-2.348-2.585-1.702-4.596-1.886-4.093-.375.104.31-.354.189-1.167-.309-.736-.45-1.663-.929-2.061-1.065-.416-.142-.63-.488-.504-.815.125-.327.043-.46-.194-.314-.259.16-.324-.092-.177-.679.139-.556-.017-1.258-.385-1.734-.443-.573-.554-.612-.389-.136.154.444-.047.752-.605.929-.459.145-.727.439-.595.652.256.414-1.548.089-2.665-.48-2.047-1.045-4.501-1.554-7.517-1.559-3.213-.006-5.918-1.201-4.937-2.181.238-.239.134-.244-.509-.026m12 5.728c1.76.693 4.911 2.388 7.001 3.766 2.091 1.379 5.151 3.116 6.8 3.86 1.65.744 4.799 2.218 6.999 3.275 2.2 1.056 4.483 2.039 5.074 2.183 1.017.249 3.18 2.377 7.039 6.926.943 1.11 2.923 2.836 4.4 3.835 10.947 7.397 16.989 12.021 21.632 16.554 4.034 3.941 8.64 7.524 11.655 9.068.77.394 1.995 1.235 2.723 1.869.727.634 3.157 2.076 5.4 3.205l4.077 2.052 6.6.318c10.707.515 17 .436 19.639-.248 3.264-.846 14.724-.687 15.179.21.464.915 2.277 7.895 2.753 10.6 1.336 7.6 2.138 11.916 2.676 14.413.333 1.548.656 4.075.718 5.616.092 2.311.315 3.11 1.273 4.558 1.067 1.614 1.152 2.003 1.035 4.785-.07 1.665-.142 3.478-.161 4.028-.018.55.198 1.99.481 3.2.283 1.21.715 3.91.96 6l.447 3.8h1.2c1.292 0 1.732-2.3.577-3.014-.304-.188-.376-.59-.188-1.046.803-1.947 1.068-20.557.611-42.94l-.2-9.8 1.832-.354c2.85-.552 4.094.221 4.441 2.759.151 1.097.562 3.615.914 5.595.353 1.98.914 7.47 1.249 12.2.709 10.05 1.781 27.207 1.986 31.8.354 7.931.919 9.8 2.959 9.8.899 0 2.419-.835 2.419-1.329 0-.04.54-1.962 1.2-4.271.955-3.342 1.206-5.015 1.229-8.199.016-2.201.201-4.991.41-6.201.624-3.603 1.115-8.227 1.57-14.8.236-3.41.691-6.971 1.01-7.914.408-1.205.584-3.582.591-8l.01-6.286 1.407-1.919 1.408-1.918 2.441.118c3.329.162 3.399.322 2.792 6.391-.27 2.71-.669 7.718-.887 11.128-.217 3.41-.592 6.83-.834 7.6-.848 2.703-.961 23.143-.13 23.462 1.408.54 2.709-1.677 2.489-4.241-.454-5.281 2.686-17.301 6.833-26.154.842-1.797 2.029-4.834 2.637-6.75.609-1.915 1.913-4.885 2.897-6.6.984-1.714 1.892-3.722 2.018-4.462.268-1.579 1.299-2.132 5.309-2.845 1.43-.254 3.86-.723 5.4-1.041 6.276-1.298 17.826-.26 23.075 2.074 2.175.967 3.312.506 4.911-1.994.812-1.269 1.847-2.331 2.56-2.626.658-.273 1.507-.84 1.887-1.26.38-.419.919-.763 1.198-.763.279 0 1.016-.425 1.638-.944.622-.519 1.761-1.259 2.531-1.645.77-.386 1.85-1.11 2.4-1.608.55-.499 1.645-1.112 2.433-1.364.788-.251 2.652-1.462 4.141-2.691 1.49-1.229 5.058-3.545 7.93-5.147 3.956-2.207 6.077-3.712 8.756-6.213 4.308-4.022 6.198-5.44 7.753-5.816 1.998-.483 7.341-3.389 9.369-5.096.704-.592 1.518-1.076 1.809-1.076.291 0 1.644-.855 3.005-1.9 8.635-6.627 21.234-13.288 25.167-13.304.57-.003 1.921-.273 3.001-.6 3.806-1.155 5.35-.368 9.04 4.61 3.586 4.837 3.712 5.547 3.894 21.927.112 10.05.024 14.499-.305 15.4-.254.697-.563 3.247-.686 5.667-.164 3.22-.477 5.073-1.166 6.909-.517 1.38-.941 3.263-.941 4.183 0 .921-.639 4.112-1.42 7.091-2.308 8.809-2.536 9.74-2.787 11.417-.699 4.651-5.226 15.711-7.777 19-2.697 3.476-2.192 5.443.759 2.959 1.447-1.217 2.631-1.04 2.308.346-.7 3.006-1.105 5.943-1.503 10.895-1.117 13.883-1.198 14.283-4.307 21.2-3.376 7.512-3.145 9.601 1.927 17.448 1.496 2.315 1.6 2.667 1.6 5.407 0 1.611.192 4.238.427 5.838l.836 5.707c.28 1.913 1.158 4.475 2.773 8.087 4.041 9.038 3.183 9.47-8.354 4.207-6.543-2.984-7.135-3.387-9.334-6.364-2.324-3.147-3.471-3.728-7.348-3.723-6.581.008-6.911 1.251-1.085 4.079 2.137 1.037 5.235 2.9 6.885 4.14 2.854 2.145 9.434 5.774 10.47 5.774 1.111 0 10.185 3.768 10.83 4.497.965 1.091.879 3.348-.3 7.903-.541 2.09-.988 4.259-.992 4.82-.026 3.339-3.679 2.487-10.008-2.336-3.815-2.907-4.408-3.02-16.699-3.19l-10.899-.151-.411 1.081c-.903 2.376.991 3.466 4.124 2.375 2.807-.978 2.509-1.079 9.885 3.338 1.65.989 4.057 2.212 5.348 2.719 1.291.507 3.195 1.466 4.23 2.13 1.885 1.21 5.397 2.079 11.151 2.762 4.114.487 4.24 1.843 1.046 11.254-1.224 3.604-2.383 7.644-2.577 8.976-.68 4.681-2.531 10.232-5.21 15.624-.84 1.692-5.63 7.417-6.988 8.351-2.727 1.878-14.425 7.744-18.4 9.227-2.916 1.089-3.353 1.305-8.072 3.987a4116.05 4116.05 0 01-4.8 2.726c-3.327 1.887-7.085 4.22-8.219 5.103-1.149.895-4.699 2.174-7.176 2.585-.814.135-2.918 1.231-4.73 2.465-1.794 1.222-4.644 2.848-6.333 3.615-1.688.766-4.33 2.011-5.87 2.766-1.54.756-2.955 1.373-3.144 1.373-.19 0-1.45.77-2.8 1.711-1.351.941-4.076 2.542-6.056 3.558-1.98 1.015-4.857 2.586-6.394 3.489-1.536.903-2.928 1.642-3.093 1.642-.484 0-9.686 4.723-17.313 8.885-8.306 4.532-14.412 6.758-20.2 7.361-5.722.596-24.197-.04-29-.999-1.1-.22-3.383-.41-5.074-.423-1.691-.013-3.52-.194-4.066-.401-.546-.208-3.392-.863-6.326-1.457-3.695-.748-6.188-1.506-8.114-2.468-1.529-.764-3.689-1.657-4.8-1.985-1.111-.328-4.09-1.822-6.62-3.319-4.929-2.917-9.939-4.625-15.2-5.183-1.43-.151-2.96-.459-3.4-.682-.44-.224-2.15-.721-3.8-1.104-1.65-.383-4.89-1.609-7.2-2.725-2.31-1.116-5.545-2.675-7.19-3.465-2.27-1.09-3.955-2.357-7.001-5.267-2.206-2.107-4.488-3.951-5.071-4.098-.583-.146-2.311-.987-3.839-1.868-1.529-.881-2.941-1.603-3.139-1.604-.198-.001-1.17-.54-2.16-1.198-.99-.658-2.34-1.199-3-1.201-2.716-.01-8.135-1.7-12.4-3.867-4.795-2.435-8.442-3.724-10.552-3.729-.902-.002-1.996-.465-3.285-1.391-1.062-.764-2.603-1.668-3.423-2.011-7.219-3.017-17.34-14.656-20.522-23.601a324.177 324.177 0 00-2.178-5.918c-.572-1.495-1.04-3.315-1.04-4.043 0-.733-.617-2.51-1.38-3.973-.759-1.457-1.484-3.327-1.61-4.157-.126-.83-.481-2.409-.789-3.509-2.379-8.494-1.912-10.994 2.053-11.006 1.059-.003 2.295-.228 2.745-.5l2.154-1.294c.733-.44 2.129-1.474 3.102-2.298.973-.824 2.254-1.597 2.847-1.718s2.158-.472 3.478-.779c1.32-.307 3.12-.671 4-.809.88-.138 2.59-.702 3.8-1.254 1.466-.668 4.069-1.272 7.8-1.809 3.395-.489 5.976-1.067 6.556-1.47 1.589-1.102 1.802-1.206 2.944-1.447 1.471-.309 1.495-1.847.046-2.987-1.013-.797-1.519-.829-13.08-.829H52.641l-4.621 2.247a621.587 621.587 0 00-8.066 4c-5.016 2.552-5.197 2.464-6.123-2.96-.557-3.264-.422-17.903.179-19.505.579-1.54 4.758-3.666 9.818-4.994 9.559-2.51 10.813-2.776 13.098-2.782 3.713-.01 4.644-1.127 3.484-4.18l-.39-1.026h-5.267c-6.472 0-12.867 1.832-17.638 5.052-1.477.997-2.879 1.694-3.114 1.548-.745-.46.011-6.131 1.281-9.6 2.618-7.154 3.157-8.499 4.312-10.756.663-1.296 1.206-2.663 1.206-3.038s.353-1.001.783-1.391c.431-.39 1.079-1.597 1.439-2.682.361-1.086 1.25-2.752 1.976-3.703 2.672-3.501 3.52-7.257 2.244-9.941-.442-.929-1.36-3.039-2.041-4.689-.68-1.65-1.527-3.525-1.881-4.166-.841-1.525-2.467-8.182-2.743-11.234-.119-1.32-.492-4.38-.829-6.8-1.069-7.679-.305-9.878 2.437-7.016 1.444 1.508 2.615 1.613 2.615.235 0-1.603-.754-2.788-2.31-3.628-1.638-.885-4.007-3.773-5.57-6.791-1.796-3.468-4.934-16.519-4.911-20.424.006-.867-.348-3.556-.785-5.976-.438-2.42-.974-5.666-1.193-7.212-.219-1.547-.747-3.617-1.173-4.6-1.688-3.898-2.176-20.794-.944-32.666.602-5.799 5.071-12.113 10.086-14.249 1.649-.702 7.816.001 11 1.254m147.157 51.604c1.008 1.631-3.934 3.18-8.941 2.803-1.806-.136-2.624-1.16-2.106-2.634.203-.577 10.696-.738 11.047-.169M124.6 187.355c-4.726.981-8.221 2.615-10.8 5.049-1.32 1.245-3.66 3.146-5.2 4.223-3.948 2.762-5.932 4.286-8.535 6.553a492.369 492.369 0 01-3.615 3.119c-1.343 1.14-1.347 1.153-.7 2.404.414.801.649 2.245.648 3.977-.002 2.53.265 4.333 1.879 12.72 1.467 7.626 2.678 9.495 8.854 13.672l4.531 3.064 5.269.536c2.898.295 6.169.729 7.269.964 6.307 1.346 10.659.907 15.976-1.615 13.317-6.315 15.956-7.364 19.109-7.6 4.157-.312 4.101-.199 2.913-5.843a602.175 602.175 0 01-1.432-6.978c-.235-1.21-1.109-4.27-1.943-6.8-.833-2.53-1.821-5.979-2.195-7.665-.995-4.486-2.927-8.186-6.052-11.591-1.481-1.614-3.063-3.435-3.516-4.048-.453-.612-2.181-1.87-3.842-2.795l-3.018-1.681-6.6-.082c-4.045-.05-7.529.111-9 .417m149.695.483c-.131.131-1.826.376-3.767.543-2.618.227-4.501.689-7.301 1.794-2.075.819-5.153 1.832-6.841 2.252-7.62 1.897-15.298 10.994-16.736 19.83-.21 1.288-1.027 4.143-1.816 6.343-1.004 2.801-1.434 4.677-1.434 6.26 0 1.79-.333 2.984-1.6 5.74-2.552 5.55-2.411 5.8 3.263 5.8 3.481 0 3.684.052 6.288 1.599 1.48.879 4.212 2.114 6.07 2.745 1.858.631 4.537 1.756 5.951 2.501l2.573 1.355 7.827.2c9.073.232 11.528-.112 15.288-2.142 1.397-.755 3.243-1.595 4.102-1.867 1.618-.512 9.424-7.531 10.647-9.573.335-.56 1.163-1.772 1.84-2.695 1.125-1.532 1.253-2.033 1.499-5.838a55.043 55.043 0 012.308-12.766c1.066-3.527 1.121-3.421-4.764-9.189-8.806-8.631-20.96-15.328-23.397-12.892m-132.249 7.245c6.389 3.203 10.769 7.694 12.182 12.488.556 1.886 1.452 4.895 1.991 6.688 1.862 6.186 1.079 10.842-2.529 15.037a131.59 131.59 0 00-3.474 4.242c-.925 1.192-2.175 2.279-3 2.609-.779.312-3.666 1.648-6.416 2.971-8.245 3.965-9.433 4.135-17.077 2.451-.923-.203-2.453-.373-3.4-.378-6.899-.038-11.886-3.231-15.142-9.694l-2.381-4.725v-4.998c0-4.431.113-5.268 1-7.374.55-1.307 1.001-3.056 1.002-3.888.001-1.023.396-2.094 1.221-3.312.67-.99 1.594-2.516 2.053-3.392 2.589-4.942 10.008-9.106 18.268-10.253 1.681-.233 3.146-.514 3.256-.623 1.112-1.106 8.496.17 12.446 2.151m140.358-.079c13.136 9.127 16.378 17.519 12.249 31.71-2.987 10.268-13.787 16.702-27.549 16.414l-6.14-.128-3.382-1.67c-1.86-.919-4.181-1.88-5.158-2.136-6.892-1.807-12.457-13.423-10.057-20.994 4.148-13.084 5.721-15.76 11.058-18.806 1.086-.62 2.335-1.436 2.775-1.814 2.327-1.997 8.568-3.493 16.461-3.945a913.54 913.54 0 006.343-.376c.443-.032 1.973.753 3.4 1.745M134.2 198.379c-.66.18-3.502.348-6.316.374-5.777.053-5.661.013-11.459 3.953-8.353 5.677-10.446 18.483-4.569 27.951 1.988 3.203 2.325 3.406 9.544 5.768 3.289 1.077 4.806 1.341 8.54 1.487l4.539.177 3.261-1.484c1.793-.816 3.89-1.781 4.659-2.145 9.598-4.531 12.68-24.299 4.876-31.274-4.229-3.78-9.594-5.752-13.075-4.807m131 .227c-1.21.289-3.248.737-4.53.995-3.463.698-9.348 6.967-10.508 11.195-.333 1.212-.775 2.617-.983 3.123-.209.505-.379 3.673-.379 7.04v6.121l1.185 1.56c6.543 8.615 7.35 9.015 18.667 9.263 10.326.227 11.379-.432 16.288-10.185 3.181-6.32 3.683-16.69.984-20.328-5.862-7.903-12.553-10.739-20.724-8.784m-126.246 2.646c1.909.87 2.634 4.095 1.463 6.512-3.517 7.266-11.056 5.386-9.359-2.335.978-4.453 3.9-5.998 7.896-4.177m137.057.209c4.151 2.776 4.171 4.489.102 8.839-2.615 2.796-7.358 1.449-7.289-2.07.103-5.176 4.033-8.878 7.187-6.769M186.58 266.82c-6.99 1.452-13.076 8.63-9.095 10.726.487.256 1.465 1.318 2.174 2.36 3.227 4.742 5.858 7.425 9.507 9.694 4.742 2.949 8.834 9.933 8.834 15.078 0 .512.368 2.583.818 4.604.45 2.02.765 4.583.7 5.696L199.4 317l-3.2 1.603c-1.76.881-4.73 2.666-6.6 3.966-4.647 3.231-5.049 3.499-7.893 5.275-2.838 1.772-3.214 2.354-2.226 3.446 1.329 1.469 5.207-.51 10.356-5.285 5.561-5.157 10.721-6.715 14.963-4.517l6.239 3.236c1.931 1.002 4.478 2.811 6.308 4.478 3.22 2.936 3.798 3.196 4.824 2.169.907-.906.816-1.16-1.071-2.99-2.755-2.672-9.826-6.959-15.5-9.399-3.232-1.39-3.6-1.835-3.6-4.358 0-1.963-.801-6.608-2.42-14.024-.432-1.98-.784-3.939-.783-4.353.002-.414-.37-1.356-.825-2.092-1.098-1.777-.876-1.995 2.315-2.274 4.845-.425 9.249-2.289 12.513-5.297.77-.709 2.057-1.716 2.861-2.237.804-.521 2.514-1.759 3.8-2.751s2.842-2.126 3.457-2.521c3.882-2.49.747-8.461-5.918-11.269l-2.8-1.18-13.22-.025c-7.271-.014-13.751.085-14.4.219m29.78 3.69c3.642 1.832 6.079 4.377 5.382 5.621-.443.792-5.816 4.763-8.142 6.018-.99.535-2.25 1.457-2.8 2.051-4.367 4.713-14.761 5.512-21.363 1.643-2.736-1.604-5.758-4.561-7.895-7.729-2.397-3.552-2.392-4.311.034-5.591.977-.516 2.082-1.214 2.456-1.552 2.105-1.905 3.889-2.133 16.768-2.143l12.2-.009 3.36 1.691" fill="#0d0904"/><path d="M40.6 40.32c-.44.091-1.017.342-1.282.557-.266.216-.634.298-.82.184-.185-.115-.577-.06-.87.122-.374.231-.142.416.772.617.827.182 1.127.398.817.589-.269.167 1.377.386 3.659.487 3.397.151 4.572.379 6.49 1.257 2.149.984 2.382 1.017 2.827.408.267-.365.681-.543.919-.396.238.148.546.085.684-.138.138-.224-.029-.407-.372-.407-.343 0-.624-.158-.624-.351 0-.302-1.995-1.33-2.9-1.494-.165-.03-.39-.1-.5-.155a3.781 3.781 0 00-.6-.2c-.22-.055-.535-.144-.7-.197a1.562 1.562 0 00-.642-.036c-.188.033-.583-.138-.876-.382-.546-.453-4.541-.764-5.982-.465m14.2 4.309c0 .125.262.49.583.811.321.321.484.893.362 1.272-.187.584-.155.597.211.088.385-.535.615-.309.495.488-.024.158.315.48.753.714.541.29.796.294.796.012 0-.228.442-.414.982-.414h.982l-.999-.998c-1.472-1.473-4.165-2.748-4.165-1.973m-25.5.659c-.495.239-.9.587-.9.773 0 .187-.257.339-.571.339-.314 0-.942.495-1.396 1.1a63.111 63.111 0 01-1.155 1.504c-.181.222-.318 1.122-.304 2 .042 2.608 1.326 2.273 3.676-.96 1.056-1.454 2.091-2.763 2.3-2.908.219-.152.096-.547-.289-.932-.368-.368-.566-.834-.441-1.036.272-.441.232-.435-.92.12m7.3 1.338c-8.037 5.419-9.288 9.885-8.919 31.838l.17 10.136 1.28 3.618c.765 2.162 1.433 5.059 1.66 7.2.208 1.97.569 4.392.8 5.382.231.99.592 3.42.802 5.4 1.46 13.766 5.703 24.944 10.179 26.814 1.509.631 1.972 1.148 2.494 2.786.886 2.783-.653 3.45-3.171 1.374-.819-.675-1.693-1.099-1.946-.942-.512.316-.214 6.368.452 9.168.209.88.384 2.621.389 3.868.011 2.526 1.776 10.46 2.622 11.784.299.469 1.174 2.449 1.944 4.4.769 1.952 1.775 4.268 2.235 5.148 1.175 2.248.192 8.006-1.643 9.63-.479.423-1.484 2.03-2.232 3.57-.749 1.54-1.607 3.25-1.908 3.8-.897 1.644-2.91 6.087-3.533 7.8-.32.88-1.301 3.49-2.18 5.8-1.59 4.181-2.533 9.6-1.67 9.6.217 0 1.515-.703 2.885-1.563 1.369-.859 3.461-1.847 4.647-2.195 1.187-.348 3.287-1.085 4.668-1.637 3.336-1.335 12.781-1.524 13.908-.279 2.75 3.039.709 6.141-3.974 6.039-1.839-.04-3.166.235-11.219 2.33-4.325 1.125-6.605 1.938-7.968 2.841-1.05.695-2.036 1.264-2.192 1.264-.997 0-1.247 2.744-1.099 12.071.21 13.189.152 13.089 5.873 10.172a518.538 518.538 0 018.083-4l4.637-2.243H64.59c11.375 0 11.977.038 13.263.833 2.418 1.494 2.269 3.83-.286 4.483-.752.192-1.743.698-2.202 1.125-.8.744-1.535.911-8.765 1.993-1.54.231-3.7.789-4.8 1.24-2.204.903-2.816 1.071-9.165 2.511-3.132.71-4.658 1.263-5.4 1.954-1.053.981-3.7 2.796-5.591 3.834-.574.315-2.214.675-3.644.8-3.325.29-3.539 1.816-1.405 10.027.315 1.21.679 2.879.808 3.709.13.83.858 2.7 1.617 4.157.763 1.463 1.38 3.24 1.38 3.973 0 .728.469 2.548 1.042 4.043a367.838 367.838 0 012.156 5.804c1.34 3.718 4.705 9.834 5.704 10.369.396.212 1.811 1.758 3.144 3.436 3.651 4.594 7.557 7.83 11.583 9.598 1.006.442 2.608 1.368 3.56 2.057 1.073.777 2.213 1.254 2.998 1.254 2.081 0 5.316 1.145 10.315 3.651 4.471 2.241 9.792 3.939 12.365 3.946.587.002 3.582 1.353 6.655 3.003 3.073 1.65 5.799 3 6.058 3 .258 0 2.249 1.703 4.424 3.784 5.098 4.879 16.854 10.933 23.396 12.05.88.15 2.086.519 2.68.819.594.301 1.876.547 2.848.547s2.905.363 4.295.807c1.389.444 3.208.916 4.04 1.05.833.133 3.635 1.481 6.226 2.996s5.521 3.041 6.511 3.39c.99.349 3.33 1.329 5.2 2.177 2.198.997 5.168 1.903 8.4 2.56 2.75.56 5.629 1.198 6.397 1.419.769.22 2.659.412 4.2.425 1.542.013 3.703.199 4.803.414 5.015.98 23.086 1.59 29 .979 4.801-.496 10.758-2.406 15.8-5.068.88-.465 3.042-1.588 4.804-2.497 1.762-.909 3.775-2.061 4.473-2.56.699-.5 2.047-1.182 2.997-1.516.949-.334 2.356-1.021 3.126-1.528.77-.506 3.11-1.689 5.2-2.629 2.09-.939 4.25-2.025 4.8-2.413.55-.389 2.89-1.668 5.2-2.845 2.31-1.176 5.1-2.818 6.2-3.649 1.1-.831 2.63-1.712 3.4-1.957.77-.246 2.226-.966 3.235-1.601s2.06-1.154 2.335-1.154c1.029 0 5.727-2.444 9.247-4.811 2.21-1.486 4.219-2.53 5.112-2.655 2.711-.38 6.348-1.752 7.284-2.748.509-.542 1.122-.986 1.361-.986.239 0 1.681-.836 3.204-1.858 4.91-3.294 14.642-8.408 17.422-9.156 1.037-.279 9.796-4.61 14.483-7.161 1.475-.803 3.12-1.947 3.655-2.543.535-.595 1.64-1.802 2.455-2.682.815-.88 1.907-2.146 2.425-2.812 1.052-1.352 4.444-9.505 4.988-11.988 1.382-6.303 3.17-12.847 4.573-16.737 2.082-5.769 1.88-7.853-.759-7.871-2.739-.019-10.731-1.96-12.172-2.957-.796-.551-2.717-1.524-4.267-2.162-1.551-.639-3.531-1.609-4.4-2.156-6.242-3.927-8.135-4.761-9.363-4.126-2.969 1.535-6.018.618-6.018-1.809 0-2.715.262-2.782 10.882-2.782 12.3 0 13.798.31 18.778 3.886 5.912 4.245 8.74 4.999 8.74 2.329 0-.527.45-2.635.999-4.686 2.015-7.523 2.229-7.255-8.895-11.157-4.537-1.592-7.651-3.222-12.084-6.325-2.078-1.456-5.408-3.461-7.4-4.455-6.064-3.029-5.444-4.792 1.686-4.792h4.608l1.843 1.913a160.972 160.972 0 013.243 3.474c2.113 2.356 13.994 7.813 17.012 7.813.929 0 .574-1.803-.986-5-2.104-4.314-2.925-6.371-3.273-8.2-.634-3.333-1.213-8.173-1.484-12.4-.248-3.879-.369-4.344-1.576-6.083-5.056-7.28-5.369-10.738-1.682-18.583 2.31-4.916 3.261-8.539 3.656-13.934.77-10.507 1.137-14.867 1.373-16.3.287-1.738-.425-2.042-1.64-.7-2.337 2.582-3.832-.129-1.566-2.84 1.465-1.754 3.362-5.145 4.677-8.36 1.538-3.76 3.889-11.237 3.889-12.368 0-.649.193-1.687.43-2.306.236-.619.574-1.846.752-2.726.178-.88.885-3.691 1.571-6.247.686-2.556 1.247-5.387 1.247-6.291 0-.904.45-2.839 1-4.3.743-1.976 1.002-3.44 1.006-5.71.004-1.678.267-4.132.586-5.452.445-1.843.583-5.512.594-15.808.019-17.65-.348-19.113-6.333-25.292-2.695-2.782-2.416-2.759-10.694-.876-4.997 1.137-15.731 6.945-23.111 12.507-1.263.951-2.885 1.976-3.604 2.276-.719.301-1.52.802-1.779 1.115-.763.919-6.634 4.249-8.732 4.952-2.21.741-4.189 2.135-7.333 5.164-3.302 3.182-4.689 4.236-8.2 6.228-1.76.999-4.01 2.276-5 2.836-.99.561-3.136 2.11-4.768 3.442-1.633 1.332-3.478 2.534-4.1 2.671-.623.137-1.869.864-2.77 1.617-.901.752-1.877 1.368-2.169 1.368-.292 0-1.04.423-1.662.939-.622.517-1.601 1.192-2.175 1.5-2.303 1.237-4.346 2.797-4.787 3.655-1.524 2.968-3.717 4.067-5.889 2.951-4.373-2.247-17.185-3.299-23.68-1.943-1.21.252-3.338.657-4.729.9-3.619.632-4.413 1.082-4.712 2.674-.139.744-1.118 2.921-2.175 4.838-1.057 1.917-2.486 5.22-3.175 7.34-.689 2.119-1.93 5.179-2.759 6.8-1.448 2.83-3.354 8.435-5.26 15.463-.659 2.429-.894 4.365-.877 7.23.033 5.636-2.619 9.617-4.307 6.464-.58-1.084-.324-17.794.339-22.104.261-1.701.654-5.751.872-9 .446-6.639.989-12.116 1.38-13.907.85-3.904-3.424-4.996-5.869-1.5L207.8 109l-.262 7c-.145 3.85-.457 8.08-.693 9.4-.237 1.32-.608 4.65-.824 7.4-.499 6.359-1.101 11.565-1.679 14.521-.251 1.282-.352 3.672-.226 5.338.381 5.038-2.023 12.742-4.216 13.51-3.633 1.272-4.204-.279-4.95-13.457-.34-6.001-.776-13.342-.968-16.312-.192-2.97-.522-8.28-.733-11.8-.21-3.52-.586-7.66-.834-9.2-.248-1.54-.677-4.514-.953-6.609-.63-4.782-.636-4.791-3.278-4.791-2.563 0-3.061.853-2.181 3.736.646 2.119.928 52.573.297 53.364-.518.651-2.881.646-3.423-.007-.231-.278-.541-2.123-.688-4.1-.147-1.976-.52-4.729-.828-6.118-.309-1.388-.566-4.448-.572-6.8-.011-4.088-.062-4.342-1.168-5.804-1.033-1.363-1.134-1.755-.94-3.63.141-1.374-.067-3.405-.604-5.871-.451-2.074-.922-4.31-1.045-4.97-.124-.66-.416-2.1-.65-3.2-.234-1.1-.687-3.7-1.006-5.777-.319-2.078-.955-5.048-1.413-6.6a300.68 300.68 0 01-1.107-3.823l-.274-1-6.093-.11c-4.47-.081-6.72.052-8.449.5-2.64.684-8.931.763-19.64.248l-6.6-.318-4.2-2.101c-2.31-1.155-4.65-2.52-5.2-3.032-.55-.513-2.017-1.529-3.259-2.259-4.385-2.578-7.391-4.913-11.962-9.297-4.835-4.635-8.175-7.247-16.92-13.228-5.133-3.51-8.008-6.087-12.049-10.799-1.124-1.31-2.604-2.56-3.4-2.871-.776-.303-3.03-1.355-5.01-2.339a186.17 186.17 0 00-7.284-3.384c-2.026-.877-5.126-2.594-6.89-3.816-6.995-4.846-15.189-6.555-19.026-3.968m13 1.458c1.65.765 4.414 2.41 6.142 3.654C57.47 52.982 59.066 54 59.289 54c.551 0 6.726 2.777 12.244 5.505 3.579 1.77 4.883 2.651 6.2 4.191a479.584 479.584 0 004.032 4.627c1.3 1.472 3.13 3.847 4.066 5.277.936 1.43 2.546 3.41 3.577 4.4 1.702 1.632 3.596 3.914 6.104 7.35.502.688 1.492 2.773 2.2 4.633 1.093 2.872 1.663 3.75 3.763 5.8 4.815 4.702 4.925 4.919 4.925 9.718v4.191l-1.4 1.282c-1.365 1.25-1.4 1.36-1.4 4.322 0 3.873-.155 4.227-2.242 5.122-3.317 1.422-9.929 7.572-13.558 12.611-.66.916-3.535 4.117-6.389 7.113-2.854 2.995-5.309 5.772-5.457 6.171-.147.398-1.862 2.341-3.811 4.318-1.949 1.976-4.353 4.721-5.343 6.1-.99 1.379-2.36 3.173-3.045 3.988-.686.814-1.544 2.064-1.909 2.777-.364.713-1.081 1.571-1.593 1.906-1.304.854-1.811 2.184-2.104 5.514-.476 5.405-1.09 6.025-5.735 5.805l-2.562-.121-1.046-1.8c-.575-.99-1.465-3.06-1.978-4.6-.512-1.54-1.427-3.79-2.033-5-1.913-3.821-2.269-5.635-4.261-21.7-.274-2.205-.243-2.221 1.704-.9 1.727 1.172 2.432 1.241 3.431.338 1.54-1.394.183-5.546-2.108-6.446-3.348-1.315-6.395-6.84-7.542-13.677-.452-2.69-1.162-6.268-1.579-7.952-.416-1.685-.869-4.053-1.006-5.263s-.503-3.55-.812-5.2a173.06 173.06 0 01-1.017-6.2c-.25-1.76-.885-4.55-1.411-6.2-1.515-4.758-1.794-7.294-1.794-16.317 0-19.367 1.178-23.236 8.6-28.261 2.442-1.653 8.272-1.347 12.6.662m313.825.123c-.145.774-.154 1.584-.021 1.8.373.602 3.102.501 2.879-.107-.1-.275-.43-.452-.733-.394-.302.058-.19-.177.25-.523.775-.608.766-.622-.291-.434-.599.107-1.073.072-1.052-.077.272-1.952-.67-2.194-1.032-.265m-3.256 3.515c5.415 5.717 5.852 7.47 6.118 24.522.189 12.097.151 13.043-.643 16.271-.47 1.906-.844 4.727-.844 6.356 0 1.99-.265 3.625-.826 5.101-.454 1.195-.981 3.535-1.171 5.201-.313 2.744-.916 5.316-3.241 13.827-.42 1.54-.764 3.132-.763 3.537.004 2.596-5.558 15.979-7.899 19.005-2.819 3.644-1.848 6.296 1.859 5.081.918-.301.946-.257.655 1.031-.167.74-.452 3.506-.632 6.146-.723 10.572-1.882 17.615-3.204 19.474-.42.591-1.31 2.148-1.976 3.46-1.444 2.842-1.495 2.866-6.019 2.866-3.479 0-5.183-.674-5.183-2.048 0-.164-.36-.412-.8-.552-.945-.3-1.467-1.187-2.198-3.731a376.941 376.941 0 00-1.586-5.269 475.284 475.284 0 01-1.844-6.135c-.437-1.505-1.259-3.652-1.826-4.771-.567-1.119-1.302-2.948-1.634-4.064-.331-1.116-1.236-3.287-2.01-4.824-.774-1.538-1.613-3.504-1.863-4.368-.357-1.232-.732-1.666-1.734-2.005-1.394-.472-3.08-2.798-4.726-6.518-2.366-5.35-13.985-15.563-19.979-17.561-3.172-1.057-7.797-3.523-10.348-5.518-1.292-1.01-2.698-1.836-3.126-1.836-2.708 0-4.326-3.265-4.326-8.728 0-5.028.563-5.996 4.755-8.181 3.384-1.763 7.675-5.053 10.853-8.321 1.214-1.248 2.762-2.607 3.441-3.02 1.471-.895 5.724-4.614 9.11-7.967 2.9-2.871 5.074-4.452 10.441-7.594 2.2-1.287 4.591-2.847 5.314-3.465.723-.618 1.551-1.124 1.84-1.124.29 0 1.749-.925 3.243-2.057 5.859-4.435 18.72-11.44 22.603-12.311.99-.222 2.79-.659 4-.971 3.743-.966 4.346-.862 6.169 1.061M23.013 78.9c-.227.702-.051 4.195.225 4.471.126.126.251.004.279-.271.028-.275.168-.992.312-1.593.144-.602.123-1.412-.047-1.8-.17-.389-.28-.842-.246-1.007.108-.507-.351-.332-.523.2M370 100.621c0 3.376-.014 3.426-1.105 3.806-1.193.416-1.992 1.828-2.378 4.205-.162 1.002-.103 1.406.182 1.231.451-.279 1.401 1.904 1.002 2.303-.129.129-.036.234.206.234.278 0 .428-.94.406-2.546-.038-2.863.864-4.939 1.586-3.648.255.455.404-.891.46-4.166.046-2.662-.016-4.84-.138-4.84-.121 0-.221 1.539-.221 3.421m-198.025-2.205c-.255.157.453.503 1.584.774 1.124.27 2.144.652 2.266.85.832 1.347 5.695-.143 5.762-1.766.016-.394-8.96-.261-9.612.142m13.7.884l.125 1.3 4.124-.085c3.752-.077 4.192-.167 4.886-1 1.216-1.457 1.054-1.515-4.235-1.515h-5.026l.126 1.3m-35.02-.222c-.365.365-1.209.493-3.746.566-1.15.034-1.998.212-1.883.398.114.185 1.173.263 2.351.172 1.747-.134 2.274-.021 2.845.611.745.822 3.778 1.124 3.778.375 0-.22.36-.76.8-1.2.44-.44.755-.809.7-.82-1.954-.398-3.639-.365-4.189.081-.467.379-.575.39-.364.039.325-.542.156-.67-.292-.222M26.509 101.6c0 .99.078 1.395.173.9a5.661 5.661 0 000-1.8c-.095-.495-.173-.09-.173.9m183.702-1.218c-.123.2-.037.478.192.62.477.295 2.965-.168 2.642-.491-.394-.394-2.608-.495-2.834-.129m2.032 24.646c.247.986.129 2.118-.728 6.972-.213 1.21-.506 6.606-.651 11.991l-.264 9.791-1.096.385c-3.243 1.138-4.673-1.312-3.935-6.741.88-6.468 1.195-9.518 1.635-15.786.517-7.369.623-7.64 3.002-7.64 1.577 0 1.808.117 2.037 1.028m-20.251.751c.205.539.57 4.544.811 8.9.24 4.357.605 10.801.81 14.321.417 7.148.366 7.574-.853 7.187-.464-.147-1.652-.041-2.64.235-1.503.421-1.855.412-2.16-.059-.819-1.267-.241-30.369.616-30.996 1.275-.931 2.984-.725 3.416.412m-15.635 1.121c.231.715.54 2.11.687 3.1l.268 1.8-.956-.845c-1.312-1.159-3.447-1.812-4.983-1.524-1.708.321-2.026-.328-.986-2.01 1.004-1.625 1.258-1.748 3.682-1.789 1.766-.03 1.892.039 2.288 1.268m47.358 1.495c.114.438.65.964 1.192 1.17 2.342.89 2.023 1.671-2.595 6.369-3.178 3.233-3.382 3.005-1.866-2.091 1.52-5.109 2.8-7.242 3.269-5.448m-49.45 6.654c5.085 6.001 4.842 5.537 5.15 9.799.134 1.844.5 4.558.814 6.031.991 4.649.818 6.321-.655 6.321-.675 0-1.575.186-2 .414-1.009.54-2.283-.123-2.787-1.449-.535-1.405-1.467-1.617-2.569-.582-2.123 1.995-13.818-1.998-13.818-4.718 0-.761 2.696-8.682 3.494-10.265 3.414-6.776 9.152-9.351 12.371-5.551m53.36 3.797c.249.465.369 1.41.268 2.1-.101.69-.01 1.637.203 2.105.643 1.412-.689 3.749-2.138 3.749-.875 0-1.367.334-2.054 1.395-.497.767-1.205 1.397-1.573 1.4-.368.003-1.231.477-1.917 1.055-1.674 1.408-1.772 1.146-.776-2.078 2.114-6.846 6.603-12.312 7.987-9.726m134.628 3.034c-.124.124.039.601.361 1.062.322.46.589 1.201.592 1.647.005.634.084.687.365.244.233-.368.144-.896-.252-1.5-.336-.513-.431-.933-.211-.933 1.154 0 1.773 2.036.859 2.829-.489.424-.71.771-.49.771.626 0 1.829-1.505 1.556-1.947-.135-.219-.05-.519.19-.667.268-.166.077-.456-.493-.749-1.494-.771-2.236-.998-2.477-.757m-.253 2.296c0 .563-.013 1.155-.03 1.314-.016.159.208.353.5.43.351.093.327-.002-.07-.283-.407-.288-.439-.427-.1-.431.594-.007.674-1.451.1-1.806-.227-.14-.4.196-.4.776M41.757 173.833c.134.348.243.898.243 1.223 0 .325.18.48.4.344.337-.208.617 1.228.447 2.3-.091.576.328.294.759-.511.347-.649.27-1.021-.386-1.854-.451-.574-.82-1.289-.82-1.589 0-.3-.199-.546-.443-.546-.243 0-.333.285-.2.633m314.633 1.593c-.214.564-.39 1.117-.39 1.229 0 .523-1.2 1.389-1.212.874-.008-.332-.165-.266-.422.174-.225.387-.299.882-.164 1.1.135.218.035.397-.221.397-.267 0-.36.279-.217.651.139.362-.009.85-.335 1.1-.322.247-.688.989-.813 1.649-.181.951-.15 1.034.15.4.332-.702.381-.651.406.42.015.671-.197 1.459-.472 1.752-.275.292-.012.222.584-.156.9-.571 1.572-1.603 1.702-2.616.015-.11.169-.425.344-.7.174-.275.196-.5.048-.5-.149 0-.003-.408.324-.906.573-.875.848-1.848 1.297-4.594.254-1.556-.067-1.7-.609-.274m-210.163 3.571c3.848 1.173 8.253 4.808 9.995 8.247.537 1.06 1.514 2.538 2.17 3.286 2.821 3.212 5.344 8.282 6.007 12.07.27 1.54.991 4.6 1.604 6.8.613 2.2 1.336 5.08 1.607 6.4.719 3.497 1.529 6.755 2.624 10.545 1.298 4.493 1.287 7.465-.034 9.255-.55.745-1 1.833-1 2.416 0 1.758-1.11 2.3-7.222 3.525-3.221.646-6.397 1.524-7.178 1.984-.77.455-2.75 1.346-4.4 1.981-1.65.635-4.693 2.166-6.761 3.403l-3.762 2.248-10.438-.217c-5.742-.119-11.069-.378-11.839-.576-.77-.198-2.706-.361-4.302-.362-4.177-.003-15.298-3.178-15.298-4.367 0-.19-.601-1.22-1.336-2.29-.735-1.07-1.661-2.935-2.059-4.145-.397-1.21-1.123-2.681-1.613-3.27-.608-.731-1.162-2.44-1.75-5.4-1.173-5.909-1.904-8.929-3.129-12.93-.796-2.6-1.083-4.534-1.216-8.219l-.175-4.819 3.079-4.181c5.326-7.231 12.832-14.134 18.941-17.419l5.058-2.721 5.2-.325c8.313-.521 12.328-.947 13.4-1.422 2.019-.895 10.224-.596 13.827.503m146.507 3.703c3.568 1.993 13.422 10.821 15.008 13.446.417.69 2.084 2.597 3.706 4.237 3.761 3.808 4.427 7.429 2.227 12.111-.44.938-.931 2.156-1.09 2.706-.159.55-.806 2.03-1.437 3.289-.631 1.258-1.149 2.518-1.15 2.8-.001.281-.447 1.591-.99 2.911-.544 1.32-.993 2.914-.999 3.542-.052 6.369-4.163 11.474-14.135 17.552-1.719 1.048-3.709 2.35-4.422 2.894-3.847 2.934-7.38 3.529-21.052 3.543-17.52.019-20.222-.518-24.851-4.941-2.273-2.171-3.97-3.432-5.281-3.924-1.478-.555-2.139-1.096-2.812-2.296-.872-1.557-.904-1.572-3.86-1.837-4.637-.415-5.599-1.66-5.587-7.227.007-3.295.172-4.461.838-5.906 1.133-2.461 1.912-4.913 2.547-8.02.723-3.538 4.507-11.217 6.987-14.18 1.105-1.32 2.356-3.037 2.779-3.816 1.816-3.338 12.543-11.584 15.07-11.584.488 0 2.211-.558 3.829-1.241 11.937-5.035 15.434-5.88 24.507-5.925l6.765-.034 3.403 1.9M124.6 186.4c-.44.189-1.218.356-1.728.372-2.027.061-7.065 2.57-9.272 4.618-2.214 2.055-4.396 3.741-9.215 7.123-1.438 1.01-2.968 2.229-3.4 2.71-.432.48-2.09 1.858-3.685 3.061-2.962 2.234-3.659 3.597-2.453 4.803.245.245.598 2.627.783 5.291.185 2.665.453 5.033.596 5.264.143.231.408 1.531.591 2.889 1.194 8.884 3.507 13.606 7.912 16.15 1.029.595 2.815 1.785 3.968 2.646 2.218 1.655 2.359 1.689 11.103 2.657 1.76.195 4.163.568 5.341.827 1.29.285 3.913.398 6.6.283 4.855-.206 5.58-.441 13.781-4.467 2.047-1.005 3.937-1.828 4.2-1.828.263-.001 1.108-.386 1.878-.856 2.577-1.571 6.307-2.743 8.733-2.743 3.688 0 4.381-1.062 3.305-5.061-.231-.855-.95-4.071-1.598-7.147-.649-3.075-1.643-6.852-2.21-8.392-.567-1.54-1.398-4.573-1.846-6.74-1.657-8.004-7.884-16.477-14.817-20.16l-3.201-1.7-7.283.028c-4.006.016-7.643.183-8.083.372m18.151 1.894c1.623.828 3.269 1.866 3.658 2.306.389.44 2.154 2.367 3.923 4.283 3.72 4.03 5.605 7.573 6.656 12.517.375 1.76 1.285 5 2.024 7.2 1.173 3.493 2.079 7.307 3.862 16.251.649 3.256.516 3.411-3.141 3.632-3.242.197-2.872.062-13.733 5.012-1.21.552-3.46 1.603-5 2.338-5.475 2.61-11.157 3.371-16 2.142-1.46-.37-3.123-.594-11.051-1.487-2.236-.251-3.02-.565-5-1.998-1.292-.935-2.996-2.048-3.787-2.472-4.071-2.183-6.316-6.763-7.558-15.418a86.518 86.518 0 00-.808-4.6c-.256-1.21-.614-3.73-.797-5.6-.183-1.87-.453-3.862-.599-4.426-.233-.904.013-1.237 2.067-2.791a84.682 84.682 0 004.415-3.628c1.145-1.025 3.566-2.903 5.38-4.174 1.814-1.271 4.413-3.349 5.776-4.617 2.628-2.444 4.322-3.448 7.562-4.48 4.07-1.297 4.948-1.403 12-1.449l7.2-.047 2.951 1.506M271 187.265c-1.54.19-5.5 1.232-8.8 2.317-3.3 1.084-6.63 2.089-7.4 2.234-1.843.346-4.57 1.92-6.8 3.925-3.653 3.284-9.2 12.97-9.2 16.063 0 .499-.697 2.952-1.549 5.452-.937 2.747-1.637 5.651-1.771 7.344-.166 2.116-.618 3.664-1.85 6.34-2.666 5.791-2.287 6.515 3.317 6.326l3.815-.128 3.385 1.845c1.862 1.014 4.933 2.368 6.824 3.007 1.891.64 3.932 1.51 4.534 1.935 2.916 2.055 16.587 2.99 22.175 1.516 6.934-1.829 17.796-9.372 20.22-14.041.343-.66 1.159-1.866 1.813-2.681 1.104-1.374 1.201-1.762 1.339-5.381.149-3.886.761-7.558 1.957-11.738.346-1.21.734-3.058.862-4.106l.232-1.905-4.152-4.235c-8.726-8.902-18.361-14.673-24.195-14.494-1.076.033-3.216.216-4.756.405m9.733 1.378c4.881 1.659 11.318 6.155 17.367 12.13 5.799 5.728 5.621 5.269 4.147 10.709-1.612 5.944-1.878 7.435-2.026 11.344-.078 2.076-.16 3.892-.182 4.036-.021.144-.669 1.016-1.439 1.938-.77.922-1.4 1.899-1.4 2.171 0 .775-8.604 8.88-10.07 9.486-.722.299-2.664 1.244-4.317 2.101-6.626 3.436-21.84 3.838-26.903.71-.72-.445-3.101-1.449-5.29-2.231-2.189-.782-5.069-2.1-6.4-2.929-2.302-1.433-2.623-1.517-6.578-1.708-5.466-.263-5.521-.35-3.311-5.263 1.167-2.594 1.682-4.288 1.685-5.537.004-2.077.25-3.069 2.175-8.777.775-2.298 1.409-4.586 1.409-5.085 0-2.703 5.039-11.669 8.454-15.041 2.131-2.105 4.933-3.649 7.746-4.268 1.32-.29 4.494-1.31 7.053-2.267 7.145-2.67 13.026-3.169 17.88-1.519m-148.106 13.459c-3.542 5.407.181 12.427 4.745 8.946 3.165-2.413 4.136-6.777 1.987-8.925-1.35-1.351-5.851-1.365-6.732-.021m139.332.01c-2.843 1.909-3.588 6.896-1.266 8.474 2.573 1.748 5.392.447 7.587-3.501 1.82-3.274-3.094-7.139-6.321-4.973m85.541 4.121c-.165.165-.3 1.181-.3 2.257 0 1.203-.154 1.862-.4 1.71-.528-.326-.495.572.155 4.256.581 3.298 1.19 4.464 2.445 4.684.44.077.948.347 1.13.6.181.253.21-.26.064-1.14-.146-.88-.45-1.823-.675-2.095-.224-.272-.312-.745-.195-1.051.117-.306.004-.766-.251-1.021-.256-.256-.481-1.145-.501-1.977-.02-.832-.167-1.725-.328-1.984-.16-.26-.195-.628-.077-.818.31-.503-.711-3.778-1.067-3.421M29.215 210.8c-.525 1.649-.419 7.2.137 7.2.356 0 .651-.315.654-.7.005-.598.063-.613.394-.1.27.418.376-.187.347-2-.022-1.43-.138-2.24-.258-1.8-.165.604-.34.358-.714-1-.273-.99-.525-1.71-.56-1.6m-.098 24.222c-.55.919-.255 5.825.321 5.346.309-.256.575-.849.59-1.317.028-.83.037-.831.372-.051.251.583.339.258.325-1.2-.01-1.1-.112-1.64-.228-1.2-.174.664-.29.565-.681-.578-.26-.758-.574-1.208-.699-1M282.4 238.6c-1.151 1.225-.786 1.227 1.8.009l2-.942-1.43-.034c-1.037-.024-1.689.242-2.37.967m-253.194 5.676c-.003.922.177 1.79.401 1.928.223.138.302.419.176.624-.274.443.354.501.784.072.165-.165.465-.3.666-.3.383 0 .392-.04.327-1.5-.038-.863-.053-.859-.36.1l-.32 1-.046-1c-.045-.964-.809-2.615-.834-1.8-.007.22-.187.13-.4-.2-.284-.44-.389-.153-.394 1.076m332.872 5.146c-.432.489-.415.698.1 1.213.563.563.622.505.622-.606 0-1.399-.013-1.41-.722-.607m-43.478 6.506c1.307 1.029 2.364 1.094 3.987.248 1.964-1.024 6.652 1.068 8.174 3.648.563.953 1.104 1.376 1.761 1.376.943 0 4.693 3.751 5.732 5.734 2.438 4.65 3.07 8.871 1.724 11.509-.542 1.062-.934 2.654-1.005 4.077-.16 3.205-1.884 5.673-2.45 3.508-.399-1.528-2.055-1.45-2.904.137-.908 1.696-3.755 2.656-5.2 1.754-.606-.379-.981-.368-1.765.052-.548.293-1.414.428-1.925.299-.511-.128-2.33-.538-4.042-.91l-3.112-.676-.966.907c-1.13 1.062-2.731.877-3.412-.396-.469-.877-1.973-1.059-2.705-.327-.357.357-.857.34-2.113-.075-1.264-.417-1.921-.439-2.832-.096-.845.319-1.532.327-2.393.027-.958-.334-1.53-.276-2.763.28-1.535.692-2.95.683-6.713-.045-1.044-.202-1.524-.067-2.278.641-1.129 1.061-2.801.856-3.197-.392-.156-.49-.847-.951-1.82-1.213-.9-.242-1.768-.793-2.035-1.291-.256-.479-1.346-1.728-2.423-2.777-4.087-3.981-4.331-7.626-.755-11.295 1.303-1.338 3.83-4.052 5.615-6.032 3.098-3.436 3.337-3.612 5.264-3.86 1.395-.18 2.496-.644 3.562-1.5 1.106-.889 1.964-1.24 3.034-1.24.835 0 1.818-.295 2.234-.671.517-.468 1.593-.702 3.556-.772 1.547-.055 3.074-.315 3.392-.579.353-.293 1.159-.387 2.075-.241.964.154 1.854.035 2.498-.333 1.467-.838 4.829-.554 6.2.524m-229.8 2.811c9.785-.204 10.889-.016 12.212 2.08 1.045 1.655 2.666 2.143 3.697 1.112.73-.73 2.164.126 3.915 2.336a67.479 67.479 0 002.903 3.401c1.944 2.079 2.874 7.29 2.178 12.2-.358 2.519-3.489 6.946-5.78 8.172-1.027.55-4.854.281-9.036-.634l-3.311-.724-.969.909c-.667.627-1.254.838-1.889.678-.506-.128-2.321-.537-4.033-.909l-3.112-.676-.965.907c-.786.738-1.231.856-2.402.637-.841-.158-2.005-.064-2.808.226-1.12.405-1.561.395-2.402-.055-.899-.481-1.178-.465-2.176.125-1.487.877-1.635.863-3.409-.341-1.289-.875-1.674-.959-2.756-.606-1.33.435-5.14-.3-5.996-1.156-.232-.232-1.015-.421-1.741-.421-1.268 0-2.92-1.124-2.92-1.987 0-.212-.623-1.01-1.385-1.772-2.248-2.247-2.256-6.882-.017-10.296.524-.8 1.214-2.06 1.532-2.8.319-.74 1.365-2.279 2.325-3.421.96-1.142 2.068-2.537 2.464-3.1.462-.658 1.095-1.024 1.774-1.024.58 0 1.453-.374 1.939-.83 1.855-1.742 4.594-2.176 13.195-2.09 4.385.044 8.423.071 8.973.059m100.67 7.335c2.07.386 2.88.354 5-.201 1.973-.516 3.542-.609 7.13-.425 2.53.13 5.41.228 6.4.219 9.829-.092 19.413 6.969 16.631 12.253-.783 1.488-4.223 4.733-5.388 5.083-1.256.377-6.443 3.738-6.443 4.175 0 1.304-7.784 4.577-12.026 5.057-2.784.315-2.973.491-2.174 2.023.327.628.596 1.694.598 2.369.001.675.258 2.115.57 3.2.905 3.143 2.329 10.908 2.591 14.13l.241 2.958 5.8 2.958c11.274 5.75 16.276 9.965 14.006 11.802-1.362 1.103-1.75.944-5.064-2.077-1.862-1.697-4.348-3.457-6.308-4.465-10.72-5.514-9.618-5.18-12.76-3.864-3.383 1.416-7.49 3.983-8.413 5.257-1.105 1.526-7.718 5.874-8.934 5.874-2.5 0-3.142-2.391-1.027-3.822 10.534-7.127 13.176-8.81 16-10.196l3.3-1.62v-1.857c0-2.188-1.318-9.451-2.487-13.705-1.793-6.522-3.5-8.902-8.425-11.751-2.712-1.568-5.487-4.426-8.541-8.797-.809-1.158-2.073-2.5-2.809-2.982-2.593-1.7-1.65-4.312 3.296-9.132 3.846-3.747 3.232-3.584 9.236-2.464m170.93 3.95c0 .233-.18.312-.4.176-.22-.136-.4-.039-.4.216s-.51.94-1.133 1.524c-1.907 1.784-2.815 6.326-1.71 8.558.703 1.421 1.097 1.51.89.202-.026-.165.103-.3.286-.3.184 0 .355-.225.382-.5.093-.964 1.044-4.502 1.264-4.7.121-.11.258-.56.303-1 .109-1.067.417-2.597.744-3.7.147-.495.156-.9.021-.9-.136 0-.247.191-.247.424M48.805 306.009c.496.927.795 1.015.795.234 0-.307-.274-.663-.609-.791-.497-.191-.532-.088-.186.557m43.868 19.873c-.151.244-.613.354-1.028.246-.415-.109-.871-.01-1.013.22-.142.229-.567.332-.945.229-.378-.104-.057.108.713.471 2.128 1.003 3.715 1.122 3.265.245a9.889 9.889 0 01-.538-1.273c-.121-.39-.27-.436-.454-.138m199.452 3.969c-.116.302-.359.549-.54.549-.181 0-.941.405-1.689.9-1.702 1.127-1.989 3.132-.429 3.003.513-.043.933-.229.933-.414 0-.185.177-.227.394-.092.217.134 1.342-.666 2.5-1.776 1.158-1.111 2.241-2.02 2.406-2.021.165 0 .3-.173.3-.385 0-.617-3.633-.395-3.875.236" fill="#9c8464"/><path d="M37.4 48.036c-6.396 3.388-7.556 6.322-7.581 19.164-.02 10.84.204 12.787 2.391 20.8.511 1.87 1.234 4.57 1.606 6 1.103 4.234 2.985 9.341 3.758 10.2 1.111 1.234 3.805 5.906 4.589 7.958.387 1.013.863 1.842 1.058 1.842.195 0 1.695 1.935 3.333 4.3 1.637 2.365 4.327 5.577 5.977 7.137 2.366 2.238 3.099 3.21 3.47 4.6C58.277 138.558 64.365 144 71.623 144h4.102l4.56-4.7c2.508-2.585 5.301-5.69 6.205-6.9.905-1.21 2.363-3.068 3.24-4.13 2.007-2.429 8.84-8.198 10.584-8.936 1.634-.692 2.086-1.837 2.086-5.286 0-2.584.061-2.754 1.4-3.94 3.296-2.918 1.867-8.844-3.248-13.468-1.861-1.683-2.665-2.768-3.351-4.527-1.197-3.066-3.165-7.014-3.746-7.513-.256-.22-1.392-1.57-2.524-3-1.131-1.43-2.633-3.14-3.336-3.8-.703-.66-2.289-2.73-3.524-4.6-2.406-3.643-4.847-6.762-7.441-9.509-2.12-2.244-11.305-6.938-17.147-8.762-1.08-.338-3.087-1.546-4.6-2.769-5.728-4.632-13.197-6.394-17.483-4.124m315.2 3.762c-2.882.604-10.089 3.717-12.025 5.194-.764.582-2.24 1.43-3.282 1.884-2.41 1.051-5.886 3.148-9.653 5.822-1.627 1.156-3.175 2.102-3.438 2.102-.263 0-.804.36-1.202.8-.399.441-1.832 1.42-3.185 2.177-4.719 2.639-9.775 6.733-18.015 14.588-1.1 1.049-2.72 2.367-3.6 2.93-.88.563-2.5 1.956-3.6 3.096-2.933 3.039-8.017 6.889-11.075 8.385-3.363 1.646-3.925 2.673-3.925 7.172 0 3.234.997 6.308 2.159 6.654.242.072.896.23 1.452.35.556.12 2.086 1.055 3.4 2.077 2.473 1.923 7.215 4.479 9.97 5.373 5.828 1.892 17.668 12.075 20.23 17.398 1.973 4.101 3.512 6.209 4.98 6.822.818.342 1.466.992 1.753 1.76l.911 2.433c.634 1.694 1.405 1.985 5.257 1.985 4.398 0 4.968-.637 6.467-7.228.369-1.623.821-3.135 1.004-3.361.183-.226.607-1.401.942-2.611 1.383-4.991 3.23-9.509 4.67-11.428 2.254-3.003 4.097-6.94 5.979-12.772 1.467-4.547 4.012-11.426 6.466-17.474.418-1.031.763-2.111.766-2.4.003-.289.884-2.442 1.958-4.783 2.936-6.405 3.969-14.156 3.509-26.325-.423-11.202-1.269-12.214-8.873-10.62M131.978 179.985c-1.44.585-3.452.803-9.582 1.036l-7.76.295-4.618 2.399c-2.54 1.32-5.54 3.228-6.666 4.242a407.083 407.083 0 01-4.519 3.988c-2.411 2.093-4.665 4.719-8.797 10.245L88 204.914v3.699c0 2.83.247 4.529 1.053 7.242.579 1.95 1.221 4.355 1.426 5.345.205.99.616 2.7.912 3.8.297 1.1.857 3.688 1.243 5.751.466 2.486.997 4.104 1.576 4.8.48.577 1.184 1.996 1.565 3.154 1.226 3.727 3.556 6.746 5.74 7.438 7.981 2.53 8.683 2.634 20.755 3.071 6.342.23 12.751.516 14.244.636l2.714.219 4.086-2.408c2.247-1.325 5.258-2.846 6.69-3.381 1.432-.534 3.502-1.429 4.6-1.988 1.145-.584 4.298-1.478 7.396-2.098 5.628-1.126 5.984-1.308 5.994-3.063.003-.588.456-1.604 1.006-2.258 1.385-1.646 1.299-3.246-.556-10.33-.856-3.269-1.777-7.023-2.048-8.343-.27-1.32-.933-3.909-1.473-5.753-.539-1.844-1.323-5.149-1.742-7.345-.418-2.196-1.118-4.558-1.556-5.248a62.52 62.52 0 01-1.779-3.078c-.54-1.004-1.641-2.613-2.446-3.576-.805-.963-1.884-2.572-2.398-3.576-3.472-6.777-15.406-10.737-23.024-7.639M273 182.81c-3.117.701-8.581 2.635-14.541 5.149-1.618.683-3.296 1.241-3.729 1.241-2.815 0-12.019 7.089-14.543 11.2-.607.99-1.994 2.833-3.081 4.095-2.144 2.49-6.306 10.907-6.306 12.753 0 1.195-1.519 6.006-2.808 8.894-1.273 2.853-1.058 9.153.352 10.294 1.828 1.479 3.256 1.044 3.256-.992 0-1.221.447-2.654 1.467-4.7 1.209-2.426 1.513-3.543 1.727-6.344.143-1.87.471-3.79.729-4.266.614-1.134 2.296-6.592 2.819-9.148.526-2.57 1.719-5.35 3.252-7.577.663-.964 1.206-1.906 1.206-2.092 0-.186.684-1.248 1.519-2.36 3.462-4.608 6.488-6.768 11.081-7.909 1.54-.383 4.78-1.43 7.2-2.326 4.353-1.612 9.284-2.485 13.8-2.442 5.622.052 15.168 5.802 23.297 14.032 5.36 5.428 5.572 5.891 4.394 9.65-1.329 4.243-2.024 7.96-2.289 12.238-.328 5.289-.371 5.448-1.999 7.397-.772.923-1.403 1.899-1.403 2.168 0 2.851-14.282 12.793-20.4 14.201-5.713 1.315-19.878.363-22.962-1.542-.702-.434-2.888-1.357-4.857-2.051-1.97-.693-4.782-1.961-6.251-2.817-2.713-1.582-7.93-2.329-7.93-1.136 0 1.312 1.309 2.78 2.902 3.254 1.223.364 2.672 1.442 5.178 3.853 3.913 3.765 4.076 3.833 10.92 4.555 15.273 1.611 29.65.268 34.178-3.193.782-.598 2.902-1.987 4.711-3.088 3.02-1.837 7.009-4.882 9.723-7.422 1.146-1.071 3.179-6.819 3.197-9.037.006-.628.455-2.222.999-3.542.543-1.32.989-2.63.99-2.911.001-.282.542-1.582 1.202-2.889.66-1.307 1.202-2.607 1.204-2.889.002-.281.446-1.411.987-2.511.807-1.641.986-2.613.996-5.41l.013-3.41-3.029-2.99c-1.666-1.645-3.296-3.495-3.622-4.113-1.477-2.796-10.353-10.617-14.987-13.204L288.923 182l-6.361.046c-4.525.032-7.286.253-9.562.764m-128.964 4.63c1.96 1.013 3.564 2.011 3.564 2.218 0 .208 1.601 2.035 3.558 4.06 4.124 4.268 6.512 8.448 7.243 12.682.247 1.43 1.076 4.58 1.842 7s1.917 6.92 2.557 10c.64 3.08 1.352 6.229 1.582 6.997 1.205 4.029.226 5.249-4.499 5.608-3.204.243-6.222 1.155-7.536 2.276-.359.307-1.324.743-2.145.969-.82.227-3.857 1.55-6.747 2.94-8.32 4.002-11.477 4.547-18.455 3.185-1.76-.343-5.588-.868-8.506-1.167-3.744-.382-5.64-.758-6.439-1.275l-3.693-2.396c-6.034-3.916-8.111-7.048-9.507-14.337-1.869-9.758-2.055-10.98-2.055-13.463 0-1.653-.212-2.864-.587-3.361-1.201-1.586-.777-2.812 1.611-4.657a107.945 107.945 0 004.5-3.729c1.252-1.105 3.536-2.893 5.076-3.974a81.218 81.218 0 008.356-6.746c1.605-1.474 5.338-3.196 8.844-4.078 1.235-.311 5.035-.52 9.936-.548l7.937-.044 3.563 1.84" fill="#dcbcb4"/><path d="M37 47.422c-7.422 5.025-8.6 8.894-8.6 28.261 0 9.023.279 11.559 1.794 16.317.526 1.65 1.161 4.44 1.411 6.2.25 1.76.708 4.55 1.017 6.2.309 1.65.675 3.99.812 5.2s.59 3.578 1.006 5.263c.417 1.684 1.127 5.262 1.579 7.952 1.147 6.837 4.194 12.362 7.542 13.677 2.291.9 3.648 5.052 2.108 6.446-.999.903-1.704.834-3.431-.338-1.947-1.321-1.978-1.305-1.704.9 1.992 16.065 2.348 17.879 4.261 21.7.606 1.21 1.521 3.46 2.033 5 .513 1.54 1.403 3.61 1.978 4.6l1.046 1.8 2.562.121c4.645.22 5.259-.4 5.735-5.805.293-3.33.8-4.66 2.104-5.514.512-.335 1.229-1.193 1.593-1.906.365-.713 1.223-1.963 1.909-2.777.685-.815 2.055-2.609 3.045-3.988.99-1.379 3.394-4.124 5.343-6.1 1.949-1.977 3.664-3.92 3.811-4.318.148-.399 2.603-3.176 5.457-6.171 2.854-2.996 5.729-6.197 6.389-7.113 3.629-5.039 10.241-11.189 13.558-12.611 2.087-.895 2.242-1.249 2.242-5.122 0-2.962.035-3.072 1.4-4.322l1.4-1.282v-4.191c0-4.799-.11-5.016-4.925-9.718-2.1-2.05-2.67-2.928-3.763-5.8-.708-1.86-1.698-3.945-2.2-4.633-2.508-3.436-4.402-5.718-6.104-7.35-1.031-.99-2.641-2.97-3.577-4.4-.936-1.43-2.766-3.805-4.066-5.277a479.584 479.584 0 01-4.032-4.627c-1.317-1.54-2.621-2.421-6.2-4.191C66.015 56.777 59.84 54 59.289 54c-.223 0-1.819-1.018-3.547-2.262-7.085-5.101-14.918-6.905-18.742-4.316m12.6 1.301c1.43.697 3.807 2.244 5.283 3.437 1.513 1.223 3.52 2.431 4.6 2.769 5.842 1.824 15.027 6.518 17.147 8.762 2.594 2.747 5.035 5.866 7.441 9.509 1.235 1.87 2.821 3.94 3.524 4.6.703.66 2.205 2.37 3.336 3.8 1.132 1.43 2.268 2.78 2.524 3 .581.499 2.549 4.447 3.746 7.513.686 1.759 1.49 2.844 3.351 4.527 5.115 4.624 6.544 10.55 3.248 13.468-1.339 1.186-1.4 1.356-1.4 3.94 0 3.449-.452 4.594-2.086 5.286-1.744.738-8.577 6.507-10.584 8.936a132.463 132.463 0 00-3.24 4.13c-.904 1.21-3.697 4.315-6.205 6.9l-4.56 4.7h-4.102c-7.258 0-13.346-5.442-15.622-13.963-.371-1.39-1.104-2.362-3.47-4.6-1.65-1.56-4.34-4.772-5.977-7.137-1.638-2.365-3.138-4.3-3.333-4.3-.195 0-.671-.829-1.058-1.842-.784-2.052-3.478-6.724-4.589-7.958-.773-.859-2.655-5.966-3.758-10.2-.372-1.43-1.095-4.13-1.606-6-2.187-8.013-2.411-9.96-2.391-20.8.019-9.693.065-10.301.921-12.234 3.12-7.039 11.523-9.821 18.86-6.243m314.91-.728c.031.412.244.717.473.677.229-.039.382.123.339.361-.043.239.182.434.5.434s.578-.15.578-.334c0-.183-.18-.333-.4-.333-.22 0-.4-.251-.4-.557 0-.307-.258-.656-.573-.777-.382-.147-.555.031-.517.529M354 50.661c-1.21.312-3.01.749-4 .971-3.883.871-16.744 7.876-22.603 12.311-1.494 1.132-2.953 2.057-3.243 2.057-.289 0-1.117.506-1.84 1.124-.723.618-3.114 2.178-5.314 3.465-5.367 3.142-7.541 4.723-10.441 7.594-3.386 3.353-7.639 7.072-9.11 7.967-.679.413-2.227 1.772-3.441 3.02-3.178 3.268-7.469 6.558-10.853 8.321-4.192 2.185-4.755 3.153-4.755 8.181 0 5.463 1.618 8.728 4.326 8.728.428 0 1.834.826 3.126 1.836 2.551 1.995 7.176 4.461 10.348 5.518 5.994 1.998 17.613 12.211 19.979 17.561 1.646 3.72 3.332 6.046 4.726 6.518 1.002.339 1.377.773 1.734 2.005.25.864 1.089 2.83 1.863 4.368.774 1.537 1.679 3.708 2.01 4.824.332 1.116 1.067 2.945 1.634 4.064.567 1.119 1.389 3.266 1.826 4.771a475.284 475.284 0 001.844 6.135c.577 1.87 1.29 4.241 1.586 5.269.731 2.544 1.253 3.431 2.198 3.731.44.14.8.388.8.552 0 1.374 1.704 2.048 5.183 2.048 4.524 0 4.575-.024 6.019-2.866.666-1.312 1.556-2.869 1.976-3.46 1.322-1.859 2.481-8.902 3.204-19.474.18-2.64.465-5.406.632-6.146.291-1.288.263-1.332-.655-1.031-3.707 1.215-4.678-1.437-1.859-5.081 2.341-3.026 7.903-16.409 7.899-19.005-.001-.405.343-1.997.763-3.537 2.325-8.511 2.928-11.083 3.241-13.827.19-1.666.717-4.006 1.171-5.201.561-1.476.826-3.111.826-5.101 0-1.629.374-4.45.844-6.356.794-3.228.832-4.174.643-16.271-.266-17.052-.703-18.805-6.118-24.522-1.823-1.923-2.426-2.027-6.169-1.061m5.564 1.5c1.812 1.93 2.532 11.652 1.663 22.457-.621 7.723-.919 9.011-3.263 14.125-1.074 2.341-1.955 4.494-1.958 4.783-.003.289-.348 1.369-.766 2.4-2.454 6.048-4.999 12.927-6.466 17.474-1.882 5.832-3.725 9.769-5.979 12.772-1.44 1.919-3.287 6.437-4.67 11.428-.335 1.21-.759 2.385-.942 2.611-.183.226-.635 1.738-1.004 3.361-1.499 6.591-2.069 7.228-6.467 7.228-3.852 0-4.623-.291-5.257-1.985l-.911-2.433c-.287-.768-.935-1.418-1.753-1.76-1.468-.613-3.007-2.721-4.98-6.822-2.562-5.323-14.402-15.506-20.23-17.398-2.755-.894-7.497-3.45-9.97-5.373-1.314-1.022-2.844-1.957-3.4-2.077-.556-.12-1.21-.278-1.452-.35-1.162-.346-2.159-3.42-2.159-6.654 0-4.499.562-5.526 3.925-7.172 3.058-1.496 8.142-5.346 11.075-8.385 1.1-1.14 2.72-2.533 3.6-3.096.88-.563 2.5-1.881 3.6-2.93 8.24-7.855 13.296-11.949 18.015-14.588 1.353-.757 2.786-1.736 3.185-2.177.398-.44.939-.8 1.202-.8s1.811-.946 3.438-2.102c3.767-2.674 7.243-4.771 9.653-5.822 1.042-.454 2.518-1.302 3.282-1.884 5.364-4.091 16.921-7.031 18.989-4.831m9.312 54.353c-.591 1.18-.895 3.486-.459 3.486.191 0 .468-.648.617-1.44.189-1.009.372-1.278.612-.9.238.377.344.215.348-.536.008-1.414-.56-1.724-1.118-.61M208.032 124.74c-.218.407-.59 3.512-.828 6.9-.44 6.268-.755 9.318-1.635 15.786-.738 5.429.692 7.879 3.935 6.741l1.096-.385.264-9.791c.145-5.385.438-10.781.651-11.991 1.327-7.515 1.248-8-1.309-8-1.321 0-1.88.19-2.174.74m-19.456.627c-.857.627-1.435 29.729-.616 30.996.305.471.657.48 2.16.059.988-.276 2.176-.382 2.64-.235 1.219.387 1.27-.039.853-7.187a5555.5 5555.5 0 01-.81-14.321c-.558-10.077-1.211-11.516-4.227-9.312m-16.861.493c-.757.307-2.203 2.874-1.897 3.369.162.263.794.345 1.555.202 1.536-.288 3.671.365 4.983 1.524l.956.845-.268-1.8c-.631-4.247-2.152-5.429-5.329-4.14m50.375 3.44c-1.975 4.206-3.146 9.835-1.79 8.604 5.903-5.36 7.038-7.415 4.607-8.339-.542-.206-1.078-.732-1.192-1.17-.316-1.206-.747-.966-1.625.905m-54.89 5.04c-1.8 1.206-4.167 3.999-5.306 6.26-.798 1.583-3.494 9.504-3.494 10.265 0 2.72 11.695 6.713 13.818 4.718 1.102-1.035 2.034-.823 2.569.582.504 1.326 1.778 1.989 2.787 1.449.425-.228 1.325-.414 2-.414 1.473 0 1.646-1.672.655-6.321-.314-1.473-.68-4.187-.814-6.031-.267-3.689-.495-4.3-2.482-6.648-4.223-4.991-3.857-4.691-5.958-4.884-1.7-.156-2.226-.014-3.775 1.024m57.62 4.76c-1.614 1.489-4.146 6.116-5.182 9.472-.996 3.224-.898 3.486.776 2.078.686-.578 1.549-1.052 1.917-1.055.368-.003 1.076-.633 1.573-1.4.687-1.061 1.179-1.395 2.054-1.395 1.449 0 2.781-2.337 2.138-3.749-.213-.468-.304-1.415-.203-2.105.405-2.754-1.105-3.661-3.073-1.846m138.999 3.065c.425.31.928.468 1.119.35.419-.259-.508-.9-1.314-.909-.408-.004-.35.16.195.559m-1.59.593c-.712.279-.717.322-.071.571.417.16.67.632.627 1.17-.128 1.574-.007 1.661.992.722.918-.862.94-.976.354-1.87-.672-1.026-.742-1.047-1.902-.593m1.477 1.942c-.258.672-.328.579-.676-.9-.264-1.12-.244-1.147.299-.417.32.431.49 1.024.377 1.317M132.4 178.494c-1.072.475-5.087.901-13.4 1.422l-5.2.325-5.058 2.721c-6.109 3.285-13.615 10.188-18.941 17.419l-3.079 4.181.175 4.819c.133 3.685.42 5.619 1.216 8.219 1.225 4.001 1.956 7.021 3.129 12.93.588 2.96 1.142 4.669 1.75 5.4.49.589 1.216 2.06 1.613 3.27.398 1.21 1.324 3.075 2.059 4.145.735 1.07 1.336 2.1 1.336 2.29 0 1.189 11.121 4.364 15.298 4.367 1.596.001 3.532.164 4.302.362.77.198 6.097.457 11.839.576l10.438.217 3.762-2.248c2.068-1.237 5.111-2.768 6.761-3.403 1.65-.635 3.63-1.526 4.4-1.981.781-.46 3.957-1.338 7.178-1.984 6.112-1.225 7.222-1.767 7.222-3.525 0-.583.45-1.671 1-2.416 1.321-1.79 1.332-4.762.034-9.255-1.095-3.79-1.905-7.048-2.624-10.545-.271-1.32-.994-4.2-1.607-6.4s-1.334-5.26-1.604-6.8c-.663-3.788-3.186-8.858-6.007-12.07-.656-.748-1.633-2.226-2.17-3.286-1.742-3.439-6.147-7.074-9.995-8.247-3.603-1.099-11.808-1.398-13.827-.503m12.957 1.552c4.233 1.259 7.872 4.118 9.645 7.578.514 1.004 1.593 2.613 2.398 3.576.805.963 1.906 2.572 2.446 3.576a62.52 62.52 0 001.779 3.078c.438.69 1.138 3.052 1.556 5.248.419 2.196 1.203 5.501 1.742 7.345.54 1.844 1.203 4.433 1.473 5.753.271 1.32 1.192 5.074 2.048 8.343 1.855 7.084 1.941 8.684.556 10.33-.55.654-1.003 1.67-1.006 2.258-.01 1.755-.366 1.937-5.994 3.063-3.098.62-6.251 1.514-7.396 2.098-1.098.559-3.168 1.454-4.6 1.988-1.432.535-4.443 2.056-6.69 3.381l-4.086 2.408-2.714-.219c-1.493-.12-7.902-.406-14.244-.636-12.072-.437-12.774-.541-20.755-3.071-2.184-.692-4.514-3.711-5.74-7.438-.381-1.158-1.085-2.577-1.565-3.154-.579-.696-1.11-2.314-1.576-4.8-.386-2.063-.946-4.651-1.243-5.751-.296-1.1-.707-2.81-.912-3.8-.205-.99-.847-3.395-1.426-5.345-.806-2.713-1.053-4.412-1.053-7.242v-3.699l2.036-2.724c4.132-5.526 6.386-8.152 8.797-10.245a407.083 407.083 0 004.519-3.988c1.126-1.014 4.126-2.922 6.666-4.242l4.618-2.399 7.76-.295c6.13-.233 8.142-.451 9.582-1.036 2.706-1.101 9.579-1.07 13.379.061m127.243 1.553c-3.126.714-8.632 2.668-14.541 5.16-1.618.683-3.341 1.241-3.829 1.241-2.527 0-13.254 8.246-15.07 11.584-.423.779-1.674 2.496-2.779 3.816-2.48 2.963-6.264 10.642-6.987 14.18-.635 3.107-1.414 5.559-2.547 8.02-.666 1.445-.831 2.611-.838 5.906-.012 5.567.95 6.812 5.587 7.227 2.956.265 2.988.28 3.86 1.837.673 1.2 1.334 1.741 2.812 2.296 1.311.492 3.008 1.753 5.281 3.924 4.629 4.423 7.331 4.96 24.851 4.941 13.672-.014 17.205-.609 21.052-3.543.713-.544 2.703-1.846 4.422-2.894 9.972-6.078 14.083-11.183 14.135-17.552.006-.628.455-2.222.999-3.542.543-1.32.989-2.63.99-2.911.001-.282.519-1.542 1.15-2.8.631-1.259 1.278-2.739 1.437-3.289.159-.55.65-1.768 1.09-2.706 2.2-4.682 1.534-8.303-2.227-12.111-1.622-1.64-3.289-3.547-3.706-4.237-1.586-2.625-11.44-11.453-15.008-13.446l-3.403-1.9-6.765.034c-5.02.025-7.592.222-9.966.765m18.962 1.874c4.634 2.587 13.51 10.408 14.987 13.204.326.618 1.956 2.468 3.622 4.113l3.029 2.99-.013 3.41c-.01 2.797-.189 3.769-.996 5.41-.541 1.1-.985 2.23-.987 2.511-.002.282-.544 1.582-1.204 2.889-.66 1.307-1.201 2.607-1.202 2.889-.001.281-.447 1.591-.99 2.911-.544 1.32-.993 2.914-.999 3.542-.018 2.218-2.051 7.966-3.197 9.037-2.714 2.54-6.703 5.585-9.723 7.422-1.809 1.101-3.929 2.49-4.711 3.088-4.528 3.461-18.905 4.804-34.178 3.193-6.844-.722-7.007-.79-10.92-4.555-2.506-2.411-3.955-3.489-5.178-3.853-1.593-.474-2.902-1.942-2.902-3.254 0-1.193 5.217-.446 7.93 1.136 1.469.856 4.281 2.124 6.251 2.817 1.969.694 4.155 1.617 4.857 2.051 3.084 1.905 17.249 2.857 22.962 1.542 6.118-1.408 20.4-11.35 20.4-14.201 0-.269.631-1.245 1.403-2.168 1.628-1.949 1.671-2.108 1.999-7.397.265-4.278.96-7.995 2.289-12.238 1.178-3.759.966-4.222-4.394-9.65-8.129-8.23-17.675-13.98-23.297-14.032-4.516-.043-9.447.83-13.8 2.442-2.42.896-5.66 1.943-7.2 2.326-4.593 1.141-7.619 3.301-11.081 7.909-.835 1.112-1.519 2.174-1.519 2.36 0 .186-.543 1.128-1.206 2.092-1.533 2.227-2.726 5.007-3.252 7.577-.523 2.556-2.205 8.014-2.819 9.148-.258.476-.586 2.396-.729 4.266-.214 2.801-.518 3.918-1.727 6.344-1.02 2.046-1.467 3.479-1.467 4.7 0 2.036-1.428 2.471-3.256.992-1.41-1.141-1.625-7.441-.352-10.294 1.289-2.888 2.808-7.699 2.808-8.894 0-1.846 4.162-10.263 6.306-12.753 1.087-1.262 2.474-3.105 3.081-4.095 2.524-4.111 11.728-11.2 14.543-11.2.433 0 2.111-.558 3.729-1.241 11.724-4.944 15.418-5.851 24.103-5.913l6.361-.046 2.639 1.473M122.6 186.192c-3.506.882-7.239 2.604-8.844 4.078a81.218 81.218 0 01-8.356 6.746c-1.54 1.081-3.824 2.869-5.076 3.974a107.945 107.945 0 01-4.5 3.729c-2.388 1.845-2.812 3.071-1.611 4.657.375.497.587 1.708.587 3.361 0 2.483.186 3.705 2.055 13.463 1.396 7.289 3.473 10.421 9.507 14.337l3.693 2.396c.799.517 2.695.893 6.439 1.275 2.918.299 6.746.824 8.506 1.167 6.978 1.362 10.135.817 18.455-3.185 2.89-1.39 5.927-2.713 6.747-2.94.821-.226 1.786-.662 2.145-.969 1.314-1.121 4.332-2.033 7.536-2.276 4.725-.359 5.704-1.579 4.499-5.608-.23-.768-.942-3.917-1.582-6.997-.64-3.08-1.791-7.58-2.557-10s-1.595-5.57-1.842-7c-.731-4.234-3.119-8.414-7.243-12.682-1.957-2.025-3.558-3.852-3.558-4.06 0-.207-1.604-1.205-3.564-2.218l-3.563-1.84-7.937.044c-4.901.028-8.701.237-9.936.548m20.567 1.508c6.933 3.683 13.16 12.156 14.817 20.16.448 2.167 1.279 5.2 1.846 6.74.567 1.54 1.561 5.317 2.21 8.392.648 3.076 1.367 6.292 1.598 7.147 1.076 3.999.383 5.061-3.305 5.061-2.426 0-6.156 1.172-8.733 2.743-.77.47-1.615.855-1.878.856-.263 0-2.153.823-4.2 1.828-8.201 4.026-8.926 4.261-13.781 4.467-2.687.115-5.31.002-6.6-.283-1.178-.259-3.581-.632-5.341-.827-8.744-.968-8.885-1.002-11.103-2.657-1.153-.861-2.939-2.051-3.968-2.646-4.405-2.544-6.718-7.266-7.912-16.15-.183-1.358-.448-2.658-.591-2.889-.143-.231-.411-2.599-.596-5.264-.185-2.664-.538-5.046-.783-5.291-1.206-1.206-.509-2.569 2.453-4.803 1.595-1.203 3.253-2.581 3.685-3.061.432-.481 1.962-1.7 3.4-2.71 4.819-3.382 7.001-5.068 9.215-7.123 2.207-2.048 7.245-4.557 9.272-4.618.51-.016 1.288-.183 1.728-.372.44-.189 4.077-.356 8.083-.372l7.283-.028 3.201 1.7m137.718.152c5.344 1.773 12.618 6.924 19.066 13.502l4.152 4.235-.232 1.905c-.128 1.048-.516 2.896-.862 4.106-1.196 4.18-1.808 7.852-1.957 11.738-.138 3.619-.235 4.007-1.339 5.381-.654.815-1.47 2.021-1.813 2.681-2.424 4.669-13.286 12.212-20.22 14.041-5.588 1.474-19.259.539-22.175-1.516-.602-.425-2.643-1.295-4.534-1.935-1.891-.639-4.962-1.993-6.824-3.007l-3.385-1.845-3.815.128c-5.604.189-5.983-.535-3.317-6.326 1.232-2.676 1.684-4.224 1.85-6.34.134-1.693.834-4.597 1.771-7.344.852-2.5 1.549-4.953 1.549-5.452 0-3.093 5.547-12.779 9.2-16.063 2.23-2.005 4.957-3.579 6.8-3.925.77-.145 4.1-1.15 7.4-2.234 8.938-2.938 13.711-3.379 18.685-1.73m31.515 67.552c-.644.368-1.534.487-2.498.333-.916-.146-1.722-.052-2.075.241-.318.264-1.845.524-3.392.579-1.963.07-3.039.304-3.556.772-.416.376-1.399.671-2.234.671-1.07 0-1.928.351-3.034 1.24-1.066.856-2.167 1.32-3.562 1.5-1.927.248-2.166.424-5.264 3.86-1.785 1.98-4.312 4.694-5.615 6.032-3.576 3.669-3.332 7.314.755 11.295 1.077 1.049 2.167 2.298 2.423 2.777.267.498 1.135 1.049 2.035 1.291.973.262 1.664.723 1.82 1.213.396 1.248 2.068 1.453 3.197.392.754-.708 1.234-.843 2.278-.641 3.763.728 5.178.737 6.713.045 1.233-.556 1.805-.614 2.763-.28.861.3 1.548.292 2.393-.027.911-.343 1.568-.321 2.832.096 1.256.415 1.756.432 2.113.075.732-.732 2.236-.55 2.705.327.681 1.273 2.282 1.458 3.412.396l.966-.907 3.112.676c1.712.372 3.531.782 4.042.91.511.129 1.377-.006 1.925-.299.784-.42 1.159-.431 1.765-.052 1.445.902 4.292-.058 5.2-1.754.849-1.587 2.505-1.665 2.904-.137.566 2.165 2.29-.303 2.45-3.508.071-1.423.463-3.015 1.005-4.077 1.346-2.638.714-6.859-1.724-11.509-1.039-1.983-4.789-5.734-5.732-5.734-.657 0-1.198-.423-1.761-1.376-1.522-2.58-6.21-4.672-8.174-3.648-1.623.846-2.68.781-3.987-.248-1.371-1.078-4.733-1.362-6.2-.524M69.685 259.27c-1.193.368-2.567 1.043-3.053 1.5-.486.456-1.359.83-1.939.83-.679 0-1.312.366-1.774 1.024-.396.563-1.504 1.958-2.464 3.1-.96 1.142-2.006 2.681-2.325 3.421-.318.74-1.008 2-1.532 2.8-2.239 3.414-2.231 8.049.017 10.296.762.762 1.385 1.56 1.385 1.772 0 .863 1.652 1.987 2.92 1.987.726 0 1.509.189 1.741.421.856.856 4.666 1.591 5.996 1.156 1.082-.353 1.467-.269 2.756.606 1.774 1.204 1.922 1.218 3.409.341.998-.59 1.277-.606 2.176-.125.841.45 1.282.46 2.402.055.803-.29 1.967-.384 2.808-.226 1.171.219 1.616.101 2.402-.637l.965-.907 3.112.676c1.712.372 3.527.781 4.033.909.635.16 1.222-.051 1.889-.678l.969-.909 3.311.724c4.182.915 8.009 1.184 9.036.634 2.291-1.226 5.422-5.653 5.78-8.172.696-4.91-.234-10.121-2.178-12.2a67.479 67.479 0 01-2.903-3.401c-1.751-2.21-3.185-3.066-3.915-2.336-1.031 1.031-2.652.543-3.697-1.112-1.323-2.096-2.427-2.284-12.212-2.08-.55.012-4.588-.015-8.973-.059-6.491-.065-8.376.044-10.142.59" fill="#bc9c84"/><path d="M38.421 42.439c.358.669.828.751 3.893.679l3.486-.083-3.596-.134c-2.086-.078-3.374-.272-3.066-.462.398-.247.324-.382-.297-.544-.71-.186-.769-.108-.42.544m8.014.929c.157.157 2.353.993 4.165 1.586.44.144-.1-.19-1.2-.741-1.721-.863-3.486-1.366-2.965-.845m5.832.899c-.419.419-.312 1.333.157 1.333.233 0 .312-.18.176-.4-.136-.22-.057-.4.176-.4.233 0 .424-.18.424-.4 0-.455-.535-.532-.933-.133m-22.014.847c-.13.21.142.811.604 1.334l.841.952-.294-1c-.369-1.255-.843-1.785-1.151-1.286m9.647.379c.935.084 2.465.084 3.4 0s.17-.153-1.7-.153c-1.87 0-2.635.069-1.7.153m14.767-.026c-.417.416-.313 1.009.128.736.227-.14.294.02.158.376-.131.342-.039.621.204.621.244 0 .446-.225.449-.5.003-.275.228-.064.5.468.272.533.764 1.042 1.094 1.131.533.144.533.116 0-.254-.33-.229-.606-.557-.614-.73-.048-1.057-1.405-2.363-1.919-1.848M32.585 49.7L30.6 51.8l2.1-1.985c1.951-1.844 2.283-2.215 1.985-2.215-.063 0-1.008.945-2.1 2.1M58 48.176c0 .317.211.707.468.866.311.192.385.074.222-.351-.156-.407.001-.706.432-.82.483-.127.42-.192-.222-.225-.538-.027-.9.186-.9.53m304.947.491c-.34 1.355.978 2.591 2.352 2.206.777-.218.708-.282-.499-.466-1.285-.195-1.395-.319-1.341-1.51.072-1.574-.149-1.673-.512-.23M28.678 50c-.822 1.1-1.355 1.998-1.186 1.995.26-.004 1.275-1.351 2.628-3.49.764-1.207-.071-.341-1.442 1.495m325.922-.576c-.88.309-1.15.473-.6.364 4.22-.838 4.332-.819 6.268 1.054 2.358 2.282 4.838 5.614 5.566 7.479.5 1.279.548 1.317.352.279-.308-1.635-2.735-5.16-5.3-7.7-2.341-2.317-3.272-2.536-6.286-1.476m-299.4.761c0 .166 2.971 2.221 4 2.766.33.175.15-.057-.4-.516-1.137-.95-3.6-2.488-3.6-2.25m294.2.215c-1.019.438.032.438 1.4 0 .804-.257.843-.323.2-.332-.44-.006-1.16.143-1.6.332m-8.318 3.564c-3.036 1.486-5.826 3.037-6.2 3.447-.65.71-.647.718.078.167.417-.318 3.387-1.869 6.6-3.446 3.212-1.578 5.66-2.869 5.44-2.869-.22 0-2.883 1.216-5.918 2.701M28.093 58.4c0 .77.082 1.085.183.7.1-.385.1-1.015 0-1.4-.101-.385-.183-.07-.183.7m49.688 4.231c5.508 5.991 7.469 7.747 12.478 11.172 8.745 5.981 12.085 8.593 16.92 13.228 4.571 4.384 7.577 6.719 11.962 9.297 1.242.73 2.709 1.746 3.259 2.259.55.512 2.89 1.877 5.2 3.032l4.2 2.101 6.6.318c10.709.515 17 .436 19.64-.248 1.729-.448 3.979-.581 8.449-.5l6.093.11.274 1c.15.55.649 2.27 1.107 3.823.458 1.552 1.094 4.522 1.413 6.6.319 2.077.772 4.677 1.006 5.777.234 1.1.526 2.54.65 3.2.123.66.594 2.896 1.045 4.97.537 2.466.745 4.497.604 5.871-.194 1.875-.093 2.267.94 3.63 1.106 1.462 1.157 1.716 1.168 5.804.006 2.352.263 5.412.572 6.8.308 1.389.681 4.142.828 6.118.147 1.977.457 3.822.688 4.1.542.653 2.905.658 3.423.007.631-.791.349-51.245-.297-53.364-.88-2.883-.382-3.736 2.181-3.736 2.642 0 2.648.009 3.278 4.791.276 2.095.705 5.069.953 6.609s.624 5.68.834 9.2c.211 3.52.541 8.83.733 11.8.192 2.97.628 10.311.968 16.312.746 13.178 1.317 14.729 4.95 13.457 2.193-.768 4.597-8.472 4.216-13.51-.126-1.666-.025-4.056.226-5.338.578-2.956 1.18-8.162 1.679-14.521.216-2.75.587-6.08.824-7.4.236-1.32.548-5.55.693-9.4l.262-7 1.328-1.9c2.445-3.496 6.719-2.404 5.869 1.5-.391 1.791-.934 7.268-1.38 13.907-.218 3.249-.611 7.299-.872 9-.663 4.31-.919 21.02-.339 22.104 1.688 3.153 4.34-.828 4.307-6.464-.017-2.865.218-4.801.877-7.23 1.906-7.028 3.812-12.633 5.26-15.463.829-1.621 2.07-4.681 2.759-6.8.689-2.12 2.118-5.423 3.175-7.34 1.057-1.917 2.036-4.094 2.175-4.838.299-1.592 1.093-2.042 4.712-2.674 1.391-.243 3.519-.648 4.729-.9 6.495-1.356 19.307-.304 23.68 1.943 2.172 1.116 4.365.017 5.889-2.951.441-.858 2.484-2.418 4.787-3.655.574-.308 1.553-.983 2.175-1.5.622-.516 1.37-.939 1.662-.939.292 0 1.268-.616 2.169-1.368.901-.753 2.147-1.48 2.77-1.617.622-.137 2.467-1.339 4.1-2.671 1.632-1.332 3.778-2.881 4.768-3.442 9.194-5.207 9.206-5.215 13.2-9.064 2.756-2.656 5.05-4.388 6.6-4.982l1.2-.461-1.187.232c-1.525.298-3.371 1.67-7.753 5.761-2.679 2.501-4.8 4.006-8.756 6.213-2.872 1.602-6.44 3.918-7.93 5.147-1.489 1.229-3.353 2.44-4.141 2.691-.788.252-1.883.865-2.433 1.364-.55.498-1.63 1.222-2.4 1.608-.77.386-1.909 1.126-2.531 1.645-.622.519-1.359.944-1.638.944-.279 0-.818.344-1.198.763-.38.42-1.229.987-1.887 1.26-.713.295-1.748 1.357-2.56 2.626-1.599 2.5-2.736 2.961-4.911 1.994-5.249-2.334-16.799-3.372-23.075-2.074-1.54.318-3.97.787-5.4 1.041-4.01.713-5.041 1.266-5.309 2.845-.126.74-1.034 2.748-2.018 4.462-.984 1.715-2.288 4.685-2.897 6.6-.608 1.916-1.795 4.953-2.637 6.75-4.147 8.853-7.287 20.873-6.833 26.154.22 2.564-1.081 4.781-2.489 4.241-.831-.319-.718-20.759.13-23.462.242-.77.617-4.19.834-7.6.218-3.41.617-8.418.887-11.128.607-6.069.537-6.229-2.792-6.391l-2.441-.118-1.408 1.918-1.407 1.919-.01 6.286c-.007 4.418-.183 6.795-.591 8-.319.943-.774 4.504-1.01 7.914-.455 6.573-.946 11.197-1.57 14.8-.209 1.21-.394 4-.41 6.201-.023 3.184-.274 4.857-1.229 8.199-.66 2.309-1.2 4.231-1.2 4.271 0 .494-1.52 1.329-2.419 1.329-2.04 0-2.605-1.869-2.959-9.8-.205-4.593-1.277-21.75-1.986-31.8-.335-4.73-.896-10.22-1.249-12.2-.352-1.98-.763-4.498-.914-5.595-.347-2.538-1.591-3.311-4.441-2.759l-1.832.354.2 9.8c.457 22.383.192 40.993-.611 42.94-.188.456-.116.858.188 1.046 1.155.714.715 3.014-.577 3.014h-1.2l-.447-3.8c-.245-2.09-.677-4.79-.96-6-.283-1.21-.499-2.65-.481-3.2.019-.55.091-2.363.161-4.028.117-2.782.032-3.171-1.035-4.785-.958-1.448-1.181-2.247-1.273-4.558-.062-1.541-.385-4.068-.718-5.616-.538-2.497-1.34-6.813-2.676-14.413-.476-2.705-2.289-9.685-2.753-10.6-.455-.897-11.915-1.056-15.179-.21-2.639.684-8.932.763-19.639.248l-6.6-.318-4.077-2.052c-2.243-1.129-4.673-2.571-5.4-3.205-.728-.634-1.953-1.475-2.723-1.869-3.015-1.544-7.621-5.127-11.655-9.068-4.643-4.533-10.685-9.157-21.632-16.554-1.477-.999-3.457-2.725-4.4-3.835C79.156 63.486 75.899 60 75.62 60c-.141 0 .831 1.184 2.161 2.631M366.468 60.4c.02 1.039.65 2.746.664 1.8.006-.44-.143-1.16-.332-1.6-.211-.49-.339-.568-.332-.2M327.8 62.26c-1.205 1.076-1.295 1.225-.364.603 1.105-.739 2.496-2.087 2.113-2.048-.082.008-.869.658-1.749 1.445M27.693 63.6c0 .77.082 1.085.183.7.1-.385.1-1.015 0-1.4-.101-.385-.183-.07-.183.7m339.596 13.2c-.055 7.37-.193 13.85-.306 14.4l-.206 1 .417-.949c.269-.613.377-5.707.306-14.4l-.111-13.451-.1 13.4M27.29 75.2c-.024 5.61.081 10.903.233 11.762.259 1.462.197-17.509-.067-20.562-.067-.77-.141 3.19-.166 8.8m287.91-5c-.99.53-1.658.972-1.484.982.425.024 3.484-1.548 3.484-1.79 0-.265.017-.272-2 .808M23.5 79.221c.87.938.484 3.836-.442 3.318-.341-.191-.34-.129.002.242.363.394.637.322 1.3-.341.837-.837 1.188-3.24.473-3.24-.202 0-.697-.116-1.1-.259-.6-.212-.642-.161-.233.28m4.513 10.471c-.014.73 1.201 4.027 1.408 3.82.066-.066-.22-1.109-.637-2.316-.417-1.208-.764-1.885-.771-1.504M366.257 93.9c-.137.825-.25 2.784-.253 4.352-.003 2.059-.282 3.592-1.004 5.51-.55 1.461-1 3.421-1 4.355 0 .935-.36 2.998-.8 4.586-.44 1.588-.784 3.114-.764 3.392.089 1.229 1.906-6.091 1.934-7.786.016-1.04.454-3.02.971-4.4.703-1.873.995-3.65 1.152-7.009.223-4.757.168-5.448-.236-3M29.862 95.4c.134.88.31 1.675.391 1.767.303.343.076-1.799-.272-2.567-.252-.558-.288-.315-.119.8m340.536 5.882c-.109 2.574-.057 4.539.116 4.365.173-.173.262-2.28.198-4.681l-.116-4.366-.198 4.682M30.52 99.6c0 1.21.075 1.705.167 1.1a8.899 8.899 0 000-2.2c-.092-.605-.167-.11-.167 1.1m339.159.676c-.106 3.853-.809 4.171-.966.437l-.122-2.913-.195 3.437c-.182 3.188-.143 3.424.538 3.245 1.015-.267 1.124-.73.964-4.119l-.139-2.963-.08 2.876M181.1 99.007c-.886 1.194-.878 1.393.053 1.393.443 0 .85-.368.987-.893.343-1.31-.234-1.587-1.04-.5m4.062-.607c-.889 2.346 2.136 3.474 6.638 2.476 1.298-.288.883-.347-2.2-.315l-3.8.039-.206-1.4c-.121-.824-.299-1.153-.432-.8m9.938.607c-.886 1.194-.878 1.393.053 1.393.443 0 .85-.368.987-.893.343-1.31-.234-1.587-1.04-.5m-22.8.042c.275.12.5.473.5.784 0 .726 3.027.785 3.441.067.158-.275.15-.376-.018-.226-.168.151-.692.133-1.164-.041-1.026-.377-3.477-.896-2.759-.584m-27.944.851c.405.772.825.91 2.958.971l2.486.07-2.8.259-2.8.259 2.441.07c1.343.039 3.531.185 4.863.324l2.421.253.657-1.353c.547-1.128.554-1.224.037-.577-.34.428-.619.923-.619 1.1 0 .691-3.076.324-3.776-.45-.562-.621-1.106-.743-2.754-.621-1.526.114-2.25-.021-2.82-.526-.737-.653-.748-.644-.294.221m65.283.96c-.241.693-.439 1.323-.439 1.4 0 .572 2.735.033 2.893-.571.143-.548-.052-.709-.854-.7-.771.008-1.009-.17-.921-.689.189-1.129-.203-.805-.679.56M31.062 103.8c.134.88.31 1.675.391 1.767.303.343.076-1.799-.272-2.567-.252-.558-.288-.315-.119.8m.978 6.233c.022 1.412.177 3.017.344 3.567.167.55.215-.53.106-2.4-.236-4.066-.506-4.764-.45-1.167m334.248.567c.253 2.724.509 3.399.518 1.367.004-.88.125-1.18.338-.844.182.288.154 1.423-.064 2.523-.302 1.531-.274 2.111.121 2.477.402.371.454.366.234-.023-.155-.275-.124-.5.07-.5.508 0 .326-4.464-.22-5.406-.254-.437-.484-.614-.513-.394-.028.22-.199-.05-.379-.6-.204-.621-.244-.091-.105 1.4m2.205 1.4c0 .77.082 1.085.183.7.1-.385.1-1.015 0-1.4-.101-.385-.183-.07-.183.7m-335.638 4c-.039 1.233 1.415 6.824 1.509 5.797.02-.221-.157-1.031-.393-1.8-.236-.768-.574-2.297-.75-3.397-.275-1.71-.328-1.797-.366-.6m328.776 2.689a207.651 207.651 0 01-1.093 4.129c-.338 1.22-.532 2.66-.431 3.2.16.855.191.823.239-.247.029-.676.3-2.026.6-3 .822-2.67 1.5-5.659 1.322-5.836-.087-.087-.373.702-.637 1.754M34.456 122.8c0 .33.155.96.344 1.4.217.504.344.578.344.2 0-.33-.155-.96-.344-1.4-.217-.504-.344-.578-.344-.2m1.144 4.711c-.001 1.961 4.694 8.694 6.89 9.88 1.556.84 2.31 2.025 2.31 3.628 0 1.378-1.171 1.273-2.615-.235-2.461-2.568-3.586-.343-2.639 5.216.314 1.84.34 1.571.16-1.642-.254-4.525.041-4.954 2.189-3.184 2.518 2.076 4.057 1.409 3.171-1.374-.522-1.638-.985-2.155-2.494-2.786-1.533-.64-4.138-4.025-5.796-7.53-.647-1.366-1.176-2.254-1.176-1.973m322.563 4.646a659.57 659.57 0 01-1.925 5.643c-.159.44-.013.327.324-.251.774-1.328 3.539-9.465 3.367-9.906-.071-.182-.865 1.85-1.766 4.514m-3.763 9.503c-.77 1.534-2.075 3.608-2.9 4.609-2.311 2.801-.892 5.574 1.5 2.931 1.216-1.343 1.928-1.039 1.635.7-.139.825-.323 3.21-.409 5.3l-.155 3.8.311-3.8c.171-2.09.515-4.307.764-4.926 1.005-2.492-.004-3.37-1.971-1.715-2.951 2.484-3.456.517-.759-2.959 1.226-1.581 3.787-6.331 3.544-6.572-.088-.087-.79 1.097-1.56 2.632M40.309 151.8c.111 1.98.267 3.675.346 3.767.267.306.054-4.951-.249-6.167-.164-.66-.208.42-.097 2.4m.959 6.8c-.006.44.143 1.16.332 1.6.438 1.019.438-.032 0-1.4-.257-.804-.323-.843-.332-.2m312.124 4.338c-.153 1.431-.199 2.84-.102 3.132.097.291.3-.802.452-2.429.151-1.627.197-3.036.101-3.131-.095-.095-.298.998-.451 2.428m-310.992.623c0 .292.351 1.185.78 1.985.429.799 1.173 2.404 1.654 3.566.481 1.162.934 2.053 1.007 1.981.165-.166-1.538-4.369-2.624-6.478-.45-.871-.817-1.346-.817-1.054m310.305 7.639c-.151.77-.375 1.85-.498 2.4-.123.55.057.28.399-.6s.566-1.96.498-2.4c-.083-.526-.219-.32-.399.6M43.2 173.08c0 .529-.107.573-.48.2-.264-.264-.669-.477-.9-.474-.231.003-.165.168.147.365.311.197.566.922.566 1.61 0 .688.121 1.055.269.816.402-.651 1.266.56.963 1.35-.137.357-.38.567-.54.468-.161-.099-.292.071-.292.378 0 .471.177.467 1.134-.027 1.231-.637 1.515-1.934.508-2.32-.344-.132-.514-.422-.377-.643.137-.222-.035-.403-.382-.403-.474 0-.569-.25-.38-1 .138-.55.141-1 .007-1-.133 0-.243.306-.243.68m3.207-.192c-.004.158.365 1 .819 1.871 1.316 2.527.451 6.361-2.228 9.871-.726.951-1.615 2.617-1.976 3.703-.36 1.085-1.008 2.292-1.439 2.682-.43.39-.783 1.016-.783 1.391s-.543 1.742-1.206 3.038c-1.155 2.257-1.694 3.602-4.312 10.756-1.27 3.469-2.026 9.14-1.281 9.6.235.146 1.637-.551 3.114-1.548 4.771-3.22 11.166-5.052 17.638-5.052h5.267l.39 1.026c1.16 3.053.229 4.17-3.484 4.18-6.658.018-21.95 5.207-22.916 7.776-.601 1.602-.736 16.241-.179 19.505.926 5.424 1.107 5.512 6.123 2.96a621.587 621.587 0 018.066-4l4.621-2.247h12.025c11.561 0 12.067.032 13.08.829 1.449 1.14 1.425 2.678-.046 2.987-1.142.241-1.355.345-2.944 1.447-.58.403-3.161.981-6.556 1.47-3.731.537-6.334 1.141-7.8 1.809-1.21.552-2.92 1.116-3.8 1.254-.88.138-2.68.502-4 .809-1.32.307-2.885.658-3.478.779-.593.121-1.874.894-2.847 1.718-.973.824-2.369 1.858-3.102 2.298l-2.154 1.294c-.45.272-1.686.497-2.745.5-3.965.012-4.432 2.512-2.053 11.006.308 1.1.663 2.679.789 3.509.126.83.851 2.7 1.61 4.157.763 1.463 1.38 3.24 1.38 3.973 0 .728.468 2.548 1.04 4.043a324.177 324.177 0 012.178 5.918c3.182 8.945 13.303 20.584 20.522 23.601.82.343 2.361 1.247 3.423 2.011 1.289.926 2.383 1.389 3.285 1.391 2.11.005 5.757 1.294 10.552 3.729 4.265 2.167 9.684 3.857 12.4 3.867.66.002 2.01.543 3 1.201.99.658 1.962 1.197 2.16 1.198.198.001 1.61.723 3.139 1.604 1.528.881 3.256 1.722 3.839 1.868.583.147 2.865 1.991 5.071 4.098 3.046 2.91 4.731 4.177 7.001 5.267 1.645.79 4.88 2.349 7.19 3.465 2.31 1.116 5.55 2.342 7.2 2.725 1.65.383 3.36.88 3.8 1.104.44.223 1.97.531 3.4.682 5.261.558 10.271 2.266 15.2 5.183 2.53 1.497 5.509 2.991 6.62 3.319 1.111.328 3.271 1.221 4.8 1.985 1.926.962 4.419 1.72 8.114 2.468 2.934.594 5.78 1.249 6.326 1.457.546.207 2.375.388 4.066.401 1.691.013 3.974.203 5.074.423 4.803.959 23.278 1.595 29 .999 5.788-.603 11.894-2.829 20.2-7.361 7.627-4.162 16.829-8.885 17.313-8.885.165 0 1.557-.739 3.093-1.642 1.537-.903 4.414-2.474 6.394-3.489 1.98-1.016 4.705-2.617 6.056-3.558 1.35-.941 2.61-1.711 2.8-1.711.189 0 1.604-.617 3.144-1.373 1.54-.755 4.182-2 5.87-2.766 1.689-.767 4.539-2.393 6.333-3.615 1.812-1.234 3.916-2.33 4.73-2.465 2.477-.411 6.027-1.69 7.176-2.585 1.134-.883 4.892-3.216 8.219-5.103a4116.05 4116.05 0 004.8-2.726c4.719-2.682 5.156-2.898 8.072-3.987 3.975-1.483 15.673-7.349 18.4-9.227 1.358-.934 6.148-6.659 6.988-8.351 2.679-5.392 4.53-10.943 5.21-15.624.194-1.332 1.353-5.372 2.577-8.976 3.194-9.411 3.068-10.767-1.046-11.254-5.754-.683-9.266-1.552-11.151-2.762-1.035-.664-2.939-1.623-4.23-2.13-1.291-.507-3.698-1.73-5.348-2.719-7.376-4.417-7.078-4.316-9.885-3.338-3.133 1.091-5.027.001-4.124-2.375l.411-1.081 10.899.151c12.291.17 12.884.283 16.699 3.19 6.329 4.823 9.982 5.675 10.008 2.336.004-.561.451-2.73.992-4.82 1.179-4.555 1.265-6.812.3-7.903-.645-.729-9.719-4.497-10.83-4.497-1.036 0-7.616-3.629-10.47-5.774-1.65-1.24-4.748-3.103-6.885-4.14-5.826-2.828-5.496-4.071 1.085-4.079 3.877-.005 5.024.576 7.348 3.723 2.199 2.977 2.791 3.38 9.334 6.364 11.537 5.263 12.395 4.831 8.354-4.207-1.615-3.612-2.493-6.174-2.773-8.087l-.836-5.707c-.235-1.6-.427-4.227-.427-5.838 0-2.74-.104-3.092-1.6-5.407-5.189-8.028-5.34-9.783-1.571-18.307 1.084-2.452 1.963-4.702 1.952-5-.01-.298-.34.269-.734 1.259-.393.99-1.267 2.97-1.941 4.4-3.352 7.106-2.94 10.823 1.987 17.917 1.207 1.739 1.328 2.204 1.576 6.083.271 4.227.85 9.067 1.484 12.4.348 1.829 1.169 3.886 3.273 8.2 1.56 3.197 1.915 5 .986 5-3.018 0-14.899-5.457-17.012-7.813-.77-.859-2.229-2.422-3.243-3.474l-1.843-1.913h-4.608c-7.13 0-7.75 1.763-1.686 4.792 1.992.994 5.322 2.999 7.4 4.455 4.433 3.103 7.547 4.733 12.084 6.325 11.124 3.902 10.91 3.634 8.895 11.157-.549 2.051-.999 4.159-.999 4.686 0 2.67-2.828 1.916-8.74-2.329-4.986-3.58-6.47-3.886-18.847-3.886-10.632 0-10.813.048-10.813 2.851 0 2.359 3.092 3.253 6.018 1.74 1.228-.635 3.121.199 9.363 4.126.869.547 2.849 1.517 4.4 2.156 1.55.638 3.471 1.611 4.267 2.162 1.441.997 9.433 2.938 12.172 2.957 2.639.018 2.841 2.102.759 7.871-1.403 3.89-3.191 10.434-4.573 16.737-.544 2.483-3.936 10.636-4.988 11.988-.518.666-1.61 1.932-2.425 2.812-.815.88-1.92 2.087-2.455 2.682-.535.596-2.18 1.74-3.655 2.543-4.687 2.551-13.446 6.882-14.483 7.161-2.78.748-12.512 5.862-17.422 9.156-1.523 1.022-2.965 1.858-3.204 1.858-.239 0-.852.444-1.361.986-.936.996-4.573 2.368-7.284 2.748-.893.125-2.902 1.169-5.112 2.655-3.52 2.367-8.218 4.811-9.247 4.811-.275 0-1.326.519-2.335 1.154-1.009.635-2.465 1.355-3.235 1.601-.77.245-2.3 1.126-3.4 1.957-1.1.831-3.89 2.473-6.2 3.649-2.31 1.177-4.65 2.456-5.2 2.845-.55.388-2.71 1.474-4.8 2.413-2.09.94-4.43 2.123-5.2 2.629-.77.507-2.177 1.194-3.126 1.528-.95.334-2.298 1.016-2.997 1.516-.698.499-2.711 1.651-4.473 2.56a748.267 748.267 0 00-4.804 2.497c-5.042 2.662-10.999 4.572-15.8 5.068-5.914.611-23.985.001-29-.979-1.1-.215-3.261-.401-4.803-.414-1.541-.013-3.431-.205-4.2-.425-.768-.221-3.647-.859-6.397-1.419-3.232-.657-6.202-1.563-8.4-2.56-1.87-.848-4.21-1.828-5.2-2.177-.99-.349-3.92-1.875-6.511-3.39-2.591-1.515-5.393-2.863-6.226-2.996-.832-.134-2.651-.606-4.04-1.05-1.39-.444-3.323-.807-4.295-.807s-2.254-.246-2.848-.547c-.594-.3-1.8-.669-2.68-.819-6.542-1.117-18.298-7.171-23.396-12.05-2.175-2.081-4.166-3.784-4.424-3.784-.259 0-2.985-1.35-6.058-3s-6.068-3.001-6.655-3.003c-2.573-.007-7.894-1.705-12.365-3.946-4.999-2.506-8.234-3.651-10.315-3.651-.785 0-1.925-.477-2.998-1.254-.952-.689-2.554-1.615-3.56-2.057-4.026-1.768-7.932-5.004-11.583-9.598-1.333-1.678-2.748-3.224-3.144-3.436-.999-.535-4.364-6.651-5.704-10.369a367.838 367.838 0 00-2.156-5.804c-.573-1.495-1.042-3.315-1.042-4.043 0-.733-.617-2.51-1.38-3.973-.759-1.457-1.487-3.327-1.617-4.157-.129-.83-.493-2.499-.808-3.709-2.134-8.211-1.92-9.737 1.405-10.027 1.43-.125 3.07-.485 3.644-.8 1.891-1.038 4.538-2.853 5.591-3.834.742-.691 2.268-1.244 5.4-1.954 6.349-1.44 6.961-1.608 9.165-2.511 1.1-.451 3.26-1.009 4.8-1.24 7.23-1.082 7.965-1.249 8.765-1.993.459-.427 1.45-.933 2.202-1.125 2.555-.653 2.704-2.989.286-4.483-1.286-.795-1.888-.833-13.263-.833H52.674l-4.637 2.243a518.538 518.538 0 00-8.083 4c-5.721 2.917-5.663 3.017-5.873-10.172-.148-9.327.102-12.071 1.099-12.071.156 0 1.142-.569 2.192-1.264 1.363-.903 3.643-1.716 7.968-2.841 8.053-2.095 9.38-2.37 11.219-2.33 4.683.102 6.724-3 3.974-6.039-1.127-1.245-10.572-1.056-13.908.279-1.381.552-3.481 1.289-4.668 1.637-1.186.348-3.278 1.336-4.647 2.195-1.37.86-2.668 1.563-2.885 1.563-.863 0 .08-5.419 1.67-9.6.879-2.31 1.86-4.92 2.18-5.8.623-1.713 2.636-6.156 3.533-7.8.301-.55 1.159-2.26 1.908-3.8.748-1.54 1.753-3.147 2.232-3.57 2.009-1.778 2.827-7.937 1.359-10.233-.492-.768-.897-1.268-.9-1.109m309.879 1.798c-.428.428-.686.503-.686.2 0-.267-.18-.486-.4-.486-.22 0-.4.27-.4.6 0 .33.195.6.433.6.239 0 .369.193.29.43-.078.237-.288.371-.465.3-.361-.146-1.422 1.596-1.444 2.37-.008.275.177.5.41.5.233 0 .313-.179.178-.397-.135-.218-.061-.713.164-1.1.257-.44.414-.506.422-.174.018.795 1.03-.316 1.408-1.548.166-.539.482-1.206.702-1.481.586-.732.183-.61-.612.186m-3.706 6.701c-.725 1.734-.722 1.884.048 2.837.586.724.613.649.406-1.139-.171-1.473-.086-1.967.372-2.143.679-.26.805-.942.174-.942-.232 0-.682.624-1 1.387m-82.28 6.895a5.661 5.661 0 001.8 0c.495-.095.09-.173-.9-.173s-1.395.078-.9.173M112.985 192.9L111 195l2.1-1.985c1.155-1.092 2.1-2.037 2.1-2.1 0-.298-.371.034-2.215 1.985m166.05.677c1.364.326 4.4 2.26 6.564 4.181l1.399 1.242-1.178-1.305c-1.651-1.827-5.885-4.503-7.048-4.454-.836.035-.799.082.263.336m-140.202.177c.407.374 6.767 3.434 6.767 3.255 0-.223-6.223-3.409-6.658-3.409-.151 0-.2.069-.109.154M150.6 195.6c1.083 1.1 2.06 2 2.17 2 .11 0-.687-.9-1.77-2s-2.06-2-2.17-2c-.11 0 .687.9 1.77 2m116.1-1.318a5.661 5.661 0 001.8 0c.495-.095.09-.173-.9-.173s-1.395.078-.9.173m-10.178 3.147l-1.122 1.029 1.3-.904c.715-.497 1.3-.961 1.3-1.029 0-.316-.442-.045-1.478.904M298 201c2.523 2.53 4.677 4.6 4.787 4.6.11 0-1.864-2.07-4.387-4.6-2.523-2.53-4.677-4.6-4.787-4.6-.11 0 1.864 2.07 4.387 4.6m-149.4-1c1.528 1.54 2.869 2.8 2.979 2.8.11 0-1.051-1.26-2.579-2.8-1.528-1.54-2.869-2.8-2.979-2.8-.11 0 1.051 1.26 2.579 2.8m119.7-2.118a5.661 5.661 0 001.8 0c.495-.095.09-.173-.9-.173s-1.395.078-.9.173m-142.583.815c1.494.077 3.834.077 5.2-.001 1.365-.078.143-.141-2.717-.141-2.86.001-3.978.065-2.483.142m128.183.332c-1.495.811-1.404 1.149.1.371.66-.341 1.2-.706 1.2-.81 0-.258-.043-.243-1.3.439m20.405-.346c.497.096 1.217.092 1.6-.008.382-.1-.025-.179-.905-.174-.88.004-1.193.086-.695.182M110.184 200.7c-1.417 1.78-1.064 1.523 1.215-.882.531-.56.815-1.018.631-1.018-.183 0-1.014.855-1.846 1.9m44.094-.105c.366.767.736 1.324.823 1.237.183-.183-1.031-2.632-1.305-2.632-.101 0 .116.628.482 1.395m-21.803 1.017c-1.279 1.373-2.219 6.549-1.457 8.023 2.147 4.151 6.947 3.196 9.399-1.871 1.171-2.417.446-5.642-1.463-6.512-1.735-.791-5.608-.575-6.479.36m116.725.988c-.972.99-1.677 1.8-1.567 1.8.11 0 .995-.81 1.967-1.8.972-.99 1.677-1.8 1.567-1.8-.11 0-.995.81-1.967 1.8m22.612-.888c-2.596 1.471-3.936 6.907-2.112 8.568 2.515 2.291 4.284 2.296 6.413.02 3.331-3.562 3.853-5.444 1.987-7.164-2.806-2.585-3.828-2.817-6.288-1.424m9.771.788c.981 1.045 1.836 1.9 1.9 1.9.301 0-.017-.359-1.783-2.017l-1.9-1.783 1.783 1.9m-142.224-.377c2.149 2.148 1.178 6.512-1.987 8.925-4.564 3.481-8.287-3.539-4.745-8.946.881-1.344 5.382-1.33 6.732.021m137.65.728c1.862 1.717 2.146 2.66 1.271 4.234-3.861 6.947-10.8 5.224-8.348-2.073 1.31-3.899 4.225-4.789 7.077-2.161M148 203.8c.746.77 1.447 1.4 1.557 1.4.11 0-.411-.63-1.157-1.4-.746-.77-1.447-1.4-1.557-1.4-.11 0 .411.63 1.157 1.4m105.226 1.5c-.976 1.155-1.273 1.65-.661 1.1 1.031-.927 2.852-3.2 2.562-3.2-.07 0-.925.945-1.901 2.1m38.826-1.093c.359.436 1.026 1.513 1.483 2.393.456.88.838 1.458.847 1.284.035-.623-1.538-3.349-2.253-3.904-.689-.535-.694-.523-.077.227M112.097 206.1c-.594.742-2.174 3.957-2.02 4.111.074.073.693-.935 1.377-2.239 1.245-2.373 1.395-2.81.643-1.872m244.87.043c-.139.361-.467.657-.729.657-.538 0-.388 4.959.181 6 .187.341.227-.161.094-1.161-.159-1.191-.097-1.677.189-1.5.274.17.479-.552.581-2.038.168-2.473.083-3-.316-1.958m-251.779 2.279c-.242.452-.381 1-.308 1.217.072.218.338-.152.591-.822.526-1.392.368-1.612-.283-.395m49.378 1.378c.64 2.76 1.096 4.271 1.244 4.123.19-.19-.992-4.84-1.303-5.123-.121-.11-.094.34.059 1m-124.771.217c-.386 1.216.216 4.436.633 3.383.206-.523.323.099.338 1.8.015 1.818-.095 2.42-.366 2-.337-.522-.389-.515-.394.053-.003.36-.403.758-.889.884-1.332.349-.63.706.819.416l1.264-.253v-2.95c0-2.366-.12-2.95-.605-2.95-.481 0-.552-.326-.349-1.6.27-1.685-.011-2.171-.451-.783m66.336 2.183c.002 1.54.074 2.121.161 1.291.087-.83.085-2.09-.003-2.8-.089-.71-.16-.031-.158 1.509m7.862 1.672c-.9 2.335-.898 2.457.014.8.463-.841.781-1.708.708-1.928-.074-.22-.399.287-.722 1.128m4.564 5.728c0 2.97.063 4.185.14 2.7a63.146 63.146 0 000-5.4c-.077-1.485-.14-.27-.14 2.7m248.243-3.824c0 .757.138 1.462.307 1.567.169.104.241-.515.158-1.377-.184-1.934-.465-2.048-.465-.19M248.561 220.8c0 3.41.061 4.805.136 3.1a85.45 85.45 0 000-6.2c-.075-1.705-.136-.31-.136 3.1m109.449-2.066c.25.514.554.835.675.714s.557-.04.968.18c.506.271.747.266.747-.014 0-.369-.906-.575-1.383-.314-.1.055-.47-.26-.822-.7-.619-.775-.625-.771-.185.134M236.124 225.4c.002 1.32.077 1.812.166 1.093.089-.719.087-1.799-.004-2.4s-.164-.013-.162 1.307m-80.414.209c-.463 1.095-.757 1.991-.653 1.991.27 0 1.841-3.635 1.652-3.824-.087-.087-.536.738-.999 1.833m-46.69.391c.299 1.138 1.791 3.81 2.792 5 .508.604.491.506-.067-.4-.407-.66-1.245-2.19-1.864-3.4-.618-1.21-1.006-1.75-.861-1.2m40.074 1.703l-.706 1.297.806-.944c.686-.804 1.052-1.662.706-1.653-.055.001-.418.586-.806 1.3m4.084 1.797L151.8 231l1.5-1.378c1.396-1.284 1.684-1.622 1.378-1.622-.066 0-.741.675-1.5 1.5m96.269-1.069c.497.889 2.894 3.805 4.553 5.54.77.805.932.916.36.247-.571-.67-1.291-1.592-1.6-2.049-.791-1.175-3.741-4.502-3.313-3.738M247.4 235.6c1.528 1.54 2.869 2.8 2.979 2.8.11 0-1.051-1.26-2.579-2.8-1.528-1.54-2.869-2.8-2.979-2.8-.11 0 1.051 1.26 2.579 2.8m46.2-1c-.972.99-1.677 1.8-1.567 1.8.11 0 .995-.81 1.967-1.8.972-.99 1.677-1.8 1.567-1.8-.11 0-.995.81-1.967 1.8m-13.201.7c-.589.804-.686 1.084-.254.733.656-.533 1.648-2.033 1.344-2.033-.076 0-.567.585-1.09 1.3m8.779.2L287.8 237l1.5-1.378c1.396-1.284 1.684-1.622 1.378-1.622-.066 0-.741.675-1.5 1.5m-259.41.362c.128.332.245.814.26 1.071.016.257.183.107.372-.333.253-.588.344-.269.344 1.2 0 1.469-.091 1.788-.344 1.2-.338-.787-.344-.786-.372.033-.039 1.156-.442 1.448-1.191.864-.55-.429-.569-.41-.14.14.273.35.378.755.233.9-.145.145-.048.263.216.263.263 0 .583-.27.709-.6.127-.33.481-.6.788-.6 1.013 0 .755-4.255-.275-4.524-.624-.163-.774-.067-.6.386M277.6 237.2c-.77.422-1.256.774-1.08.783.424.022 2.68-1.151 2.68-1.393 0-.262-.023-.253-1.6.61m8 .614c-.99.531-3.24 1.668-5 2.526-2.778 1.355-4.075 1.758-8.4 2.61-.486.095-.329.172.4.194 2.574.078 11.466-3.443 14.4-5.702 1.123-.865.693-.751-1.4.372m-156.9.481c1.155.081 3.045.081 4.2 0 1.155-.081.21-.147-2.1-.147s-3.255.066-2.1.147m137.42.003c1.935.074 4.995.073 6.8-.001 1.804-.074.22-.134-3.52-.133-3.74 0-5.216.061-3.28.134M136 241c-.55.314-.82.572-.6.572.22 0 .85-.258 1.4-.572.55-.314.82-.572.6-.572-.22 0-.85.258-1.4.572m-12.2.549c2.531.731 7.62 1.27 8.8.932.954-.273.381-.397-2.8-.605-2.2-.144-4.72-.354-5.6-.467-1.383-.178-1.437-.159-.4.14m158.1 1.08c-1.495.811-1.404 1.149.1.371.66-.341 1.2-.706 1.2-.81 0-.258-.043-.243-1.3.439m-252.3.595c0 .233.161.324.358.202.411-.254.824.639.882 1.907.037.797.066.787.36-.133.307-.959.322-.963.36-.1.065 1.463.056 1.5-.34 1.5-.209 0-.614.238-.9.528-.445.452 1.403.335 1.988-.126.06-.047-.095-1.035-.344-2.196-.274-1.276-.573-1.914-.758-1.615-.218.352-.385.367-.58.052-.348-.564-1.026-.576-1.026-.019m88.5-.137a8.899 8.899 0 002.2 0c.605-.092.11-.167-1.1-.167-1.21 0-1.705.075-1.1.167m146 2.011a111.9 111.9 0 007 0c1.925-.073.35-.133-3.5-.133s-5.425.06-3.5.133M360.463 250c0 .77.095 1.164.21.876.163-.408.379-.372.968.162.666.601.759.609.759.057 0-.345-.225-.72-.5-.831-.378-.154-.357-.303.088-.612.324-.225.463-.534.31-.687-.153-.154-.536-.066-.849.195-.444.367-.618.358-.779-.043-.114-.284-.207.113-.207.883m-176.777 15.457c-.936.399-6.373 5.917-7.236 7.343-1.298 2.145-1.134 3.806.48 4.864.731.48 2.167 2.056 3.192 3.504 2.767 3.912 6.146 7.207 9.496 9.259 4.205 2.577 6.762 7.058 7.973 13.973.253 1.447.324 1.559.362.574.198-5.149-3.915-12.344-8.787-15.374-3.649-2.269-6.28-4.952-9.507-9.694-.709-1.042-1.687-2.104-2.174-2.36-3.518-1.852-.482-6.421 6.515-9.806l2.2-1.065 13.808-.037 13.808-.038 2.992 1.188c6.801 2.7 10.073 8.745 6.11 11.287-.615.395-2.171 1.529-3.457 2.521s-2.996 2.235-3.8 2.761c-.804.527-2.181 1.611-3.061 2.41-2.622 2.382-5.935 3.962-10.4 4.961-.773.173-.772.181.03.226 2.156.12 10.57-3.682 10.57-4.776 0-.437 5.187-3.798 6.443-4.175 1.165-.35 4.605-3.595 5.388-5.083 2.782-5.284-6.802-12.345-16.631-12.253-.99.009-3.87-.089-6.4-.219-3.588-.184-5.157-.091-7.13.425-2.12.555-2.93.587-5 .201-3.766-.702-5.221-.857-5.784-.617m2.97 4.14c-1.07.418-2.25 1.036-2.624 1.374-.374.338-1.479 1.036-2.456 1.552-2.426 1.28-2.431 2.039-.034 5.591 6.584 9.757 16.937 12.919 26.458 8.08.99-.503 2.25-1.4 2.8-1.994.55-.594 1.81-1.516 2.8-2.051 2.326-1.255 7.699-5.226 8.142-6.018.697-1.244-1.74-3.789-5.382-5.621l-3.36-1.691-12.2.009c-11.02.009-12.388.083-14.144.769m172.83.289c-.559.558-.688.577-.699.1-.006-.322-.457.314-1.001 1.414-.544 1.1-.92 2.27-.834 2.6.089.346.175.238.202-.254.025-.47.482-1.14 1.016-1.489.533-.35 1.086-1.003 1.228-1.452.143-.449.427-.713.631-.587.204.126.371-.051.371-.394 0-.785-.073-.78-.914.062m-3.455 6.776c-.631 2.273-.555 4.138.169 4.138.33 0 .6.21.6.467 0 .256.108.359.239.227.131-.131-.076-.771-.46-1.422-.59-.999-.63-1.453-.259-2.915.548-2.158.294-2.593-.289-.495m-.679 7.119c-.233.606.095 1.419.572 1.419.152 0 .302-.45.334-1 .062-1.082-.544-1.363-.906-.419m-157.963 8.637c-.142.229.064.904.458 1.5.394.595.837 1.802.984 2.682l.269 1.6.047-1.4c.027-.77-.226-1.926-.561-2.568-.719-1.378-.47-1.718 1.414-1.939 1.206-.142 1.14-.174-.476-.229-1.032-.035-1.993.124-2.135.354m2.331 8.382c.128.55.517 2.62.863 4.6.347 1.98.804 4.32 1.015 5.2.21.88.387 2.601.392 3.824.012 2.736.342 3.153 3.61 4.558 5.674 2.44 12.745 6.727 15.5 9.399 1.887 1.83 1.978 2.084 1.071 2.99-1.026 1.027-1.604.767-4.824-2.169-1.83-1.667-4.377-3.476-6.308-4.478-10.887-5.651-9.647-5.433-15.284-2.679-2.178 1.064-4.394 2.547-5.918 3.96-5.149 4.775-9.027 6.754-10.356 5.285-.988-1.092-.612-1.674 2.226-3.446 2.844-1.776 3.246-2.044 7.893-5.275 1.87-1.3 4.84-3.085 6.6-3.966l3.2-1.603.118-2.006c.064-1.103-.234-3.533-.664-5.4-.43-1.867-.792-3.034-.804-2.594-.012.44.239 1.88.558 3.2.319 1.32.582 3.336.586 4.481l.006 2.081-3.3 1.62c-2.824 1.386-5.466 3.069-16 10.196-2.115 1.431-1.473 3.822 1.027 3.822 1.216 0 7.829-4.348 8.934-5.874 1.343-1.853 9.166-6.126 11.218-6.126.401 0 2.078.691 3.725 1.535 1.648.844 4.452 2.283 6.23 3.198 1.96 1.008 4.446 2.768 6.308 4.465 3.314 3.021 3.702 3.18 5.064 2.077 2.27-1.837-2.731-6.051-14.006-11.802l-5.8-2.959-.271-3.157c-.294-3.423-2.158-13.334-2.581-13.72-.143-.13-.156.213-.028.763M48.7 305.288c.495.239.914.722.932 1.073.021.434.097.474.237.126.273-.678-.596-1.694-1.418-1.66-.466.019-.396.15.249.461m41.727 20.261c-.589 1.102-.534 1.438.143.876.314-.261.899-.418 1.3-.349.438.074.73-.116.73-.476 0-.938-1.677-.977-2.173-.051m2.773.418c0 .606.467 1.633.743 1.633.141 0 .257-.45.257-1s-.225-1-.5-1-.5.165-.5.367m201.2 1.994c0 .198-.495.541-1.1.761-.605.221-1.65.913-2.322 1.539-.672.627-.928.914-.569.639.36-.275.846-.5 1.08-.5.234 0 .52-.247.636-.549.248-.646 3.875-.846 3.875-.213 0 .225.168.305.374.178s-.072-.678-.618-1.224c-1.065-1.065-1.356-1.2-1.356-.631m-6.198 4.036c-.135.218-.042.713.207 1.1.415.646.432.641.208-.065-.138-.435-.021-.909.269-1.094.366-.232.377-.328.038-.332-.262-.003-.587.173-.722.391" fill="#ac4c34"/><path d="M24.501 51.8c.004.88.086 1.193.182.695.096-.497.092-1.217-.008-1.6-.1-.382-.179.025-.174.905m337.525 89.969c-.275.331-.312.654-.091.791.206.127.583-.021.839-.329.275-.331.312-.654.091-.791-.206-.127-.583.021-.839.329M129.6 193.185c-.77.191-2.93.631-4.8.977-3.565.659-7.848 2.209-9.682 3.504-.596.42-1.608.947-2.251 1.171-1.197.417-3.334 2.775-4.481 4.946-.354.669-1.234 2.148-1.955 3.285-.898 1.417-1.4 2.802-1.596 4.4-.157 1.283-.634 2.962-1.06 3.732-.655 1.183-.775 2.205-.775 6.6v5.2l2.4 4.534c3.927 7.419 7.542 9.118 21.438 10.072l6.637.457 2.563-1.072c1.409-.59 4.597-2.044 7.085-3.232 2.488-1.187 4.666-2.159 4.841-2.159.174 0 1.108-1.015 2.076-2.255a125.923 125.923 0 013.392-4.137c3.545-4.087 4.536-9.011 2.795-13.884-.536-1.498-1.338-4.202-1.783-6.008-2.42-9.826-15.654-18.419-24.844-16.131m140 .82c-.77.177-2.77.512-4.445.745-3.983.552-6.543 1.442-8.755 3.044-.99.716-2.413 1.615-3.163 1.997-3.976 2.026-5.993 4.907-8.49 12.125-3.631 10.492-3.674 10.793-2.197 15.137 2.009 5.908 6.241 10.863 10.25 12.003 1.21.344 2.974 1.07 3.919 1.613 4.424 2.54 11.238 3.332 16.616 1.931 1.267-.33 2.661-.6 3.098-.6 1.205 0 4.421-1.771 5.742-3.163.859-.905 1.536-1.237 2.52-1.237 3.691 0 7.903-4.85 9.753-11.233 3.261-11.252 1.103-20.635-6.048-26.298a69.042 69.042 0 01-3-2.522c-4.015-3.666-9.713-4.943-15.8-3.542m-127.333 5.602c7.291 3.568 9.337 7.014 9.327 15.708-.012 10.24-3.079 16.492-9.598 19.569-9.552 4.507-11.955 4.66-21.818 1.388-6.022-1.998-6.464-2.295-8.981-6.034-3.903-5.798-3.934-15.07-.074-22.446 2.94-5.619 9.957-9.371 17.637-9.432 2.772-.022 5.49-.192 6.04-.377 1.677-.566 4.042-.052 7.467 1.624m132.163-1.268c3.597.464 8.034 3.938 12.032 9.421 4.303 5.9-1.418 25.879-8.462 29.552l-2.2 1.148-7-.154c-10.983-.241-15.707-2.775-19.739-10.586-2.392-4.634-.229-17.109 3.835-22.12 3.205-3.953 4.957-5.53 6.604-5.949 8.325-2.118 8.539-2.137 14.93-1.312M28.534 215.6c0 1.65.071 2.325.157 1.5.087-.825.087-2.175 0-3-.086-.825-.157-.15-.157 1.5m.027 20.558c-.118.307-.153 1.252-.078 2.1.127 1.429.151 1.388.327-.558.194-2.144.131-2.533-.249-1.542" fill="#9ca42c"/></g></svg>