<svg xmlns="http://www.w3.org/2000/svg" width="400" height="400"><g fill-rule="evenodd"><path d="M39.2 47.153c-8.652 2.904-10.143 6.804-10.179 26.626-.023 12.554.213 15.622 1.377 17.885 1.081 2.105 2.524 8.769 4.274 19.736.105.66.611 2.55 1.125 4.2.642 2.063.998 4.392 1.138 7.457.225 4.904.606 5.992 3.573 10.202 1.118 1.587 2.055 2.441 3.15 2.871 1.633.641 2.583 2.181 3.025 4.902.417 2.571-2.614 3.84-4.688 1.963-.362-.327-.803-.595-.981-.595-.326 0-.289.343.764 7.2.322 2.09.776 5.06 1.01 6.6.533 3.505 1.414 6.229 2.844 8.8.612 1.1 1.468 3.401 1.903 5.113 1.255 4.947 1.464 5.141 5.374 5.003l3.27-.116.451-3.4c.594-4.485.815-5.103 2.522-7.058.796-.911 1.943-2.351 2.547-3.2.605-.848 1.912-2.532 2.906-3.742.993-1.21 2.149-2.84 2.569-3.623.42-.783 2.136-2.652 3.814-4.153 1.677-1.501 3.399-3.414 3.825-4.25.427-.837 1.134-1.772 1.571-2.078 1.319-.924 9.626-10.001 12.6-13.769 2.806-3.555 9.078-9.096 11.816-10.44 1.398-.686 1.4-.692 1.501-3.687.138-4.095.326-4.69 1.705-5.403l1.194-.618v-8.335l-3.7-3.779c-3.386-3.458-3.795-4.047-4.817-6.947C95.442 87 92.734 83.086 88.575 78.8c-1.387-1.43-3.569-4.234-4.849-6.231-2.694-4.206-5.392-7.806-7.183-9.586-1.541-1.53-13.824-7.721-15.981-8.055-2.133-.329-3.108-.873-6.362-3.549-4.627-3.804-10.949-5.586-15-4.226m325.6.955c0 .334.27.71.6.837.33.126.6.078.6-.109 0-.186-.27-.562-.6-.836-.488-.405-.6-.385-.6.108m-10.2 2.906c-.66.303-1.689.558-2.288.568-.598.01-1.768.363-2.6.785-.831.421-2.919 1.343-4.639 2.048-1.72.705-3.61 1.683-4.2 2.173-.59.49-2.963 1.858-5.273 3.04-2.31 1.181-6.329 3.593-8.931 5.36-2.603 1.767-5.843 3.9-7.2 4.741-3.446 2.135-7.963 5.603-11.293 8.67a313.002 313.002 0 01-6.547 5.801c-2.047 1.76-4.827 4.211-6.176 5.446-4.439 4.065-9.03 7.532-11.853 8.954-3.571 1.798-4 2.596-4 7.433 0 4.664 1.203 7.145 3.474 7.161.48.003 2.01.926 3.4 2.05 2.465 1.994 6.496 4.118 10.526 5.544 5.821 2.061 18.486 13.245 20.205 17.844.988 2.643 3.019 5.457 4.48 6.207 1.176.603 1.579 1.113 1.94 2.453.25.931 1.156 2.969 2.012 4.529.856 1.56 1.899 3.813 2.317 5.007.418 1.195 1.319 3.496 2.003 5.113.684 1.618 1.243 3.235 1.243 3.593 0 .675 1.66 6.01 2.633 8.466.306.77.718 2.162.917 3.093.261 1.221.879 2.196 2.221 3.5l1.86 1.807h6.707l.451-1.366c.248-.752 1.147-2.158 1.999-3.125 1.395-1.586 1.593-2.091 2.01-5.134.254-1.856.905-5.667 1.446-8.468.542-2.801 1.075-6.311 1.186-7.8.111-1.489.273-3.292.361-4.007.158-1.294.15-1.3-1.602-1.3-2.963 0-3.504-2.411-1.183-5.269 1.761-2.169 3.711-6.198 4.189-8.655.491-2.527 2.169-7.344 2.998-8.609.598-.913 1.73-4.69 2.597-8.667.168-.77.869-3.534 1.558-6.143.689-2.609 1.252-5.413 1.252-6.23 0-.818.469-2.824 1.041-4.457.857-2.444.999-3.396.799-5.374-.179-1.776-.034-3.157.559-5.294 1.042-3.761 1.196-22.454.219-26.62-.32-1.365-.694-3.696-.832-5.179-.592-6.404-5.904-11.558-9.986-9.689m14.139 56.353c-.109.773-.207 1.214-.526 2.362-.198.711-.148 1.296.136 1.58.335.335.454.095.464-.929.007-.759.277-1.729.6-2.156.323-.428.587-.893.587-1.034 0-.445-1.197-.278-1.261.177M164.027 133.5c-3.827 3.85-4.743 5.085-5.26 7.089-.228.886-.829 2.511-1.335 3.611-1.379 2.996-3.476 9.974-3.896 12.962l-.599 4.286c-.138.988-.057 1.754.2 1.913.588.363 1.658-1.825 1.684-3.441.011-.726.471-2.94 1.021-4.92.55-1.98 1.103-4.23 1.23-5 .126-.77.548-1.852.937-2.404.39-.552.924-1.806 1.189-2.787 1.881-6.988 8.061-13.359 12.203-12.582 1.617.303 4.599 2.323 4.599 3.115 0 .295.806 1.418 1.79 2.497 2.172 2.378 3.671 5.384 4.633 9.286.397 1.609.914 3.158 1.149 3.441.273.329.336 1.605.173 3.529-.285 3.376-.004 5.105.831 5.105.811 0 1.099-1.861.842-5.453-.575-8.051-3.114-14.293-8.09-19.89-.951-1.069-1.728-2.082-1.728-2.252 0-.662-2.345-1.168-5.373-1.16l-3.174.009-3.026 3.046m64.272-.929c-1.902.679-4.171 2.397-4.49 3.4-.134.424-.84 1.122-1.567 1.551-.905.534-1.404 1.186-1.579 2.064-.141.706-.9 2.326-1.687 3.6-.786 1.274-1.785 3.463-2.22 4.865-.434 1.402-1.2 3.179-1.701 3.949-1.319 2.027-1.452 2.576-1.012 4.17.6 2.173 1.957 1.712 1.957-.664 0-1.024 3.147-8.95 5.004-12.604 6.777-13.335 17.116-9.904 18.979 6.298.562 4.89.879 17.37.469 18.517-.614 1.723.046 5.683.948 5.683.91 0 1.05-19.506.179-25-.227-1.43-.545-3.59-.706-4.8-.938-7.038-7.538-12.827-12.574-11.029M128.8 194.022c-.77.188-2.66.525-4.2.751-2.794.41-8.237 2.384-9.391 3.407-.335.297-1.242.802-2.016 1.121-1.349.557-3.111 2.476-4.391 4.783-.331.596-1.164 2.036-1.852 3.2-.77 1.304-1.337 2.912-1.478 4.189-.125 1.14-.598 2.797-1.05 3.684-.7 1.372-.822 2.356-.822 6.618v5.007l2.193 4.309c2.146 4.216 2.466 4.593 6.04 7.124 1.713 1.212 6.744 2.112 14.501 2.595 8.792.546 7.282.856 15.981-3.276 2.704-1.284 5.055-2.334 5.225-2.334.171 0 1.199-1.101 2.285-2.447a360.593 360.593 0 013.023-3.7c3.72-4.448 4.505-9.397 2.376-14.973-.647-1.694-1.281-3.89-1.41-4.88-.388-2.973-1.791-5.257-5.227-8.503-6.207-5.866-13.289-8.255-19.787-6.675m142 .356c-.55.188-1.72.362-2.6.387-3.026.084-9.491 1.955-11.198 3.24-.881.663-2.303 1.58-3.159 2.037-5.038 2.692-7.324 6.748-11.118 19.723-1.91 6.533 3.82 16.976 10.357 18.876 1.251.364 3.522 1.313 5.046 2.11 6.114 3.197 18.763 1.894 23.786-2.451 1.371-1.186 2.065-1.5 3.309-1.5 4.272 0 8.224-6.489 10.359-17.008 2.571-12.671-13.592-29.246-24.782-25.414m-128.238 4.757c7.919 3.924 9.61 7.09 9.331 17.465-.242 8.972-1.083 11.327-5.689 15.933-1.74 1.739-2.634 2.253-8.749 5.023-4.545 2.059-9.105 1.858-17.19-.76-6.894-2.232-6.944-2.268-10.265-7.384l-1.8-2.772-.136-5.909c-.237-10.239 1.805-14.586 9.136-19.454 4.845-3.217 5.023-3.272 10.746-3.317 2.78-.022 5.504-.193 6.054-.381 2.098-.716 5.066-.176 8.562 1.556m130.731-1.501c4.974.743 8.2 3.005 13.073 9.171l1.634 2.067v5.944c0 8.879-3.186 17.803-7.751 21.711-4.696 4.019-21.543 3.046-25.958-1.499-6.401-6.59-6.263-6.287-6.279-13.77-.019-9.677 1.086-12.572 7.224-18.925 2.78-2.876 3.113-3.095 5.364-3.528 1.32-.254 3.3-.698 4.4-.986 2.573-.677 4.685-.724 8.293-.185" fill="#dcbd98"/><path d="M37.6 40.799c-.55.184-1.706.454-2.568.599-.957.161-1.973.696-2.605 1.374-.571.61-1.648 1.425-2.395 1.811-1.499.776-5.232 4.118-5.232 4.686 0 .197.561-.28 1.247-1.061 2.234-2.545 5.199-4.168 4.977-2.724-.061.394.088.844.331 1 .301.194.236.448-.203.8-.816.653-3.952 4.964-3.952 5.432 0 1.477-2.404.222-2.456-1.283-.054-1.563-.071-1.539-.401.567-1.508 9.643-1.522 37.258-.02 41.4 1.357 3.745 2.077 6.863 2.077 8.993 0 1.075.19 2.453.421 3.063.232.609.592 3.006.801 5.326.995 11.064 4.208 22.519 6.954 24.798.509.422.629 1.563.653 6.169.016 3.108.204 6.641.417 7.851s.535 3.82.715 5.8c.467 5.138 1.889 11.513 2.855 12.8.166.22.491 1.03.723 1.8.859 2.847 2.817 7.779 2.839 7.149.012-.358-.248-1.298-.578-2.087-.958-2.294-.499-3.315.583-1.294.298.556.752.878 1.068.757.325-.125.549.051.549.432 0 .354.18.643.4.643.22 0 .4.36.4.8 0 .452-.267.8-.613.8-.336 0-.715.269-.841.598-.127.328-.391.498-.588.376-.197-.122-.358-.004-.358.261s-.598 1.401-1.329 2.524c-.731 1.122-1.74 3.031-2.243 4.241-.502 1.21-1.227 2.56-1.61 3-.383.44-1.001 1.587-1.374 2.549-.372.962-1.12 2.581-1.66 3.597-.541 1.016-.984 2.128-.984 2.471 0 .343-.144.794-.32 1.003-.309.366-1.201 2.606-2.694 6.756-.817 2.273-1.774 7.464-1.325 7.186.166-.102.67.129 1.12.515 1.109.949 1.308 27.723.206 27.723-.336 0-.722.285-.855.634-.153.397-.341.475-.506.208-.301-.487-.103 3.547.39 7.958.303 2.703.316 2.596.129-1.088-.211-4.15.011-5.489.735-4.455.316.45.422.441.619-.057.369-.931 1.265 3.479 1.284 6.318.015 2.18-.077 2.501-.683 2.4-.391-.066-.656.103-.6.382.119.597-.574.679-.77.091-.075-.226-.08 1.709-.011 4.3.069 2.59.296 5.231.503 5.869.208.638.378 1.858.378 2.713 0 .854.27 2.199.6 2.989.33.789.6 1.854.6 2.366 0 1.017 2.298 7.739 2.855 8.352.19.209.345.792.345 1.296 0 1.094 1.734 6.233 2.825 8.373.426.836.775 1.846.775 2.244 0 .607 1.747 4.232 4.4 9.127 1.299 2.397 9.304 10.791 12 12.583.99.659 2.14 1.504 2.555 1.878.416.375 1.514.94 2.441 1.256.927.316 2.64 1.245 3.807 2.065 1.595 1.121 2.725 1.573 4.559 1.824 3.44.469 3.915.642 8.838 3.211 2.561 1.336 5.766 2.644 7.669 3.13 1.797.459 3.582.954 3.965 1.101.444.171.601.113.434-.158-.145-.234.006-.529.334-.656.329-.126.598-.505.598-.841 0-.683 1.015-.837 1.4-.213.136.22.576.4.978.4 1.132 0 1.36 2.307.25 2.527-.796.158-.797.166-.028.221.44.031 1.97.687 3.4 1.457s3.887 2.016 5.46 2.769c1.59.761 3.189 1.849 3.6 2.449 2.175 3.173 3.99 4.434 12.174 8.456 7.795 3.831 11.581 5.321 13.521 5.321.487 0 1.461.299 2.165.665.704.366 2.45.791 3.88.944 4.1.438 9.36 2.028 12.2 3.686 4.849 2.832 7.079 4.016 8.598 4.565.991.358 3.384 1.363 5.318 2.233 1.934.869 4.454 1.72 5.6 1.891 3.155.47 8.224 1.607 9.42 2.113 2.077.877 25.613 2.01 36.544 1.758 7.638-.176 8.904-.299 10.551-1.027 1.029-.456 2.353-.828 2.943-.828.59 0 1.422-.264 1.85-.587.427-.323 1.046-.599 1.376-.614.33-.014 1.32-.374 2.2-.799.88-.425 1.844-.779 2.142-.786.298-.008 1.077-.464 1.731-1.014.654-.55 1.423-1 1.709-1 .286 0 .744-.27 1.018-.6.274-.33.823-.6 1.22-.6.398 0 .984-.261 1.303-.58.319-.319 1.032-.694 1.585-.833.552-.138 1.508-.777 2.123-1.419.615-.643 1.43-1.168 1.811-1.168.593 0 3.116-1.164 5.158-2.38.33-.196 1.86-.936 3.4-1.644 1.54-.708 3.524-1.782 4.409-2.388.884-.605 3.584-2.121 6-3.368 2.415-1.247 5.381-2.977 6.591-3.843 1.21-.867 2.527-1.576 2.926-1.576.903-.001 2.133-.636 3.605-1.86.691-.576 1.651-.941 2.471-.941.738 0 1.616-.275 1.953-.612.336-.336 1.798-.904 3.249-1.262 2.221-.548 2.999-.992 4.917-2.8 1.254-1.182 2.729-2.238 3.279-2.348 3.666-.73 7.503-2.247 7.903-3.126.263-.575.907-1.034 1.666-1.186 1.284-.257 2.866-1.264 4.993-3.181.681-.613 1.688-1.224 2.238-1.357 1.35-.328 5.519-2.431 7-3.532.66-.49 1.74-1.019 2.4-1.175.66-.156 1.47-.515 1.8-.797.33-.283 1.22-.631 1.979-.775 1.607-.304 13.843-6.365 15.021-7.441.44-.402 1.461-1.003 2.268-1.336.807-.332 1.683-1.025 1.946-1.538.263-.514 1.133-1.593 1.932-2.399 3.543-3.569 4.559-5.162 5.433-8.52.335-1.287.862-2.626 1.17-2.977.308-.351.962-1.988 1.452-3.638s1.153-3.617 1.473-4.372c.555-1.309.548-1.346-.146-.813-.4.307-.595.401-.431.209.391-.462-.473-1.486-.987-1.169-.508.315-.197-2.488.607-5.455.655-2.417 2.26-6.124 2.274-5.251.007.427.134.445.573.081.838-.696 1.096.032.871 2.457-.191 2.06-.186 2.052.197-.287.216-1.32.74-3.66 1.165-5.2.6-2.177.818-4.625.979-11 .169-6.672.358-8.684 1.013-10.8 1.989-6.425.821-19.768-2.062-23.554-.4-.525-.728-1.605-.729-2.4-.003-1.448-.571-5.019-1.217-7.646l-.344-1.4.141 1.4c.077.77.354 2.625.616 4.121.546 3.129.39 3.858-.808 3.768-1.981-.149-3.827-9.665-2.445-12.601l.618-1.311.548.911c.413.687.475.715.25.112-.165-.44-.412-2.42-.551-4.4-.246-3.522-1.269-6.497-2.612-7.599-.601-.493-2.533-4.177-2.623-5.001-.213-1.942.11-3.314.968-4.119.943-.884 1.862-2.345 1.86-2.955-.001-.179-.364.268-.807.994-.442.726-.966 1.22-1.164 1.097-.198-.122-.463.004-.59.281-.127.276-.13.097-.007-.398.133-.536.039-.9-.231-.9-.484 0-.299-.909.611-3 .288-.66.75-1.865 1.028-2.679.279-.813.641-1.395.806-1.293.56.346.826-.66.332-1.255-.27-.326-.351-.723-.179-.883.171-.159.396-.054.498.234.144.405.36.368.945-.162.725-.655.762-.642.836.276.043.529.21-1.378.373-4.238.711-12.503 1.076-16.872 1.499-17.926.248-.619.451-2.942.451-5.161 0-3.425.145-4.344.959-6.074.527-1.122 1.174-2.849 1.437-3.839.264-.99.623-2.083.8-2.428.554-1.084 1.604-5.581 1.604-6.869 0-.678.258-2.149.574-3.268.315-1.119.852-3.115 1.192-4.435.34-1.32.964-3.615 1.387-5.1.502-1.761.616-2.7.33-2.7-.242 0-.953-.492-1.58-1.093-1.434-1.374-1.441-1.364-3.083 4.827-.71 2.676-1.531 5.766-1.825 6.866-.295 1.1-.648 2.682-.786 3.516-.138.834-.616 2.364-1.061 3.4-.446 1.036-1.358 3.594-2.027 5.684-1.382 4.312-3.476 8.705-5.182 10.87-1.229 1.559-.968 2.489.303 1.084 2.708-2.993 4.194-.938 2.754 3.81-.328 1.08-.607 3.24-.62 4.8-.013 1.56-.194 3.736-.403 4.836-.208 1.1-.543 3.89-.744 6.2-.2 2.31-.559 4.707-.797 5.326-.237.619-.432 1.547-.432 2.062 0 .514-.826 2.502-1.836 4.416-4.327 8.204-4.267 11.13.371 18.106l2.054 3.09.266 4.4c.623 10.273 1.465 13.962 4.523 19.8 2.53 4.832 2.994 11.959 1.222 18.8-.869 3.355-.986 4.666-.999 11.2l-.015 7.4-1.411 4c-2.148 6.093-2.971 8.962-3.347 11.669-.189 1.358-.458 2.657-.6 2.885-.141.229-.59 1.637-.998 3.131-2.508 9.174-7.169 15.994-13.23 19.355-4.7 2.606-13.837 7.16-14.366 7.16-.586 0-3.672 1.303-5.834 2.464-7.682 4.124-9.513 5.165-11.678 6.644-1.363.931-2.654 1.692-2.869 1.692-.216 0-.931.454-1.59 1.008-1.633 1.374-4.442 2.565-7.05 2.99-1.658.27-3.034.934-5.823 2.808-2.008 1.351-4.942 2.997-6.52 3.658-4.858 2.035-10.028 4.647-11.892 6.008-1.944 1.419-7.997 4.691-15.178 8.206-2.53 1.238-5.23 2.64-6 3.115-.77.475-2.2 1.178-3.177 1.563-.977.384-2.237 1.026-2.8 1.426-.934.663-5.43 3.115-9.423 5.138-7.278 3.687-11.598 4.827-19.37 5.11-7.188.262-22.003-.366-25.23-1.07-1.21-.264-3.64-.506-5.4-.539-1.76-.032-4.37-.357-5.8-.722-1.43-.364-4.31-1.014-6.4-1.444-2.348-.483-5.091-1.407-7.179-2.419-1.858-.9-3.658-1.64-4-1.645-.638-.009-3.279-1.398-8.248-4.337-3.095-1.831-8.768-3.599-12.973-4.044-1.43-.151-2.96-.458-3.4-.681-.44-.224-2.15-.714-3.8-1.089s-4.44-1.373-6.2-2.219c-1.76-.845-5.17-2.48-7.578-3.633-3.835-1.837-4.851-2.555-8.2-5.792-2.102-2.032-4.272-3.832-4.822-4-.55-.168-3.293-1.542-6.095-3.052-4.208-2.267-5.599-2.817-7.991-3.156-3.946-.56-5.81-1.187-10.714-3.608-5.126-2.53-8.057-3.58-9.996-3.58-1.059 0-2.086-.43-3.662-1.534-1.205-.844-2.762-1.734-3.461-1.978-2.895-1.009-7.975-5.177-11.079-9.088-1.047-1.32-2.485-2.94-3.196-3.6-2.013-1.87-4.947-7.151-6.334-11.4-.324-.99-1.066-2.93-1.65-4.31-.584-1.381-1.173-3.451-1.309-4.6-.137-1.157-.855-3.285-1.607-4.767-.773-1.52-1.508-3.719-1.701-5.086-.187-1.325-.484-2.64-.661-2.923-.61-.979-1.007-4.951-1.331-13.314-.18-4.62-.518-9.21-.752-10.2-.534-2.255-.583-27.107-.061-31 .206-1.54 1.114-4.69 2.017-7 .903-2.31 1.805-4.726 2.004-5.368.33-1.065 2.119-4.955 3.417-7.432a151.49 151.49 0 001.763-3.599c.681-1.429 1.672-3.051 2.203-3.605 2.092-2.184 2.801-6.668 1.456-9.202-.407-.767-1.152-2.654-1.656-4.194s-1.408-3.79-2.008-5c-1.508-3.036-2.238-5.793-3.019-11.4-.368-2.64-.817-5.79-.998-7-.75-5.03-.839-6.64-.427-7.7.577-1.482 1.971-1.442 3.448.1.957.999 2.2 1.598 2.2 1.06 0-1.188-1.082-2.665-2.379-3.251-1.091-.491-2.054-1.465-3.318-3.351-3.095-4.62-3.429-5.372-4.099-9.233-.36-2.076-.995-5.226-1.41-7-.415-1.774-1.035-5.295-1.378-7.825-.342-2.53-.793-5.5-1.002-6.6-.209-1.1-.596-3.44-.859-5.2-.264-1.76-.908-4.46-1.432-6-1.691-4.97-2.222-8.723-1.965-13.879.128-2.574.315-7.728.416-11.453.275-10.226 1.534-14.531 5.294-18.105 6.412-6.096 14.686-5.801 23.453.836 2.382 1.803 5.186 3.216 9.879 4.978 5.142 1.93 11.295 5.593 13.319 7.93 5.816 6.715 6.209 7.058 14.081 12.298 1.1.732 3.17 2.262 4.6 3.399 1.43 1.138 3.41 2.621 4.4 3.297.99.676 3.545 2.94 5.677 5.031 4.011 3.934 8.665 7.61 11.403 9.007.867.442 2.294 1.402 3.173 2.132.879.731 3.566 2.267 5.972 3.413l4.375 2.084 11.6.268c10.205.237 11.889.188 14-.406 1.97-.553 3.584-.638 9-.475 3.63.109 12.9.367 20.6.573 7.7.206 14.902.582 16.005.836 4.618 1.063 23.353.379 28.995-1.059 7.631-1.944 9.377-2.224 15-2.408 5.413-.177 6.684-.005 13.2 1.789 5.51 1.517 6.092 1.465 7.659-.686 1.974-2.71 3.564-4.038 6.392-5.342.688-.317 1.376-.777 1.528-1.023.151-.246.914-.714 1.694-1.04.78-.326 2.014-1.116 2.743-1.755.729-.64 1.847-1.278 2.486-1.418.639-.141 2.497-1.346 4.13-2.678 1.632-1.332 3.688-2.831 4.568-3.33l5.285-3.002c2.183-1.24 5.037-3.347 7-5.166 3.898-3.612 6.451-5.646 7.086-5.646.651 0 3.799-1.646 6.829-3.571a229.72 229.72 0 013.752-2.34c.633-.379 1.983-1.267 3-1.974 7.025-4.885 12.065-8.115 12.663-8.115.262 0 .906-.337 1.431-.748 1.191-.934 8.737-4.218 11.154-4.854.99-.261 3.023-.842 4.518-1.292 3.11-.936 3.69-.8 6.173 1.443 3.447 3.114 5.306 6.543 6.132 11.307 1.009 5.83 1.133 27.937.177 31.609-.33 1.266-.6 3.789-.6 5.604 0 2.358-.229 3.881-.8 5.331-.99 2.511-1.121 5.086-.146 2.85.975-2.235 3.387-3.678 4.133-2.472.165.268.395-1.642.511-4.245.116-2.603.411-5.24.656-5.859.303-.764.444-6.362.44-17.4-.007-17.997-.185-19.445-2.985-24.223-1.183-2.018-1.289-2.071-2.794-1.385-2.515 1.146-4.54-2.629-2.189-4.082.207-.128-.173-.758-.844-1.401-1.534-1.47-5.818-1.857-9.509-.859-1.25.338-3.58.825-5.178 1.082-1.894.305-4.166 1.082-6.527 2.231-1.993.97-3.858 1.763-4.146 1.763-.288 0-.739.258-1.001.574-.262.316-1.004.69-1.649.832-.645.142-1.909.873-2.81 1.626-.901.752-1.802 1.368-2.003 1.368-.201 0-1.434.945-2.739 2.1-3.409 3.016-4.502 3.792-6.631 4.705-1.041.446-2.423 1.257-3.071 1.803-.649.546-1.515.992-1.926.992-.411 0-1.01.376-1.332.836-.322.46-1.796 1.276-3.274 1.812-1.479.537-3.212 1.376-3.852 1.864-2.124 1.62-5.308 4.26-7.352 6.095-1.983 1.78-5.233 3.911-9.182 6.02-1.1.587-2.72 1.639-3.6 2.338-1.963 1.559-5.74 4.011-6.732 4.369-.669.243-3.129 1.755-6.011 3.696a88.62 88.62 0 01-2.434 1.57c-3.176 1.967-4.562 3.012-5.547 4.182-.904 1.075-1.176 1.193-1.883.814-.455-.243-1.494-.372-2.31-.286l-1.483.156 1.638.067c1.435.059 3.994 1.667 2.653 1.667-.239 0-.722.288-1.074.64-.955.955-2.408.407-3.168-1.194-.818-1.723-1.534-1.852-11.621-2.106-5.873-.147-8.116-.056-10 .406a80.414 80.414 0 01-5.228 1.05c-1.54.25-4.387.909-6.326 1.465-3.203.918-4.072.999-9.463.875-3.266-.075-5.729.013-5.474.194.346.247.336.382-.037.534-.275.111-.5.48-.5.819 0 .637-1.599.623-9.6-.081-1.43-.126-7.999-.32-14.597-.433-6.806-.115-12.163-.369-12.38-.586-.211-.211-.887-.383-1.503-.383-.691 0-1.12-.214-1.12-.557 0-.307-.315-.686-.7-.843-.659-.269-.66-.301-.011-.543 1.089-.406-14.162-.068-15.4.342-.611.202-1.421.268-1.8.146-.48-.154-.538-.111-.19.14.398.288.398.577 0 1.435-.632 1.361-1.886 1.612-6.529 1.311-1.963-.127-5.91-.329-8.77-.447-4.642-.193-5.458-.339-7.6-1.358a685.9 685.9 0 00-4.615-2.173c-1.218-.567-2.928-1.64-3.8-2.385-.872-.745-2.035-1.494-2.585-1.665-1.139-.354-7.771-5.241-9.04-6.662-1.105-1.237-1.634-2.157-1.022-1.779.292.18.462-.018.462-.538 0-1.168 2.897-.338 4 1.146.426.573 2.724 1.998 5.49 3.405 1.59.808 3 1.647 3.134 1.863.34.55 3.227 2.369 5.376 3.386.99.468 2.34 1.303 3 1.855 1.447 1.209 2.996 2.058 3.264 1.79.108-.108-.161-.31-.599-.448-.437-.139-1.486-.809-2.33-1.489-.844-.68-2.345-1.623-3.335-2.095-2.235-1.066-3.816-2.075-5.514-3.519-.723-.615-1.478-1.118-1.678-1.118-.592 0-5.322-2.829-6.408-3.833-.55-.508-1.854-1.302-2.897-1.763-1.043-.461-2.393-1.469-3-2.24-.607-.771-2.585-2.382-4.397-3.581-1.812-1.199-4.253-3.036-5.423-4.082-1.171-1.045-2.905-2.351-3.854-2.901-.949-.55-2.379-1.561-3.177-2.247-.799-.686-2.235-1.644-3.192-2.129-2.14-1.084-5.14-3.797-5.486-4.961-.4-1.342-5.024-5.863-5.998-5.863-.466 0-2.644-.879-4.839-1.952-2.196-1.074-4.55-2.075-5.23-2.225-1.615-.354-6.326-3.165-8.107-4.837-1.627-1.528-10.745-6.086-12.8-6.4-1-.153-.771-.001.8.531 2.255.765 4.607 1.87 5.506 2.587.388.309.259.533-.545.95-1.153.598-2.268.705-2.713.261-.973-.974-4.321-1.714-7.748-1.715-2.502 0-3.7-.148-3.7-.456 0-.251-.313-.684-.695-.964-.624-.457-.553-.548.7-.908.767-.22 1.035-.402.595-.404-.44-.003-1.25.146-1.8.331m19.599 4.6c2.731 1.384 3.253 2.427 1.39 2.777-1.136.213-1.652.064-2.791-.805-1.281-.977-1.945-1.757-.998-1.171.565.349.499-.741-.08-1.32-.815-.815.31-.579 2.479.519m122.875 52.5c3.671.066 9.791.066 13.6 0 3.809-.065.806-.119-6.674-.119-7.48-.001-10.597.053-6.926.119m-39.551.8c2.597.07 6.737.069 9.2-.001 2.462-.07.337-.127-4.723-.126-5.06 0-7.075.057-4.477.127m65.782.784c.497.096 1.217.092 1.6-.008.382-.1-.025-.179-.905-.174-.88.004-1.193.086-.695.182m2.995.393c.385.1 1.015.1 1.4 0 .385-.101.07-.183-.7-.183s-1.085.082-.7.183m147.367 76.391c-.147.146-.268.821-.269 1.5-.002.678-.272 1.749-.6 2.379-.329.63-.591 1.35-.582 1.6.033.948 1.223-1.825 1.563-3.644.366-1.961.346-2.294-.112-1.835m-232.992 10.784c-3.921.851-8.179 3.012-10.78 5.472-1.262 1.194-3.915 3.312-5.895 4.706-1.98 1.395-4.5 3.361-5.6 4.369-1.1 1.009-3.035 2.597-4.3 3.531-2.472 1.824-2.62 2.166-1.702 3.925.351.674.597 2.217.597 3.746 0 2.48.499 5.941 1.874 13 1.447 7.426 3.045 9.843 9.131 13.812 1.32.861 2.813 1.867 3.318 2.237.873.64 1.903.814 10.282 1.742 1.98.22 4.32.577 5.2.795 5.277 1.304 9.505.475 17.8-3.49 2.53-1.209 5.304-2.448 6.165-2.753.861-.304 1.776-.728 2.032-.941 1.214-1.007 5.954-2.402 8.163-2.402 3.189 0 3.497-.418 2.88-3.91-.262-1.48-.746-4.31-1.076-6.29-.331-1.98-1.334-5.76-2.231-8.4-.896-2.64-1.971-6.24-2.388-8-1.469-6.199-3.5-10.2-7.107-14-1.253-1.32-2.54-2.78-2.858-3.245-.319-.465-2.163-1.68-4.097-2.7l-3.517-1.855-6.683.052c-3.961.03-7.711.275-9.208.599m149.525.549c-.55.176-1.909.338-3.019.36-1.325.026-4.215.797-8.399 2.24-3.509 1.21-6.718 2.2-7.132 2.2-2.334 0-8.044 4.704-10.137 8.351a69.8 69.8 0 01-2.172 3.498c-1.277 1.899-3.141 6.617-3.141 7.954 0 .5-.72 2.996-1.6 5.548-1.125 3.263-1.604 5.325-1.614 6.945-.011 1.834-.374 3.119-1.781 6.304-2.363 5.352-2.262 5.522 3.442 5.808 3.968.198 4.289.283 7.206 1.909 1.68.936 4.634 2.236 6.565 2.889 1.931.653 3.836 1.481 4.233 1.841 2.207 1.997 15.705 2.996 21.559 1.596 4.838-1.158 11.981-5.145 14.559-8.128 1.29-1.492 2.87-3.032 3.511-3.422.642-.391 1.471-1.267 1.843-1.948.373-.68 1.234-1.921 1.916-2.756 1.162-1.425 1.255-1.786 1.504-5.854.281-4.586.563-6.173 2.119-11.908 1.318-4.858 1.287-4.932-4.38-10.5-9.663-9.494-19.681-14.657-25.082-12.927m-135.578 4.644c8.937 2.654 17.978 11.173 17.978 16.941 0 .635.578 2.563 1.285 4.285 2.414 5.879 1.567 11.386-2.524 16.398-5.664 6.941-5.378 6.673-8.637 8.11a351.896 351.896 0 00-6.924 3.176c-4.332 2.05-4.592 2.073-15 1.345-11.871-.83-15.477-2.797-19.502-10.636L101.8 227l.002-5.4c.001-4.714.108-5.603.843-7 .463-.88.953-2.582 1.089-3.781.165-1.455.674-2.854 1.527-4.2a96.211 96.211 0 002.418-4.081c1.139-2.06 3.922-4.938 4.775-4.938.248 0 1.103-.405 1.899-.9 2.792-1.736 7.091-3.17 11.826-3.944 2.629-.429 4.864-.865 4.967-.968.427-.427 4.46-.143 6.476.456m141.983.551c7.445 2.068 15.524 11.565 17.371 20.419 2.044 9.795-3.687 23.054-10.976 25.396-1.21.389-2.92 1.184-3.8 1.767-7.002 4.64-17.858 5.44-25 1.842-1.43-.72-3.59-1.598-4.8-1.95-5.356-1.557-11.975-11.315-11.995-17.685-.006-1.992 4.644-15.738 6.084-17.984 3.261-5.086 11.49-9.996 18.511-11.045 1.54-.23 3.52-.563 4.4-.739 2.318-.464 8.566-.477 10.205-.021m-143.757 6.29c-.172.172-3.237.404-6.811.514l-6.497.201-3.17 2.075c-4.547 2.977-6.096 4.406-7.254 6.69-4.373 8.63-2.979 20.63 2.838 24.442 2.965 1.942 10.821 3.967 15.446 3.98l4.6.013 4.294-2.109c8.549-4.2 10.681-7.863 10.992-18.891l.175-6.2-1.331-2.587c-2.193-4.266-11.468-9.941-13.282-8.128m128.552.576c-1.87.452-3.85.902-4.4 1-1.107.198-6.864 5.989-7.891 7.938-3.675 6.974-3.557 18.062.233 21.803.582.574 1.577 1.73 2.212 2.568 3.025 3.993 17.356 5.99 22.957 3.199 4.94-2.461 8.889-12.01 8.889-21.492v-5.283l-2.245-2.597c-4.284-4.956-6.882-6.814-10.155-7.265-5.075-.7-6.234-.684-9.6.129m-125.11 1.924c4.487 3.529-1.46 13.203-6.196 10.08-2.753-1.815-3.001-7.295-.458-10.105.991-1.095 5.251-1.079 6.654.025m137.623-.234c3.949 1.69 4.049 3.274.467 7.443-3.125 3.638-4.092 3.955-6.682 2.195-2.134-1.45-2.292-3.226-.658-7.422.855-2.197 4.312-3.312 6.873-2.216m81.487 7.159c0 .573.187 1.158.416 1.3.273.169.322-.133.144-.876-.368-1.533-.56-1.678-.56-.424m-328 1.69c0 .33-.18.6-.4.6-.22 0-.4-.27-.4-.6 0-.33.18-.6.4-.6.22 0 .4.27.4.6m-1.946 3.2c-.035.44-.165 1.25-.287 1.8-.192.863-.16.903.231.29.249-.391.379-1.201.288-1.8-.108-.711-.189-.811-.232-.29m-.996 5.45c-.142 1.357-.228 5.006-.192 8.109.066 5.592.069 5.571.346-2.359.297-8.484.263-9.742-.154-5.75m.838 18.233c.225 3.159.436 3.575.466.917.014-1.21-.122-2.433-.302-2.717-.184-.289-.256.506-.164 1.8M361.194 249.7c.003-.275.276-.5.606-.5.433 0 .6.444.6 1.6 0 1.603-.612 2.156-1.068.966-.196-.51-.309-.529-.582-.1-.216.343-.338-.04-.338-1.066 0-1.179.102-1.442.388-1 .258.4.39.433.394.1M188.2 266.963c-3.18.854-5.512 1.805-6.389 2.604-.446.407-1.374 1.024-2.063 1.372-4.052 2.046-5.107 5.086-2.333 6.723.778.459 1.681 1.351 2.008 1.982.326.631 1.354 2.026 2.285 3.099a91.468 91.468 0 012.768 3.352c1.05 1.368 4.98 3.905 6.048 3.905 1.278 0 4.426 4.636 5.722 8.426 1.463 4.278 3.218 12.162 3.622 16.267l.205 2.094-3.029 1.38c-3.319 1.513-5.014 2.658-8.044 5.433-1.1 1.008-3.583 2.893-5.518 4.189-3.622 2.425-4.466 3.842-2.46 4.129 1.069.153 6.765-3.538 8.578-5.559 2.667-2.973 9.703-6.655 11.93-6.243 1.659.306 6.7 2.532 8.578 3.788.931.622 2.142 1.331 2.692 1.577.55.245 2.5 1.822 4.334 3.504 3.473 3.186 4.182 3.461 4.391 1.702.319-2.691-10.737-10.501-18.182-12.844-.986-.31-1.33-1.299-1.338-3.843-.008-2.814-2.195-12.585-3.804-17-2.182-5.987-2.387-5.559 2.799-5.828 5.979-.311 9.075-1.516 11.912-4.637.708-.779 1.822-1.693 2.476-2.031.653-.338 2.242-1.67 3.532-2.96 1.289-1.289 2.698-2.344 3.13-2.344 2.156 0 3.413-3.179 2.182-5.52-2.061-3.921-9.461-7.842-13.001-6.888-1.464.394-15.392.299-19.031-.13-1.183-.139-2.817-.016-4 .301m27.032 2.307c4.356 1.663 7.346 4.457 7.094 6.627-.122 1.052-4.678 4.84-8.126 6.757-.66.368-2.177 1.463-3.371 2.435-5.206 4.237-8.548 5.009-16.229 3.746-4.871-.8-9.492-4.297-13.431-10.161-3.007-4.476-3.043-5.112-.369-6.477.77-.394 1.96-1.141 2.645-1.662 3.741-2.843 25.394-3.705 31.787-1.265m143.39 8.43c-.084.275-.255 1.13-.381 1.9-.283 1.745.346.746.694-1.1.235-1.247.004-1.837-.313-.8m-2.284 6.847c-.094.431-.315.521-.696.283-.336-.21-.45-.631-.287-1.057.333-.868 1.193-.191.983.774M49.52 305.28c.744.744.64 1.751-.116 1.124-.327-.272-.506-.639-.397-.815.109-.176-.028-.412-.305-.523-.276-.112-.313-.217-.082-.234.231-.018.636.184.9.448m246.801 24.108c.117.116.023.212-.209.212-.232 0-1.387.916-2.567 2.035-3.018 2.863-4.905 3.531-5.227 1.85-.213-1.114.011-1.885.548-1.885.22 0 1.15-.606 2.067-1.346 2.187-1.767 4.169-2.085 5.388-.866" fill="#040404"/><path d="M40.8 40.397c-.55.183-1.54.453-2.2.601-1.088.242-1.134.315-.5.779.385.281.7.716.7.967 0 .308 1.198.456 3.7.456 3.427.001 6.775.741 7.748 1.715.445.444 1.56.337 2.713-.261 1.203-.624 1.031-.857-1.619-2.192-3.529-1.778-8.49-2.75-10.542-2.065m13.92 4.483c.579.579.645 1.669.08 1.32-.947-.586-.283.194.998 1.171 1.139.869 1.655 1.018 2.791.805 1.863-.35 1.341-1.393-1.39-2.777-2.169-1.098-3.294-1.334-2.479-.519m-25.549.711c-3.891 2.057-6.19 7.476-3.171 7.476.66 0 1.2-.158 1.2-.351 0-.468 3.136-4.779 3.952-5.432.439-.352.504-.606.203-.8-.243-.156-.393-.599-.334-.984.134-.866-.058-.856-1.85.091m9.629-.41c-7.666 1.585-11.465 8.679-11.826 22.087a633.124 633.124 0 01-.416 11.453c-.257 5.156.274 8.909 1.965 13.879.524 1.54 1.168 4.24 1.432 6 .263 1.76.65 4.1.859 5.2.209 1.1.66 4.07 1.002 6.6.343 2.53.963 6.051 1.378 7.825.415 1.774 1.05 4.924 1.41 7 .67 3.861 1.004 4.613 4.099 9.233 1.264 1.886 2.227 2.86 3.318 3.351 1.297.586 2.379 2.063 2.379 3.251 0 .538-1.243-.061-2.2-1.06-1.477-1.542-2.871-1.582-3.448-.1-.412 1.06-.323 2.67.427 7.7.181 1.21.63 4.36.998 7 .781 5.607 1.511 8.364 3.019 11.4.6 1.21 1.504 3.46 2.008 5s1.249 3.427 1.656 4.194c1.345 2.534.636 7.018-1.456 9.202-.531.554-1.522 2.176-2.203 3.605a151.49 151.49 0 01-1.763 3.599c-1.298 2.477-3.087 6.367-3.417 7.432-.199.642-1.101 3.058-2.004 5.368-.903 2.31-1.811 5.46-2.017 7-.522 3.893-.473 28.745.061 31 .234.99.572 5.58.752 10.2.324 8.363.721 12.335 1.331 13.314.177.283.474 1.598.661 2.923.193 1.367.928 3.566 1.701 5.086.752 1.482 1.47 3.61 1.607 4.767.136 1.149.725 3.219 1.309 4.6.584 1.38 1.326 3.32 1.65 4.31 1.387 4.249 4.321 9.53 6.334 11.4.711.66 2.149 2.28 3.196 3.6 3.104 3.911 8.184 8.079 11.079 9.088.699.244 2.256 1.134 3.461 1.978 1.576 1.104 2.603 1.534 3.662 1.534 1.939 0 4.87 1.05 9.996 3.58 4.904 2.421 6.768 3.048 10.714 3.608 2.392.339 3.783.889 7.991 3.156 2.802 1.51 5.545 2.884 6.095 3.052.55.168 2.72 1.968 4.822 4 3.349 3.237 4.365 3.955 8.2 5.792 2.408 1.153 5.818 2.788 7.578 3.633 1.76.846 4.55 1.844 6.2 2.219 1.65.375 3.36.865 3.8 1.089.44.223 1.97.53 3.4.681 4.205.445 9.878 2.213 12.973 4.044 4.969 2.939 7.61 4.328 8.248 4.337.342.005 2.142.745 4 1.645 2.088 1.012 4.831 1.936 7.179 2.419 2.09.43 4.97 1.08 6.4 1.444 1.43.365 4.04.69 5.8.722 1.76.033 4.19.275 5.4.539 3.227.704 18.042 1.332 25.23 1.07 7.772-.283 12.092-1.423 19.37-5.11 3.993-2.023 8.489-4.475 9.423-5.138.563-.4 1.823-1.042 2.8-1.426.977-.385 2.407-1.088 3.177-1.563.77-.475 3.47-1.877 6-3.115 7.181-3.515 13.234-6.787 15.178-8.206 1.864-1.361 7.034-3.973 11.892-6.008 1.578-.661 4.512-2.307 6.52-3.658 2.789-1.874 4.165-2.538 5.823-2.808 2.608-.425 5.417-1.616 7.05-2.99.659-.554 1.374-1.008 1.59-1.008.215 0 1.506-.761 2.869-1.692 2.165-1.479 3.996-2.52 11.678-6.644 2.162-1.161 5.248-2.464 5.834-2.464.529 0 9.666-4.554 14.366-7.16 6.061-3.361 10.722-10.181 13.23-19.355.408-1.494.857-2.902.998-3.131.142-.228.411-1.527.6-2.885.376-2.707 1.199-5.576 3.347-11.669l1.411-4 .015-7.4c.013-6.534.13-7.845.999-11.2 1.772-6.841 1.308-13.968-1.222-18.8-3.058-5.838-3.9-9.527-4.523-19.8l-.266-4.4-2.054-3.09c-4.638-6.976-4.698-9.902-.371-18.106 1.01-1.914 1.836-3.902 1.836-4.416 0-.515.195-1.443.432-2.062.238-.619.597-3.016.797-5.326.201-2.31.536-5.1.744-6.2.209-1.1.39-3.276.403-4.836.013-1.56.292-3.72.62-4.8 1.44-4.748-.046-6.803-2.754-3.81-1.271 1.405-1.532.475-.303-1.084 1.706-2.165 3.8-6.558 5.182-10.87.669-2.09 1.581-4.648 2.027-5.684.445-1.036.923-2.566 1.061-3.4.138-.834.491-2.416.786-3.516.294-1.1 1.115-4.19 1.825-6.866 1.651-6.226 1.64-6.209 3.157-4.756 1.323 1.268 1.954 1.188 1.235-.155-.249-.465-.652-.722-.895-.572-.314.194-.371-.34-.194-1.834.307-2.587 1.106-4.492 1.777-4.234.659.253 1.7-.161 1.7-.676 0-1.511-3.246.48-4.146 2.543-.975 2.236-.844-.339.146-2.85.571-1.45.8-2.973.8-5.331 0-1.815.27-4.338.6-5.604.956-3.672.832-25.779-.177-31.609-.826-4.764-2.685-8.193-6.132-11.307-2.483-2.243-3.063-2.379-6.173-1.443-1.495.45-3.528 1.031-4.518 1.292-2.417.636-9.963 3.92-11.154 4.854-.525.411-1.169.748-1.431.748-.598 0-5.638 3.23-12.663 8.115-1.017.707-2.367 1.595-3 1.974a229.72 229.72 0 00-3.752 2.34c-3.03 1.925-6.178 3.571-6.829 3.571-.635 0-3.188 2.034-7.086 5.646-1.963 1.819-4.817 3.926-7 5.166a9328.238 9328.238 0 01-5.285 3.002c-.88.499-2.936 1.998-4.568 3.33-1.633 1.332-3.491 2.537-4.13 2.678-.639.14-1.757.778-2.486 1.418-.729.639-1.963 1.429-2.743 1.755-.78.326-1.543.794-1.694 1.04-.152.246-.84.706-1.528 1.023-2.828 1.304-4.418 2.632-6.392 5.342-1.567 2.151-2.149 2.203-7.659.686-9.931-2.734-15.518-2.612-28.2.619-5.642 1.438-24.377 2.122-28.995 1.059-1.103-.254-8.305-.63-16.005-.836-7.7-.206-16.97-.464-20.6-.573-5.416-.163-7.03-.078-9 .475-2.111.594-3.795.643-14 .406l-11.6-.268-4.375-2.084c-2.406-1.146-5.093-2.682-5.972-3.413-.879-.73-2.306-1.69-3.173-2.132-2.738-1.397-7.392-5.073-11.403-9.007-2.132-2.091-4.687-4.355-5.677-5.031-.99-.676-2.97-2.159-4.4-3.297-1.43-1.137-3.5-2.667-4.6-3.399-7.872-5.24-8.265-5.583-14.081-12.298-2.024-2.337-8.177-6-13.319-7.93-4.693-1.762-7.497-3.175-9.879-4.978-5.757-4.358-11.387-5.961-16.921-4.818m10.528 2.017c1.698.708 4.071 2.179 5.806 3.599 2.095 1.714 3.582 2.585 5.2 3.044 4.686 1.332 15.72 7.055 17.466 9.06 4.012 4.607 5.048 5.951 7.472 9.699 1.423 2.2 3.214 4.477 3.979 5.06 2.54 1.936 7.273 8.692 8.67 12.377 1.17 3.085 1.573 3.657 4.877 6.927l3.602 3.564v4.72c0 3.806-.122 4.82-.629 5.236-2.169 1.78-2.171 1.785-2.171 5.254 0 3.593-.317 4.237-2.4 4.872-.55.168-2.336 1.449-3.97 2.848-1.633 1.398-3.099 2.542-3.257 2.542-.348 0-5.438 6.043-6.739 8-.511.77-2.033 2.497-3.382 3.838-4.611 4.586-7.038 7.353-7.59 8.658-.304.717-1.928 2.614-3.609 4.215-1.681 1.6-3.493 3.58-4.026 4.4-.534.819-1.702 2.389-2.596 3.489a90.273 90.273 0 00-2.729 3.542 52.94 52.94 0 01-2.536 3.2c-1.798 2.079-1.902 2.377-2.358 6.783-.464 4.485-.694 4.736-4.551 4.984-5.131.329-5.84-.313-7.856-7.109-.49-1.65-1.32-3.735-1.845-4.634-1.355-2.318-2.068-4.843-2.985-10.566-2.355-14.691-2.228-16.406 1.004-13.568 1.588 1.394 2.762 1.404 2.958.026.225-1.583-.745-3.248-2.38-4.082-3.67-1.872-6.654-7.607-7.363-14.149-.288-2.655-.808-5.727-1.157-6.827-.348-1.1-1.371-6.317-2.274-11.593-.968-5.663-2.05-10.662-2.641-12.2-2.611-6.801-1.933-33.746.991-39.41 3.268-6.329 11.633-8.88 19.019-5.799m313.528 1.213c-.683 1.959.797 3.607 2.696 3.004 1.074-.34 1.105-1.015.048-1.015-.44 0-.8.187-.8.416 0 .228-.376.065-.834-.362-.677-.631-.753-.931-.4-1.59.528-.988.558-1.664.073-1.664-.198 0-.551.545-.783 1.211m-2.116 2.805c5.562 5.65 6.125 7.984 6.353 26.329.123 9.952.038 12.638-.471 14.879-.342 1.504-.626 4.228-.631 6.055-.006 2.493-.214 3.77-.834 5.121-.454.99-.965 3.06-1.135 4.6-.386 3.495-4.566 19.862-5.562 21.78-.406.781-1.325 3.4-2.044 5.82-1.384 4.664-2.949 8.134-4.528 10.04-2.713 3.277-1.716 5.647 1.305 3.104 1.787-1.503 2.214-.858 1.432 2.159-.344 1.327-.631 3.466-.639 4.755-.008 1.288-.281 3.782-.609 5.542-.327 1.76-.855 5.09-1.175 7.4-.958 6.937-1.229 7.951-2.564 9.612-.691.86-1.606 2.381-2.035 3.381-.937 2.186-1.837 2.607-5.569 2.607-3.207 0-5.108-.572-5.446-1.638-.135-.424-.75-1.032-1.368-1.352-1.227-.634-1.448-1.03-2.235-4.01-.29-1.1-1.088-3.62-1.772-5.6-.684-1.98-1.411-4.45-1.616-5.488-.204-1.038-.982-3.288-1.728-5-1.783-4.092-2.858-6.71-4.636-11.289-1.175-3.026-1.678-3.864-2.529-4.212-1.26-.515-3.247-3.138-4.177-5.513-2.158-5.514-13.104-15.516-19.927-18.207-4.718-1.861-8.425-3.837-10.788-5.749-1.32-1.068-2.793-1.942-3.273-1.942-2.818 0-4.139-2.753-4.139-8.625 0-5.416.337-6.037 4.442-8.173 3.418-1.778 5.594-3.448 10.817-8.302 1.953-1.815 3.736-3.3 3.962-3.3.419 0 3.963-3.152 8.979-7.987 2.817-2.714 7.09-5.88 12.435-9.213 1.587-.99 5.469-3.533 8.626-5.651 3.156-2.118 7.089-4.523 8.739-5.344 1.65-.822 3.297-1.755 3.66-2.075 1.089-.96 10.26-4.908 12.063-5.193.922-.146 2.217-.5 2.877-.786 2.382-1.032 3.584-.725 5.74 1.465M111.2 84.824c0 .52-.17.718-.462.538-.612-.378-.083.542 1.022 1.779 1.269 1.421 7.901 6.308 9.04 6.662.55.171 1.713.92 2.585 1.665.872.745 2.582 1.818 3.8 2.385a685.9 685.9 0 014.615 2.173c2.142 1.019 2.958 1.165 7.6 1.358 2.86.118 6.807.32 8.77.447 4.643.301 5.897.05 6.529-1.311.759-1.635.361-1.707-9.412-1.714-9.379-.006-10.784-.227-12.682-1.994-.443-.413-2.065-1.409-3.605-2.215-1.54-.806-3.452-1.98-4.249-2.609-.797-.629-2.687-1.809-4.2-2.623-1.513-.813-3.535-2.038-4.493-2.722-4.15-2.962-4.858-3.227-4.858-1.819m149.2 13.301c0 .819 1.546 2.275 2.416 2.275.431 0 .784-.168.784-.373s.373-.492.829-.636c.79-.251.796-.3.138-1.027-.828-.916-4.167-1.107-4.167-.239m-88.2.26c-.734.302-.743.353-.1.615.385.157.7.536.7.843 0 .343.429.557 1.12.557.616 0 1.292.172 1.503.383.217.217 5.574.471 12.38.586 6.598.113 13.167.307 14.597.433 8.001.704 9.6.718 9.6.081 0-.339.225-.697.5-.795 1.031-.368-.149-.775-3.769-1.299-2.052-.297-4.775-.821-6.051-1.165-2.558-.688-28.884-.895-30.48-.239m2.653 31.541c.579.23 1.467 1.016 1.973 1.746.506.731 1.579 2.059 2.386 2.953 6.565 7.276 10.557 28.862 4.764 25.762-1.007-.539-1.251-1.646-1.338-6.092-.114-5.81-2.36-12.312-5.491-15.895a317.56 317.56 0 01-2.885-3.351c-3.66-4.33-10.19-.462-13.266 7.857-.588 1.591-1.406 3.614-1.818 4.494-1.084 2.32-2.719 8.358-3.141 11.6-.655 5.045-2.218 7.252-3.774 5.331-.536-.663-.683-1.31-.527-2.325.872-5.681 1.577-9.01 2.452-11.576.556-1.634 1.012-3.22 1.012-3.525 0-.306.517-1.669 1.149-3.03.632-1.361 1.459-3.337 1.839-4.39.749-2.08 6.197-8.377 8.244-9.528 1.3-.731 6.61-.75 8.421-.031m58.542 1.934c3.647 1.243 7.611 6.496 8.211 10.884.17 1.241.598 3.786.951 5.656 1.044 5.531.937 25.21-.142 26.187-1.911 1.729-3.449-1.183-3.057-5.787 1.015-11.917-.423-25.066-3.203-29.278-5.246-7.95-11.431-4.093-17.379 10.837-1.087 2.727-1.976 5.54-1.976 6.251 0 2.728-2.839 2.955-3.58.287-.616-2.22-.532-2.8.732-5.048.633-1.127 1.462-3.039 1.842-4.249.38-1.21 1.381-3.37 2.224-4.8.843-1.43 1.653-3.095 1.801-3.701.147-.605.959-1.648 1.803-2.316.844-.669 1.644-1.559 1.777-1.98.258-.814 2.378-2.3 4.382-3.073 1.733-.667 3.385-.629 5.614.13M41.6 173.072c0 1.242 1.78 5.307 2.085 4.762.195-.349.616-.634.935-.634.319 0 .58-.36.58-.8 0-.44-.18-.8-.4-.8-.22 0-.4-.289-.4-.643 0-.381-.224-.557-.549-.432-.316.121-.77-.201-1.068-.757-.483-.902-1.183-1.314-1.183-.696m314.835 1.485c-.436.526-.636.565-.878.174-.172-.28-.439-.382-.592-.229-.154.153-.058.545.212.871.494.595.228 1.601-.332 1.255-.165-.102-.527.48-.806 1.293-.278.814-.74 2.019-1.028 2.679-.91 2.091-1.095 3-.611 3 .279 0 .356.347.201.9-.173.616-.136.731.118.366.204-.294.53-.474.725-.4.611.231 2.956-5.046 2.956-6.653 0-.586.191-1.423.425-1.86.652-1.217.352-2.291-.39-1.396m-213.352 13.698c1.934 1.02 3.778 2.235 4.097 2.7.318.465 1.605 1.925 2.858 3.245 3.607 3.8 5.638 7.801 7.107 14 .417 1.76 1.492 5.36 2.388 8 .897 2.64 1.9 6.42 2.231 8.4.33 1.98.814 4.81 1.076 6.29.617 3.492.309 3.91-2.88 3.91-2.209 0-6.949 1.395-8.163 2.402-.256.213-1.171.637-2.032.941-.861.305-3.635 1.544-6.165 2.753-8.295 3.965-12.523 4.794-17.8 3.49-.88-.218-3.22-.575-5.2-.795-8.379-.928-9.409-1.102-10.282-1.742-.505-.37-1.998-1.376-3.318-2.237-6.086-3.969-7.684-6.386-9.131-13.812-1.375-7.059-1.874-10.52-1.874-13 0-1.529-.246-3.072-.597-3.746-.918-1.759-.77-2.101 1.702-3.925 1.265-.934 3.2-2.522 4.3-3.531 1.1-1.008 3.62-2.974 5.6-4.369 1.98-1.394 4.633-3.512 5.895-4.706 4.668-4.414 9.866-5.993 19.988-6.071l6.683-.052 3.517 1.855m137.465.018c4.902 1.626 11.692 6.318 17.734 12.254 5.667 5.568 5.698 5.642 4.38 10.5-1.556 5.735-1.838 7.322-2.119 11.908-.249 4.068-.342 4.429-1.504 5.854-.682.835-1.543 2.076-1.916 2.756-.372.681-1.201 1.557-1.843 1.948-.641.39-2.221 1.93-3.511 3.422-2.578 2.983-9.721 6.97-14.559 8.128-5.854 1.4-19.352.401-21.559-1.596-.397-.36-2.302-1.188-4.233-1.841-1.931-.653-4.885-1.953-6.565-2.889-2.917-1.626-3.238-1.711-7.206-1.909-5.704-.286-5.805-.456-3.442-5.808 1.407-3.185 1.77-4.47 1.781-6.304.01-1.62.489-3.682 1.614-6.945.88-2.552 1.6-5.048 1.6-5.548 0-1.337 1.864-6.055 3.141-7.954a69.8 69.8 0 002.172-3.498c2.093-3.647 7.803-8.351 10.137-8.351.414 0 3.623-.99 7.132-2.2 4.184-1.443 7.074-2.214 8.399-2.24 1.11-.022 2.469-.184 3.019-.36 1.884-.603 4.115-.399 7.348.673m-149.402 3.515c-.103.103-2.338.539-4.967.968-4.735.774-9.034 2.208-11.826 3.944-.796.495-1.651.9-1.899.9-.853 0-3.636 2.878-4.775 4.938a96.211 96.211 0 01-2.418 4.081c-.853 1.346-1.362 2.745-1.527 4.2-.136 1.199-.626 2.901-1.089 3.781-.735 1.397-.842 2.286-.843 7l-.002 5.4 2.498 4.863c4.025 7.839 7.631 9.806 19.502 10.636 10.408.728 10.668.705 15-1.345 2.09-.989 5.206-2.418 6.924-3.176 3.259-1.437 2.973-1.169 8.637-8.11 4.091-5.012 4.938-10.519 2.524-16.398-.707-1.722-1.285-3.65-1.285-4.285 0-7.085-13.259-17.585-22.206-17.585-1.133 0-2.145.084-2.248.188m6.891 1.356c4.548 1.566 7.67 3.535 11.634 7.34 4.139 3.974 4.199 4.085 5.438 10.116.225 1.1.894 3.26 1.486 4.8 1.418 3.69 1.28 6.531-.495 10.2-1.449 2.995-7.297 10.218-8.61 10.635-.487.155-3.227 1.413-6.088 2.796-6.524 3.154-8.281 3.624-11.286 3.021-1.237-.249-4.113-.452-6.39-.452-10.229 0-15.015-2.653-18.936-10.498l-2.45-4.902.143-5c.117-4.093.294-5.29.974-6.6.456-.88.941-2.576 1.076-3.769.172-1.516.656-2.787 1.608-4.221.749-1.128 1.739-2.762 2.2-3.631 2.331-4.392 9.071-7.994 17.543-9.376 2.528-.412 4.698-.852 4.823-.976.514-.515 5.316-.176 7.33.517m131.363-.328c-.88.176-2.86.509-4.4.739-7.021 1.049-15.25 5.959-18.511 11.045-1.44 2.246-6.09 15.992-6.084 17.984.02 6.37 6.639 16.128 11.995 17.685 1.21.352 3.37 1.23 4.8 1.95 7.142 3.598 17.998 2.798 25-1.842.88-.583 2.59-1.378 3.8-1.767 5.291-1.7 8.982-7.513 11.055-17.41 2.042-9.745-3.309-19.972-13.974-26.707-3.261-2.059-8.536-2.706-13.681-1.677m12.248 1.688c9.578 4.704 16.456 16.677 14.805 25.771-1.865 10.264-5.936 16.654-11.158 17.516-1.02.168-2.316.789-3.223 1.545-3.37 2.808-8.225 4.064-15.703 4.064h-5.032l-3.801-1.9c-2.09-1.045-4.108-1.9-4.484-1.9-2.245 0-7.399-4.647-9.23-8.322-3.078-6.176-3.21-8.712-.806-15.528.998-2.833 1.96-5.69 2.137-6.35 2.034-7.574 13.049-15.202 22.297-15.44.852-.022 2-.191 2.55-.377 2.362-.796 9.263-.25 11.648.921M135.2 198.401c-.55.176-3.391.337-6.313.359-5.937.045-6.406.175-10.687 2.973-4.413 2.885-5.364 3.815-6.781 6.63-4.95 9.828-2.779 22.688 4.363 25.846 5.13 2.269 11.112 3.758 15.168 3.777 3.278.015 3.052.087 11.05-3.513 10.16-4.571 12.952-25.337 4.292-31.923-4.172-3.173-8.766-4.891-11.092-4.149m129.8.404c-1.76.422-3.919.881-4.797 1.018-1.724.269-3.83 2.17-7.403 6.679-4.749 5.993-5.699 19.991-1.608 23.691.482.436 1.5 1.642 2.262 2.68 2.661 3.626 7.298 5.093 16.146 5.109 8.103.014 9.611-.71 12.874-6.182 3.955-6.635 4.726-9.44 4.726-17.204v-5.354l-1.946-2.321c-4.879-5.82-7.378-7.646-11.189-8.181-5.038-.707-5.873-.701-9.065.065m-124.271 1.283c3.545 1.317 6.861 4.129 8.401 7.125l1.331 2.587-.175 6.2c-.311 11.028-2.443 14.691-10.992 18.891L135 237l-4.6-.013c-4.625-.013-12.481-2.038-15.446-3.98-5.817-3.812-7.211-15.812-2.838-24.442 1.158-2.284 2.707-3.713 7.254-6.69l3.17-2.075 6.497-.201c3.574-.11 6.639-.342 6.811-.514.386-.386 2.08-.037 4.881 1.003M274 199.532c3.273.451 5.871 2.309 10.155 7.265l2.245 2.597v5.283c0 6.483-.415 8.62-2.472 12.723-4.66 9.292-5.415 9.802-14.507 9.795-8.247-.006-12.61-1.246-14.867-4.225-.635-.838-1.63-1.994-2.212-2.568-3.79-3.741-3.908-14.829-.233-21.803 1.027-1.949 6.784-7.74 7.891-7.938.55-.098 2.53-.548 4.4-1 3.366-.813 4.525-.829 9.6-.129m-141.364 2.028c-2.543 2.81-2.295 8.29.458 10.105 4.736 3.123 10.683-6.551 6.196-10.08-1.403-1.104-5.663-1.12-6.654-.025m139.285.116c-1.516.879-1.951 1.622-2.732 4.678-.945 3.692 2.931 7.204 5.658 5.128 1.046-.796 4.366-4.784 5.018-6.026 1.542-2.937-4.466-5.796-7.944-3.78m84.82 5.214c-1.382 2.934.465 12.45 2.445 12.599 1.431.108 1.435-1.817.017-7.789-.221-.935-.551-2.38-.733-3.21-.593-2.714-1.019-3.108-1.729-1.6M29.6 210.2c0 .33.18.6.4.6.22 0 .4-.27.4-.6 0-.33-.18-.6-.4-.6-.22 0-.4.27-.4.6m-.599 2.5c-.117.605-.416 1.91-.663 2.9-.806 3.227-.933 15.924-.185 18.496.356 1.225.65 3.099.653 4.166.007 2.159.511 3.451.926 2.372.133-.349.519-.634.855-.634 1.09 0 .905-26.773-.192-27.711-1.058-.906-1.142-.882-1.394.411m.805 30.491c-.579.936.347 9.609 1.026 9.609.202 0 .323-.225.268-.5-.056-.279.209-.448.6-.382.606.101.698-.22.683-2.4-.019-2.839-.915-7.249-1.284-6.318-.197.498-.303.507-.619.057-.286-.409-.452-.425-.674-.066m330.606 7.409c0 1.026.122 1.409.338 1.066.273-.429.386-.41.582.1.456 1.19 1.068.637 1.068-.966 0-1.156-.167-1.6-.6-1.6-.33 0-.603.225-.606.5-.004.333-.136.3-.394-.1-.286-.442-.388-.179-.388 1M185.6 266.02c0 .355-2.317 1.58-2.987 1.58-.398 0-.215-1.038.267-1.52.591-.591 2.72-.638 2.72-.06m16.396 1.018c4.289.078 8.444-.033 9.235-.246 3.54-.954 10.94 2.967 13.001 6.888 1.231 2.341-.026 5.52-2.182 5.52-.432 0-1.841 1.055-3.13 2.344-1.29 1.29-2.879 2.622-3.532 2.96-.654.338-1.768 1.252-2.476 2.031-2.837 3.121-5.933 4.326-11.912 4.637-5.186.269-4.981-.159-2.799 5.828 1.609 4.415 3.796 14.186 3.804 17 .008 2.544.352 3.533 1.338 3.843 7.445 2.343 18.501 10.153 18.182 12.844-.209 1.759-.918 1.484-4.391-1.702-1.834-1.682-3.784-3.259-4.334-3.504-.55-.246-1.761-.955-2.692-1.577-1.878-1.256-6.919-3.482-8.578-3.788-2.227-.412-9.263 3.27-11.93 6.243-1.813 2.021-7.509 5.712-8.578 5.559-2.006-.287-1.162-1.704 2.46-4.129 1.935-1.296 4.418-3.181 5.518-4.189 3.03-2.775 4.725-3.92 8.044-5.433l3.029-1.38-.205-2.094c-.404-4.105-2.159-11.989-3.622-16.267-1.296-3.79-4.444-8.426-5.722-8.426-1.068 0-4.998-2.537-6.048-3.905a91.468 91.468 0 00-2.768-3.352c-.931-1.073-1.959-2.468-2.285-3.099-.327-.631-1.23-1.523-2.008-1.982-2.774-1.637-1.719-4.677 2.333-6.723.689-.348 1.617-.965 2.063-1.372 1.748-1.594 7.61-3.233 10.389-2.905 1.1.13 5.508.299 9.796.376m-15.151 1.772c-1.185.428-2.715 1.204-3.4 1.725a21.322 21.322 0 01-2.645 1.662c-2.674 1.365-2.638 2.001.369 6.477 3.939 5.864 8.56 9.361 13.431 10.161 7.681 1.263 11.023.491 16.229-3.746 1.194-.972 2.711-2.067 3.371-2.435 3.448-1.917 8.004-5.705 8.126-6.757.252-2.17-2.738-4.964-7.094-6.627-3.73-1.424-24.776-1.765-28.387-.46m27.493 1.308c3.851 1.183 7.882 4.555 7.051 5.9-.573.928-6.823 5.242-7.915 5.464-.619.125-1.969 1.016-3 1.979-3.471 3.241-12.806 5.044-16.625 3.21-.687-.329-2.447-1.078-3.91-1.664-3.379-1.351-5.469-3.147-7.96-6.838-2.417-3.582-2.488-4.345-.484-5.183.822-.343 1.877-.984 2.344-1.423 2.578-2.422 24.012-3.438 30.499-1.445m143.523 1.217c-1.354 3.064-2.911 10.21-2.041 9.368.395-.382 1.441.474 1.152.942-.121.195-.123.355-.006.355.407 0 1.434-2.365 1.434-3.3 0-.517.143-1.111.318-1.32.972-1.16 2.031-7.117 1.341-7.543-.222-.138-.529-.048-.681.199-.184.297-.364.311-.53.042-.139-.224-.583.341-.987 1.257m-2.506 12.438c-.163.426-.049.847.287 1.057.691.432 1.039-.709.409-1.339-.3-.3-.505-.216-.696.282M48.702 305.066c.277.111.414.347.305.523-.109.176.07.543.397.815.48.398.596.384.596-.075 0-.681-.793-1.542-1.38-1.497-.231.017-.194.122.082.234M90.8 325.38c0 .319-.293.744-.652.945-.516.289-.251.501 1.272 1.02 2.649.902 2.871.857 2.665-.545-.122-.831-.4-1.2-.907-1.2-.402 0-.842-.18-.978-.4-.376-.609-1.4-.477-1.4.18m202.4 3.335c-.33.106-1.35.798-2.267 1.539-.917.74-1.847 1.346-2.067 1.346-.537 0-.761.771-.548 1.885.277 1.448 2.533.868 4.283-1.103.439-.494 1.501-1.413 2.359-2.041.858-.627 1.487-1.141 1.397-1.141-.089 0-.701-.152-1.36-.338-.658-.187-1.467-.252-1.797-.147" fill="#3c3c34"/><path d="M36.6 47.06c-6.877 3.517-8.003 6.697-8.644 24.416-.484 13.373-.269 16.684 1.362 20.931.591 1.538 1.673 6.537 2.641 12.2.903 5.276 1.926 10.493 2.274 11.593.349 1.1.869 4.172 1.157 6.827.709 6.542 3.693 12.277 7.363 14.149 1.635.834 2.605 2.499 2.38 4.082-.196 1.378-1.37 1.368-2.958-.026-3.232-2.838-3.359-1.123-1.004 13.568.917 5.723 1.63 8.248 2.985 10.566.525.899 1.355 2.984 1.845 4.634 2.016 6.796 2.725 7.438 7.856 7.109 3.857-.248 4.087-.499 4.551-4.984.456-4.406.56-4.704 2.358-6.783a52.94 52.94 0 002.536-3.2 90.273 90.273 0 012.729-3.542c.894-1.1 2.062-2.67 2.596-3.489.533-.82 2.345-2.8 4.026-4.4 1.681-1.601 3.305-3.498 3.609-4.215.552-1.305 2.979-4.072 7.59-8.658 1.349-1.341 2.871-3.068 3.382-3.838 1.301-1.957 6.391-8 6.739-8 .158 0 1.624-1.144 3.257-2.542 1.634-1.399 3.42-2.68 3.97-2.848 2.083-.635 2.4-1.279 2.4-4.872 0-3.469.002-3.474 2.171-5.254.507-.416.629-1.43.629-5.236v-4.72l-3.602-3.564c-3.304-3.27-3.707-3.842-4.877-6.927-1.397-3.685-6.13-10.441-8.67-12.377-.765-.583-2.556-2.86-3.979-5.06-2.424-3.748-3.46-5.092-7.472-9.699-1.746-2.005-12.78-7.728-17.466-9.06-1.618-.459-3.105-1.33-5.2-3.044-5.838-4.777-13.486-6.319-18.534-3.737m12.6 1.03c1.21.543 3.46 2.023 5 3.289 3.254 2.676 4.229 3.22 6.362 3.549 2.157.334 14.44 6.525 15.981 8.055 1.791 1.78 4.489 5.38 7.183 9.586 1.28 1.997 3.462 4.801 4.849 6.231 4.159 4.286 6.867 8.2 8.108 11.718 1.022 2.9 1.431 3.489 4.817 6.947l3.7 3.779v8.335l-1.194.618c-1.379.713-1.567 1.308-1.705 5.403-.101 2.995-.103 3.001-1.501 3.687-2.738 1.344-9.01 6.885-11.816 10.44-2.974 3.768-11.281 12.845-12.6 13.769-.437.306-1.144 1.241-1.571 2.078-.426.836-2.148 2.749-3.825 4.25-1.678 1.501-3.394 3.37-3.814 4.153-.42.783-1.576 2.413-2.569 3.623-.994 1.21-2.301 2.894-2.906 3.742-.604.849-1.751 2.289-2.547 3.2-1.707 1.955-1.928 2.573-2.522 7.058l-.451 3.4-3.27.116c-3.91.138-4.119-.056-5.374-5.003-.435-1.712-1.291-4.013-1.903-5.113-1.43-2.571-2.311-5.295-2.844-8.8-.234-1.54-.688-4.51-1.01-6.6-1.053-6.857-1.09-7.2-.764-7.2.178 0 .619.268.981.595 2.074 1.877 5.105.608 4.688-1.963-.442-2.721-1.392-4.261-3.025-4.902-1.095-.43-2.032-1.284-3.15-2.871-2.967-4.21-3.348-5.298-3.573-10.202-.14-3.065-.496-5.394-1.138-7.457-.514-1.65-1.02-3.54-1.125-4.2-1.75-10.967-3.193-17.631-4.274-19.736-1.164-2.263-1.4-5.331-1.377-17.885.036-19.822 1.527-23.722 10.179-26.626 1.956-.656 7.633-.124 10 .937m314.439.584c-.406.89-.357 1.143.345 1.797.449.418.816.573.816.345 0-.229.259-.416.576-.416 1.046 0 .993-.632-.144-1.705l-1.121-1.058-.472 1.037M355 49.751c-.66.286-1.955.64-2.877.786-1.803.285-10.974 4.233-12.063 5.193-.363.32-2.01 1.253-3.66 2.075-1.65.821-5.583 3.226-8.739 5.344-3.157 2.118-7.039 4.661-8.626 5.651-5.345 3.333-9.618 6.499-12.435 9.213-5.016 4.835-8.56 7.987-8.979 7.987-.226 0-2.009 1.485-3.962 3.3-5.223 4.854-7.399 6.524-10.817 8.302-4.105 2.136-4.442 2.757-4.442 8.173 0 5.872 1.321 8.625 4.139 8.625.48 0 1.953.874 3.273 1.942 2.363 1.912 6.07 3.888 10.788 5.749 6.823 2.691 17.769 12.693 19.927 18.207.93 2.375 2.917 4.998 4.177 5.513.851.348 1.354 1.186 2.529 4.212 1.778 4.579 2.853 7.197 4.636 11.289.746 1.712 1.524 3.962 1.728 5 .205 1.038.932 3.508 1.616 5.488.684 1.98 1.482 4.5 1.772 5.6.787 2.98 1.008 3.376 2.235 4.01.618.32 1.233.928 1.368 1.352.338 1.066 2.239 1.638 5.446 1.638 3.732 0 4.632-.421 5.569-2.607.429-1 1.344-2.521 2.035-3.381 1.335-1.661 1.606-2.675 2.564-9.612.32-2.31.848-5.64 1.175-7.4.328-1.76.601-4.254.609-5.542.008-1.289.295-3.428.639-4.755.782-3.017.355-3.662-1.432-2.159-3.021 2.543-4.018.173-1.305-3.104 1.579-1.906 3.144-5.376 4.528-10.04.719-2.42 1.638-5.039 2.044-5.82.996-1.918 5.176-18.285 5.562-21.78.17-1.54.681-3.61 1.135-4.6.62-1.351.828-2.628.834-5.121.005-1.827.289-4.551.631-6.055.881-3.873.633-25.186-.361-31.024-1.324-7.776-6.896-13.54-11.261-11.649m4.402 1.522c2.37 1.864 4.912 6.488 5.184 9.43.138 1.483.512 3.814.832 5.179.977 4.166.823 22.859-.219 26.62-.593 2.137-.738 3.518-.559 5.294.2 1.978.058 2.93-.799 5.374-.572 1.633-1.041 3.639-1.041 4.457 0 .817-.563 3.621-1.252 6.23-.689 2.609-1.39 5.373-1.558 6.143-.867 3.977-1.999 7.754-2.597 8.667-.829 1.265-2.507 6.082-2.998 8.609-.478 2.457-2.428 6.486-4.189 8.655-2.321 2.858-1.78 5.269 1.183 5.269 1.752 0 1.76.006 1.602 1.3-.088.715-.25 2.518-.361 4.007-.111 1.489-.644 4.999-1.186 7.8-.541 2.801-1.192 6.612-1.446 8.468-.417 3.043-.615 3.548-2.01 5.134-.852.967-1.751 2.373-1.999 3.125l-.451 1.366h-6.707l-1.86-1.807c-1.342-1.304-1.96-2.279-2.221-3.5-.199-.931-.611-2.323-.917-3.093-.973-2.456-2.633-7.791-2.633-8.466 0-.358-.559-1.975-1.243-3.593-.684-1.617-1.585-3.918-2.003-5.113-.418-1.194-1.461-3.447-2.317-5.007-.856-1.56-1.762-3.598-2.012-4.529-.361-1.34-.764-1.85-1.94-2.453-1.461-.75-3.492-3.564-4.48-6.207-1.719-4.599-14.384-15.783-20.205-17.844-4.03-1.426-8.061-3.55-10.526-5.544-1.39-1.124-2.92-2.047-3.4-2.05-2.271-.016-3.474-2.497-3.474-7.161 0-4.837.429-5.635 4-7.433 2.823-1.422 7.414-4.889 11.853-8.954 1.349-1.235 4.129-3.686 6.176-5.446a313.002 313.002 0 006.547-5.801c3.33-3.067 7.847-6.535 11.293-8.67 1.357-.841 4.597-2.974 7.2-4.741 2.602-1.767 6.621-4.179 8.931-5.36 2.31-1.182 4.683-2.55 5.273-3.04.59-.49 2.48-1.468 4.2-2.173 1.72-.705 3.808-1.627 4.639-2.048.832-.422 2.002-.775 2.6-.785.599-.01 1.628-.265 2.288-.568 1.798-.823 3.546-.729 4.802.259m7.853 54.748c-.69 1.559-1.082 5.248-.541 5.098.236-.065.725.241 1.085.681.636.777.648.767.412-.334-.278-1.295.078-2.782.59-2.465.189.116.474.001.633-.256.174-.282.117-.362-.145-.2-.238.147-.546.087-.683-.135-.314-.508.424-1.88.866-1.61.18.11.382-.265.448-.833.18-1.549-1.975-1.504-2.665.054m-200.823 23.936c-2.047 1.151-7.495 7.448-8.244 9.528-.38 1.053-1.207 3.029-1.839 4.39-.632 1.361-1.149 2.724-1.149 3.03 0 .305-.456 1.891-1.012 3.525-.875 2.566-1.58 5.895-2.452 11.576-.156 1.015-.009 1.662.527 2.325 1.556 1.921 3.119-.286 3.774-5.331.422-3.242 2.057-9.28 3.141-11.6.412-.88 1.23-2.903 1.818-4.494 3.076-8.319 9.606-12.187 13.266-7.857a317.56 317.56 0 002.885 3.351c3.131 3.583 5.377 10.085 5.491 15.895.087 4.446.331 5.553 1.338 6.092 5.793 3.1 1.801-18.486-4.764-25.762-.807-.894-1.88-2.222-2.386-2.953-1.536-2.217-7.694-3.234-10.394-1.715m8.068.91c.605.236 1.1.569 1.1.738 0 .17.777 1.183 1.728 2.252 4.976 5.597 7.515 11.839 8.09 19.89.257 3.592-.031 5.453-.842 5.453-.835 0-1.116-1.729-.831-5.105.163-1.924.1-3.2-.173-3.529-.235-.283-.752-1.832-1.149-3.441-.962-3.902-2.461-6.908-4.633-9.286-.984-1.079-1.79-2.202-1.79-2.497 0-.792-2.982-2.812-4.599-3.115-4.142-.777-10.322 5.594-12.203 12.582-.265.981-.799 2.235-1.189 2.787-.389.552-.811 1.634-.937 2.404-.127.77-.68 3.02-1.23 5-.55 1.98-1.01 4.194-1.021 4.92-.026 1.616-1.096 3.804-1.684 3.441-.257-.159-.338-.925-.2-1.913l.599-4.286c.42-2.988 2.517-9.966 3.896-12.962.506-1.1 1.107-2.725 1.335-3.611.517-2.004 1.433-3.239 5.26-7.089l3.026-3.046 3.174-.009c1.745-.005 3.668.185 4.273.422m53.281.863c-2.004.773-4.124 2.259-4.382 3.073-.133.421-.933 1.311-1.777 1.98-.844.668-1.656 1.711-1.803 2.316-.148.606-.958 2.271-1.801 3.701-.843 1.43-1.844 3.59-2.224 4.8-.38 1.21-1.209 3.122-1.842 4.249-1.264 2.248-1.348 2.828-.732 5.048.741 2.668 3.58 2.441 3.58-.287 0-.711.889-3.524 1.976-6.251 5.948-14.93 12.133-18.787 17.379-10.837 2.78 4.212 4.218 17.361 3.203 29.278-.392 4.604 1.146 7.516 3.057 5.787 1.079-.977 1.186-20.656.142-26.187-.353-1.87-.781-4.415-.951-5.656-.993-7.261-8.351-13.122-13.825-11.014m5.187 1.092c3.824 1.431 7.289 6.156 7.905 10.778.161 1.21.479 3.37.706 4.8.871 5.494.731 25-.179 25-.902 0-1.562-3.96-.948-5.683 1.297-3.637-.635-23.406-2.674-27.366-4.282-8.311-11.838-7.162-16.774 2.551-1.857 3.654-5.004 11.58-5.004 12.604 0 2.376-1.357 2.837-1.957.664-.44-1.594-.307-2.143 1.012-4.17.501-.77 1.267-2.547 1.701-3.949.435-1.402 1.434-3.591 2.22-4.865.787-1.274 1.546-2.894 1.687-3.6.175-.878.674-1.53 1.579-2.064.727-.429 1.433-1.127 1.567-1.551.885-2.789 5.699-4.443 9.159-3.149" fill="#8c746c"/><path d="M370.093 106c0 .77.082 1.085.183.7.1-.385.1-1.015 0-1.4-.101-.385-.183-.07-.183.7m-239.386 86.627c-.125.124-2.295.564-4.823.976-8.472 1.382-15.212 4.984-17.543 9.376-.461.869-1.451 2.503-2.2 3.631-.952 1.434-1.436 2.705-1.608 4.221-.135 1.193-.62 2.889-1.076 3.769-.68 1.31-.857 2.507-.974 6.6l-.143 5 2.45 4.902c3.921 7.845 8.707 10.498 18.936 10.498 2.277 0 5.153.203 6.39.452 3.005.603 4.762.133 11.286-3.021 2.861-1.383 5.601-2.641 6.088-2.796 1.313-.417 7.161-7.64 8.61-10.635 1.775-3.669 1.913-6.51.495-10.2-.592-1.54-1.261-3.7-1.486-4.8-1.239-6.031-1.299-6.142-5.438-10.116-3.964-3.805-7.086-5.774-11.634-7.34-2.014-.693-6.816-1.032-7.33-.517m139.293.956c-.55.186-1.698.355-2.55.377-9.248.238-20.263 7.866-22.297 15.44-.177.66-1.139 3.517-2.137 6.35-2.404 6.816-2.272 9.352.806 15.528 1.831 3.675 6.985 8.322 9.23 8.322.376 0 2.394.855 4.484 1.9l3.801 1.9h5.032c7.478 0 12.333-1.256 15.703-4.064.907-.756 2.203-1.377 3.223-1.545 5.222-.862 9.293-7.252 11.158-17.516 2.577-14.188-13.981-30.895-26.453-26.692m-128.777 2.047c6.989 3.418 11.967 8.783 12.591 13.57.129.99.763 3.186 1.41 4.88 2.129 5.576 1.344 10.525-2.376 14.973-.576.689-1.937 2.354-3.023 3.7s-2.114 2.447-2.285 2.447c-.17 0-2.521 1.05-5.225 2.334-8.699 4.132-7.189 3.822-15.981 3.276-7.757-.483-12.788-1.383-14.501-2.595-3.574-2.531-3.894-2.908-6.04-7.124l-2.193-4.309v-5.007c0-4.262.122-5.246.822-6.618.452-.887.925-2.544 1.05-3.684.141-1.277.708-2.885 1.478-4.189a182.791 182.791 0 001.852-3.2c1.28-2.307 3.042-4.226 4.391-4.783.774-.319 1.681-.824 2.016-1.121 1.154-1.023 6.597-2.997 9.391-3.407 1.54-.226 3.43-.563 4.2-.751 4.243-1.032 8.025-.542 12.423 1.608m139.61-.532c8.931 3.979 16.411 16.503 14.749 24.694-2.135 10.519-6.087 17.008-10.359 17.008-1.244 0-1.938.314-3.309 1.5-5.023 4.345-17.672 5.648-23.786 2.451-1.524-.797-3.795-1.746-5.046-2.11-6.537-1.9-12.267-12.343-10.357-18.876 3.794-12.975 6.08-17.031 11.118-19.723.856-.457 2.278-1.374 3.159-2.037 1.707-1.285 8.172-3.156 11.198-3.24.88-.025 2.05-.199 2.6-.387 1.814-.622 8.023-.176 10.033.72M134 197.579c-.55.188-3.274.359-6.054.381-5.723.045-5.901.1-10.746 3.317-7.331 4.868-9.373 9.215-9.136 19.454l.136 5.909 1.8 2.772c3.321 5.116 3.371 5.152 10.265 7.384 5.795 1.876 6.453 2.004 10.318 2.004 4.408 0 4.164.072 11.713-3.471 3.513-1.649 7.263-5.931 8.697-9.929 1.224-3.417 1.349-14.878.196-18-2.146-5.813-12.163-11.536-17.189-9.821m131 .24c-1.1.288-3.08.732-4.4.986-4.058.78-9.841 7.266-11.59 12.999-1.436 4.708-1.494 14.781-.098 17.018 4.866 7.795 9.368 9.984 20.509 9.969 10.051-.013 11.13-.728 16.126-10.695 2.064-4.118 2.453-6.224 2.453-13.28v-5.944l-1.634-2.067c-6.615-8.369-13.19-11.134-21.366-8.986m-123.583 1.759c7.347 3.35 9.512 6.616 9.712 14.656.258 10.333-2.959 17.463-9.129 20.239-7.998 3.6-7.772 3.528-11.05 3.513-4.056-.019-10.038-1.508-15.168-3.777-7.142-3.158-9.313-16.018-4.363-25.846 1.417-2.815 2.368-3.745 6.781-6.63 4.281-2.798 4.75-2.928 10.687-2.973 2.922-.022 5.763-.183 6.313-.359 1.445-.461 3.459-.08 6.217 1.177m132.648-.838c3.811.535 6.31 2.361 11.189 8.181l1.946 2.321v5.354c0 7.764-.771 10.569-4.726 17.204-3.263 5.472-4.771 6.196-12.874 6.182-8.848-.016-13.485-1.483-16.146-5.109-.762-1.038-1.78-2.244-2.262-2.68-4.091-3.7-3.141-17.698 1.608-23.691 3.573-4.509 5.679-6.41 7.403-6.679.878-.137 3.037-.596 4.797-1.018 3.192-.766 4.027-.772 9.065-.065m-91.185 67.34c-.482.482-.665 1.52-.267 1.52.67 0 2.987-1.225 2.987-1.58 0-.578-2.129-.531-2.72.06m3.765 3.912c-1.076.425-2.338 1.132-2.806 1.571-.467.439-1.522 1.08-2.344 1.423-2.004.838-1.933 1.601.484 5.183 2.491 3.691 4.581 5.487 7.96 6.838 1.463.586 3.223 1.335 3.91 1.664 3.819 1.834 13.154.031 16.625-3.21 1.031-.963 2.381-1.854 3-1.979 1.092-.222 7.342-4.536 7.915-5.464.831-1.345-3.2-4.717-7.051-5.9-3.534-1.086-25.017-1.183-27.693-.126" fill="#ac4c34"/></g></svg>