<svg xmlns="http://www.w3.org/2000/svg" width="400" height="400"><g fill-rule="evenodd"><path d="M37.219 47.306c-2.272 1.141-5.223 3.983-6.535 6.294-2.916 5.136-3.245 31.944-.475 38.8.488 1.21 1.103 3.73 1.365 5.6.262 1.87.735 4.71 1.051 6.311.316 1.602.575 3.415.575 4.031 0 .616.556 3.085 1.235 5.489.687 2.43 1.406 6.233 1.621 8.569.533 5.79 4.091 12.984 6.834 13.816 1.478.448 2.589 1.725 3.105 3.566.899 3.211-.912 4.641-3.613 2.853-2.401-1.588-2.297-2.677-.859 9 .928 7.542 1.628 10.301 3.485 13.745.718 1.331 1.533 3.409 1.812 4.618 1.136 4.928 2.426 6.387 5.654 6.396 4.278.011 4.735-.55 5.33-6.557.238-2.404.45-2.951 1.629-4.2.746-.791 1.764-2.003 2.262-2.695 2.157-2.997 3.791-5.166 4.981-6.611.702-.852 1.379-1.875 1.505-2.272.127-.398 1.848-2.207 3.825-4.02 1.976-1.813 3.594-3.578 3.594-3.922 0-.595 1.687-2.46 7.649-8.454 1.457-1.465 3.163-3.383 3.793-4.263 3.731-5.217 12.372-13.4 14.149-13.4 1.461 0 2.009-1.292 2.009-4.735 0-2.844.111-3.364.845-3.969 1.954-1.61 1.955-1.615 1.955-5.887v-4.133l-1.426-1.707c-.784-.939-2.464-2.711-3.733-3.938-1.598-1.545-2.528-2.846-3.023-4.231-1.794-5.012-4.141-8.512-9.386-14-1.261-1.32-2.91-3.454-3.663-4.742-1.299-2.222-2.668-3.962-7.155-9.094-2.268-2.594-6.43-4.796-17.694-9.364-1.254-.509-3.647-1.954-5.318-3.212-5.866-4.414-12.941-5.913-17.383-3.682m318.302 2.906c-.116.117-1.262.383-2.545.592-1.284.209-2.883.636-3.555.95a129.7 129.7 0 01-3.681 1.596c-1.353.565-3.333 1.562-4.4 2.217a94.086 94.086 0 01-4.34 2.454c-3.773 1.988-7.441 4.19-9.399 5.644a56.003 56.003 0 01-3.44 2.335c-10.084 6.15-14.17 9.317-23.24 18.021-1.364 1.308-2.688 2.379-2.943 2.379-.255 0-1.749 1.228-3.321 2.728-4.772 4.556-8.042 7.102-11.47 8.928-4.137 2.204-4.396 2.682-4.356 8.024.039 5.085 1.183 7.619 3.541 7.849.841.082 2.24.839 3.828 2.071 2.759 2.141 8.023 4.931 10.192 5.402 4.845 1.052 17.612 12.249 20.02 17.56 1.686 3.718 2.993 5.53 4.654 6.447 1.158.64 1.613 1.248 2.182 2.921.395 1.162 1.249 3.048 1.898 4.192.648 1.143 1.447 2.991 1.774 4.107.327 1.116 1.076 2.979 1.664 4.139.587 1.16 1.404 3.396 1.814 4.97.409 1.574 1.367 4.752 2.127 7.062.76 2.31 1.505 4.731 1.656 5.381.151.649 1.152 2.044 2.224 3.1l1.95 1.919h7.632l1.057-2.086c.581-1.148 1.568-2.723 2.193-3.5 1-1.244 1.234-2.1 1.95-7.125.448-3.141.98-6.471 1.181-7.4.202-.929.479-3.309.615-5.289.137-1.98.347-4.44.466-5.466l.217-1.867-1.629.219c-3.012.404-3.855-1.898-1.625-4.439 1.969-2.243 4.147-6.606 5.114-10.247.496-1.87 1.424-4.52 2.062-5.889.638-1.369 1.286-3.349 1.44-4.4.155-1.051.45-2.361.656-2.911.206-.55.523-1.72.705-2.6.181-.88.888-3.742 1.57-6.359.683-2.618 1.241-5.395 1.241-6.17 0-.776.469-2.77 1.042-4.431.772-2.234.993-3.532.853-4.99-.111-1.154.121-3.39.558-5.391.844-3.863 1.1-23.371.362-27.635a415.444 415.444 0 01-.791-4.805c-.857-5.453-7.485-12.425-9.703-10.207M131.8 179.591c-1.493.539-3.978.81-9.802 1.068l-7.802.346-4.359 2.198c-2.764 1.392-5.253 3.006-6.799 4.406-1.341 1.215-3.283 2.883-4.316 3.709-1.842 1.47-4.236 4.268-8.823 10.31l-2.299 3.027v3.878c0 3.453.893 8.399 1.773 9.824.125.202.58 2.049 1.011 4.105.431 2.056 1.162 5.538 1.626 7.738.464 2.2 1.205 4.506 1.646 5.124.442.619 1.148 2.126 1.57 3.351.736 2.141 2.453 5.186 3.719 6.6.524.584 4.172 1.838 10.101 3.471.906.25 2.977.454 4.603.454s3.511.159 4.189.353c.677.195 5.986.419 11.797.499l10.565.146 3.325-2.096c1.829-1.153 4.529-2.566 6-3.139 1.471-.574 3.554-1.49 4.629-2.036 1.871-.949 3.679-1.432 10.193-2.723 3.396-.672 4.053-1.09 4.053-2.575 0-.591.45-1.684 1-2.429 1.3-1.761 1.31-4.035.037-8.455a132.21 132.21 0 01-2.668-10.945c-.261-1.32-.969-4.11-1.575-6.2-.605-2.09-1.376-5.272-1.712-7.072-.336-1.799-.852-3.71-1.147-4.246a631.717 631.717 0 01-1.603-2.953c-.588-1.087-1.737-2.777-2.553-3.753-.816-.977-2.004-2.697-2.64-3.823-1.259-2.231-5.048-6.072-6.968-7.065-3.784-1.956-12.762-2.544-16.771-1.097m140.814 2.828c-3.159.717-4.831 1.311-13.098 4.65-2.356.952-4.568 1.731-4.916 1.731-2.806 0-11.798 6.917-14.819 11.4-.741 1.1-2.163 2.99-3.159 4.2-2.727 3.311-5.501 9.19-6.418 13.598-.594 2.858-1.773 6.409-2.766 8.328-1.034 2-.894 8.44.215 9.85 1.979 2.516 4.852 2.314 4.495-.316-.188-1.386.046-2.234 1.413-5.136 1.359-2.881 1.639-3.892 1.639-5.912 0-1.347.286-3.103.64-3.925 1.026-2.386 2.945-8.607 2.953-9.572.02-2.505 4.783-11.171 8.169-14.865 1.99-2.17 5.31-4.086 8.393-4.845 1.565-.385 5.095-1.514 7.845-2.51 13.335-4.827 21.964-2.169 35.342 10.887 5.967 5.823 6.127 6.104 5.217 9.175-1.743 5.885-2.597 10.481-2.633 14.167-.035 3.512-.226 4.115-1.987 6.267-.627.765-1.142 1.575-1.145 1.8-.017 1.143-8.31 8.916-10.629 9.962-.861.388-2.825 1.349-4.365 2.135-6.581 3.36-22.479 3.676-27.543.548-.691-.427-3.048-1.417-5.237-2.199-2.189-.782-5.069-2.1-6.4-2.929-2.333-1.452-7.813-2.243-8.791-1.269-.716.713 1.861 3.917 3.637 4.522 1.281.436 2.832 1.583 5.148 3.807 4.614 4.429 7.067 4.929 24.386 4.97 13.657.032 16.935-.539 21.2-3.696 1.1-.814 2.9-1.993 4-2.62 9.297-5.297 12.5-9.182 13.81-16.752.407-2.35 2.314-7.801 4.773-13.637 3.118-7.404 2.865-9.449-1.762-14.22-1.82-1.877-3.47-3.708-3.665-4.067-.995-1.831-11.413-11.049-14.292-12.646l-3.064-1.7-6.7.048c-4.871.035-7.569.246-9.886.771M143.513 187.7c6.231 3.325 13.328 12.484 14.515 18.73.269 1.414 1.011 4.264 1.649 6.333.638 2.07 1.776 6.57 2.528 10 .752 3.431 1.553 6.866 1.781 7.634 1.111 3.751.522 4.511-3.754 4.844-2.889.224-3.923.518-6.737 1.912-1.829.906-3.464 1.647-3.635 1.647-.305 0-2.94 1.193-8.46 3.83-5.484 2.62-11.345 3.361-17 2.15-1.632-.35-3.557-.613-11.036-1.506-1.34-.16-2.87-.603-3.4-.984-.53-.381-2.044-1.397-3.364-2.256-4.822-3.14-7.888-6.773-8.425-9.982a25.705 25.705 0 00-.607-2.654c-.201-.661-.538-2.461-.748-4a85.04 85.04 0 00-1.002-5.598c-.34-1.54-.618-3.934-.618-5.32 0-1.48-.253-3.008-.612-3.703-.827-1.6-.435-2.218 3.104-4.887 1.599-1.206 3.268-2.597 3.708-3.09.44-.493 2.6-2.174 4.8-3.735 2.2-1.561 5.106-3.866 6.458-5.122 2.61-2.424 4.309-3.429 7.542-4.459 4.083-1.301 4.962-1.403 12.464-1.443l7.663-.041 3.186 1.7m169.142 67.73c-.769.432-1.59.559-2.505.387-.928-.174-1.641-.058-2.244.364-.568.398-1.774.619-3.372.619-1.787 0-2.879.23-3.873.817-.903.533-1.729.731-2.374.569-.753-.189-1.332.053-2.428 1.016-1.069.938-2.006 1.341-3.63 1.562-2.124.288-6.295 3.828-8.001 6.79-.205.355-1.51 1.803-2.9 3.218-1.813 1.844-2.523 2.862-2.511 3.6.059 3.455 1.769 6.984 4.032 8.32.614.363 1.322 1.156 1.573 1.761.314.757.849 1.181 1.717 1.358.696.142 1.745.825 2.34 1.523.81.949 1.221 1.166 1.644.866 2.918-2.068 2.537-1.967 4.738-1.256 2.567.829 4.101.831 5.359.006.722-.473 1.441-.578 2.64-.387.906.145 2.242.067 2.969-.173 1.058-.349 1.567-.309 2.55.199.907.469 1.43.527 1.998.223 1.236-.661 2.217-.483 3.223.588 1.146 1.22 1.584 1.242 2.971.152 1.217-.958 3.518-.855 6.948.309 1.675.569 1.928.566 2.946-.036 1.035-.611 1.186-.61 2.138.013 1.287.844 3.751-.088 5.048-1.909.94-1.321 2.136-1.46 2.842-.329 1.109 1.776 2.091.32 2.437-3.616.107-1.218.569-2.934 1.027-3.812 1.512-2.9-.185-9.671-3.299-13.172a62.68 62.68 0 01-2.27-2.7c-.499-.649-1.232-1.1-1.788-1.1-1.029 0-2.019-.8-2.374-1.918-.489-1.54-5.716-3.739-7.308-3.073-1.916.8-3.143.743-4.434-.206-1.506-1.107-4.375-1.389-5.829-.573M74.8 258.859c-5.521.312-6.464.532-7.638 1.782-.496.527-1.365.962-1.932.965-1.289.008-1.634.251-2.827 1.994a24.02 24.02 0 01-2.119 2.6c-.638.66-1.569 2.01-2.068 3-.5.99-1.279 2.52-1.731 3.4-2.084 4.051-2.047 7.305.107 9.392.745.722 1.568 1.829 1.83 2.461.369.892.734 1.147 1.642 1.147.643 0 1.926.394 2.852.875 1.283.666 2.412.881 4.742.9 2.219.018 3.262.203 3.8.673 1.2 1.047 1.863 1.1 3.261.257 1.264-.761 1.352-.765 2.102-.086.692.626.962.649 2.343.193.885-.292 2.156-.403 2.936-.257 1.064.199 1.622.064 2.462-.597 1.224-.962 3.518-.865 6.937.296 1.723.585 1.866.574 2.94-.219 1.401-1.036 2.227-1.041 6.161-.035 5.698 1.457 6.567 1.274 9.808-2.064 2.969-3.059 3.197-3.597 3.277-7.736.091-4.735-.839-8.624-2.45-10.242-.789-.793-2.23-2.385-3.201-3.537-1.822-2.162-2.245-2.292-4.552-1.399-.534.206-1.162-.206-2.45-1.609l-1.732-1.887-4.31-.345c-2.891-.231-4.569-.207-5.095.075-.432.231-1.259.303-1.84.161-1.544-.38-7.979-.457-13.255-.158" fill="#dbb99e"/><path d="M41.396 40.407c-.138.223-.419.302-.624.176-.204-.127-.372-.019-.372.24 0 .273-.335.383-.8.261-.44-.115-.8-.069-.8.101 0 .65 3.613 1.316 5.662 1.045 1.505-.2 2.155-.133 2.401.248.271.42.414.405.731-.078.263-.401.396-.434.4-.1.003.275.141.479.306.453.982-.155 1.487.068.939.415-.419.265-.317.358.4.366.528.006 1.455.098 2.059.203.604.106 1.217 0 1.362-.234.156-.252.074-.31-.198-.141-.254.157-.462.128-.462-.064 0-.489-2.773-1.762-3.227-1.481-.205.127-.373.02-.373-.236 0-.257-.264-.365-.587-.241-.323.124-.706.034-.85-.2-.181-.292-.354-.278-.555.047-.213.345-.469.295-.95-.186-.362-.362-.658-.519-.658-.35 0 .17-.216.093-.48-.171-.584-.584-2.976-.637-3.324-.073M28.769 45.8a2.75 2.75 0 00-.021.686c.023.157-.186.198-.465.09-.28-.107-1.132.467-1.896 1.275-.763.808-1.117 1.339-.787 1.179.449-.217.437-.155-.047.246-.804.664-.822 3.233-.02 2.927.293-.111.672-.203.842-.203 1.143 0 3.61-4.475 3.043-5.52-.322-.594-.614-.9-.649-.68m9.372.597c-.473.191-1.002.585-1.177.875-.221.368-.098.35.406-.06.429-.348 2.051-.69 3.977-.838l3.253-.25-2.8-.037c-1.54-.02-3.187.12-3.659.31m19.737-.141c-.299.299.028.944.479.944.17 0 .31-.27.31-.6 0-.627-.353-.781-.789-.344M364.315 48.4c.17 1.159 1.272 1.438 1.615.409.103-.308-.011-.406-.278-.241-.257.159-.452.028-.452-.302 0-.319-.236-.671-.525-.782-.376-.144-.478.114-.36.916M54 50.509c.936.924 4.842 3.491 5.312 3.491.561 0 .543-.014-2.912-2.192-1.65-1.041-2.73-1.625-2.4-1.299m294 1.252c-4.838 1.816-10.783 4.902-15.326 7.955-4.125 2.772-4.934 3.678-1.33 1.489a120.237 120.237 0 015.314-3.006c1.508-.794 3.618-1.981 4.689-2.637 1.071-.657 3.321-1.757 5-2.447 3.971-1.629 5.312-2.728 1.653-1.354M365.497 62c.292 3.587.827 5.098.849 2.4.01-1.21-.217-2.74-.505-3.4-.497-1.14-.514-1.091-.344 1m-288.714.5c1.658 1.766 2.017 2.084 2.017 1.783 0-.064-.855-.919-1.9-1.9L75 60.6l1.783 1.9m4.841 5.748c.977 1.126 2.392 3.106 3.145 4.4.753 1.294 2.402 3.432 3.663 4.752 5.245 5.488 7.592 8.988 9.386 14 .495 1.385 1.425 2.686 3.023 4.231 1.269 1.227 2.949 2.999 3.733 3.938l1.426 1.707v4.166c0 3.753-.084 4.235-.845 4.862-1.917 1.58-1.955 1.678-1.955 5.063 0 3.437-.537 4.633-2.078 4.633-1.717 0-10.421 8.284-14.08 13.4-.63.88-2.336 2.798-3.793 4.263-5.962 5.994-7.649 7.859-7.649 8.454 0 .344-1.618 2.109-3.594 3.922-1.977 1.813-3.698 3.622-3.825 4.02-.126.397-.803 1.42-1.505 2.272-1.19 1.445-2.824 3.614-4.981 6.611-.498.692-1.516 1.904-2.262 2.695-1.179 1.249-1.391 1.796-1.629 4.2-.612 6.178-1.11 6.718-5.983 6.496l-2.779-.127-.852 3.504c-.595 2.443-1.169 3.834-1.896 4.597-1.009 1.056-3.082 5.037-3.09 5.931-.002.241-.364.764-.804 1.162-.44.398-.8.913-.8 1.144 0 .231-.619 1.778-1.375 3.438-3.849 8.448-6.645 17.732-5.642 18.734.099.099 1.578-.651 3.286-1.668 1.708-1.016 3.43-1.848 3.827-1.848.397 0 2.333-.63 4.304-1.4 6.153-2.404 14.214-2.058 15.158.651 1.119 3.212.263 4.181-3.958 4.475-1.65.116-3.72.382-4.6.592-5.512 1.313-12.768 3.329-13.562 3.767l-2.536 1.398c-.882.486-1.748 1.206-1.925 1.6-.584 1.302-.709 14.887-.169 18.317.906 5.749.96 5.784 5.308 3.457 1.586-.849 4.414-2.225 6.284-3.057 1.87-.833 3.878-1.848 4.462-2.257.981-.686 2.037-.743 13.869-.743h12.808l1.23 1.036c1.933 1.626 1.491 3.764-.779 3.764-.603 0-1.451.426-1.99 1-.517.55-1.355 1-1.864 1-.508 0-1.692.173-2.63.385-.938.212-3.056.59-4.706.84-1.65.251-4.047.902-5.326 1.449s-3.349 1.151-4.6 1.342c-5.148.788-8.463 1.881-10.049 3.313-.845.764-1.916 1.51-2.381 1.657-.464.147-.844.397-.844.555 0 .676-2.596 1.73-4.903 1.989l-2.497.281.107 3.302c.059 1.816.386 4.122.726 5.123.34 1.002.781 2.844.981 4.093.199 1.249.998 3.495 1.774 4.991.807 1.554 1.412 3.303 1.412 4.081 0 .75.468 2.586 1.039 4.081a321.224 321.224 0 012.127 5.771c1.405 3.947 4.039 8.425 6.438 10.947 1.047 1.1 2.553 2.867 3.347 3.927 2.14 2.857 7.885 7.391 10.249 8.088.55.162 1.974.99 3.165 1.84 1.194.852 2.637 1.545 3.216 1.545 2.096 0 5.628 1.216 10.473 3.604 4.662 2.299 9.915 3.987 12.427 3.993 1.01.003 3.94 1.397 9.757 4.643 1.342.748 2.722 1.36 3.069 1.36s2.585 1.845 4.975 4.1c3.78 3.568 4.836 4.324 8.131 5.824 2.083.949 5.137 2.414 6.787 3.256 1.65.843 4.44 1.854 6.2 2.248 1.76.393 3.686.953 4.28 1.244.594.29 1.876.528 2.848.528s2.866.351 4.209.78c1.342.429 3.121.903 3.952 1.054 1.782.323 3.023.926 8.111 3.941 2.09 1.238 4.61 2.497 5.6 2.798.99.301 3.15 1.184 4.8 1.963 3.865 1.825 12.981 3.83 19.521 4.294 2.706.191 5.129.477 5.383.635 1.21.747 21.95 1.319 27.496.758 4.521-.457 10.453-2.35 15.4-4.915 6.085-3.154 8.934-4.713 9.671-5.292.478-.377 1.738-1.011 2.8-1.41 1.061-.399 2.379-1.036 2.929-1.415 1.088-.751 7.032-3.591 7.516-3.591.164 0 .925-.424 1.691-.942s3.525-2.046 6.13-3.395c2.605-1.35 5.395-2.962 6.2-3.582 1.491-1.149 6.978-3.915 11.663-5.88 1.43-.6 4.31-2.224 6.4-3.609 2.304-1.527 4.43-2.625 5.4-2.788 3.044-.514 5.607-1.507 7.366-2.853.971-.743 1.926-1.351 2.122-1.351.196 0 1.471-.761 2.834-1.692 2.281-1.558 7.236-4.359 12.678-7.167 1.21-.624 2.92-1.331 3.8-1.571 1.656-.451 10.371-4.717 15.099-7.391 2.56-1.448 6.27-5.078 8.604-8.42 1.493-2.137 5.704-13.944 5.699-15.98-.003-1.221 1.759-7.432 3.395-11.969 1.031-2.857 1.406-4.503 1.321-5.8L357 258.6l-1.8-.249a58.44 58.44 0 01-4-.747 66.47 66.47 0 00-4.07-.775c-1.049-.156-2.893-.91-4.203-1.718-1.284-.793-3.27-1.796-4.413-2.231-1.144-.434-3.572-1.686-5.397-2.781-6.149-3.69-6.646-3.881-8.197-3.141-4.021 1.917-7.748-.93-4.92-3.758.905-.905 17.347-1.225 20.894-.406.938.216 2.185.486 2.771.598.585.113 2.437 1.151 4.114 2.307 7.52 5.181 9.104 5.741 9.334 3.301.063-.66.558-2.925 1.1-5.032.997-3.871 1.235-6.558.663-7.459-.313-.492-9.062-4.107-9.943-4.108-.764-.001-9.199-4.34-10.413-5.357-1.907-1.596-7.036-4.807-8.923-5.585-2.809-1.158-2.989-1.285-3.128-2.222-.259-1.745.501-2.037 5.291-2.037 5.223 0 5.264.019 8.469 4.036 2.375 2.977 7.924 6.151 14.567 8.332 4.575 1.501 4.912.924 2.433-4.168-2.181-4.478-3.148-7.193-3.562-10l-.84-5.707c-.235-1.6-.427-4.192-.427-5.76 0-2.74-.079-2.976-1.993-5.959-4.596-7.166-4.844-10.253-1.415-17.673 2.355-5.097.908-4.617-1.807.599l-1.197 2.3h-7.633l-1.95-1.919c-1.072-1.056-2.073-2.451-2.224-3.1-.151-.65-.896-3.071-1.656-5.381-.76-2.31-1.718-5.488-2.127-7.062-.41-1.574-1.227-3.81-1.814-4.97-.588-1.16-1.337-3.023-1.664-4.139-.327-1.116-1.126-2.964-1.774-4.107-.649-1.144-1.503-3.03-1.898-4.192-.569-1.673-1.024-2.281-2.182-2.921-1.661-.917-2.968-2.729-4.654-6.447-2.408-5.311-15.175-16.508-20.02-17.56-2.169-.471-7.433-3.261-10.192-5.402-1.588-1.232-2.987-1.989-3.828-2.071-2.358-.23-3.502-2.764-3.541-7.849-.04-5.342.219-5.82 4.356-8.024 3.428-1.826 6.698-4.372 11.47-8.928 1.572-1.5 3.066-2.728 3.321-2.728.255 0 1.579-1.064 2.943-2.365 6.397-6.102 9.133-8.517 12.279-10.841 1.87-1.382 3.13-2.406 2.8-2.277-.33.129-1.545.529-2.7.888-2.321.72-4.498 2.309-8.687 6.338-2.03 1.952-4.327 3.546-8.445 5.861-3.112 1.75-5.884 3.454-6.161 3.788-.8.964-5.495 4.208-6.089 4.208-.297 0-1.498.72-2.669 1.6-1.171.88-2.325 1.6-2.563 1.6-.239 0-.832.373-1.317.83-.486.456-1.427 1.131-2.092 1.5-.665.368-1.94 1.077-2.834 1.574-.895.497-1.887 1.397-2.206 2-1.72 3.253-3.835 4.332-6.157 3.143-4.322-2.214-18.083-3.457-22.716-2.051-1.08.327-2.684.612-3.564.632-3.512.079-6.352 1.236-6.863 2.795-.255.78-1.046 2.4-1.758 3.598-1.489 2.51-3.36 6.87-3.79 8.832-.162.741-1.005 2.967-1.873 4.947-2.644 6.035-3.997 10.25-6.191 19.3-.16.66-.041.9.447.9.636 0 2.615-3.549 2.624-4.706.002-.278.541-.833 1.198-1.232.657-.399 1.602-1.342 2.1-2.094 4.719-7.122 16.162-2.075 17.533 7.734.192 1.374.619 3.938.949 5.698.697 3.723.937 24.847.289 25.495-1.583 1.583-2.978-.984-2.661-4.895.29-3.579.282-3.228.21-10-.134-12.411-2.615-21.54-6.153-22.638-.473-.147-1.338-.603-1.92-1.013-3.064-2.157-9.245 3.688-12.32 11.651-.547 1.416-.883 2.226-2.388 5.751-.458 1.073-.836 2.513-.839 3.2-.011 2.154-1.607 3.123-2.388 1.449-.154-.33-.669-1.41-1.144-2.4-.976-2.032-1.251-16.782-.422-22.6.785-5.512 1.105-8.485 1.529-14.2.236-3.19.626-6.7.867-7.8.24-1.1.375-2.63.3-3.4l-.136-1.4-2.451-.118-2.45-.118-1.25 1.887-1.249 1.886-.002 6.432c-.001 3.537-.179 7.067-.395 7.845-.216.778-.579 4.198-.805 7.6-.448 6.733-.89 10.862-1.561 14.586-.238 1.32-.436 3.93-.442 5.8-.005 2.156-.308 4.498-.828 6.4-.45 1.65-.997 3.72-1.215 4.6-.942 3.801-5.464 5.31-6.138 2.049-.869-4.207-2.075-20.387-2.986-40.049-.318-6.878-.956-12.839-1.646-15.4-.208-.77-.379-2.039-.38-2.82-.003-1.886-.591-2.38-2.833-2.38-2.334 0-2.953.642-2.597 2.694.914 5.266 1.444 53.323.6 54.34-1.599 1.926-3.764.256-4.308-3.325-.226-1.49-.613-3.969-.859-5.509-.246-1.54-.614-4.15-.817-5.8-.572-4.644-.988-5.877-2.648-7.849-.847-1.006-1.956-2.456-2.465-3.221-2.567-3.86-7.387-3.167-11.388 1.637-1.481 1.778-3.886 6.326-3.887 7.349 0 .284-.4 1.274-.889 2.2-.49.926-1.106 2.494-1.37 3.484-.265.99-.683 2.52-.929 3.4-.639 2.278-1.47 6.251-1.515 7.243-.122 2.659-1.803 4.475-2.909 3.142-.947-1.14 2.658-17.395 4.325-19.503.21-.265.697-1.472 1.083-2.682 1.177-3.688 6.098-9.905 9.004-11.376 2.672-1.352 7.932-.371 9.779 1.824 1.582 1.881 2.115 1.092 1.446-2.14a79.767 79.767 0 01-.83-4.908c-.17-1.32-.607-4.11-.971-6.2-.363-2.09-.764-4.52-.89-5.4-.125-.88-.641-2.95-1.145-4.6-.504-1.65-1.027-3.495-1.161-4.1l-.243-1.1h-6.235c-4.386 0-6.958.187-8.673.632-2.52.653-7.809.62-21.477-.134l-5.4-.298-3.8-1.945c-2.09-1.07-4.52-2.529-5.4-3.241-.88-.713-2.154-1.581-2.832-1.93-3.029-1.559-7.905-5.336-11.808-9.145-4.422-4.316-7.067-6.381-17.658-13.786-3.498-2.446-7.101-5.146-8.007-6L79.847 66.2l1.777 2.048M113.6 86.2c0 .33.292.6.649.6.531 0 .559-.109.151-.6-.274-.33-.566-.6-.649-.6-.083 0-.151.27-.151.6m3.6 3.1c0 .978 2.026 2.82 4.397 3.996.772.383 2.227 1.235 3.235 1.893 1.008.657 2.268 1.275 2.8 1.373.532.098.968.215.968.26 0 .045.493.111 1.095.148.982.06 1.044-.009.6-.678-.272-.41-.655-.718-.85-.684-.196.033-.504-.18-.686-.474-.181-.294-.523-.534-.759-.534s-.558-.18-.715-.4c-.464-.651-1.874-1.659-1.538-1.1.165.275.122.5-.096.5-.219 0-.51-.355-.648-.79-.304-.957-2.159-2.484-2.65-2.181-.194.12-.356-.017-.359-.305-.005-.381-.112-.36-.394.076-.324.502-.389.475-.394-.167-.003-.421-.117-.655-.254-.519-.136.136-.51-.015-.832-.337-.321-.321-.738-.49-.925-.374-.187.115-.453.027-.591-.196-.466-.755-1.404-.425-1.404.493m144 7.924c0 .233-.168.32-.373.193s-.096.323.241.999c.621 1.246 2.866 1.67 2.637.498-.055-.282.156-.389.504-.255.428.164.529.045.353-.414-.228-.593-.694-.814-1.462-.692-.165.026-.3-.133-.3-.353 0-.22-.36-.4-.8-.4-.44 0-.8.191-.8.424m-128.726.901c.37.374.791 1.05.934 1.502.223.701.447.774 1.527.497 2.527-.647 8.677-.397 9.242.376 1.33 1.821 10.222.801 10.223-1.174 0-.179-3.965-.263-8.811-.187-6.485.103-8.966.012-9.396-.344-.32-.267-.864-.376-1.209-.244-.344.132-.522.073-.396-.131.126-.205-.09-.358-.479-.342-.39.016-1.069-.12-1.509-.302-.751-.311-.759-.289-.126.349m237.609 3.002c-.073 3.287-.201 3.881-1.083 5.037-.674.884-.999 1.821-.997 2.874l.002 1.562.792-1.2c.435-.66.614-1.26.397-1.333-.627-.213-.456-1.267.206-1.267.33 0 .571-.135.536-.3-.034-.165.063-.584.216-.93.154-.347.22-2.327.147-4.4l-.133-3.77-.083 3.727m-197.526-2.658c-.188.304 1.706.527 2.983.352.297-.041.422.118.277.352-.384.62.268.523 1.289-.192.819-.574.864-.566.614.1-.237.632-.188.652.405.17.371-.302.675-.372.675-.155 0 .216.45.307 1 .202.55-.105 1-.33 1-.499 0-.762-7.783-1.073-8.243-.33M31.714 100.6c.003 1.1.081 1.503.173.895.092-.609.09-1.509-.005-2-.095-.492-.171.005-.168 1.105m1.334 9.722c-.487.788.96 8.717 2.225 12.188 1.053 2.891 1.08 2.839.665-1.31-.375-3.75-2.455-11.581-2.89-10.878M357.486 130.3c-1.167 2.626-2.454 6.866-2.169 7.151.269.269 1.883-3.157 1.883-3.997 0-.382.244-1.18.543-1.774.529-1.052 1.173-3.68.902-3.68-.075 0-.596 1.035-1.159 2.3M41.701 155c.004.88.086 1.193.182.695.096-.497.092-1.217-.008-1.6-.1-.382-.179.025-.174.905m1.501 7.633c.002.422.288 1.307.636 1.967.349.66.989 2.142 1.424 3.292.94 2.492 1.765 3.269 1.335 1.258-.369-1.723-3.398-7.538-3.395-6.517m308.881 1.716c-.081.536-1.095 7.67-1.485 10.451-.147 1.046.06.746.816-1.186.873-2.227.996-3.087.883-6.2-.072-1.988-.168-3.367-.214-3.065m3.297 14.238c-.319.763-.58 1.663-.58 2 0 .731.773.832.861.113.076-.624.217-1.239.344-1.5.187-.385.284-2 .12-2-.091 0-.427.624-.745 1.387m-210.455.845c4.348 1.127 8.303 4.228 10.614 8.321.636 1.126 1.824 2.846 2.64 3.823.816.976 1.965 2.666 2.553 3.753a631.717 631.717 0 001.603 2.953c.295.536.811 2.447 1.147 4.246.336 1.8 1.107 4.982 1.712 7.072.606 2.09 1.314 4.88 1.575 6.2a132.21 132.21 0 002.668 10.945c1.273 4.42 1.263 6.694-.037 8.455-.55.745-1 1.838-1 2.429 0 1.485-.657 1.903-4.053 2.575-6.514 1.291-8.322 1.774-10.193 2.723-1.075.546-3.158 1.462-4.629 2.036-1.471.573-4.171 1.986-6 3.139l-3.325 2.096-10.565-.146c-5.811-.08-11.12-.304-11.797-.499-.678-.194-2.563-.353-4.189-.353s-3.697-.204-4.603-.454c-5.929-1.633-9.577-2.887-10.101-3.471-1.266-1.414-2.983-4.459-3.719-6.6-.422-1.225-1.128-2.732-1.57-3.351-.441-.618-1.182-2.924-1.646-5.124-.464-2.2-1.195-5.682-1.626-7.738-.431-2.056-.886-3.903-1.011-4.105-.88-1.425-1.773-6.371-1.773-9.824v-3.878l2.299-3.027c4.587-6.042 6.981-8.84 8.823-10.31 1.033-.826 2.975-2.494 4.316-3.709 1.546-1.4 4.035-3.014 6.799-4.406l4.359-2.198 7.802-.346c5.824-.258 8.309-.529 9.802-1.068 2.656-.958 9.709-1.044 13.125-.159m209.024 2.068c-.234 1.374-.178 2.158.168 2.372.251.155.324-.07.19-.584-.136-.522 0-.92.363-1.059.319-.123.469-.405.332-.626-.291-.471-.979-.538-1.053-.103m-61.685 1.8c2.879 1.597 13.297 10.815 14.292 12.646.195.359 1.845 2.19 3.665 4.067 4.627 4.771 4.88 6.816 1.762 14.22-2.459 5.836-4.366 11.287-4.773 13.637-1.31 7.57-4.513 11.455-13.81 16.752-1.1.627-2.9 1.806-4 2.62-4.265 3.157-7.543 3.728-21.2 3.696-17.319-.041-19.772-.541-24.386-4.97-2.316-2.224-3.867-3.371-5.148-3.807-1.486-.507-2.026-.97-2.85-2.443-1.208-2.163-1.187-2.015-.316-2.242.385-.101.035-.204-.777-.23-1.04-.032-1.669-.313-2.123-.946l-.645-.9.253 1.049c.501 2.076-2.867 1.874-4.555-.273-1.109-1.41-1.249-7.85-.215-9.85.993-1.919 2.172-5.47 2.766-8.328.917-4.408 3.691-10.287 6.418-13.598.996-1.21 2.418-3.1 3.159-4.2 3.021-4.483 12.013-11.4 14.819-11.4.348 0 2.56-.779 4.916-1.731 12.461-5.034 13.82-5.355 22.984-5.421l6.7-.048 3.064 1.7m-23.364 4.187a8.899 8.899 0 002.2 0c.605-.092.11-.167-1.1-.167-1.21 0-1.705.075-1.1.167M112.8 191.8c-.972.99-1.677 1.8-1.567 1.8.11 0 .995-.81 1.967-1.8.972-.99 1.677-1.8 1.567-1.8-.11 0-.995.81-1.967 1.8m17.155 1.177c-.134.135-1.94.501-4.012.812-3.594.539-9.465 2.515-10.743 3.615-.33.284-1.271.793-2.091 1.132-1.67.69-3.723 2.836-4.798 5.017-.392.796-1.342 2.437-2.11 3.647-.961 1.512-1.398 2.673-1.399 3.712-.001.832-.452 2.581-1.002 3.888-.871 2.071-1 2.969-1 6.988v4.612l2.411 4.789c1.36 2.703 2.848 5.1 3.414 5.501.551.39 1.61 1.173 2.353 1.738 1.678 1.277 7.104 2.61 12.022 2.955 1.98.138 4.732.444 6.115.678 3.334.565 4.701.192 12.654-3.459l6.431-2.953 3.349-3.924c5.824-6.827 6.774-10.481 4.522-17.394-.668-2.052-1.339-4.361-1.489-5.131-1.491-7.622-12.16-16.014-20.766-16.335-1.989-.074-3.726-.023-3.861.112m11.245 2.616c6.392 3.015 11.601 8.892 12.768 14.405.256 1.21.908 3.425 1.449 4.924 2.674 7.412-2.127 17.327-10.252 21.172-1.736.822-4.643 2.202-6.461 3.068-4.662 2.22-6.297 2.588-9.262 2.088-1.343-.227-4.242-.53-6.442-.674-10.049-.659-13.563-2.633-17.076-9.594l-2.324-4.605.004-4.688c.003-4.152.118-4.934 1-6.829.563-1.208.996-2.869.996-3.816 0-1.661 1.851-5.154 5.061-9.548 1.513-2.071 8.887-5.711 13.235-6.532 1.707-.323 3.824-.748 4.704-.945 4.052-.909 8.522-.35 12.6 1.574m128.4-1.783c-.33.065-1.95.33-3.6.589-5.011.786-8.282 1.935-10.2 3.581-.44.378-1.662 1.179-2.716 1.78-4.12 2.35-5.845 4.556-7.69 9.84-3.436 9.835-3.794 11.064-3.794 13.016 0 6.362 5.948 15.277 11.042 16.549 1.077.269 2.768.946 3.758 1.505 12.454 7.031 34.362-.717 38.018-13.445 2.127-7.406 2.372-9.919 1.41-14.456-1.019-4.808-4.01-10.154-7.028-12.564-.55-.439-1.734-1.469-2.632-2.29-.897-.82-2.687-2.127-3.976-2.903l-2.345-1.412-4.823.046c-2.653.026-5.094.1-5.424.164m-22.4 2.39c-.972.99-1.677 1.8-1.567 1.8.11 0 .995-.81 1.967-1.8.972-.99 1.677-1.8 1.567-1.8-.11 0-.995.81-1.967 1.8m33.921-.9c.995.495 2.635 1.63 3.644 2.522 1.009.893 2.427 2.035 3.151 2.539 2.928 2.039 6.077 7.542 7.118 12.439 2.001 9.419-3.505 23.15-9.71 24.217-.838.144-2.244.76-3.124 1.37-6.629 4.591-17.341 5.539-24.218 2.143-1.86-.919-4.179-1.879-5.152-2.135-4.731-1.24-10.43-9.802-10.43-15.669 0-1.805.588-3.848 3.751-13.041 1.662-4.832 3.532-7.117 7.942-9.708 1.159-.681 2.705-1.665 3.437-2.188 4.053-2.895 19.5-4.525 23.591-2.489m-127.727 2.1c1.553 2.286 2.845 5.339 4.219 9.968 2.415 8.141 3.542 11.617 3.564 10.998.013-.349-.58-2.599-1.317-5s-1.56-5.522-1.83-6.934c-.571-2.997-3.073-8.194-4.635-9.632l-1.087-1 1.086 1.6m-24.394.162c-7.215.313-7.397.383-15.2 5.922-4.847 3.441-7.944 17.261-5.246 23.417 1.611 3.677 4.539 7.355 6.528 8.2 5.828 2.477 9.801 3.438 14.918 3.608l5 .165 4.797-2.297c9.357-4.483 12.602-10.01 12.603-21.469 0-8.173-2.712-12.644-9.794-16.144-3.509-1.734-4.223-1.808-13.606-1.402m135.8.217c-1.21.304-3.253.765-4.54 1.025-2.489.501-3.798 1.561-7.702 6.231-6.149 7.358-6.902 20.624-1.508 26.56.503.553 1.584 1.783 2.405 2.734 3.789 4.394 19.424 6.484 25.145 3.361 5.459-2.98 9.981-13.941 9.732-23.589L288.2 209l-1.649-2.2c-6.047-8.07-13.402-11.121-21.751-9.021m-123.3 1.6c7.735 3.707 9.812 6.781 10.031 14.849.32 11.781-3.087 17.764-12.489 21.931l-4.359 1.932-5.041-.196c-4.922-.191-11.4-1.839-15.177-3.86-3.057-1.636-6.065-8.677-6.065-14.197 0-8.765 2.468-13.597 9.2-18.013 5.028-3.298 4.546-3.153 11.4-3.431 3.3-.134 6.815-.277 7.811-.319 1.349-.056 2.546.277 4.689 1.304m135.625-.165c2.005.887 7.542 6.095 9.298 8.747 4.128 6.232-1.54 25.728-8.515 29.286-2.41 1.229-16.143.971-19.529-.367-2.962-1.171-7.149-5.397-9.279-9.364-1.677-3.123-.528-14.68 1.889-19.004 2.276-4.074 7.264-8.734 9.756-9.115.8-.123 2.535-.484 3.855-.803 3.279-.793 10.092-.456 12.525.62m-144.308 3.155c-3.326 6.214.712 12.242 5.044 7.531 2.729-2.967 3.179-6.701.952-7.893-1.417-.758-5.53-.51-5.996.362m139.288.074c-.957.613-1.454 1.362-1.9 2.866-1.492 5.022 2.111 7.923 5.451 4.391 3.688-3.9 3.914-5.115 1.275-6.862-2.189-1.45-3.066-1.522-4.826-.395m85.582 6.617c-.048.582-.289 1.301-.535 1.597-.252.304-.332 1.019-.185 1.641.144.606.367 1.822.496 2.702.317 2.168.857 3.496 1.309 3.218.205-.127.506-.015.669.249.207.334.381.244.573-.294.317-.891.056-1.863-.422-1.568-.179.11-.117-.349.136-1.02.299-.793.323-1.32.066-1.503-.216-.155-.424-.462-.461-.682-.195-1.174-.371-1.628-.733-1.894-.246-.18-.202-.296.114-.3.413-.005.417-.182.018-.906-.273-.495-.448-1.215-.389-1.6s-.045-.7-.231-.7c-.185 0-.377.477-.425 1.06M95.334 213.2c0 1.65.071 2.325.157 1.5.087-.825.087-2.175 0-3-.086-.825-.157-.15-.157 1.5m-66.332 1.2c.033.88-.085 1.6-.262 1.6-.273 0-.218 5.812.06 6.4.052.11.073.335.047.5-.124.79.405.149.945-1.143.511-1.223.533-2.016.141-5.2-.465-3.787-1.042-5.122-.931-2.157m206.326 10c0 1.43.073 2.015.161 1.3.089-.715.089-1.885 0-2.6-.088-.715-.161-.13-.161 1.3m-73.296-1.246c-.018.305.43 2.797.995 5.539.983 4.77.996 5.018.322 5.763-.645.714-.647.757-.023.517 1.207-.463 1.23-2.133.096-6.934-1.258-5.323-1.347-5.639-1.39-4.885m131.421 12.897l-2.853 2.85 3.1-2.742c1.705-1.508 3.1-2.791 3.1-2.85 0-.446-.875.271-3.347 2.742m-11.153 7.378c-1.495.811-1.404 1.149.1.371.66-.341 1.2-.706 1.2-.81 0-.258-.043-.243-1.3.439m-252.7 1.124c0 1.302.607 1.677.709.438.043-.523-.098-1.061-.315-1.195-.219-.135-.394.202-.394.757m0 2.434c0 .358.235.498.6.358.33-.127.6-.391.6-.588 0-.196-.27-.357-.6-.357-.33 0-.6.264-.6.587m0 3.026c0 1.132.182 1.987.424 1.987.233 0 .295.208.138.462-.177.286-.11.353.176.176.708-.437.593-4.102-.138-4.383-.484-.185-.6.155-.6 1.758m288.884 5.99c1.291.949 2.518 1.006 4.434.206 1.592-.666 6.819 1.533 7.308 3.073.355 1.118 1.345 1.918 2.374 1.918.556 0 1.289.451 1.788 1.1a62.68 62.68 0 002.27 2.7c3.114 3.501 4.811 10.272 3.299 13.172-.458.878-.92 2.594-1.027 3.812-.346 3.936-1.328 5.392-2.437 3.616-.706-1.131-1.902-.992-2.842.329-1.297 1.821-3.761 2.753-5.048 1.909-.952-.623-1.103-.624-2.138-.013-1.018.602-1.271.605-2.946.036-3.43-1.164-5.731-1.267-6.948-.309-1.387 1.09-1.825 1.068-2.971-.152-1.006-1.071-1.987-1.249-3.223-.588-.568.304-1.091.246-1.998-.223-.983-.508-1.492-.548-2.55-.199-.727.24-2.063.318-2.969.173-1.199-.191-1.918-.086-2.64.387-1.258.825-2.792.823-5.359-.006-2.201-.711-1.82-.812-4.738 1.256-.423.3-.834.083-1.644-.866-.595-.698-1.644-1.381-2.34-1.523-.868-.177-1.403-.601-1.717-1.358-.251-.605-.959-1.398-1.573-1.761-2.263-1.336-3.973-4.865-4.032-8.32-.012-.738.698-1.756 2.511-3.6 1.39-1.415 2.695-2.863 2.9-3.218 1.706-2.962 5.877-6.502 8.001-6.79 1.624-.221 2.561-.624 3.63-1.562 1.096-.963 1.675-1.205 2.428-1.016.645.162 1.471-.036 2.374-.569.994-.587 2.086-.817 3.873-.817 1.598 0 2.804-.221 3.372-.619.603-.422 1.316-.538 2.244-.364.915.172 1.736.045 2.505-.387 1.454-.816 4.323-.534 5.829.573m-230.429 3.014c.581.142 1.408.07 1.84-.161.526-.282 2.204-.306 5.095-.075l4.31.345 1.732 1.887c1.288 1.403 1.916 1.815 2.45 1.609 2.307-.893 2.73-.763 4.552 1.399.971 1.152 2.412 2.744 3.201 3.537 1.611 1.618 2.541 5.507 2.45 10.242-.08 4.139-.308 4.677-3.277 7.736-3.241 3.338-4.11 3.521-9.808 2.064-3.934-1.006-4.76-1.001-6.161.035-1.074.793-1.217.804-2.94.219-3.419-1.161-5.713-1.258-6.937-.296-.84.661-1.398.796-2.462.597-.78-.146-2.051-.035-2.936.257-1.381.456-1.651.433-2.343-.193-.75-.679-.838-.675-2.102.086-1.398.843-2.061.79-3.261-.257-.538-.47-1.581-.655-3.8-.673-2.33-.019-3.459-.234-4.742-.9-.926-.481-2.209-.875-2.852-.875-.908 0-1.273-.255-1.642-1.147-.262-.632-1.085-1.739-1.83-2.461-2.154-2.087-2.191-5.341-.107-9.392.452-.88 1.231-2.41 1.731-3.4.499-.99 1.43-2.34 2.068-3a24.02 24.02 0 002.119-2.6c1.193-1.743 1.538-1.986 2.827-1.994.567-.003 1.436-.438 1.932-.965 1.614-1.719 15.971-2.835 20.893-1.624m100.825 6.439c1.511.761 4.082.678 5.836-.19 1.193-.591 2.228-.711 5.284-.613 7.919.253 10.685.457 11.431.841.423.219 1.562.499 2.532.622 7.658.976 14.062 8.988 10.375 12.98-.561.607-1.606 1.974-2.321 3.037-1.114 1.656-1.442 1.897-2.284 1.686-1.071-.269-4.899 1.788-6.354 3.414-1.42 1.588-3.926 2.917-8.579 4.551l-4.6 1.616-.133 2.2c-.074 1.21.144 3.55.483 5.2 1.428 6.954 2.251 11.914 2.256 13.6.008 2.385-.205 2.198 6.165 5.4 12.175 6.119 17.766 10.921 14.655 12.586-1.907 1.021-3.743.32-6.513-2.485-1.49-1.51-5.656-4.157-7.442-4.729-.809-.259-2.011-.866-2.671-1.35-5.318-3.894-10.608-2.939-16.806 3.032-5.878 5.663-12.071 7.381-13.284 3.684-.288-.88 2.294-3.241 5.186-4.742 1.597-.829 4.884-2.725 7.304-4.213 2.42-1.489 5.48-3.222 6.8-3.852 2.92-1.393 3.108-2.236 1.819-8.139-.45-2.065-.819-4.22-.819-4.789 0-5.664-4.687-12.849-10.263-15.732-1.325-.685-5.695-5.447-7.683-8.37-.711-1.045-1.801-2.164-2.424-2.486-2.741-1.417-1.306-7.009 2.51-9.779.427-.309 1.065-.926 1.418-1.369 2.052-2.579 2.275-2.693 4.729-2.416 1.272.143 2.799.505 3.393.805m169.82 7.093c-.702.562-1.1 1.265-1.1 1.942 0 .584-.187 1.178-.416 1.319-.229.142-.307.602-.173 1.024.136.428.055.766-.184.766-.631 0-.518 1.852.154 2.524.319.319.499.692.4.828-.1.137-.046.143.119.015a1.07 1.07 0 00.35-.6c.028-.202.089-.412.138-.467.048-.055.115-.692.15-1.415.034-.723.332-1.485.662-1.694.33-.208.461-.382.291-.385-.17-.003-.024-.442.326-.975.364-.557.581-1.565.509-2.367l-.126-1.396-1.1.881m-64.8 57.327c-.385.1-.7.36-.7.577 0 .217-.168.291-.372.164a.45.45 0 00-.613.159c-.132.214-.536.276-.897.137-.49-.188-.593-.085-.405.405.139.361.052.78-.192.931-.269.166-.332.092-.159-.187.157-.254.095-.462-.138-.462s-.424.264-.424.587c0 .326-.238.497-.534.383-.459-.176-.578.532-.299 1.779.018.082.275-.052.57-.297.295-.245.655-.327.8-.182.145.145.266-.082.269-.503.004-.522.106-.61.318-.275.233.365.479.297.962-.267.356-.416.543-.863.414-.991-.128-.129.046-.234.387-.234.342 0 .916-.45 1.276-1 .361-.55.606-.979.546-.954-.06.026-.424.129-.809.23" fill="#d49c24"/><path d="M35.648 41.232C33.797 41.595 32 42.563 32 43.196c0 .208-.495.666-1.1 1.017-.605.351-.788.543-.407.428 1.011-.307 1.591 2.061.727 2.974-.341.361-1.411 1.765-2.377 3.12-1.66 2.328-2.269 2.713-3.946 2.494-1.156-.151-1.859 6.174-.888 7.988.328.612.291.719-.184.537-.511-.196-.61.941-.709 8.172-.064 4.619.006 8.323.155 8.231.149-.093.384.185.521.617.162.513.469.701.883.542.433-.166.569-.065.43.32-.113.31-.388.525-.612.478-1.576-.332-1.637 8.932-.088 13.409 1.319 3.815 1.995 6.818 1.995 8.87 0 1.075.19 2.453.421 3.063.232.609.592 3.006.801 5.326.995 11.064 4.208 22.519 6.954 24.798.509.422.629 1.563.653 6.169.016 3.108.204 6.641.417 7.851s.535 3.82.715 5.8c.345 3.805 1.271 8.671 2.089 10.991.599 1.696 1.544 3.548 1.548 3.033.001-.208.256-.03.566.394.352.482.437 1.006.228 1.398-.185.345-.214.803-.064 1.019.325.469 2.472.505 2.472.041 0-.178.19-.206.422-.062.232.143.362.559.289.923-.074.365.186 1.012.577 1.438 1.111 1.21.925 2.837-.388 3.397-1.223.52-3.438 3.812-4.866 7.228-.505 1.21-1.233 2.56-1.616 3-.383.44-1.001 1.587-1.374 2.549-.372.962-1.12 2.581-1.66 3.597-.541 1.016-.984 2.128-.984 2.471 0 .343-.155.794-.345 1.003-.19.209-.538.92-.772 1.58-.234.66-.979 2.729-1.655 4.597-.675 1.868-1.228 3.685-1.228 4.038 0 .714 1.541 2.278 1.937 1.965.138-.11.318.141.398.558.107.553-.024.693-.482.518-.824-.317-1.248.407-.657 1.12.745.897.724 11.774-.023 12.352-.653.506-2.25 2.871-1.714 2.539.187-.116.341 3.326.341 7.65 0 5.996.119 7.874.5 7.912.275.028.841.073 1.258.101 1.296.085 2.194 12.334.935 12.753-1.447.481-1.777 1.391-1.548 4.266.364 4.567.9 7.994 1.394 8.918.254.473.461 1.313.461 1.866 0 1.072 2.276 7.79 2.855 8.427.19.209.345.792.345 1.296 0 1.094 1.734 6.233 2.825 8.373.426.836.775 1.846.775 2.244 0 .614.948 2.59 4.348 9.063 1.638 3.119 5.188 5.573 6.138 4.244.177-.249.539-.146.957.271.623.623.624.719.014 1.329-.361.361-.657.835-.657 1.052 0 .217-.225.277-.5.133-1.07-.562 4.417 4.483 6.108 5.615.986.66 2.132 1.507 2.547 1.881.416.375 1.514.94 2.441 1.256.927.316 2.64 1.245 3.807 2.065 1.595 1.121 2.725 1.573 4.559 1.824 3.44.469 3.935.648 8.638 3.12 3.665 1.925 12.092 4.825 11.894 4.092-.169-.631 1.2-2.038 1.983-2.038 2.563 0 4.316 2.876 2.023 3.318-.783.15-.796.18-.1.23.44.031 1.97.687 3.4 1.457s3.887 2.016 5.46 2.769c1.59.761 3.189 1.849 3.6 2.449 2.175 3.173 3.99 4.434 12.174 8.456 7.795 3.831 11.581 5.321 13.521 5.321.487 0 1.461.299 2.165.665.704.366 2.45.791 3.88.944 4.1.438 9.36 2.028 12.2 3.686 4.849 2.832 7.079 4.016 8.598 4.565.991.358 3.384 1.363 5.318 2.233 1.934.869 4.454 1.72 5.6 1.891 3.155.47 8.224 1.607 9.42 2.113 2.077.877 25.613 2.01 36.544 1.758 7.638-.176 8.904-.299 10.551-1.027 1.029-.456 2.353-.828 2.943-.828.59 0 1.422-.264 1.85-.587.427-.323 1.046-.599 1.376-.614.33-.014 1.32-.374 2.2-.799.88-.425 1.844-.779 2.142-.786.298-.008 1.077-.464 1.731-1.014.654-.55 1.423-1 1.709-1 .286 0 .744-.27 1.018-.6.274-.33.823-.6 1.22-.6.398 0 .984-.261 1.303-.58.319-.319 1.039-.696 1.599-.836.561-.141 1.347-.631 1.749-1.089.401-.458.481-.687.177-.508-.377.222-.494.151-.369-.225.101-.303.834-.6 1.63-.661 1.229-.095 3.462-1.035 5.891-2.481.33-.196 1.86-.936 3.4-1.644 1.54-.708 3.524-1.782 4.409-2.388.884-.605 3.584-2.121 6-3.368 2.415-1.247 5.381-2.977 6.591-3.843 1.21-.867 2.527-1.576 2.926-1.576.903-.001 2.133-.636 3.605-1.86.691-.576 1.651-.941 2.471-.941.738 0 1.602-.261 1.921-.58.319-.319 1.052-.699 1.629-.844.916-.23 1.05-.471 1.063-1.919.015-1.693.696-2.384 4.451-4.511.441-.249 1.002-.654 1.248-.9.706-.706 1.809-.52 2.086.353.581 1.83 7.934.381 8.907-1.756.259-.566.907-1.026 1.662-1.177 1.284-.257 2.866-1.264 4.993-3.181.681-.613 1.688-1.224 2.238-1.357 1.35-.328 5.519-2.431 7-3.532.66-.49 1.74-1.019 2.4-1.175.66-.156 1.47-.515 1.8-.797.33-.283 1.22-.631 1.979-.775 1.607-.304 13.843-6.365 15.021-7.441.44-.402 1.461-1.003 2.268-1.336.807-.332 1.683-1.025 1.946-1.538.263-.514 1.133-1.593 1.932-2.399 3.543-3.569 4.559-5.162 5.433-8.52.335-1.287.857-2.626 1.16-2.977 1.874-2.171 1.83-5.638-.07-5.638-.258 0-.469-.433-.469-.962 0-.885.123-.945 1.54-.755 2.104.282 2.516-.722.814-1.98-1.048-.775-1.193-1.098-1.032-2.302.283-2.112 1.465-6.086 2.108-7.087.314-.487.57-1.13.57-1.429 0-.299.661-.711 1.468-.914 3.39-.856 4.428-14.571 1.103-14.571-.443 0-.571-.66-.571-2.95 0-2.914.013-2.95 1.045-2.95 2.573 0 4.685-10.372 2.513-12.338-.463-.419-.958-.713-1.1-.654-1.033.434-.402-2.932.714-3.805 2.514-1.967-.691-11.985-3.907-12.212-1.785-.127-2.764-2.651-3.202-8.263l-.389-4.971.963-.758c1.787-1.405.51-11.099-1.462-11.099-.393 0-2.775-4.351-2.775-5.071 0-.291-.225-.532-.5-.535-.386-.005-.39-.076-.016-.314.546-.347.68-2.716.285-5.01-.182-1.055-.048-2.049.432-3.2.382-.918.874-2.12 1.094-2.67.219-.55.557-1.313.752-1.695.194-.382.353-1.029.353-1.439 0-1.174 2.373-1.116 2.477.061.043.48.21-1.467.373-4.327.711-12.503 1.076-16.872 1.499-17.926.248-.619.451-2.942.451-5.161 0-3.425.145-4.344.959-6.074.527-1.122 1.174-2.849 1.437-3.839.264-.99.623-2.083.8-2.428.554-1.084 1.604-5.581 1.604-6.869 0-.678.258-2.149.574-3.268.315-1.119 1.028-3.645 1.585-5.612.687-2.433.884-3.73.613-4.056-1.229-1.482-1.215-7.097.025-9.523 1.013-1.984 1.215-2.87 1.276-5.6l.074-3.244.253 3.2.253 3.2.074-2.877c.056-2.226.233-2.996.778-3.4 2.065-1.532 2.657-33.387.736-39.572-1.686-5.426-3.26-7.421-5.292-6.707-1.88.661-3.056-1.218-2.031-3.244 1.28-2.531-4.693-4.122-10.045-2.676-1.25.338-3.58.825-5.178 1.082-1.894.305-4.166 1.082-6.527 2.231-1.993.97-3.858 1.763-4.146 1.763-.288 0-.739.258-1.001.574-.262.316-1.004.69-1.649.832-.645.142-1.909.873-2.81 1.626-.901.752-1.802 1.368-2.003 1.368-.201 0-1.434.945-2.739 2.1-3.409 3.016-4.502 3.792-6.631 4.705-1.041.446-2.423 1.257-3.071 1.803-.649.546-1.515.992-1.926.992-.411 0-1.01.376-1.332.836-.322.46-1.796 1.276-3.274 1.812-1.479.537-3.212 1.376-3.852 1.864-2.124 1.62-5.308 4.26-7.352 6.095-1.983 1.78-5.233 3.911-9.182 6.02-1.1.587-2.72 1.639-3.6 2.338-1.963 1.559-5.74 4.011-6.732 4.369-.669.243-3.129 1.755-6.011 3.696a88.62 88.62 0 01-2.434 1.57c-4.327 2.68-6.261 4.429-6.811 6.162-.761 2.398-3.949 2.205-4.988-.303-.771-1.862-15.308-2.909-20.996-1.513-1.335.328-3.688.8-5.228 1.049-1.54.249-4.322.892-6.183 1.429-1.86.537-4.142.976-5.071.976-1.325 0-1.857.215-2.476 1.002-1.277 1.624-2.921 1.712-4.43.237-1.431-1.399-1.449-1.403-3.193-.795-.951.331-1.168.569-.858.942.918 1.107-7.343 1.015-14.389-.161-1.21-.201-2.981-.38-3.936-.396-1.27-.021-1.923-.26-2.432-.889-.551-.68-.937-.8-1.844-.573-.871.219-1.01.372-.578.639 1.063.657-.668.895-6.731.924-6.529.032-8.51-.353-9.719-1.89l-.818-1.04h-6.745c-7.609 0-8.598.225-9.399 2.144-.423 1.01-.882 1.413-1.831 1.603-2.34.468-7.43.266-9.217-.366-1.236-.437-3.007-.594-6.032-.535-4.176.08-7.59-.958-6.887-2.096.093-.151-.19-.181-.63-.066-.448.117-.801.012-.801-.237 0-.246.216-.447.48-.447.952 0-.297-.687-2.159-1.187-1.034-.278-2.822-1.126-3.973-1.884-1.152-.759-2.646-1.63-3.321-1.935-2.148-.974-4.194-3.127-4.301-4.526-.11-1.453-.139-1.465-1.65-.677-1.883.983-3.478-.471-2.609-2.378.609-1.337-2.473-4.734-7.207-7.941-1.89-1.28-4.257-3.08-5.26-4-1.002-.92-2.604-2.122-3.559-2.672-.956-.55-2.391-1.561-3.189-2.247-.799-.686-2.235-1.644-3.192-2.129-2.14-1.084-5.14-3.797-5.486-4.961-.4-1.342-5.024-5.863-5.998-5.863-.466 0-2.644-.879-4.839-1.952-2.196-1.074-4.556-2.076-5.243-2.227-.688-.152-2.675-1.14-4.414-2.196-3.162-1.921-4.046-2.049-4.929-.718-.497.749-4.918-2.294-4.587-3.156.282-.737-.488-1.112-1.151-.562-.595.494-3.535-.075-4.508-.873-.272-.223-2.592-.562-5.157-.753-4.615-.344-6.3-1.054-5.845-2.463.053-.165.052-.28-.003-.256-.055.024-.888.199-1.852.388m12.057 4.918a45.569 45.569 0 019.173 4.672c3.756 2.492 16.617 8.778 17.957 8.778 1.014 0 3.371 2.147 5.366 4.889 1.92 2.637 3.484 3.932 11.199 9.271 6.957 4.814 12.167 8.671 13.148 9.734 2.12 2.297 3.141 3.301 5.487 5.393 3.258 2.906 6.366 5.164 9.165 6.658 1.21.646 2.606 1.61 3.101 2.142.496.532 3.016 1.983 5.6 3.224l4.699 2.257 11.447.272c10.009.238 11.793.187 14.206-.404 2.227-.546 3.99-.637 9.153-.474 3.517.112 12.694.365 20.394.563 8.321.213 14.73.552 15.8.834 4.094 1.081 23.511.385 29.2-1.046 7.837-1.971 9.461-2.235 14.854-2.41 5.35-.174 10.396.584 15.713 2.36 3.071 1.026 3.895.771 5.498-1.703.766-1.183 1.922-2.345 2.755-2.77.788-.402 1.669-1.015 1.956-1.361.287-.346.756-.629 1.042-.629.286 0 1.055-.45 1.709-1 .654-.55 1.369-1 1.591-1 .221 0 1.35-.712 2.508-1.583 1.159-.87 2.572-1.688 3.14-1.817.569-.129 2.459-1.377 4.201-2.775 1.742-1.397 5.432-3.812 8.2-5.366 3.59-2.015 5.893-3.643 8.033-5.68 4.214-4.011 6.627-5.691 9.4-6.543 1.32-.406 3.152-1.255 4.072-1.887.92-.632 1.833-1.149 2.03-1.149.197 0 .776-.445 1.287-.988.511-.544 1.577-1.202 2.37-1.463.792-.261 2.134-1.032 2.98-1.712l2.8-2.249c.694-.556 2.071-1.536 3.061-2.178.99-.643 2.25-1.555 2.8-2.029 1.676-1.443 13.176-6.481 16-7.01 1.43-.267 3.573-.721 4.762-1.007 3.808-.917 8.598 3.596 11.082 10.44 1.079 2.97 1.512 29.898.523 32.47-.238.619-.565 3.286-.726 5.926-.207 3.381-.506 5.203-1.011 6.165-.395.751-.809 2.461-.921 3.8-.112 1.339-.744 4.415-1.405 6.835-.66 2.42-1.356 5.177-1.545 6.127-.19.949-.456 1.907-.593 2.128-.136.221-.399 1.605-.584 3.077-.71 5.659-4.922 15.946-8.278 20.218-2.058 2.62-1.534 4.388.735 2.479 2.163-1.821 3.188-1.107 2.348 1.635-.259.845-.634 3.966-.834 6.936-1.009 14.994-.994 14.874-2.288 18.553-.688 1.955-1.799 4.68-2.47 6.056-2.8 5.748-2.462 9.065 1.566 15.368l2.187 3.423.29 4.2c.772 11.171 1.452 14.171 4.531 20 2.543 4.811 3.009 11.979 1.224 18.779-.883 3.358-.994 4.604-1.005 11.2l-.012 7.421-1.41 4c-2.084 5.909-2.953 8.918-3.352 11.6-.196 1.32-.536 2.94-.755 3.6-.219.66-.669 2.1-1 3.2-1.154 3.835-3.529 9.212-4.771 10.8-3.622 4.632-5.635 6.547-8.611 8.195-4.837 2.676-13.915 7.205-14.443 7.205-.581 0-3.652 1.294-5.834 2.459-6.047 3.228-9.522 5.218-11.649 6.669-1.346.92-2.589 1.672-2.762 1.672-.172 0-.918.461-1.658 1.025-1.882 1.436-4.569 2.558-7.118 2.973-1.658.27-3.034.934-5.823 2.808-2.008 1.351-4.942 2.997-6.52 3.658-4.858 2.035-10.028 4.647-11.892 6.008-.978.713-3.661 2.271-5.962 3.461-2.301 1.189-4.821 2.555-5.6 3.034-.779.479-2.946 1.559-4.816 2.401-1.87.841-3.86 1.855-4.423 2.253-.562.398-1.978 1.086-3.145 1.53-1.167.443-2.417 1.069-2.777 1.391-.576.514-5.091 2.979-9.855 5.382-7.332 3.697-11.599 4.823-19.37 5.108-6.965.256-21.351-.357-25.03-1.066-1.32-.255-3.84-.502-5.6-.548-1.76-.047-3.92-.287-4.8-.533-.88-.246-3.764-.892-6.409-1.436-3.337-.687-5.84-1.488-8.179-2.619-1.853-.897-3.649-1.634-3.991-1.639-.636-.009-3.204-1.354-8.302-4.347-3.083-1.81-8.697-3.587-12.719-4.027-1.32-.145-3.3-.559-4.4-.921-1.1-.362-3.17-.966-4.6-1.342-1.43-.376-3.77-1.269-5.2-1.983a563.209 563.209 0 00-6.971-3.386c-3.787-1.808-4.854-2.555-8-5.597-2.347-2.27-4.406-3.871-5.829-4.53-1.21-.561-4.266-2.108-6.792-3.439-3.066-1.615-5.059-2.421-6-2.426-2.458-.012-6.873-1.429-11.208-3.597-5.028-2.514-8.022-3.595-9.963-3.597-1.396-.002-3.407-.954-5.037-2.386-.44-.386-1.411-.907-2.157-1.157-6.32-2.116-19.01-16.562-20.606-23.456-.153-.66-.889-2.64-1.634-4.4-.746-1.76-1.482-4.19-1.635-5.4-.153-1.21-.686-2.92-1.185-3.8-.836-1.474-1.314-2.919-2.58-7.8-.964-3.714-1.259-6.426-1.587-14.6-.185-4.62-.551-9.39-.813-10.6-.335-1.551-.433-6.505-.33-16.8l.145-14.6 1.729-4.8c.951-2.64 1.991-5.52 2.312-6.4.545-1.496 2.394-5.529 3.575-7.8a223.41 223.41 0 001.963-3.998c.793-1.65 1.861-3.45 2.374-4 2.543-2.733 2.733-6.877.532-11.602-4.037-8.663-5.494-13.476-5.513-18.219-.005-1.31-.18-3.101-.389-3.981-.21-.88-.501-3.506-.647-5.836-.321-5.103.087-5.629 2.603-3.355 1.838 1.66 2.843 1.805 2.843.41 0-1.668-.826-2.909-2.412-3.624-1.404-.634-3.151-2.788-5.67-6.995-1.918-3.203-5.108-16.592-5.124-21.507-.004-1.041-.267-2.973-.586-4.293-.319-1.32-.592-3.21-.608-4.2-.033-2.1-.87-6.243-1.497-7.411-1.377-2.564-1.813-8.567-1.59-21.912l.22-13.123 1.46-3.077c1.638-3.453 2.089-4.011 5.917-7.329l2.711-2.348h3.78c3.004 0 4.299.195 6.304.95m127.002 51.74c.719.089 1.799.087 2.4-.004s.013-.164-1.307-.162c-1.32.002-1.812.077-1.093.166m25.01.007c1.494.077 3.834.077 5.2-.001 1.365-.078.143-.141-2.717-.141-2.86.001-3.978.065-2.483.142M123.4 187.649c-4.002.923-7.082 2.455-9.538 4.745-1.354 1.261-4.528 3.784-7.053 5.606-2.525 1.822-5.675 4.265-7 5.428a221.596 221.596 0 01-3.589 3.092c-1.154.955-1.165.999-.5 2.014.471.719.68 1.871.68 3.752-.001 4.39 2.468 17.057 3.864 19.828 1.219 2.42 3.465 4.92 5.309 5.91.785.421 2.465 1.517 3.734 2.437 2.297 1.663 2.334 1.673 7.6 2.167 2.911.272 6.283.707 7.493.965 6.662 1.422 10.773.778 18.4-2.883 2.75-1.32 5.704-2.652 6.565-2.96.861-.308 1.776-.735 2.032-.948 1.154-.957 5.953-2.402 7.979-2.402 2.735 0 3.427-.272 3.413-1.343-.028-2.093-2.85-14.647-4.558-20.275l-2.485-8.182c-1.834-6.041-7.664-13.278-12.825-15.924l-2.88-1.476-7.52.04c-4.137.022-8.241.206-9.121.409m151.295.189c-.131.131-1.826.373-3.767.537-2.608.221-4.676.724-7.928 1.926-2.42.894-5.57 1.927-7 2.295-4.81 1.239-9.564 4.964-11.442 8.965-.372.792-1.215 2.23-1.875 3.196-1.272 1.863-3.06 6.461-3.075 7.904-.004.474-.671 2.724-1.482 5-.984 2.762-1.562 5.204-1.736 7.339-.207 2.52-.573 3.845-1.726 6.234-2.321 4.811-2.096 5.166 3.281 5.166 3.743 0 3.818.019 6.82 1.754 1.669.965 4.565 2.254 6.435 2.864 1.87.61 4.03 1.52 4.8 2.022 2.447 1.596 4.527 1.852 13.671 1.681l8.529-.16 5.181-2.53c4.78-2.334 5.451-2.805 8.668-6.081 1.917-1.952 3.669-3.55 3.892-3.55.223 0 .518-.357.657-.793.138-.435.965-1.74 1.838-2.9 1.34-1.779 1.579-2.387 1.535-3.907-.087-2.999.709-8.344 1.963-13.178.766-2.955 1.074-4.869.869-5.4-1.015-2.626-13.572-13.328-18.803-16.024-3.112-1.604-8.655-3.01-9.305-2.36m-132.851 6.703c4.617 2.266 7.958 4.914 9.883 7.833.59.894 1.514 2.301 2.053 3.126.539.825 1.174 2.4 1.412 3.5s.919 3.44 1.513 5.2c1.53 4.538 1.483 7.908-.158 11.4-1.168 2.483-7.766 10.8-8.569 10.8-.202 0-2.394.977-4.872 2.171-9.102 4.387-11.048 4.965-14.338 4.26-1.148-.247-3.726-.557-5.728-.691-3.963-.264-10.236-1.741-11.59-2.729a88.802 88.802 0 00-2.256-1.561c-1.906-1.276-2.085-1.526-4.599-6.405l-2.195-4.263v-5.407c0-4.691.11-5.623.834-7.042.459-.899.935-2.611 1.058-3.804.155-1.502.655-2.87 1.624-4.449.771-1.254 1.69-2.84 2.042-3.524.932-1.807 3.088-4.127 4.35-4.68.6-.264 1.902-.951 2.892-1.527 4.451-2.589 11.49-4.253 18.241-4.313l4.041-.036 4.362 2.141m141.02.259c8.644 5.839 12.052 10.604 13.803 19.296 1.125 5.581-1.122 14.538-4.889 19.49-7.034 9.25-25.603 13.404-35.146 7.863-.898-.522-2.67-1.247-3.938-1.612-4.53-1.303-9.081-6.728-11.055-13.179-1.179-3.854-1.11-4.407 1.544-12.36 3.414-10.233 4.405-11.801 9.454-14.969 1.34-.841 3.154-2.027 4.031-2.636 1.705-1.185 8.345-3.05 11.132-3.128.88-.025 2.05-.196 2.6-.381.55-.186 2.98-.303 5.4-.261l4.4.077 2.664 1.8M134.8 198.78c-.55.187-3.43.358-6.4.381-5.904.044-5.605-.045-10.445 3.097-5.009 3.252-5.95 4.435-7.759 9.754-2.259 6.642-1.36 13.536 2.501 19.188l1.503 2.2 5.8 1.989c11.602 3.98 20.521 2.093 27-5.712 3.731-4.495 5.196-17.144 2.641-22.799-2.034-4.503-11.009-9.4-14.841-8.098m130 .402c-1.65.407-3.717.863-4.593 1.014-3.028.522-8.494 7.079-9.99 11.985-1.617 5.302-1.522 13.715.184 16.241 5.283 7.821 8.112 9.178 19.139 9.178 9.222 0 10.155-.624 14.807-9.904 2.665-5.316 3.603-16.852 1.589-19.542-1.598-2.135-6.122-6.623-7.736-7.674-2.684-1.747-9.07-2.366-13.4-1.298m-125.59 1.823c3.22 1.665 2.623 6.885-1.18 10.32-3.432 3.101-8.04.497-7.503-4.238.706-6.223 3.978-8.515 8.683-6.082m136.655-.091c4.676 2.627 4.79 4.978.463 9.586-2.181 2.323-3.424 2.468-5.887.684-2.366-1.714-2.505-3.115-.76-7.692.818-2.145 4.34-3.613 6.184-2.578m-91.109 66.474c-1.727.635-6.199 3.848-7.442 5.345-1.416 1.706-1.187 3.175.786 5.051.935.889 2.285 2.426 3 3.416 3.091 4.279 4.51 5.699 7.968 7.977 3.801 2.504 5.695 4.482 6.787 7.088 1.023 2.442 2.545 7.778 2.545 8.926 0 .577.356 2.66.791 4.629 1.411 6.381 1.161 7.25-2.567 8.94-1.399.634-4.857 2.678-7.684 4.541-2.827 1.863-6.175 4.041-7.44 4.838-2.315 1.461-2.704 2.097-1.82 2.981 1.178 1.178 5.274-.941 9.52-4.923 2.314-2.17 5.515-4.308 7.2-4.808.55-.163 1.355-.543 1.789-.843 1.378-.954 4.173-.641 6.87.769 8.298 4.338 10.02 5.399 12.598 7.765 2.87 2.634 4.377 3.149 4.672 1.599.314-1.645-4.807-5.318-13.819-9.911-6.79-3.461-6.84-3.509-6.882-6.689-.015-1.167-.281-3.327-.591-4.8-.886-4.212-1.913-9.678-2.265-12.046-.177-1.193-.711-2.695-1.188-3.34-1.091-1.475-.732-1.847 2.042-2.116 4.94-.479 9.714-2.454 12.949-5.357.894-.802 2.165-1.795 2.825-2.206 2.725-1.699 8.515-6.215 8.748-6.824 1.26-3.282-2.683-7.746-8.606-9.747-3.112-1.051-28.062-1.258-30.786-.255m29.794 2.089c4.311 1.895 7.45 4.608 7.45 6.438 0 .485-6.327 5.215-8.405 6.284-.767.395-2.255 1.488-3.305 2.43-8.211 7.358-21.934 4.154-29.062-6.786-1.954-3-2.007-4.153-.228-5.044.66-.33 1.775-1.01 2.477-1.511 3.106-2.213 3.492-2.273 16.123-2.5 6.49-.116 11.957-.251 12.15-.3.192-.048 1.452.397 2.8.989" fill="#040404"/><path d="M56.302 45.066c.277.111.403.365.28.564-.123.198.058.253.402.121.474-.182.562-.061.362.504-.222.626-.174.661.295.218.586-.552-.419-1.716-1.417-1.641-.233.017-.198.122.078.234m-27.102.687c0 .33.18.711.4.847.22.136.4-.023.4-.353 0-.33-.18-.711-.4-.847-.22-.136-.4.023-.4.353M124.819 92.2c-.01.594.704 1.61.955 1.359.12-.119-.045-.564-.365-.988-.321-.424-.587-.591-.59-.371m57.345 6.142c.135.218-.109.293-.563.174-.441-.115-.801-.029-.801.191s-.45.486-1 .591c-.55.105-1 .014-1-.202 0-.217-.304-.147-.675.155-.593.482-.642.462-.405-.17.25-.666.205-.674-.614-.1-1.003.703-1.674.815-1.306.219.136-.22.057-.4-.176-.4-.511 0-.534.408-.065 1.147.262.414.868.477 2.494.259 1.181-.158 2.327-.273 2.547-.256.22.018 1.3.131 2.4.253 2.291.253 3.887-.534 3.073-1.515-.508-.612-4.28-.946-3.909-.346m13.987-.021c.11.177-.195.331-.676.344-4.226.106-4.798.17-4.455.498.209.2 1.28.456 2.38.568 1.1.113 2.9.4 4 .638 4.494.972 10.917 1.295 12.233.614l1.228-.635-1.078-.999c-.593-.549-1.336-.899-1.651-.778-.319.122-.465.044-.329-.176.157-.253-1.92-.395-5.803-.395-3.326 0-5.958.145-5.849.321m-55.851.777c2.255.072 5.945.072 8.2 0 2.255-.071.41-.129-4.1-.129s-6.355.058-4.1.129m75.3 1.302c-.434.28-.074.389 1.3.394 1.045.003 1.9-.174 1.9-.394 0-.511-2.409-.511-3.2 0m-42.584 4.249c.141.633.669 2.501 1.173 4.151s1.02 3.72 1.145 4.6c.126.88.527 3.31.89 5.4.364 2.09.801 4.88.971 6.2.171 1.32.544 3.529.83 4.908.669 3.232.136 4.021-1.446 2.14-1.847-2.195-7.107-3.176-9.779-1.824-2.906 1.471-7.827 7.688-9.004 11.376-.386 1.21-.873 2.417-1.083 2.682-1.667 2.108-5.272 18.363-4.325 19.503 1.106 1.333 2.787-.483 2.909-3.142.045-.992.876-4.965 1.515-7.243.246-.88.664-2.41.929-3.4.264-.99.88-2.558 1.37-3.484.489-.926.889-1.916.889-2.2.001-1.023 2.406-5.571 3.887-7.349 4.001-4.804 8.821-5.497 11.388-1.637.509.765 1.618 2.215 2.465 3.221 1.66 1.972 2.076 3.205 2.648 7.849.203 1.65.571 4.26.817 5.8s.633 4.019.859 5.509c.544 3.581 2.709 5.251 4.308 3.325.78-.94.466-36.969-.476-54.634l-.096-1.8-5.8-.229c-3.19-.126-6.124-.373-6.52-.55-.628-.281-.688-.174-.464.828m18.213 2.051c.155 1.265.393 2.75.529 3.3.584 2.374 1.18 8.283 1.471 14.6.904 19.581 2.116 35.839 2.985 40.049.674 3.261 5.196 1.752 6.138-2.049.218-.88.765-2.95 1.215-4.6.52-1.902.823-4.244.828-6.4.006-1.87.204-4.48.442-5.8.671-3.724 1.113-7.853 1.561-14.586.226-3.402.589-6.822.805-7.6.216-.778.394-4.312.395-7.854l.002-6.44 1.185-1.76 1.185-1.76-2.885-.251a294.887 294.887 0 01-6.685-.689c-2.09-.241-5.072-.443-6.627-.449l-2.826-.011.282 2.3M228.8 105c-.943.363-3.429.549-7.62.57l-6.219.03.17 1.456c.093.801-.033 2.376-.281 3.5-.248 1.124-.645 4.654-.881 7.844-.424 5.715-.744 8.688-1.529 14.2-.829 5.818-.554 20.568.422 22.6.475.99.99 2.07 1.144 2.4.781 1.674 2.377.705 2.388-1.449.003-.687.381-2.127.839-3.2 1.505-3.525 1.841-4.335 2.388-5.751 3.075-7.963 9.256-13.808 12.32-11.651.582.41 1.447.866 1.92 1.013 3.538 1.098 6.019 10.227 6.153 22.638.072 6.772.08 6.421-.21 10-.317 3.911 1.078 6.478 2.661 4.895.648-.648.408-21.772-.289-25.495-.33-1.76-.757-4.324-.949-5.698-1.371-9.809-12.814-14.856-17.533-7.734-.498.752-1.443 1.695-2.1 2.094-.657.399-1.196.954-1.198 1.232-.009 1.157-1.988 4.706-2.624 4.706-.488 0-.607-.24-.447-.9 2.194-9.05 3.547-13.265 6.191-19.3.868-1.98 1.708-4.194 1.867-4.92.448-2.044 2.148-6.014 3.803-8.88 2.586-4.478 2.509-5.315-.386-4.2m-52.266 27.937c6.204 6.547 10.906 20.203 8.823 25.63-.926 2.415-1.954-.284-1.649-4.327.125-1.646.043-3.184-.19-3.601-.225-.401-.728-2.014-1.119-3.584-1.003-4.033-2.127-6.403-4.306-9.082-1.041-1.28-2.231-2.807-2.643-3.392-3.621-5.138-10.958-1.822-14.968 6.764-.705 1.51-1.283 3.04-1.284 3.4-.001.36-.446 1.375-.988 2.255-.542.88-.993 1.96-1.003 2.4-.009.44-.464 2.198-1.009 3.907-.546 1.708-1.098 4.138-1.228 5.4-.295 2.876-.893 4.493-1.662 4.493-.446 0-.546-.327-.398-1.3.108-.715.401-2.766.651-4.559.249-1.792.99-4.745 1.646-6.561.656-1.817 1.193-3.659 1.193-4.094 0-.436.338-1.353.751-2.039.413-.686 1.068-2.237 1.456-3.447.888-2.77 1.622-3.807 5.383-7.614l3.032-3.07 3.589-.02 3.589-.021 2.334 2.462m56.959.115c3.129 1.125 7.701 7.776 7.188 10.457-.114.595-.027 1.418.192 1.828 1.327 2.479 1.876 27.946.607 28.191-.854.164-.798.85-.878-10.728-.127-18.336-1.78-24.407-7.446-27.347-5.485-2.845-10.062 1.533-15.419 14.747-1.159 2.86-2.114 5.695-2.122 6.3-.018 1.301-.608 1.433-1.228.275-.735-1.373-.562-3.07.475-4.664.541-.831 1.479-2.886 2.085-4.566.606-1.68 1.535-3.643 2.066-4.362.53-.719 1.255-2.183 1.61-3.253.456-1.371.982-2.119 1.783-2.533.626-.324 1.252-.95 1.393-1.393.559-1.762 5.267-4.215 7.201-3.752.44.106 1.562.466 2.493.8m123.068 43.018c-.476 1.418-.521 1.93-.171 1.93.304 0 .843-2.457.599-2.73-.064-.072-.256.288-.428.8m-2.051 6.262c-.271.167-.332.509-.145.812.251.406.383.368.589-.168.319-.832.182-1.031-.444-.644M47 209.424c-1.32.552-3.36 1.262-4.533 1.577-1.174.315-3.463 1.344-5.087 2.286L34.427 215l-.007 3.8c-.005 2.276.13 3.582.337 3.256.36-.569 2.733-2.105 4.443-2.878.879-.396 8.904-2.589 13.4-3.66.88-.21 2.95-.476 4.6-.592 4.221-.294 5.077-1.263 3.958-4.475-.64-1.837-1.361-2.052-6.832-2.042-4.344.009-5.209.129-7.326 1.015m311.304-.393c-.128.208.021.725.331 1.15.606.829.696.498.206-.754-.167-.426-.408-.604-.537-.396m-31.486 8.747c-.614.74-.395 2.252.382 2.64.33.165 1.408.634 2.397 1.041 1.887.778 7.016 3.989 8.923 5.585 1.214 1.017 9.649 5.356 10.413 5.357.881.001 9.63 3.616 9.943 4.108.171.27.315-1.067.318-2.972.006-3.236-.045-3.449-.774-3.258-2.918.763-15.264-5.374-18.191-9.043-3.205-4.017-3.246-4.036-8.469-4.036-3.403 0-4.576.137-4.942.578m33.182.375c0 .33.18.711.4.847.22.136.4-.023.4-.353 0-.33-.18-.711-.4-.847-.22-.136-.4.023-.4.353m-331.6 4.58c0 .477.164.867.365.867.406 0 .346-1.023-.087-1.455-.153-.153-.278.112-.278.588M364 233.976c0 .673.18 1.224.4 1.224.22 0 .4-.439.4-.976 0-.537-.18-1.088-.4-1.224-.233-.144-.4.263-.4.976m-313.6 4.781c-.55.403-2.53 1.413-4.4 2.245-1.87.831-4.726 2.221-6.347 3.089-1.621.868-3.241 1.5-3.6 1.406-.585-.153-.641.416-.533 5.492l.119 5.663 2.596-.312c2.399-.289 4.965-1.322 4.965-1.999 0-.158.38-.408.844-.555.465-.147 1.536-.893 2.381-1.657 1.586-1.432 4.901-2.525 10.049-3.313 1.251-.191 3.321-.795 4.6-1.342 1.279-.547 3.676-1.198 5.326-1.449 1.65-.25 3.768-.628 4.706-.84.938-.212 2.122-.385 2.63-.385.509 0 1.347-.45 1.864-1 .539-.574 1.387-1 1.99-1 2.27 0 2.712-2.138.779-3.764L77.139 238l-12.87.013c-11.829.011-12.95.072-13.869.744M320 243.2c-2.828 2.828.899 5.675 4.92 3.758 1.551-.74 2.048-.549 8.197 3.141 1.825 1.095 4.253 2.347 5.397 2.781 1.143.435 3.125 1.436 4.403 2.225 1.388.856 3.163 1.565 4.404 1.758a67.72 67.72 0 013.879.737c.99.227 2.745.56 3.9.74l2.1.326v-8.527l-1.1.152c-1.155.161-2.496-.579-8.321-4.592-1.677-1.156-3.529-2.194-4.114-2.307a96.832 96.832 0 01-2.771-.598c-3.547-.819-19.989-.499-20.894.406m-290 4.567c0 .348.18.633.4.633.22 0 .4.911.4 2.024s-.147 1.932-.326 1.821c-.18-.11-.367.584-.417 1.543-.117 2.258.54 2.687.747.488.339-3.606.2-6.804-.304-6.974-.275-.093-.5.116-.5.465m332.4 2.407c0 .536-.17 1.422-.378 1.969-.282.74-.23 1.118.2 1.475.493.41.578.122.578-1.969 0-1.347-.09-2.449-.2-2.449-.11 0-.2.438-.2.974m-180.113 15.151a32.335 32.335 0 00-1.529 1.742c-.353.443-.983 1.06-1.4 1.369-1.793 1.333-1.813 2.027-.022.754 1.065-.758 2.114-1.711 2.332-2.118.654-1.22 2.984-1.963 5.29-1.685 1.293.156 1.822.113 1.442-.117-1.57-.95-5.19-.918-6.113.055m12.979-.355c-.593.32 1.349.45 7.613.507 8.437.078 11.02-.234 4.439-.536-8.456-.387-11.296-.38-12.052.029m163.101 11.93c-.259.787-.342 2.408-.111 2.178.365-.366.666-2.278.358-2.278-.118 0-.229.045-.247.1m-.616 3.173c-.475.762-.543 1.569-.109 1.301.204-.126.277-.381.162-.567-.115-.186.017-.419.294-.518.276-.099.385-.306.242-.461-.143-.155-.408-.044-.589.245M221.2 281.8c-.746.77-1.637 1.403-1.978 1.406-.548.006-.55.053-.022.394 1.053.681 1.533.441 2.8-1.4 1.478-2.149 1.085-2.345-.8-.4" fill="#dc8c1c"/><path d="M37.834 42.1c.416.495.778.948.802 1.007.025.059 2.145.264 4.71.456 2.566.191 4.887.53 5.159.753.973.798 3.913 1.367 4.508.873.663-.55 1.433-.175 1.151.562-.196.509 1.49 2.023 3.345 3.006.744.393 1.023.368 1.529-.138.341-.34.786-.619.991-.619.204 0 .371-.18.371-.4 0-.22-.5-.4-1.111-.4-1.356 0-2.822-.972-3.279-2.174-.187-.491-.58-.917-.875-.947-.294-.03-1.345-.114-2.335-.187-.99-.072-2.216-.36-2.725-.639-.509-.28-1.454-.523-2.1-.541-.646-.019-1.175-.195-1.175-.393 0-.2-1.019-.243-2.312-.097-1.622.183-2.956.07-4.472-.38-2.836-.842-3.084-.813-2.182.258m-7.321 2.621c-.267.171-.541.933-.607 1.694-.155 1.782-2.767 5.413-4.142 5.758-.877.22-1.272 1.142-.454 1.057.16-.016.624-.03 1.033-.03.453 0 1.428-.961 2.5-2.465.966-1.355 2.036-2.759 2.377-3.12.463-.489.536-.979.289-1.935-.37-1.426-.326-1.384-.996-.959m4.397 2.827c-3.828 3.318-4.279 3.876-5.917 7.329l-1.46 3.077-.22 13.123c-.223 13.345.213 19.348 1.59 21.912.627 1.168 1.464 5.311 1.497 7.411.016.99.289 2.88.608 4.2.319 1.32.582 3.252.586 4.293.016 4.915 3.206 18.304 5.124 21.507 2.519 4.207 4.266 6.361 5.67 6.995 1.586.715 2.412 1.956 2.412 3.624 0 1.395-1.005 1.25-2.843-.41-2.516-2.274-2.924-1.748-2.603 3.355.146 2.33.437 4.956.647 5.836.209.88.384 2.671.389 3.981.019 4.743 1.476 9.556 5.513 18.219 2.201 4.725 2.011 8.869-.532 11.602-.513.55-1.581 2.35-2.374 4a223.41 223.41 0 01-1.963 3.998c-1.181 2.271-3.03 6.304-3.575 7.8-.321.88-1.361 3.76-2.312 6.4l-1.729 4.8-.145 14.6c-.103 10.295-.005 15.249.33 16.8.262 1.21.628 5.98.813 10.6.328 8.174.623 10.886 1.587 14.6 1.266 4.881 1.744 6.326 2.58 7.8.499.88 1.032 2.59 1.185 3.8.153 1.21.889 3.64 1.635 5.4.745 1.76 1.481 3.74 1.634 4.4 1.596 6.894 14.286 21.34 20.606 23.456.746.25 1.717.771 2.157 1.157 1.63 1.432 3.641 2.384 5.037 2.386 1.941.002 4.935 1.083 9.963 3.597 4.335 2.168 8.75 3.585 11.208 3.597.941.005 2.934.811 6 2.426 2.526 1.331 5.582 2.878 6.792 3.439 1.423.659 3.482 2.26 5.829 4.53 3.146 3.042 4.213 3.789 8 5.597a563.209 563.209 0 016.971 3.386c1.43.714 3.77 1.607 5.2 1.983 1.43.376 3.5.98 4.6 1.342 1.1.362 3.08.776 4.4.921 4.022.44 9.636 2.217 12.719 4.027 5.098 2.993 7.666 4.338 8.302 4.347.342.005 2.138.742 3.991 1.639 2.339 1.131 4.842 1.932 8.179 2.619 2.645.544 5.529 1.19 6.409 1.436.88.246 3.04.486 4.8.533 1.76.046 4.28.293 5.6.548 3.679.709 18.065 1.322 25.03 1.066 7.771-.285 12.038-1.411 19.37-5.108 4.764-2.403 9.279-4.868 9.855-5.382.36-.322 1.61-.948 2.777-1.391 1.167-.444 2.583-1.132 3.145-1.53.563-.398 2.553-1.412 4.423-2.253 1.87-.842 4.037-1.922 4.816-2.401.779-.479 3.299-1.845 5.6-3.034 2.301-1.19 4.984-2.748 5.962-3.461 1.864-1.361 7.034-3.973 11.892-6.008 1.578-.661 4.512-2.307 6.52-3.658 2.789-1.874 4.165-2.538 5.823-2.808 2.549-.415 5.236-1.537 7.118-2.973.74-.564 1.486-1.025 1.658-1.025.173 0 1.416-.752 2.762-1.672 2.127-1.451 5.602-3.441 11.649-6.669 2.182-1.165 5.253-2.459 5.834-2.459.528 0 9.606-4.529 14.443-7.205 2.976-1.648 4.989-3.563 8.611-8.195 1.242-1.588 3.617-6.965 4.771-10.8.331-1.1.781-2.54 1-3.2.219-.66.559-2.28.755-3.6.399-2.682 1.268-5.691 3.352-11.6l1.41-4 .012-7.421c.011-6.596.122-7.842 1.005-11.2 1.785-6.8 1.319-13.968-1.224-18.779-3.079-5.829-3.759-8.829-4.531-20l-.29-4.2-2.187-3.423c-4.028-6.303-4.366-9.62-1.566-15.368.671-1.376 1.782-4.101 2.47-6.056 1.294-3.679 1.279-3.559 2.288-18.553.2-2.97.575-6.091.834-6.936.84-2.742-.185-3.456-2.348-1.635-2.269 1.909-2.793.141-.735-2.479 3.356-4.272 7.568-14.559 8.278-20.218.185-1.472.448-2.856.584-3.077.137-.221.403-1.179.593-2.128.189-.95.885-3.707 1.545-6.127.661-2.42 1.293-5.496 1.405-6.835.112-1.339.526-3.049.921-3.8.505-.962.804-2.784 1.011-6.165.161-2.64.488-5.307.726-5.926.989-2.572.556-29.5-.523-32.47-2.484-6.844-7.274-11.357-11.082-10.44-1.189.286-3.332.74-4.762 1.007-2.824.529-14.324 5.567-16 7.01-.55.474-1.81 1.386-2.8 2.029-.99.642-2.367 1.622-3.061 2.178l-2.8 2.249c-.846.68-2.188 1.451-2.98 1.712-.793.261-1.859.919-2.37 1.463-.511.543-1.09.988-1.287.988-.197 0-1.11.517-2.03 1.149-.92.632-2.752 1.481-4.072 1.887-2.773.852-5.186 2.532-9.4 6.543-2.14 2.037-4.443 3.665-8.033 5.68-2.768 1.554-6.458 3.969-8.2 5.366-1.742 1.398-3.632 2.646-4.201 2.775-.568.129-1.981.947-3.14 1.817-1.158.871-2.287 1.583-2.508 1.583-.222 0-.937.45-1.591 1-.654.55-1.423 1-1.709 1-.286 0-.755.283-1.042.629-.287.346-1.168.959-1.956 1.361-.833.425-1.989 1.587-2.755 2.77-1.603 2.474-2.427 2.729-5.498 1.703-5.317-1.776-10.363-2.534-15.713-2.36-5.393.175-7.017.439-14.854 2.41-5.689 1.431-25.106 2.127-29.2 1.046-1.07-.282-7.479-.621-15.8-.834-7.7-.198-16.877-.451-20.394-.563-5.163-.163-6.926-.072-9.153.474-2.413.591-4.197.642-14.206.404l-11.447-.272-4.699-2.257c-2.584-1.241-5.104-2.692-5.6-3.224-.495-.532-1.891-1.496-3.101-2.142-2.799-1.494-5.907-3.752-9.165-6.658-2.346-2.092-3.367-3.096-5.487-5.393-.981-1.063-6.191-4.92-13.148-9.734-7.715-5.339-9.279-6.634-11.199-9.271-1.995-2.742-4.352-4.889-5.366-4.889-1.34 0-14.201-6.286-17.957-8.778C50.887 46.848 46.35 45.2 41.401 45.2h-3.78l-2.711 2.348m12.584-.391c1.862.648 5.253 2.367 7.8 3.954 2.478 1.544 5.676 3.349 7.106 4.011 1.43.662 4.729 2.211 7.331 3.441 2.602 1.23 4.975 2.237 5.272 2.237.297 0 1.499 1.103 2.669 2.452 4.546 5.237 5.528 6.111 11.759 10.459 10.611 7.406 13.29 9.495 17.729 13.828 3.903 3.809 8.779 7.586 11.808 9.145.678.349 1.952 1.217 2.832 1.93.88.712 3.31 2.171 5.4 3.241l3.8 1.945 5.4.297c14.058.773 18.772.796 21.597.104 2.266-.556 3.93-.625 9.864-.415 3.927.14 11.909.324 17.739.409 5.83.085 12.31.372 14.4.639s8.934.556 15.209.643l11.41.157 4.922-1.417c2.708-.779 5.584-1.419 6.391-1.421.807-.003 2.352-.273 3.432-.6 4.633-1.406 18.394-.163 22.716 2.051 2.322 1.189 4.437.11 6.157-3.143.319-.603 1.311-1.503 2.206-2 .894-.497 2.169-1.206 2.834-1.574.665-.369 1.606-1.044 2.092-1.5.485-.457 1.078-.83 1.317-.83.238 0 1.392-.72 2.563-1.6 1.171-.88 2.372-1.6 2.669-1.6.594 0 5.289-3.244 6.089-4.208.277-.334 3.049-2.038 6.161-3.788 4.045-2.274 6.426-3.919 8.356-5.774 4.405-4.236 6.093-5.446 8.998-6.457 2.797-.973 6.737-3.137 8.248-4.531.457-.421 1.516-1.048 2.354-1.393.838-.346 2.47-1.436 3.625-2.423 5.877-5.021 17.227-11.175 22.519-12.21l4.263-.836c3.905-.769 4.843-.28 8.029 4.185 3.697 5.181 3.84 5.977 3.84 21.403 0 11.668-.1 13.931-.747 16.891-.437 2.001-.669 4.237-.558 5.391.14 1.458-.081 2.756-.853 4.99-.573 1.661-1.042 3.655-1.042 4.431 0 .775-.559 3.552-1.243 6.17-.683 2.617-1.329 5.209-1.434 5.759-.106.55-.436 1.81-.735 2.8-.298.99-.752 3.24-1.007 5-.256 1.76-.716 3.686-1.023 4.28-.307.594-.558 1.402-.558 1.796 0 1.14-4.851 10.385-6.5 12.389-2.475 3.006-1.857 5.249 1.328 4.822l1.621-.217-.229 2.065c-.321 2.899-.656 8.044-.89 13.665-.208 5.015-1.613 10.351-3.955 15.029-2.994 5.976-2.566 9.889 1.832 16.745 1.914 2.983 1.993 3.219 1.993 5.959 0 1.568.192 4.16.427 5.76l.84 5.707c.41 2.776 1.591 6.172 3.18 9.141 2.7 5.046 3.215 12.434 1.352 19.388-.893 3.335-.999 4.504-.999 11.062v7.334l-1.421 3.938c-1.62 4.489-3.38 10.699-3.377 11.916.005 2.036-4.206 13.843-5.699 15.98-2.334 3.342-6.044 6.972-8.604 8.42-4.728 2.674-13.443 6.94-15.099 7.391-.88.24-2.59.947-3.8 1.571-5.442 2.808-10.397 5.609-12.678 7.167-1.363.931-2.638 1.692-2.834 1.692-.196 0-1.151.608-2.122 1.351-1.759 1.346-4.322 2.339-7.366 2.853-.97.163-3.096 1.261-5.4 2.788-2.09 1.385-4.97 3.009-6.4 3.609-4.685 1.965-10.172 4.731-11.663 5.88-.805.62-3.595 2.232-6.2 3.582-2.605 1.349-5.364 2.877-6.13 3.395-.766.518-1.527.942-1.691.942-.484 0-6.428 2.84-7.516 3.591-.55.379-1.868 1.016-2.929 1.415-1.062.399-2.322 1.033-2.8 1.41-.737.579-3.586 2.138-9.671 5.292-4.947 2.565-10.879 4.458-15.4 4.915-5.546.561-26.286-.011-27.496-.758-.254-.158-2.677-.444-5.383-.635-6.54-.464-15.656-2.469-19.521-4.294-1.65-.779-3.81-1.662-4.8-1.963-.99-.301-3.51-1.56-5.6-2.798-5.088-3.015-6.329-3.618-8.111-3.941-.831-.151-2.61-.625-3.952-1.054-1.343-.429-3.237-.78-4.209-.78-.972 0-2.254-.238-2.848-.528-.594-.291-2.52-.851-4.28-1.244-1.76-.394-4.55-1.405-6.2-2.248a207.604 207.604 0 00-6.787-3.256c-3.295-1.5-4.351-2.256-8.131-5.824-2.39-2.255-4.628-4.1-4.975-4.1-.347 0-1.727-.612-3.069-1.36-5.817-3.246-8.747-4.64-9.757-4.643-2.512-.006-7.765-1.694-12.427-3.993-4.845-2.388-8.377-3.604-10.473-3.604-.579 0-2.022-.693-3.216-1.545-1.191-.85-2.615-1.678-3.165-1.84-2.364-.697-8.109-5.231-10.249-8.088-.794-1.06-2.3-2.827-3.347-3.927-2.399-2.522-5.033-7-6.438-10.947a321.224 321.224 0 00-2.127-5.771c-.571-1.495-1.039-3.331-1.039-4.081 0-.778-.605-2.527-1.412-4.081-.776-1.496-1.575-3.742-1.774-4.991-.2-1.249-.669-3.139-1.043-4.2-.526-1.492-.717-3.74-.842-9.929-.119-5.885-.383-9.163-.998-12.4-.775-4.078-.818-5.268-.58-16.253.366-16.904.698-18.565 6.074-30.365.756-1.66 1.375-3.207 1.375-3.438 0-.231.36-.746.8-1.144.44-.398.802-.921.804-1.162.008-.892 2.08-4.874 3.085-5.926.725-.761 1.317-2.205 1.965-4.8l.927-3.712-1.963-4c-3.1-6.316-4.018-8.482-4.018-9.483 0-.513-.36-2.232-.8-3.82-.44-1.588-.806-3.924-.813-5.192-.007-1.268-.197-3.565-.421-5.105-1.078-7.395-1.138-7.122 1.216-5.565 2.701 1.788 4.512.358 3.613-2.853-.516-1.841-1.627-3.118-3.105-3.566-1.678-.509-5.618-6.676-6.442-10.085-.204-.842-.845-2.853-1.425-4.469-1.122-3.125-2.023-8.356-1.922-11.157.034-.932-.21-3.002-.541-4.6-.331-1.598-.77-4.648-.976-6.778-.206-2.13-.748-4.821-1.205-5.98-1.792-4.548-2.106-8.325-1.861-22.433l.228-13.086 1.203-2.514c1.739-3.633 5.364-7.404 8.445-8.786 1.544-.692 5.858-.299 9.1.829m315.754.569c-.866 2.177.269 3.79 2.159 3.071.501-.19 1.019-.237 1.152-.105.132.133.241-.059.241-.425 0-.596-.982-.913-2.155-.696-.196.036-.246-.617-.112-1.453.144-.895.105-1.294-.096-.973-.287.461-.371.461-.541 0-.128-.347-.364-.135-.648.581M23.174 78.4l-.153 1.714c-.119 1.337.418 1.823.775.7.139-.439.444-.756.678-.706.234.051.516-.155.626-.458.124-.34-.01-.477-.35-.359-.302.106-.769-.187-1.036-.65-.347-.601-.501-.67-.54-.241m88.901 7.395c-.826 1.813.752 3.444 2.425 2.508.495-.276.949-.522 1.009-.546.51-.199-.522-1.226-1.083-1.08-.521.137-.795-.099-.982-.844-.327-1.301-.788-1.314-1.369-.038m4.293 3.431c.229 1.039 3.671 4.374 4.515 4.374.239 0 1.426.658 2.637 1.462 1.212.805 3.16 1.759 4.328 2.12 2.093.648 3.132 1.218 2.219 1.218a.458.458 0 00-.467.447c0 .249.353.354.801.237.44-.115.723-.085.63.066-.703 1.138 2.711 2.176 6.887 2.096 3.025-.059 4.796.098 6.032.535 3.977 1.406 10.244.67 11.073-1.3.303-.722.377-1.205.164-1.073-.213.131-.394.004-.403-.284-.008-.288-.27.061-.58.776l-.565 1.3h-4.6c-3.94 0-4.655-.099-4.986-.691-.497-.888-5.631-1.211-8.356-.525-1.43.36-1.915.362-2.034.006-.459-1.378-2.528-3.112-3.573-2.995-.599.067-1.27.011-1.49-.125-.22-.136-.746-.301-1.168-.366-.422-.066-1.592-.658-2.6-1.315-1.008-.658-2.469-1.51-3.248-1.893-2.605-1.281-4.509-3.128-4.309-4.179.132-.685 0-.946-.479-.946-.505 0-.605.248-.428 1.055M126 92.725c0 .211.45.678 1 1.038.55.361 1 .471 1 .246 0-.225-.167-.409-.371-.409-.205 0-.655-.283-1-.629-.346-.345-.629-.456-.629-.246m133.9 4.556c-.301.874.593 2.347 1.807 2.974 1.206.624 1.785.429 2.993-1.012.842-1.004.555-1.325-.394-.441-1.264 1.178-2.66.892-3.522-.721-.414-.776-.778-1.106-.884-.8m109.78-.001c-.266.266-.513 1.738-.553 3.3l-.074 2.82-.253-3.2-.253-3.2-.074 3.244c-.061 2.73-.263 3.616-1.276 5.6-1.184 2.317-1.197 2.411-.81 5.727.403 3.449.979 4.819 1.429 3.396.133-.422.409-1.08.613-1.462.495-.926.474-3.105-.029-3.105-.815 0-.412-2.909.584-4.215.838-1.098 1.007-1.819 1.132-4.838.134-3.204.145-3.135.116.717-.018 2.345.1 4.055.262 3.8.4-.632.387-9.064-.014-9.064-.176 0-.536.216-.8.48m-198.198.987c-.385.623 1.301 2.213 2.816 2.654 3.025.882 15.627.422 14.112-.515-.432-.267-.293-.42.578-.639.907-.227 1.293-.107 1.844.573.509.629 1.162.868 2.432.889.955.016 2.726.195 3.936.396 7.149 1.193 15.308 1.269 14.366.134-.338-.407-.194-.587.637-.795 1.332-.335.57-.924-.845-.654-.66.126-.952.022-.875-.31.065-.275-.153-.581-.483-.68-.356-.107-.437-.046-.2.15 2.447 2.021-4.688 2.543-12.4.907-6.808-1.445-10.585-1.551-12.044-.34-.365.302-1.23.373-2.459.2-2.276-.32-2.178-.32-4.751 0-1.76.219-2.174.135-2.9-.591-.465-.465-1.26-.846-1.766-.846s-1.116-.196-1.355-.435c-.239-.239-.528-.283-.643-.098m47.318 2.249c0 .218-.921.307-2.14.206l-2.14-.178 1.194 1.167c.969.948 1.422 1.122 2.404.925 1.113-.222 2.724-1.794 2.275-2.218-.376-.353-1.593-.279-1.593.098m-54.81 33.07c-3.761 3.807-4.495 4.844-5.383 7.614-.388 1.21-1.043 2.761-1.456 3.447-.413.686-.751 1.603-.751 2.039 0 .435-.537 2.277-1.193 4.094-.656 1.816-1.397 4.769-1.646 6.561-.25 1.793-.543 3.844-.651 4.559-.148.973-.048 1.3.398 1.3.769 0 1.367-1.617 1.662-4.493.13-1.262.682-3.692 1.228-5.4.545-1.709 1-3.467 1.009-3.907.01-.44.461-1.52 1.003-2.4.542-.88.987-1.895.988-2.255.001-.36.579-1.89 1.284-3.4 4.01-8.586 11.347-11.902 14.968-6.764.412.585 1.602 2.112 2.643 3.392 2.179 2.679 3.303 5.049 4.306 9.082.391 1.57.894 3.183 1.119 3.584.233.417.315 1.955.19 3.601-.305 4.043.723 6.742 1.649 4.327 2.083-5.427-2.619-19.083-8.823-25.63l-2.334-2.462-3.589.021-3.589.02-3.032 3.07m64.499-.994c-2.05.635-4.337 2.299-4.69 3.412-.141.443-.767 1.069-1.393 1.393-.801.414-1.327 1.162-1.783 2.533-.355 1.07-1.08 2.534-1.61 3.253-.531.719-1.46 2.682-2.066 4.362-.606 1.68-1.544 3.735-2.085 4.566-1.037 1.594-1.21 3.291-.475 4.664.62 1.158 1.21 1.026 1.228-.275.008-.605.963-3.44 2.122-6.3 5.357-13.214 9.934-17.592 15.419-14.747 5.666 2.94 7.319 9.011 7.446 27.347.08 11.578.024 10.892.878 10.728 1.269-.245.72-25.712-.607-28.191-.219-.41-.306-1.233-.192-1.828.513-2.681-4.059-9.332-7.188-10.457-2.716-.976-3.199-1.02-5.004-.46M40.006 169.824c.009 1.136.617 2.015.894 1.293.116-.303-.039-.892-.344-1.31-.545-.744-.556-.744-.55.017m3.194 2.484c0 .196-.405.341-.9.324-1.245-.044-1.034 1.575.399 3.071.923.964 1.007 1.236.585 1.911-.571.914-.477.948.897.322 1.229-.56 1.378-2.194.307-3.361-.391-.426-.651-1.073-.577-1.438.073-.364-.057-.78-.289-.923-.232-.144-.422-.101-.422.094m311.6 2.558c0 .41-.159 1.057-.353 1.439-.195.382-.53 1.145-.745 1.695-.215.55-.686 1.681-1.047 2.514-1.034 2.389-.698 5.654.507 4.91.248-.154.349-.445.224-.647-.125-.202.052-.261.393-.13.629.241.854-.28.343-.792-.501-.501-.491-1.64.022-2.455.277-.44.835-1.7 1.24-2.8.406-1.1.98-2.355 1.277-2.789.849-1.243.651-1.761-.661-1.723-.891.025-1.2.225-1.2.778m-231.2 11.726c-3.623.805-8.13 2.89-9.629 4.455-1.272 1.329-2.659 2.416-10.19 7.99-1.551 1.147-3.056 2.372-3.346 2.721-.289.348-1.766 1.553-3.281 2.676-2.97 2.202-3.267 2.892-2.156 5.02.351.674.597 2.217.597 3.746 0 2.48.499 5.941 1.874 13 1.428 7.327 2.89 9.487 9.304 13.74 5.018 3.328 3.975 3.01 13.227 4.031 2.09.23 4.52.597 5.4.815 5.682 1.404 10.122.52 19.315-3.843 2.483-1.179 4.601-2.143 4.708-2.143.106 0 1.764-.76 3.685-1.689 2.978-1.441 3.945-1.712 6.567-1.842 4.592-.226 4.625-.294 3.335-6.927-4.768-24.529-10.181-35.584-19.929-40.704L139.962 186l-7.081.052c-3.895.029-8.071.272-9.281.54m149.2.608c-.55.176-1.946.338-3.103.36-1.412.027-3.713.626-7 1.823-2.693.98-5.996 2.058-7.34 2.396-6.999 1.758-15.199 11.678-16.559 20.034-.188 1.152-.91 3.691-1.604 5.641-.733 2.056-1.394 4.891-1.573 6.746-.244 2.523-.677 3.991-2.046 6.938-2.487 5.356-2.221 5.777 3.839 6.084 4.152.211 4.508.298 6.674 1.647 1.258.783 3.958 2.017 6 2.743 2.041.725 4.474 1.755 5.406 2.288 5.608 3.209 19.632 3.042 26.706-.318 1.76-.835 4.015-1.89 5.011-2.343 1.904-.866 9.712-8.169 10.789-10.09.33-.589 1.117-1.719 1.749-2.512 1.067-1.339 1.159-1.733 1.291-5.539.148-4.24.394-5.665 2.007-11.616 1.514-5.588 1.495-5.641-4.119-11.108-10.38-10.11-20.214-15.068-26.128-13.174m-129.879 1.476c5.161 2.646 10.991 9.883 12.825 15.924l2.485 8.182c1.708 5.628 4.53 18.182 4.558 20.275.014 1.071-.678 1.343-3.413 1.343-2.026 0-6.825 1.445-7.979 2.402-.256.213-1.171.64-2.032.948-.861.308-3.815 1.64-6.565 2.96-7.627 3.661-11.738 4.305-18.4 2.883-1.21-.258-4.582-.693-7.493-.965-5.266-.494-5.303-.504-7.6-2.167-1.269-.92-2.949-2.016-3.734-2.437-1.844-.99-4.09-3.49-5.309-5.91-1.396-2.771-3.865-15.438-3.864-19.828 0-1.881-.209-3.033-.68-3.752-.665-1.015-.654-1.059.5-2.014.649-.537 2.264-1.929 3.589-3.092 1.325-1.163 4.475-3.606 7-5.428 2.525-1.822 5.699-4.345 7.053-5.606 1.776-1.656 3.223-2.584 5.2-3.335 4.259-1.618 5.424-1.776 13.459-1.819l7.52-.04 2.88 1.476m136.724-.138c5.752 1.826 11.195 5.485 17.898 12.033 6.069 5.93 5.857 5.396 4.391 11.051-1.254 4.834-2.05 10.179-1.963 13.178.044 1.52-.195 2.128-1.535 3.907-.873 1.16-1.7 2.465-1.838 2.9-.139.436-.434.793-.657.793-.223 0-1.975 1.598-3.892 3.55-3.217 3.276-3.888 3.747-8.668 6.081l-5.181 2.53-8.529.16c-9.144.171-11.224-.085-13.671-1.681-.77-.502-2.93-1.412-4.8-2.022-1.87-.61-4.766-1.899-6.435-2.864-3.002-1.735-3.077-1.754-6.82-1.754-5.377 0-5.602-.355-3.281-5.166 1.153-2.389 1.519-3.714 1.726-6.234.174-2.135.752-4.577 1.736-7.339.811-2.276 1.478-4.526 1.482-5 .015-1.443 1.803-6.041 3.075-7.904.66-.966 1.503-2.404 1.875-3.196 1.878-4.001 6.632-7.726 11.442-8.965 1.43-.368 4.58-1.401 7-2.295 3.252-1.202 5.32-1.705 7.928-1.926 1.941-.164 3.636-.406 3.767-.537.454-.453 2.007-.234 4.95.7M126.2 193.035c-3.786.666-8.489 2.254-11 3.714-.99.576-2.292 1.263-2.892 1.527-1.262.553-3.418 2.873-4.35 4.68-.352.684-1.271 2.27-2.042 3.524-.969 1.579-1.469 2.947-1.624 4.449-.123 1.193-.599 2.905-1.058 3.804-.724 1.419-.834 2.351-.834 7.042v5.407l2.195 4.263c2.514 4.879 2.693 5.129 4.599 6.405.773.518 1.788 1.22 2.256 1.561 1.354.988 7.627 2.465 11.59 2.729 2.002.134 4.58.444 5.728.691 3.29.705 5.236.127 14.338-4.26 2.478-1.194 4.67-2.171 4.872-2.171.803 0 7.401-8.317 8.569-10.8 1.641-3.492 1.688-6.862.158-11.4-.594-1.76-1.275-4.1-1.513-5.2-.238-1.1-.873-2.675-1.412-3.5a980.98 980.98 0 00-2.053-3.126c-1.925-2.919-5.266-5.567-9.883-7.833l-4.362-2.141-4.041.036c-2.223.02-5.481.289-7.241.599m15.565 2.073c6.418 3.122 11.836 9.079 12.817 14.092.15.77.821 3.079 1.489 5.131 2.252 6.913 1.302 10.567-4.522 17.394l-3.349 3.924-6.431 2.953c-7.953 3.651-9.32 4.024-12.654 3.459-1.383-.234-4.135-.54-6.115-.678-4.918-.345-10.344-1.678-12.022-2.955a106.404 106.404 0 00-2.353-1.738c-.566-.401-2.054-2.798-3.414-5.501L102.8 226.4v-4.612c0-4.019.129-4.917 1-6.988.55-1.307 1.001-3.056 1.002-3.888.001-1.039.438-2.2 1.399-3.712.768-1.21 1.718-2.851 2.11-3.647 1.075-2.181 3.128-4.327 4.798-5.017.82-.339 1.761-.848 2.091-1.132 1.278-1.1 7.149-3.076 10.743-3.615 2.072-.311 3.878-.677 4.012-.812 1.084-1.09 7.611.088 11.81 2.131m128.635-1.924c-.55.185-1.72.356-2.6.381-2.787.078-9.427 1.943-11.132 3.128-.877.609-2.691 1.795-4.031 2.636-5.049 3.168-6.04 4.736-9.454 14.969-2.654 7.953-2.723 8.506-1.544 12.36 1.974 6.451 6.525 11.876 11.055 13.179 1.268.365 3.04 1.09 3.938 1.612 10.827 6.287 31.535.231 37.274-10.902.212-.411.838-2.367 1.391-4.347 3.887-13.919.397-22.732-12.433-31.4L280.2 193l-4.4-.077c-2.42-.042-4.85.075-5.4.261m11.792 1.828c1.289.776 3.079 2.083 3.976 2.903.898.821 2.082 1.851 2.632 2.29 8.659 6.913 9.893 23.366 2.474 32.999-6.96 9.038-25.18 12.939-34.874 7.466-.99-.559-2.681-1.236-3.758-1.505-5.094-1.272-11.042-10.187-11.042-16.549 0-1.952.358-3.181 3.794-13.016 1.845-5.284 3.57-7.49 7.69-9.84 1.054-.601 2.276-1.402 2.716-1.78 1.918-1.646 5.189-2.795 10.2-3.581 1.65-.259 3.27-.524 3.6-.589.33-.064 2.771-.138 5.424-.164l4.823-.046 2.345 1.412M129 198.394c-6.854.278-6.372.133-11.4 3.431-6.732 4.416-9.2 9.248-9.2 18.013 0 5.52 3.008 12.561 6.065 14.197 3.777 2.021 10.255 3.669 15.177 3.86l5.041.196 4.359-1.932c9.402-4.167 12.809-10.15 12.489-21.931-.219-8.068-2.296-11.142-10.031-14.849-2.143-1.027-3.34-1.36-4.689-1.304-.996.042-4.511.185-7.811.319m135.6.2c-1.32.319-3.055.68-3.855.803-2.492.381-7.48 5.041-9.756 9.115-2.417 4.324-3.566 15.881-1.889 19.004 4.376 8.151 8.141 10.174 19.347 10.398 10.725.214 11.223-.063 15.758-8.793 5.665-10.903 4.992-19.093-2.14-26.033-4.79-4.662-10.596-6.156-17.465-4.494m-123.193 1.35c7.71 3.608 9.193 6.102 9.193 15.456 0 11.863-2.431 15.934-12.2 20.434-5.328 2.454-10.299 2.334-18.4-.445l-5.8-1.989-1.503-2.2c-3.861-5.652-4.76-12.546-2.501-19.188 1.809-5.319 2.75-6.502 7.759-9.754 4.84-3.142 4.541-3.053 10.445-3.097 2.97-.023 5.85-.194 6.4-.381 1.59-.54 3.795-.152 6.607 1.164m132.993-.814c3.226.452 7.797 4.028 11.536 9.024 2.014 2.69 1.076 14.226-1.589 19.542-4.652 9.28-5.585 9.904-14.807 9.904-11.027 0-13.856-1.357-19.139-9.178-1.706-2.526-1.801-10.939-.184-16.241 1.496-4.906 6.962-11.463 9.99-11.985.876-.151 2.943-.607 4.593-1.014 2.978-.735 4.675-.744 9.6-.052m-141.974 2.044c-1.619 1.619-2.548 7.37-1.459 9.032 3.533 5.391 11.919.024 10.044-6.428-.946-3.252-6.31-4.879-8.585-2.604m139.326.221c-1.712 1.027-2.159 1.813-2.985 5.254-1.177 4.903 4.066 7.573 7.561 3.851 3.723-3.965 4.131-5.697 1.837-7.79-2.843-2.595-3.912-2.814-6.413-1.315m-132.939.612c2.227 1.192 1.777 4.926-.952 7.893-4.332 4.711-8.37-1.317-5.044-7.531.466-.872 4.579-1.12 5.996-.362m138.118.831c2.639 1.747 2.413 2.962-1.275 6.862-3.34 3.532-6.943.631-5.451-4.391 1.076-3.624 3.591-4.548 6.726-2.471m79.607 3.109c-1.275 1.065-.63 9.723.923 12.384.555.953 1.102 1.639 1.215 1.526.114-.113.638-.042 1.165.159.737.28.959.231.959-.212 0-.576-1.526-1.652-2.109-1.486-.404.115-.936-1.321-1.228-3.318a38.973 38.973 0 00-.496-2.702c-.152-.641-.065-1.339.207-1.667.258-.311.504-1.194.547-1.964.058-1.018.206-1.293.548-1.01.339.281.411.169.26-.406-.118-.454-.436-.708-.739-.592-.373.143-.467-.044-.314-.627.262-1.004.171-1.012-.938-.085M29.505 209.52c-.108.414-.151 1.276-.096 1.916.215 2.483.606 6.027.813 7.369.129.839-.034 2.004-.403 2.887-.34.815-.619 1.949-.619 2.519 0 .722-.151.945-.5.736-.399-.24-.4-.176-.003.313.273.337.391.719.263.847s-.032.561.213.963c.322.526.431.563.39.13-.112-1.165.046-1.577.915-2.387 1.017-.947 1.282-11.456.318-12.617-.591-.713-.167-1.437.657-1.12.443.17.587.04.488-.439-.078-.373-.257-.625-.399-.558-.142.066-.614-.201-1.049-.595-.761-.689-.799-.688-.988.036m330.379 5.68c-.115.439-.046.9.154 1.023.199.123.362-.236.362-.799 0-1.226-.228-1.325-.516-.224m3.188 16.973c-1.14.911-1.495 3.812-.472 3.864.22.011.693.285 1.051.609.78.706 1.328-.119.718-1.082-.513-.81-.451-2.67.095-2.852.305-.102.339-.374.1-.798-.324-.573-.488-.545-1.492.259M29.2 244.212c0 .957.142 1.829.316 1.936.174.108.245-.466.157-1.276-.251-2.306.54-1.033 1.12 1.803.345 1.69.404 3.465.186 5.6-.176 1.719-.288 3.26-.249 3.425.038.165-.121.3-.354.3-.233 0-.311.181-.174.403.156.253.461.191.816-.164.312-.312.796-.643 1.075-.736 1.18-.393.375-12.677-.835-12.734a11.593 11.593 0 01-1.358-.164c-.58-.111-.7.164-.7 1.607m333.15 4.138c-.101.303-.671.55-1.267.55-1.08 0-1.083.009-1.083 2.95 0 2.29.128 2.95.571 2.95.315 0 .837.265 1.162.59.783.784 1.109-.022.562-1.39-.484-1.209-.376-4.013.179-4.687.221-.267.325-.717.23-1-.133-.4-.211-.392-.354.037M29.246 250.3c-.025 1.155.098 2.1.274 2.1.176 0 .255-.675.177-1.5-.245-2.572-.402-2.782-.451-.6m154.085 15.468c-.697.312-1.451.91-1.676 1.328-.224.419-1.16 1.284-2.08 1.922-4.446 3.08-5.8 7.618-2.745 9.197.623.322 1.713 1.441 2.424 2.486 1.988 2.923 6.358 7.685 7.683 8.37 5.576 2.883 10.263 10.068 10.263 15.732 0 .569.369 2.724.819 4.789 1.289 5.903 1.101 6.746-1.819 8.139-1.32.63-4.38 2.363-6.8 3.852-2.42 1.488-5.707 3.384-7.304 4.213-2.892 1.501-5.474 3.862-5.186 4.742 1.213 3.697 7.406 1.979 13.284-3.684 6.198-5.971 11.488-6.926 16.806-3.032.66.484 1.862 1.091 2.671 1.35 1.786.572 5.952 3.219 7.442 4.729 2.77 2.805 4.606 3.506 6.513 2.485 3.111-1.665-2.48-6.467-14.655-12.586-6.37-3.202-6.157-3.015-6.165-5.4-.005-1.686-.828-6.646-2.256-13.6-.339-1.65-.557-3.99-.483-5.2l.133-2.2 4.6-1.613c5.004-1.754 6.058-2.322 8.849-4.767 1.858-1.628 5.154-3.806 5.803-3.836.191-.008 1.598-1.156 3.126-2.55l2.778-2.534.022-2.189c.043-4.241-5.641-8.886-12.178-9.952-2.373-.387-15.592-.558-21.4-.277-1.32.064-3.48-.018-4.8-.182-1.75-.217-2.743-.145-3.669.268m32.211 1.875c5.923 2.001 9.866 6.465 8.606 9.747-.233.609-6.023 5.125-8.748 6.824-.66.411-1.931 1.404-2.825 2.206-3.235 2.903-8.009 4.878-12.949 5.357-2.774.269-3.133.641-2.042 2.116.477.645 1.011 2.147 1.188 3.34.352 2.368 1.379 7.834 2.265 12.046.31 1.473.576 3.633.591 4.8.042 3.18.092 3.228 6.882 6.689 9.012 4.593 14.133 8.266 13.819 9.911-.295 1.55-1.802 1.035-4.672-1.599-2.578-2.366-4.3-3.427-12.598-7.765-2.697-1.41-5.492-1.723-6.87-.769-.434.3-1.239.68-1.789.843-1.685.5-4.886 2.638-7.2 4.808-4.246 3.982-8.342 6.101-9.52 4.923-.884-.884-.495-1.52 1.82-2.981 1.265-.797 4.613-2.975 7.44-4.838s6.285-3.907 7.684-4.541c3.728-1.69 3.978-2.559 2.567-8.94-.435-1.969-.791-4.052-.791-4.629 0-1.148-1.522-6.484-2.545-8.926-1.092-2.606-2.986-4.584-6.787-7.088-3.458-2.278-4.877-3.698-7.968-7.977-.715-.99-2.065-2.527-3-3.416-2.831-2.692-2.27-4.382 2.656-7.991 4.057-2.974 3.798-2.933 18.866-2.965 12.638-.026 13.569.021 15.92.815m-15.942 1.145c-12.631.227-13.017.287-16.123 2.5-.702.501-1.817 1.181-2.477 1.511-1.779.891-1.726 2.044.228 5.044 7.128 10.94 20.851 14.144 29.062 6.786 1.05-.942 2.538-2.035 3.305-2.43 2.078-1.069 8.405-5.799 8.405-6.284 0-.939-1.773-3.194-3.336-4.244-1.845-1.239-6.367-3.321-6.914-3.183-.193.049-5.66.184-12.15.3m159.3.694c-.495.096-.9.437-.9.76 0 .322-.256.985-.57 1.472-.643 1.001-1.825 4.975-2.108 7.087-.162 1.209-.017 1.526 1.06 2.323l1.248.922-.615-1.472c-.716-1.714-.796-2.974-.188-2.974.239 0 .32-.338.184-.766-.134-.422-.056-.882.173-1.024.229-.141.416-.753.416-1.358 0-1.221 2.044-3.077 2.909-2.641.27.137.142-.035-.285-.381-.694-.563-.591-.814.276-.677.165.026.3-.313.3-.753 0-.796-.187-.848-1.9-.518M354 283.81c0 .545.211.99.469.99.257 0 .775.278 1.15.617.615.557.706.557.919 0 .13-.339.041-.617-.2-.617-.284 0-.26-.212.07-.61.613-.738.543-.808-1.108-1.123-1.183-.225-1.3-.158-1.3.743M49.6 304.4c0 .22-.135.379-.3.353-1.478-.234-1.634.338-.442 1.618.82.879.877.887 1.266.175.224-.41.591-.867.816-1.016.267-.176.228-.487-.115-.9-.591-.712-1.225-.831-1.225-.23m40.32 21.361l-.679.935 1.546-.04c.952-.025 1.84.225 2.311.652 1.057.956 1.302.872 1.302-.444 0-2.015-3.238-2.813-4.48-1.103m203.794 2.285c-.246.246-.807.651-1.248.9-3.622 2.052-4.437 2.844-4.451 4.329-.012 1.216.121 1.465.757 1.417.425-.032.659-.243.519-.468-.488-.79-.375-1.865.175-1.654.306.117.534-.064.534-.425 0-.386.225-.544.58-.408.397.152.506.03.345-.387-.146-.383-.027-.576.321-.518.305.051 1.184-.192 1.954-.539 1.506-.68 2.022-.308 1.138.82-.485.62-.469.633.162.138.385-.302.7-.797.7-1.1 0-.303.373-.551.829-.551.753 0 .771-.057.2-.629-.346-.345-.629-.795-.629-1 0-.518-1.346-.465-1.886.075m-47.047 27.021c-.486.486-.277.912.333.678.33-.127.6-.391.6-.588 0-.419-.551-.473-.933-.09" fill="#ac4c34"/><path d="M24.509 51.6c0 .99.078 1.395.173.9a5.661 5.661 0 000-1.8c-.095-.495-.173-.09-.173.9m115.969 47.098c2.353.071 6.313.071 8.8.001 2.487-.07.562-.128-4.278-.129-4.84 0-6.875.058-4.522.128m52.022-.022c.385.1 1.015.1 1.4 0 .385-.101.07-.183-.7-.183s-1.085.082-.7.183m-63.9 95.343c-.88.197-2.997.622-4.704.945-4.348.821-11.722 4.461-13.235 6.532-3.21 4.394-5.061 7.887-5.061 9.548 0 .947-.433 2.608-.996 3.816-.882 1.895-.997 2.677-1 6.829l-.004 4.688 2.324 4.605c3.513 6.961 7.027 8.935 17.076 9.594 2.2.144 5.099.447 6.442.674 2.965.5 4.6.132 9.262-2.088 1.818-.866 4.725-2.246 6.461-3.068 8.125-3.845 12.926-13.76 10.252-21.172-.541-1.499-1.193-3.714-1.449-4.924-2.14-10.11-15.109-18.279-25.368-15.979m140.6.645c-4.619.45-9.907 1.866-11.67 3.125-.732.523-2.278 1.507-3.437 2.188-4.41 2.591-6.28 4.876-7.942 9.708-3.163 9.193-3.751 11.236-3.751 13.041 0 5.867 5.699 14.429 10.43 15.669.973.256 3.292 1.216 5.152 2.135 6.877 3.396 17.589 2.448 24.218-2.143.88-.61 2.286-1.226 3.124-1.37 6.205-1.067 11.711-14.798 9.71-24.217-1.041-4.897-4.19-10.4-7.118-12.439-.724-.504-2.142-1.646-3.151-2.539-3.724-3.292-7.117-3.98-15.565-3.158m-126.594 4.3c7.082 3.5 9.794 7.971 9.794 16.144-.001 11.459-3.246 16.986-12.603 21.469L135 238.874l-5-.165c-5.117-.17-9.09-1.131-14.918-3.608-1.989-.845-4.917-4.523-6.528-8.2-2.698-6.156.399-19.976 5.246-23.417 7.803-5.539 7.985-5.609 15.2-5.922 9.383-.406 10.097-.332 13.606 1.402m134.916-.358c2.371 1.084 6.528 4.856 9.029 8.194l1.649 2.2.132 5.101c.249 9.648-4.273 20.609-9.732 23.589-5.721 3.123-21.356 1.033-25.145-3.361a181.327 181.327 0 00-2.405-2.734c-5.394-5.936-4.641-19.202 1.508-26.56 3.904-4.67 5.213-5.73 7.702-6.231 1.287-.26 3.33-.721 4.54-1.025 3.378-.85 9.996-.42 12.722.827M28.101 217.8c.004.88.086 1.193.182.695.096-.497.092-1.217-.008-1.6-.1-.382-.179.025-.174.905" fill="#fcfc04"/></g></svg>