<svg xmlns="http://www.w3.org/2000/svg" width="400" height="400"><g fill-rule="evenodd"><path d="M40.196 40.407c-.138.223-.402.313-.587.199-.184-.114-.757-.047-1.272.15-.924.353-.92.362.263.633.66.152 1.698.464 2.306.695.648.245 2.097.306 3.5.147 1.702-.192 2.394-.137 2.394.192 0 .254.269.359.599.233.329-.126 1.581.146 2.783.606 2.456.94 4.255.75 2.829-.299-.433-.32-1.028-.489-1.32-.376-.293.112-.435.047-.317-.145.119-.192-.322-.55-.979-.796l-2.371-.885c-.647-.241-1.354-.328-1.572-.193a.474.474 0 01-.648-.161C45.666 40.183 44.404 40 43 40s-2.666.183-2.804.407m15.937 4.639c0 .656 2.177 2.378 2.543 2.012.126-.127.611-.03 1.077.214l.847.444-.8-.9c-1.198-1.349-3.667-2.541-3.667-1.77m-27.045.193c-1.385.806-4.342 3.951-4.093 4.353.139.224.062.408-.171.408-.236 0-.412.752-.396 1.7.019 1.122.126 1.452.316.97.158-.401.415-.716.572-.7 1.092.114 1.544-.204 2.938-2.07 1.286-1.72 2.41-5.169 1.659-5.088-.062.007-.433.199-.825.427m8.388 2.278c-1.326 1.464-.493 2.275 1.1 1.07.509-.384 1.729-.587 3.534-.587 2.027 0 2.713-.132 2.591-.5-.298-.901-6.408-.887-7.225.017M364.8 47.4c.55.314.745.578.433.586-.311.008-.458.122-.326.254s.459.105.727-.061c.523-.323-.582-1.393-1.41-1.365-.233.008.026.272.576.586m1.104 1.231c-.128.208.021.725.331 1.15.606.829.696.498.206-.754-.167-.426-.408-.604-.537-.396M52.488 51.264c.337 1.012 4.639 3.975 6.121 4.215l1.526.248-1.167-1.497c-1.553-1.991-6.984-4.477-6.48-2.966M345.6 53.03c-1.43.777-4.04 1.98-5.8 2.673-1.949.767-4.06 1.982-5.4 3.105-1.21 1.015-2.695 2.152-3.3 2.528-.63.391-1.1 1.039-1.1 1.517 0 .93 1.612.795 2.8-.236.33-.286 2.04-1.286 3.8-2.223 1.76-.936 3.693-2.049 4.295-2.472.602-.423 2.492-1.402 4.2-2.176 1.708-.774 3.735-1.696 4.505-2.05.77-.353 2.015-.745 2.767-.871 2.696-.45 1.908-1.226-1.234-1.216-2.59.008-3.237.174-5.533 1.421M29.745 57.4c-.308.801.146 1.915.652 1.602.53-.328.522-2.202-.01-2.202-.226 0-.516.27-.642.6m44.523 4.5c-.232.388 4.816 5.95 5.122 5.643.468-.467-.679-2.587-2.297-4.243-1.589-1.628-2.438-2.048-2.825-1.4m248.439 5.668c-.893 1.276-5.922 3.672-9.208 4.388-2.534.553-4.126 1.669-9.064 6.362-1.631 1.549-3.429 3.057-3.995 3.349-3.32 1.719-8.834 4.952-10.006 5.867-4.456 3.479-5.485 4.195-6.588 4.58-.672.234-2.006 1.024-2.965 1.756-.958.731-1.971 1.33-2.25 1.33-.279 0-.846.375-1.261.833-.415.458-1.297 1.092-1.962 1.408-2.839 1.353-4.443 2.628-5.819 4.629-1.931 2.808-2.882 3.123-6.084 2.013-6.476-2.243-17.967-3.352-21.362-2.061-.61.232-2.467.592-4.127.8-1.66.208-4.907.918-7.216 1.578-4.574 1.307-23.295 1.847-26.803.772-1.218-.373-9.84-.708-36.87-1.43-5.182-.138-7.205-.04-9.058.44-2.698.699-9.112.779-19.681.246l-6.613-.334-4.464-2.238c-2.455-1.232-5.059-2.758-5.787-3.392-.728-.634-1.954-1.476-2.724-1.87-3.006-1.54-7.587-5.111-11.622-9.061-2.322-2.273-5.812-5.303-7.755-6.733-7.807-5.744-17.248-12-18.112-12-1.41 0-1.547-.312 2.926 6.663.727 1.135 2.297 3.025 3.487 4.2 1.191 1.175 2.664 2.902 3.274 3.837.609.935 1.248 1.7 1.418 1.7.441 0 3.048 4.845 3.513 6.527.526 1.907 2.517 4.723 4.14 5.858 4.209 2.943 5.539 9.352 2.531 12.189-1.39 1.312-1.4 1.344-1.4 4.783 0 3.265-.054 3.483-.939 3.82-3.219 1.224-10.241 7.449-12.87 11.41-.83 1.25-2.787 3.583-4.35 5.184-7.041 7.214-7.441 7.737-7.441 9.742 0 1.777-.126 1.971-3.7 5.68-3.419 3.549-6.632 7.569-10.411 13.025-.831 1.2-1.695 2.182-1.92 2.182-.731 0-1.572 2.722-1.928 6.235-.432 4.253-.515 4.333-4.679 4.507-3.929.164-4.122.327-4.938 4.183-.317 1.494-.907 2.797-1.651 3.645-1.124 1.279-3.161 5.181-3.169 6.068-.002.241-.348.749-.768 1.129-.42.381-.882 1.174-1.027 1.762-.145.589-.785 2.151-1.423 3.471-2.308 4.777-4.824 11.926-5.191 14.752-.637 4.897-.478 29.191.212 32.448.38 1.794.596 5.099.601 9.2.007 5.652.633 11.772 1.318 12.88.128.208.416 1.512.639 2.897.224 1.391 1.039 3.763 1.82 5.302.79 1.555 1.415 3.381 1.415 4.135 0 .742.469 2.573 1.042 4.068a368.53 368.53 0 012.168 5.84c1.428 3.962 3.991 8.311 6.412 10.878 1.037 1.1 2.534 2.866 3.327 3.925 2.14 2.857 7.577 7.131 10.285 8.087.807.285 2.313 1.163 3.347 1.953 1.264.965 2.305 1.435 3.177 1.435 2.122 0 5.352 1.133 10.442 3.662C85.483 320.29 90.863 322 93.392 322c.844 0 7.445 3.216 10.808 5.266.66.402 1.519.732 1.908.733.39 0 2.586 1.804 4.88 4.009 3.663 3.518 4.651 4.229 8.092 5.82 2.156.998 5.125 2.432 6.598 3.189 1.474.756 4.414 1.825 6.535 2.376 2.12.551 4.065 1.136 4.321 1.3.256.164 1.636.404 3.066.534 5.256.475 10.064 2.198 16 5.732 2.09 1.245 4.61 2.51 5.6 2.812.99.302 3.15 1.186 4.8 1.964 3.816 1.801 13.287 3.862 19.676 4.282 2.573.168 4.91.451 5.195.627.622.384 12.564 1.034 19.529 1.063 9.905.04 13.404-.705 22.8-4.851.55-.243 3.07-1.599 5.6-3.012 2.53-1.414 8.2-4.388 12.6-6.609 12.368-6.243 16.764-8.597 18.865-10.102 1.913-1.371 7.095-3.998 12.135-6.153 1.43-.612 4.319-2.256 6.42-3.654 2.904-1.932 4.344-2.63 6-2.908 3.084-.517 4.769-1.153 6.38-2.406.77-.598 2.03-1.412 2.8-1.808.77-.396 2.39-1.389 3.6-2.207 1.21-.818 3.37-2.076 4.8-2.795 1.43-.72 3.32-1.786 4.2-2.371 1.595-1.059 6.613-3.231 7.464-3.231.514 0 10.054-4.762 13.936-6.956 4.12-2.328 8.881-7.911 10.612-12.444 2.137-5.596 3.786-10.923 3.793-12.254.006-1.225 1.588-6.69 3.381-11.683l1.414-3.938v-7.465c0-6.723.099-7.824.995-11.063 1.868-6.754 1.349-14.199-1.344-19.256-1.821-3.419-2.751-6.134-3.204-9.355-.263-1.862-.65-4.387-.862-5.61-.212-1.223-.385-3.613-.385-5.311 0-3.057-.021-3.119-2.217-6.576-4.008-6.31-4.606-11.689-1.805-16.265.412-.673.81-1.621.885-2.106.261-1.685-.67-1.044-1.787 1.231-1.318 2.685-1.794 2.915-5.932 2.865l-3.057-.037-2.243-2.28c-1.234-1.254-2.244-2.538-2.244-2.853 0-1.434-4.751-15.704-7.206-21.644-1.031-2.493-1.91-5.507-2.336-8-.656-3.844-.732-4.024-1.963-4.606-1.26-.597-4.064-4.409-4.085-5.553-.028-1.552-7.302-9.794-10.627-12.041-.488-.33-1.854-1.359-3.036-2.286a490.984 490.984 0 00-3.267-2.547c-.616-.474-2.326-1.282-3.8-1.797-3.535-1.235-6.71-2.78-8.68-4.225-3.021-2.214-5.201-3.53-5.86-3.538-2.972-.032-3.289-10.386-.355-11.601 3.19-1.321 9.249-5.715 12.35-8.955 1.026-1.072 2.889-2.647 4.142-3.499 1.252-.853 2.512-1.877 2.8-2.276.287-.399 1.918-1.865 3.623-3.258 1.705-1.393 3.1-2.681 3.1-2.864 0-.724 8.489-7.363 11.664-9.122 2.339-1.296 4.125-3.074 3.377-3.361-.359-.138-.835.071-1.134.497M22.901 79.8c.004.88.086 1.193.182.695.096-.497.092-1.217-.008-1.6-.1-.382-.179.025-.174.905m93.639 8.412c-.256.668.508 1.788 1.22 1.788.254 0 .906.311 1.448.691 1.073.751 1.992 1.006 1.992.552 0-.524-2.648-2.862-2.926-2.583-.151.15-.274.083-.274-.151 0-.701-1.21-.948-1.46-.297m9.06 6.184c0 .278.268.387.621.251.376-.144.518-.072.361.183-.484.782 1.023 1.996 1.897 1.528.633-.339.942-.225 1.662.613.486.566 1.082 1.029 1.324 1.029s.974.546 1.626 1.213c1.045 1.069 1.317 1.164 2.274.8.598-.227 2.02-.416 3.161-.419 2.513-.008 3.789-.599 2.168-1.006-.585-.147-1.971-.204-3.079-.128-1.109.077-2.015.008-2.015-.152 0-.161-.495-.414-1.1-.562-.605-.148-1.727-.601-2.494-1.007-.767-.407-1.579-.739-1.804-.739-.225 0-.628-.349-.894-.776-.267-.427-.805-.771-1.196-.766-.392.006-1.117-.116-1.612-.27-.596-.186-.9-.116-.9.208M261 96.695c-.44.101-.98.372-1.2.603-.268.281-.26.341.027.182.234-.13.739.294 1.122.942.804 1.36 1.986 1.518 3.373.451 1.465-1.128-.958-2.716-3.322-2.178m109.553 4.705c0 2.64.065 3.668.144 2.284.078-1.383.077-3.543-.002-4.8-.079-1.256-.143-.124-.142 2.516M188 98.391c-10.536.175-12.416.291-11.474.709.81.36 4.148.5 11.9.5 6.916 0 10.774.143 10.774.4 0 .537 2.283.513 2.617-.027.145-.235.52-.329.833-.209.455.175.483.059.139-.584-.236-.441-.6-.697-.809-.568-.209.13-.38.045-.38-.188 0-.233-.225-.383-.5-.333-.275.051-6.17.186-13.1.3m-42.495 1.092c.497.096 1.217.092 1.6-.008.382-.1-.025-.179-.905-.174-.88.004-1.193.086-.695.182m222.847 12.03c-.131.794-.073 1.168.149.946.202-.202.3-.792.218-1.313-.126-.801-.182-.744-.367.367m-334.627 3.938c-.258.673.486 4.182 1.164 5.492 1.166 2.25 1.124-1.959-.05-5.043-.48-1.261-.759-1.373-1.114-.449M216 129.735c2.75-.004 11.39-.076 19.2-.162 16.012-.175 14.375-.381 27.53 3.454 11.7 3.41 22.178 9.567 31.525 18.522a4702.36 4702.36 0 008.424 8.051c2.742 2.611 4.236 4.478 6.441 8.048 1.578 2.557 5.156 8.047 7.95 12.2 2.794 4.154 5.742 8.722 6.55 10.152l3.5 6.2c1.117 1.98 2.592 5.13 3.279 7 .686 1.87 2.411 5.843 3.833 8.828 3.651 7.667 3.899 9.232 3.661 23.151-.257 15.03-1.743 22.337-6.832 33.592-3.754 8.306-4.979 10.085-14.978 21.763-12.631 14.753-25.248 22.862-49.483 31.804-3.52 1.299-8.791 3.472-11.714 4.829-5.677 2.636-13.797 4.955-19.734 5.636-1.676.193-5.148.892-7.715 1.554-12.241 3.157-38.813 2.864-50.637-.56-1.87-.541-7.09-1.696-11.6-2.567-4.51-.871-9.19-1.972-10.4-2.447-1.21-.475-4-1.279-6.2-1.787-11.627-2.686-18.719-4.873-23.561-7.267-1.958-.968-5.288-2.366-7.4-3.107-2.111-.742-5.913-2.351-8.447-3.576-3.359-1.625-5.853-2.507-9.2-3.257-8.523-1.907-9.644-2.691-25.392-17.752-17.49-16.726-23.369-38.421-17.554-64.775 1.372-6.217 13.771-31.986 19.469-40.462 8.488-12.627 21.353-23.825 31.472-27.395 3.153-1.113 5.518-2.65 8.013-5.207 3.101-3.178 9.09-8.376 11.6-10.069 12.652-8.533 22.757-12.666 34.023-13.917 2.906-.322 5.37-.671 5.473-.775.104-.104 10.025-.078 22.047.057 12.021.136 24.107.244 26.857.241M41.2 173.309c0 1.27 1.749 4.725 2.087 4.122.275-.493.204-.889-.251-1.391-.35-.387-.642-.869-.649-1.071-.014-.421-1.187-2.061-1.187-1.66m315.782 1.772c-.172.616-.284 1.254-.248 1.419.036.165-.099.3-.301.3-.202 0-.683.855-1.069 1.9-.386 1.045-.88 2.134-1.098 2.42-.605.792-.614 2.747-.014 2.747.555 0 1.436-2.045 1.049-2.433-.129-.129-.032-.234.216-.234.43 0 .621-.546 1.715-4.911.507-2.027.284-3.11-.25-1.208m-224.165 27.288c-3.234 6.041.612 12.162 4.858 7.731 2.966-3.096 3.375-6.239 1.024-7.886-1.346-.943-5.351-.838-5.882.155m139.304.064c-1.264.809-2.521 3.756-2.521 5.908 0 2.46 4.018 3.53 5.854 1.559 3.261-3.499 3.616-4.725 1.846-6.376-2.242-2.091-3.278-2.309-5.179-1.091m85.731 5.786c.234 3.267.403 3.918.935 3.589.478-.295.056-3.9-.5-4.263-.214-.141-.288-.419-.165-.619.124-.2.069-.617-.122-.926-.206-.333-.266.569-.148 2.219M27.926 223.3c-.875 1.569-.696 8.938.235 9.62.524.385.617.646.3.843-.651.402-.572.904.142.904.911 0 1.446-2.635 1.364-6.717-.097-4.798-.917-6.665-2.041-4.65m334.303 26.799c-.173.605-.174 1.415-.002 1.8.392.875.726-.537.473-1.999-.146-.846-.174-.835-.471.199m-272.42 76.698c-.521.183-.335.353.75.686 1.086.333 1.374.328 1.165-.02-.153-.255.031-.212.409.094.71.577 1.326.385.912-.284-.303-.491-2.34-.791-3.236-.476m203.691 3.448c-.605.319-1.113.71-1.13.868a23.52 23.52 0 01-.2 1.206c-.153.821.06.735 1.976-.8 1.181-.945 2.086-1.79 2.01-1.876-.075-.086-.394.056-.707.317-.335.277-.629.314-.71.089-.08-.22-.608-.137-1.239.196" fill="#f2ddd5"/><path d="M35.648 41.232C33.797 41.595 32 42.563 32 43.196c0 .208-.495.661-1.1 1.006-.892.508-.93.582-.2.386.594-.16.91-.063.931.285.016.29.094.865.172 1.279.374 1.986-4.228 7.542-6.113 7.379-1.751-.151-2.023.406-2.062 4.225-.022 2.13.123 2.866.637 3.242.394.288.562.754.413 1.144-.332.863-.972.84-1.202-.042-.101-.385-.204 2.937-.23 7.382l-.046 8.082 1 1c1.243 1.243 1.241 1.331-.057 2.353l-1.058.831.253 4.713c.167 3.095.528 5.506 1.054 7.026 1.332 3.851 2.008 6.848 2.008 8.906 0 1.075.19 2.453.421 3.063.232.609.592 3.006.801 5.326.995 11.064 4.208 22.519 6.954 24.798.509.422.629 1.563.653 6.169.016 3.108.204 6.641.417 7.851s.535 3.82.715 5.8c.345 3.805 1.271 8.671 2.089 10.991.664 1.88 1.545 3.527 1.548 2.895.001-.36.212-.406.702-.154.385.198.909.285 1.163.193 1.015-.366.85.622-.245 1.461-1.285.985-1.289 2.294-.004 1.607 1.071-.574 2.386-.48 2.386.169 0 .309.398 1.309.885 2.221.996 1.865.774 2.657-.986 3.522-1.214.596-3.388 3.806-4.671 6.895-.502 1.21-1.227 2.56-1.61 3-.383.44-1.001 1.587-1.374 2.549-.372.962-1.12 2.581-1.66 3.597-.541 1.016-.984 2.128-.984 2.471 0 .343-.155.794-.345 1.003-.19.209-.538.92-.772 1.58-.234.66-.99 2.73-1.678 4.6-1.541 4.182-2.306 17.069-1.122 18.88 1.622 2.48 1.788 10.702.258 12.674-.848 1.092-.929 1.997-.3 3.377.325.714.32 1.195-.022 1.834-.505.943-.164 4.572.397 4.225.18-.111.439.152.576.584.151.476.477.698.828.563.818-.314.72.123-.244 1.087-1.316 1.316-.696 18.737.763 21.463.254.473.461 1.313.461 1.866 0 1.072 2.276 7.79 2.855 8.427.19.209.345.792.345 1.296 0 1.094 1.734 6.233 2.825 8.373.426.836.775 1.846.775 2.244 0 .614 1.431 3.583 4.464 9.263.365.684 1.337 1.874 2.16 2.644.823.77 1.38 1.194 1.238.942-.411-.731 1.055-1.07 1.572-.364.25.342.845.622 1.323.622 1.433 0 1.414 2.285-.028 3.231-.422.277 3.195 3.691 5.688 5.369.981.66 2.123 1.507 2.538 1.881.416.375 1.514.94 2.441 1.256.927.316 2.64 1.245 3.807 2.065 1.595 1.121 2.725 1.573 4.559 1.824 3.44.469 3.915.642 8.838 3.211 2.59 1.351 5.764 2.643 7.715 3.142l3.316.846 1.02-1.213c.965-1.146 2.949-1.711 2.949-.84 0 .205.405.43.9.5 1.016.144 1.442 1.633.718 2.506-.467.563 1.409 1.71 7.842 4.794 1.587.761 3.189 1.852 3.6 2.451 2.175 3.173 3.99 4.434 12.174 8.456 7.795 3.831 11.581 5.321 13.521 5.321.487 0 1.461.299 2.165.665.704.366 2.45.791 3.88.944 4.1.438 9.36 2.028 12.2 3.686 4.849 2.832 7.079 4.016 8.598 4.565.991.358 3.384 1.363 5.318 2.233 1.934.869 4.454 1.72 5.6 1.891 3.155.47 8.224 1.607 9.42 2.113 2.077.877 25.613 2.01 36.544 1.758 7.638-.176 8.904-.299 10.551-1.027 1.029-.456 2.353-.828 2.943-.828.59 0 1.422-.264 1.85-.587.427-.323 1.046-.599 1.376-.614.33-.014 1.32-.374 2.2-.799.88-.425 1.844-.779 2.142-.786.298-.008 1.077-.464 1.731-1.014.654-.55 1.423-1 1.709-1 .286 0 .744-.27 1.018-.6.274-.33.823-.6 1.22-.6.398 0 .969-.246 1.27-.547.301-.301.989-.683 1.529-.849 1.819-.56 2.003-.94 1.172-2.419-.863-1.538-.463-2.17.618-.976 1.201 1.328 3.221.894 7.391-1.589.33-.196 1.86-.936 3.4-1.644 1.54-.708 3.524-1.782 4.409-2.388.884-.605 3.584-2.121 6-3.368 2.415-1.247 5.381-2.977 6.591-3.843 1.21-.867 2.527-1.576 2.926-1.576.903-.001 2.133-.636 3.605-1.86.691-.576 1.651-.941 2.471-.941.738 0 1.584-.243 1.88-.54.297-.296 1.227-.766 2.066-1.043 1.103-.364 1.405-.624 1.089-.94-.643-.643-.534-2.665.157-2.93.327-.125 1.262-.84 2.078-1.587.816-.748 1.697-1.36 1.957-1.36s.697-.27.971-.6c.781-.941 1.764-.708 2.536.6.862 1.458 1.243 1.472 5.105.186 2.228-.742 3.156-1.262 3.466-1.943.259-.566.907-1.026 1.662-1.177 1.284-.257 2.866-1.264 4.993-3.181.681-.613 1.688-1.224 2.238-1.357 1.35-.328 5.519-2.431 7-3.532.66-.49 1.74-1.019 2.4-1.175.66-.156 1.47-.515 1.8-.797.33-.283 1.22-.631 1.979-.775 1.607-.304 13.843-6.365 15.021-7.441.44-.402 1.461-1.003 2.268-1.336.807-.332 1.683-1.025 1.946-1.538.263-.514 1.133-1.593 1.932-2.399 3.543-3.569 4.559-5.162 5.433-8.52.335-1.287.863-2.626 1.172-2.977.31-.351.866-1.718 1.238-3.038.371-1.32.952-3.265 1.291-4.323.35-1.09.52-2.524.392-3.309-.123-.762-.076-1.294.106-1.181.182.112.435-.193.561-.677.13-.494.018-1.017-.254-1.19-.445-.282-.111-.482.615-.367.535.084.32-.366-.7-1.466-1.251-1.35-1.249-1.729.016-2.994.655-.655.842-1.074.528-1.178-.304-.102-.377-.452-.194-.928.226-.591.368-.644.622-.233.244.396.402.412.618.061.16-.258.53-.378.822-.266 1.189.456 2.188-4.26 2.188-10.329v-5.625l-1.173-.519c-2.189-.969-1.989-4.289.273-4.549 3.853-.444 4.078-21.657.279-26.327-.718-.883-2.625-5.582-2.922-7.2-.25-1.361-.737-1.745-2.136-1.683-.516.023-.737-.423-.918-1.843a152.089 152.089 0 00-.435-3.152c-.165-1.074-.002-1.421 1.018-2.175 2.008-1.484.958-11.147-1.211-11.147-.401 0-2.775-4.358-2.775-5.095 0-.304-.16-.454-.355-.333-.195.121-.563-.033-.819-.341-.353-.425-.353-.629-.001-.847.256-.157.602-.063.771.209.187.302.387-.107.514-1.049.172-1.273.04-1.699-.751-2.425-.993-.912-1.256-1.719-.559-1.719.22 0 .401-.315.401-.7.001-.385.332-1.241.735-1.902.403-.662.838-1.652.966-2.2.797-3.418 3.661-6.805 3.972-4.699.074.502.357-3.286 1.051-14.099.204-3.19.575-6.307.824-6.926.248-.619.451-2.942.451-5.161 0-3.425.145-4.344.959-6.074.527-1.122 1.174-2.849 1.437-3.839.264-.99.623-2.083.8-2.428.554-1.084 1.604-5.581 1.604-6.869 0-.678.284-2.239.632-3.468 1.394-4.936 1.687-6.315 1.73-8.135.034-1.446-.1-1.9-.559-1.9-.332 0-.603-.289-.603-.643 0-.407.22-.558.6-.412.365.14.6 0 .6-.358 0-.323-.204-.587-.453-.587-.739 0-.207-5.559.689-7.2.527-.966.826-2.516.964-5 .157-2.82.33-3.608.8-3.639.33-.022.874-.067 1.209-.1 1.946-.195 2.479-33.364.632-39.31-1.62-5.215-2.83-6.887-4.757-6.579-2.528.404-4.3-2.265-2.498-3.761 2.254-1.87-5.32-3.583-10.113-2.287-1.25.338-3.58.825-5.178 1.082-1.894.305-4.166 1.082-6.527 2.231-1.993.97-3.858 1.763-4.146 1.763-.288 0-.739.258-1.001.574-.262.316-1.004.69-1.649.832-.645.142-1.909.873-2.81 1.626-.901.752-1.802 1.368-2.003 1.368-.201 0-1.434.945-2.739 2.1-3.409 3.016-4.502 3.792-6.631 4.705-1.041.446-2.423 1.257-3.071 1.803-.649.546-1.515.992-1.926.992-.411 0-1.01.376-1.332.836-.322.46-1.796 1.276-3.274 1.812-1.479.537-3.212 1.376-3.852 1.864-2.124 1.62-5.308 4.26-7.352 6.095-1.983 1.78-5.233 3.911-9.182 6.02-1.1.587-2.72 1.639-3.6 2.338-1.963 1.559-5.74 4.011-6.732 4.369-.669.243-3.129 1.755-6.011 3.696a88.62 88.62 0 01-2.434 1.57c-4.348 2.693-6.623 4.764-6.623 6.031 0 .964-1.539 2.169-2.771 2.169-1.269 0-2.829-1.55-2.829-2.81 0-1.405-15.831-2.208-20.572-1.044-1.335.328-3.688.8-5.228 1.049-1.54.249-4.322.892-6.183 1.429-2.852.823-4.243.976-8.871.976-5.377 0-5.504.02-6.275 1-1.036 1.318-6.545 1.57-6.209.284.103-.393-.139-1-.537-1.348-.761-.663-3.045-1.254-2.702-.698.656 1.061-1.924 1.281-14.209 1.209-14.811-.087-16.113-.196-16.637-1.388-.505-1.151-12.328-1.489-16.395-.469-1.338.335-3.238.61-4.221.61-1.569 0-1.877.149-2.509 1.22-.754 1.276-4.995 1.739-4.765.52.093-.497-2.151-.355-4.687.296-3.799.976-6.397.286-10.862-2.882-.584-.415-1.394-.761-1.8-.77-1.592-.035-3.361-2.108-2.968-3.479.491-1.713-.659-2.866-2.172-2.177-.549.25-.998.628-.998.839 0 1.251-5.661-1.818-6.267-3.398-.12-.313-.44-.569-.711-.569-1.087 0-3.747-3.412-3.533-4.531.112-.588.373-1.069.58-1.069.941 0-2.588-3.43-5.563-5.408-1.812-1.204-4.253-3.045-5.423-4.091-1.171-1.045-2.905-2.351-3.854-2.901-.949-.55-2.379-1.561-3.177-2.247-.799-.686-2.235-1.644-3.192-2.129-2.14-1.084-5.14-3.797-5.486-4.961-.4-1.342-5.024-5.863-5.998-5.863-.466 0-2.644-.879-4.839-1.952-2.196-1.074-4.556-2.076-5.243-2.227-.688-.152-2.701-1.156-4.473-2.232-1.771-1.076-3.221-1.813-3.221-1.637 0 .574-2.071 1.279-2.946 1.003C56.243 48.572 54 46.797 54 46.221c0-.308-.721-.501-1.975-.53-1.086-.024-2.507-.32-3.158-.656-1.614-.835-4.467-1.273-4.467-.686 0 .248.186.451.414.451 1.064 0 9.739 4.084 12.397 5.836 4.635 3.055 4.551 3.01 12.434 6.684 2.115.986 4.455 1.921 5.2 2.077 1.582.334 3.393 1.928 5.681 5.003 1.802 2.421 2.318 2.883 6.45 5.779 14.56 10.205 16.386 11.606 21.421 16.441 4.344 4.172 7.012 6.253 11.013 8.587.949.554 2.426 1.57 3.282 2.258 3.979 3.198 8.741 5.04 13.308 5.15 2.31.055 7.656.231 11.881.39 6.51.246 8.096.189 10.406-.377 2.19-.537 3.978-.628 9.119-.463 3.517.112 12.514.368 19.994.568 7.48.199 14.629.574 15.886.833 4.313.886 24.297.366 27.914-.727 11.319-3.42 26.422-3.509 32.88-.194 1.994 1.024 3.681.186 5.071-2.518.526-1.024 3.173-2.997 5.455-4.066.883-.413 1.85-1.046 2.149-1.406.298-.36.777-.655 1.063-.655.287 0 1.341-.626 2.343-1.391 1.003-.766 2.413-1.638 3.134-1.939.721-.302 2.842-1.701 4.713-3.109 1.871-1.409 5.44-3.71 7.932-5.115 2.492-1.404 4.932-2.934 5.422-3.4 6.154-5.843 8.937-7.881 12.038-8.813 2.565-.771 4.854-2.039 7.459-4.133.889-.715 1.943-1.3 2.341-1.3.687 0 3.009-1.638 5.2-3.668.55-.51 2.08-1.622 3.4-2.472 1.32-.849 2.76-1.858 3.2-2.241 2.105-1.834 13.171-6.366 17.2-7.046 2.2-.37 4.479-.759 5.065-.864 2.083-.371 7.649 5.937 9.562 10.838l1.072 2.746-.176 14.254c-.125 10.095-.343 15.111-.749 17.196-.316 1.618-.575 4.138-.576 5.6-.001 1.909-.28 3.333-.99 5.057-.544 1.32-.993 3.21-.997 4.2-.005.99-.646 4.23-1.426 7.2-.779 2.97-1.671 6.39-1.982 7.6-.311 1.21-.65 3.226-.754 4.48-.412 5.016-5.115 15.492-8.684 19.346-1.792 1.934-.642 3.025 1.442 1.368 2.542-2.02 3.013-1.35 2.061 2.933-.407 1.828-.735 6-.904 11.473l-.264 8.6-1.572 4.56c-.865 2.508-2.007 5.376-2.538 6.374-2.754 5.172-2.25 8.536 2.34 15.643 1.588 2.459 1.677 2.763 1.935 6.6.775 11.523 1.277 13.884 4.146 19.479 2.914 5.685 3.456 12.384 1.582 19.523-.882 3.358-.994 4.605-1.005 11.2l-.013 7.421-1.419 4c-2.073 5.844-2.942 8.89-3.328 11.669-.189 1.358-.458 2.657-.6 2.885-.141.229-.59 1.637-.998 3.131-.924 3.38-3.433 9.507-4.551 11.111-2.332 3.347-6.381 7.314-8.959 8.776-4.785 2.716-14.297 7.421-15.008 7.424-1.363.007-12.074 5.634-16.604 8.724-1.371.934-2.811 1.816-3.2 1.96-.389.144-1.268.682-1.953 1.196-1.65 1.239-5.848 2.924-7.285 2.924-.736 0-2.645.971-5.344 2.718-2.309 1.495-5.712 3.316-7.562 4.046-1.85.73-3.814 1.642-4.364 2.026-.55.385-1.683.921-2.518 1.191-.834.271-2.364 1.14-3.4 1.93-1.035.791-3.952 2.509-6.482 3.817-2.53 1.309-5.05 2.69-5.6 3.069-.55.38-2.71 1.456-4.8 2.391s-4.283 2.045-4.874 2.465c-.59.42-1.817 1.026-2.726 1.347-.909.321-2.138.929-2.731 1.351-.593.422-2.786 1.663-4.874 2.758a997.614 997.614 0 00-4.995 2.634c-6.62 3.55-12.063 5.006-19.77 5.289-7.058.259-21.423-.362-25.03-1.083-1.32-.264-3.84-.512-5.6-.551-1.76-.039-3.947-.282-4.86-.539a53.716 53.716 0 00-3.4-.816c-6.234-1.247-8.38-1.855-10.724-3.035-1.453-.732-3.356-1.523-4.229-1.759-.873-.236-3.297-1.428-5.387-2.651-6.1-3.567-12.182-5.808-15.718-5.792-.705.003-2.452-.345-3.882-.773-1.43-.428-3.77-1.089-5.2-1.468-1.43-.38-3.77-1.28-5.2-2.002-1.43-.721-4.544-2.217-6.921-3.323-3.814-1.775-4.761-2.436-8.074-5.635-2.064-1.993-4.425-3.905-5.246-4.248-.822-.343-3.669-1.8-6.326-3.238-3.175-1.717-5.382-2.655-6.433-2.732-3.116-.23-7.255-1.554-11.6-3.711C75.73 317.06 72.787 316 70.797 316c-1.079 0-2.218-.486-4.219-1.8-1.507-.99-2.943-1.8-3.191-1.8-1.441 0-8.648-5.769-10.994-8.8-.936-1.21-2.461-3.01-3.389-4-2.28-2.433-6.204-9.129-6.204-10.588 0-.341-.703-2.283-1.563-4.316-.859-2.033-1.691-4.686-1.847-5.896-.156-1.21-.696-2.92-1.199-3.8-.843-1.473-1.319-2.908-2.588-7.8-1.28-4.931-1.451-7.493-2.428-36.4-.555-16.423-.322-19.976 1.654-25.266A535.51 535.51 0 0036.861 200c.715-1.998 2.438-5.833 3.773-8.4a223.41 223.41 0 001.963-3.998c.793-1.65 1.867-3.45 2.385-4 .519-.551 1.13-1.722 1.357-2.602 1.474-5.703 1.452-5.279.353-6.902-.558-.824-1.451-2.488-1.986-3.698l-1.856-4.2c-1.305-2.951-2.543-8.755-2.647-12.4-.049-1.76-.29-4.55-.534-6.2-1.132-7.646-.479-9.586 2.362-7.02 1.876 1.696 2.594 1.657 2.509-.134-.073-1.544-.679-2.326-2.337-3.019-4.096-1.711-9.82-15.15-10.424-24.47-.155-2.397-.542-5.527-.86-6.957-.317-1.43-.74-4.44-.938-6.689-.199-2.249-.649-4.769-1-5.6-2.895-6.846-2.645-35.16.352-39.972 2.612-4.193 7.679-8.801 10.08-9.165 1.958-.296 1.97-.306.787-.688-1.541-.498-3.081-1.898-2.824-2.567.109-.285.16-.499.111-.475-.048.024-.875.199-1.839.388m130.68 90.194c-2.986 1.588-7 6.596-8.149 10.169-.389 1.208-1.037 2.738-1.441 3.4-.404.663-.739 1.565-.745 2.005-.005.44-.459 2.06-1.007 3.6-.549 1.54-1.259 4.33-1.578 6.2-.32 1.87-.695 4.038-.834 4.819-.182 1.025-.082 1.559.362 1.928.74.614 1.819-1.126 2.023-3.262.324-3.395 2.13-10.161 3.439-12.885.423-.88.892-2.14 1.043-2.8 1.257-5.501 7.181-12.2 10.789-12.2 2.258 0 5.77 2.012 5.77 3.306 0 .197.882 1.378 1.961 2.626 3.301 3.818 5.314 9.856 5.474 16.416.102 4.207.41 5.151 1.538 4.718.76-.292.872-5.707.203-9.866-.801-4.98-4.071-12.019-6.968-15.001-.665-.683-1.587-1.773-2.051-2.421-1.005-1.404-7.646-1.912-9.829-.752m60.502 1.634c-1.348.672-2.421 1.557-2.927 2.415-.44.745-1.303 1.615-1.918 1.933-.688.355-1.217 1.028-1.375 1.748-.142.643-.87 2.187-1.619 3.43-.748 1.244-1.811 3.6-2.36 5.235-.549 1.636-1.456 3.647-2.015 4.469-1.12 1.648-1.268 2.989-.498 4.51.809 1.6 1.647 1.252 1.929-.8.271-1.97 2.698-8.102 5.054-12.768 3.031-6.002 8.353-9.977 10.868-8.118.576.425 1.449.901 1.942 1.058 2.405.763 4.906 5.867 5.7 11.63.665 4.833 1.102 17.656.66 19.382-.813 3.173.097 7.221 1.502 6.682.899-.345.884-20.978-.018-25.466-.332-1.65-.748-4.114-.925-5.475-.993-7.641-8.23-12.74-14-9.865m-103.155 53.976c-3.954.882-8.191 3.039-10.78 5.487-1.262 1.194-3.915 3.312-5.895 4.706-1.98 1.395-4.5 3.361-5.6 4.369-1.1 1.009-3.035 2.597-4.3 3.531-2.472 1.824-2.62 2.166-1.702 3.925.351.674.597 2.217.597 3.746 0 2.48.499 5.941 1.874 13 1.447 7.426 3.045 9.843 9.131 13.812 1.32.861 2.813 1.867 3.318 2.237.873.64 1.903.814 10.282 1.742 1.98.22 4.32.577 5.2.795 5.277 1.304 9.505.475 17.8-3.49 2.53-1.209 5.304-2.448 6.165-2.753.861-.304 1.776-.728 2.032-.941 1.214-1.007 5.954-2.402 8.163-2.402 3.188 0 3.496-.418 2.88-3.91-.261-1.48-.735-4.219-1.054-6.087-1.28-7.511-5.973-22.151-8.491-26.49-2.165-3.73-6.446-8.031-9.895-9.941l-3.2-1.772-7-.064c-4.778-.044-7.802.115-9.525.5m149.525.564c-.55.176-1.909.338-3.019.36-1.325.026-4.215.797-8.399 2.24-3.509 1.21-6.74 2.2-7.181 2.201-2.344.003-10.601 7.097-10.601 9.108 0 .166-.627 1.233-1.394 2.372-1.516 2.251-3.406 6.869-3.406 8.322 0 .5-.701 2.953-1.558 5.453-1.022 2.981-1.617 5.507-1.731 7.344-.132 2.135-.51 3.512-1.592 5.8-2.644 5.587-2.43 6 3.107 6 3.724 0 3.832.027 7.124 1.807 1.838.994 4.925 2.342 6.861 2.997 1.935.654 3.843 1.483 4.24 1.843 2.207 1.997 15.705 2.996 21.559 1.596 4.838-1.158 11.981-5.145 14.559-8.128 1.29-1.492 2.87-3.032 3.511-3.422.642-.391 1.471-1.267 1.843-1.948.373-.68 1.262-1.954 1.977-2.829.715-.875 1.302-1.8 1.305-2.054.064-6.057.526-9.252 2.257-15.635 1.324-4.879 1.292-4.956-4.384-10.504-9.736-9.519-19.691-14.648-25.078-12.923m-135.163 5.544c7.939 2.732 15.439 9.832 16.752 15.856.24 1.1.991 3.682 1.669 5.737 1.542 4.674 1.468 7.096-.332 10.87-1.408 2.952-7.301 10.204-8.636 10.628-.487.155-3.238 1.42-6.112 2.812-7.327 3.548-8.961 3.917-13.997 3.158-2.19-.33-4.823-.601-5.852-.603-1.76-.002-8.487-1.572-9.614-2.243-3.505-2.089-4.675-3.408-6.952-7.84L102.642 227l-.161-4.632c-.146-4.204-.069-4.868.837-7.2.549-1.412 1.109-3.465 1.245-4.561.16-1.29.722-2.708 1.593-4.021.741-1.115 1.713-2.738 2.16-3.607 2.174-4.219 9.775-8.239 18.075-9.558 2.303-.366 4.267-.746 4.365-.843.474-.474 5.364-.094 7.281.566m143.451 1.263c10.293 5.144 16.821 16.988 14.767 26.793-2.307 11.015-4.626 14.156-13.761 18.641-9.163 4.499-18.004 5.171-24.542 1.864-1.844-.933-4.33-1.985-5.525-2.338-5.197-1.534-11.26-10.583-11.215-16.737.013-1.839 3.783-13.488 5.397-16.675 2.975-5.877 11.563-10.826 20.756-11.961 1.741-.215 3.256-.482 3.367-.592.847-.848 8.474-.135 10.756 1.005M135.2 198.401c-.55.176-3.391.337-6.313.359-5.937.045-6.406.175-10.687 2.973-5.398 3.529-6.377 4.734-8.399 10.339-2.734 7.581-.025 19.13 5.112 21.786 4.04 2.09 11.934 4.142 15.929 4.142 3.396 0 3.143.08 11.158-3.527 1.805-.812 6.134-5.184 7.198-7.27 2.241-4.392 2.639-16.499.674-20.501-2.251-4.585-10.93-9.495-14.672-8.301m129.8.392c-1.76.429-3.87.884-4.688 1.01-2.142.329-3.957 2.078-9.165 8.83-1.253 1.625-2.347 7.557-2.347 12.728v5.349l1.3 1.819c5.89 8.245 8.331 9.441 19.3 9.455 9.262.012 10.232-.613 14.961-9.635 2.201-4.201 2.839-7.287 2.839-13.738v-5.339l-1.559-1.936c-4.692-5.826-7.688-8.051-11.576-8.596-5.164-.725-5.894-.721-9.065.053m-125.925 1.985c3.772 1.712 3.44 6.734-.701 10.608-5.578 5.217-10.799-2.264-6.798-9.74.966-1.807 4.525-2.218 7.499-.868m136.651-.331c5.149 2.632 5.267 6.423.34 10.853-2.065 1.857-3.299 1.917-5.77.281-4.969-3.292.168-13.825 5.43-11.134m-90.487 66.759c-1.188.428-2.538 1.05-3 1.383-.461.332-1.768 1.243-2.903 2.023-3.679 2.528-4.539 5.475-2.036 6.983.715.431 1.93 1.675 2.7 2.764 3.657 5.176 5.627 7.2 8.612 8.848 5.902 3.258 7.585 6.512 10.216 19.755 1.549 7.794 1.624 7.483-2.285 9.438-2.657 1.328-3.688 2.005-10.343 6.784-1.54 1.105-3.34 2.303-4 2.66-3.46 1.873-4.026 4.156-1.031 4.156 1.033 0 6.888-3.963 8.379-5.671 1.921-2.201 9.256-6.282 11.348-6.313 1.088-.016 4.548 1.56 10.316 4.7 1.657.902 4.405 2.91 6.108 4.462 3.349 3.053 3.512 3.133 4.451 2.193.867-.866.807-1.141-.599-2.742-2.212-2.519-14.051-9.678-18.331-11.085-.386-.127-.647-1.223-.848-3.564-.295-3.448-2.052-12.632-2.787-14.563-.223-.588-.406-1.533-.406-2.099 0-.567-.385-1.801-.855-2.742-1.261-2.525-.907-2.975 2.342-2.981 4.548-.009 10.023-2.151 12.438-4.867.591-.665 1.885-1.68 2.875-2.255.99-.576 2.906-1.98 4.258-3.12 1.352-1.14 2.809-2.184 3.239-2.32.903-.287 1.703-1.824 1.703-3.272 0-3.171-4.482-7.089-9.973-8.717-3.525-1.045-26.582-.919-29.588.162m31.319 3.394c5.928 3.004 6.529 4.976 2.405 7.893-2.606 1.843-3.352 2.411-7.451 5.668-1.81 1.438-3.941 2.632-6.521 3.653l-3.832 1.516-4.662-.899c-6.98-1.346-10.539-3.807-14.971-10.35-2.38-3.516-2.374-4.279.05-5.558.977-.516 2.082-1.214 2.456-1.552 2.159-1.954 3.821-2.156 16.968-2.061l12.4.09 3.158 1.6" fill="#0f0907"/><path d="M38.241 41.697c.463.277.77.708.682.959-.112.318 1.214.512 4.358.639 3.627.147 4.86.358 6.245 1.066 1.525.78 1.863.822 2.9.363 1.288-.57 1.6-1.16.454-.861-.396.104-1.652-.179-2.791-.628-1.14-.449-2.346-.711-2.68-.583-.335.128-.609.025-.609-.229 0-.329-.692-.384-2.394-.192-1.403.159-2.852.098-3.5-.147-1.964-.744-3.676-.992-2.665-.387m16.9 3.573c.189.512.265 1.155.168 1.43-.097.275.05.5.326.5s.827.294 1.225.654c.666.603.825.604 2.031.009 1.102-.543.989-.909-.217-.702-.567.098-2.663-1.585-2.567-2.059.051-.25-.223-.523-.608-.608-.582-.127-.643.006-.358.776m-25.187.63c-.075 1.779-.087 1.809-1.692 4-1.355 1.851-2.05 2.323-3.162 2.147-.165-.026-.3.133-.3.353 0 .22.495.397 1.1.393 1.05-.007 1.957-1.01 4.3-4.754.22-.351.542-.744.716-.872.318-.236-.317-2.367-.706-2.367-.116 0-.231.495-.256 1.1m7.446.418c-4.858 3.104-8.752 9.394-8.948 14.454-.589 15.2.076 29.253 1.538 32.53.566 1.267.918 3.071 1.055 5.4.113 1.924.452 4.668.755 6.098.302 1.43.65 4.551.773 6.936.501 9.713 6.251 23.066 10.699 24.846 1.134.454 1.735 1.016 2.151 2.011 1.613 3.861-.468 6.032-3.409 3.557-1.727-1.452-1.816-1.165-1.233 3.95.283 2.475.48 5.794.439 7.376-.041 1.581.123 3.243.363 3.692.24.449.594 2.069.786 3.599.193 1.531.711 3.559 1.153 4.508l1.848 3.98c.575 1.241 1.497 2.921 2.048 3.734 1.67 2.46.782 8.342-1.662 11.013-.505.55-1.566 2.35-2.359 4A223.41 223.41 0 0141.434 192c-1.28 2.462-3.058 6.538-4.589 10.523-2.941 7.656-3.247 10.013-3.235 24.901.005 7.467.178 13.011.436 13.976.234.88.581 5.56.77 10.4.335 8.565.623 11.287 1.587 15 1.222 4.712 1.785 6.362 2.848 8.356.713 1.338 1.149 2.762 1.149 3.752 0 .97.627 3.062 1.6 5.34.88 2.059 1.6 4.061 1.6 4.448 0 1.288 4.385 8.663 6.361 10.699 1.07 1.103 2.595 2.871 3.388 3.93 1.965 2.622 9.101 8.275 10.447 8.275.243 0 1.675.81 3.182 1.8 2.001 1.314 3.14 1.8 4.219 1.8 1.979 0 4.943 1.066 10.003 3.596 4.355 2.179 8.751 3.585 11.24 3.597.793.004 2.323.479 3.4 1.057 1.078.577 4.21 2.212 6.96 3.633 4.233 2.187 5.524 3.095 8.421 5.923 3.738 3.65 13.917 9.12 19.979 10.738 1.43.381 3.434.955 4.454 1.275 1.019.319 2.472.581 3.229.581.757 0 2.879.45 4.717 1 1.838.55 3.644 1 4.014 1 .735 0 2.858 1.072 8.986 4.538 2.2 1.244 4.279 2.262 4.621 2.262.342 0 2.094.712 3.894 1.582 1.799.871 4.58 1.86 6.179 2.199 1.598.339 4.166.908 5.706 1.265 1.54.356 4.69.767 7 .912 2.31.145 4.436.411 4.725.592 1.318.824 24.751 1.507 30.475.888 4.609-.499 10.329-2.367 15-4.897.66-.358 2.82-1.466 4.8-2.463 1.98-.997 3.972-2.143 4.427-2.547.455-.403 1.968-1.18 3.363-1.727 1.395-.547 2.822-1.251 3.173-1.566.35-.314 2.334-1.317 4.408-2.228 2.074-.911 4.234-1.982 4.8-2.38.566-.397 3.134-1.811 5.708-3.142 2.573-1.33 5.511-3.055 6.529-3.832 1.019-.778 2.513-1.628 3.322-1.89.808-.263 1.957-.819 2.552-1.236.596-.418 1.676-.956 2.4-1.197 2.878-.957 6.298-2.734 9.769-5.076 2.092-1.411 4.076-2.457 4.66-2.457 1.783 0 5.802-1.465 7.372-2.686.834-.65 1.831-1.295 2.216-1.435.384-.139 2.005-1.135 3.603-2.213 1.597-1.078 4.343-2.702 6.101-3.609a217.652 217.652 0 004.597-2.432c2.441-1.364 4.592-2.316 5.865-2.595 1.258-.277 9.755-4.486 14.634-7.249 2.549-1.444 6.274-5.085 8.578-8.385 1.097-1.571 3.611-7.693 4.517-10.996.392-1.43.914-3.107 1.159-3.726.246-.619.451-1.699.457-2.4.011-1.449 1.328-6.078 3.15-11.071 1.216-3.331 1.24-3.535 1.24-10.656 0-6.5.107-7.672 1.026-11.203 1.578-6.069 1.346-14.8-.494-18.555-3.661-7.473-4.341-10.214-4.866-19.619-.303-5.432-.324-5.527-1.749-7.673-4.867-7.33-5.401-11.45-2.267-17.497 2.28-4.4 3.991-10.858 3.914-14.772-.111-5.572.252-14.474.634-15.595.291-.851.238-.929-.434-.644-4.039 1.713-5.284-.908-2.235-4.706.809-1.008 2.101-2.958 2.871-4.333.77-1.376 1.807-3.107 2.303-3.848.497-.741 1.091-2.185 1.321-3.208.229-1.024.615-2.1.857-2.392.243-.292.51-1.919.595-3.616.085-1.698.414-4.076.733-5.286s1.212-4.558 1.985-7.439c.773-2.882 1.406-6.08 1.406-7.108 0-1.071.427-2.92 1-4.33.749-1.843 1-3.19 1-5.366 0-1.598.207-3.412.459-4.031.367-.901 1.193-21.977 1.227-31.326.01-2.643-3.529-8.609-7.203-12.143l-1.604-1.543-2.74.423c-1.506.232-3.639.538-4.739.68-2.174.282-2.17.28-9.2 3.531-5.169 2.391-8.411 4.503-13.429 8.752-1.754 1.485-3.531 2.7-3.949 2.7-.418 0-1.269.414-1.891.919-2.161 1.757-6.743 4.243-8.731 4.737-2.314.575-4.782 2.308-9 6.32-2.193 2.085-4.452 3.667-8.4 5.881-2.97 1.666-5.94 3.526-6.6 4.135-1.588 1.464-5.368 4.008-5.956 4.008-.256 0-1.424.72-2.595 1.6-1.171.88-2.353 1.6-2.627 1.6-.274 0-.82.355-1.213.79-.393.434-1.088.908-1.544 1.053-1.365.433-5.407 3.348-5.655 4.078-.822 2.417-3.404 3.866-5.397 3.028-1.186-.499-3.612-1.128-9.89-2.565-2.646-.606-10.036-.463-12.323.237-1.1.337-3.294.779-4.876.983-1.582.204-4.497.826-6.478 1.383-3.988 1.121-21.821 1.462-29.046.554-1.76-.221-8.78-.57-15.6-.776-6.82-.205-15.154-.471-18.521-.589-5.365-.19-6.558-.111-9.661.641-3.759.911-4.927.915-21.018.075l-5.6-.292-3.8-1.945c-2.09-1.07-4.52-2.529-5.4-3.241-.88-.713-2.23-1.62-3-2.017-3.023-1.555-7.593-5.12-11.622-9.064-4.651-4.553-6.612-6.064-20.378-15.705-4.945-3.464-5.926-4.275-6.912-5.718-1.917-2.807-4.544-5.31-5.574-5.31-.534 0-2.579-.782-4.543-1.737-1.964-.955-4.201-1.946-4.971-2.201-.77-.255-3.2-1.641-5.4-3.08-9.94-6.502-18.872-9.318-22.4-7.064m7.301 1.182c.122.368-.564.5-2.591.5-1.805 0-3.025.203-3.534.587-1.593 1.205-2.426.394-1.1-1.07.817-.904 6.927-.918 7.225-.017m318.986.67c-.524 1.149.163 1.945 1.739 2.014 1.004.044 1.284-.345.567-.788-.223-.138-.302-.419-.176-.624.127-.204-.095-.375-.493-.378-.549-.005-.595-.088-.19-.344.425-.27.398-.39-.133-.594-.89-.342-.815-.383-1.314.714M55.65 51.766c1.281.576 2.622 1.572 3.318 2.464l1.167 1.497-1.526-.248c-.933-.152-2.388-.928-3.746-2-3.504-2.764-3.169-3.491.787-1.713m298.25.333c-.091.274-.781.601-1.533.726-.752.126-1.997.518-2.767.871-.77.354-2.797 1.276-4.505 2.05-1.708.774-3.598 1.753-4.2 2.176-.602.423-2.535 1.536-4.295 2.472-1.76.937-3.47 1.937-3.8 2.223-1.188 1.031-2.8 1.166-2.8.236 0-.478.47-1.126 1.1-1.517.605-.376 2.09-1.513 3.3-2.528 1.34-1.123 3.451-2.338 5.4-3.105 1.76-.693 4.37-1.896 5.8-2.673 2.785-1.512 8.716-2.178 8.3-.931M30.8 57.776c0 .537-.181 1.089-.403 1.226-.506.313-.96-.801-.652-1.602.363-.946 1.055-.7 1.055.376M77.093 63.3c1.618 1.656 2.765 3.776 2.297 4.243-.306.307-5.354-5.255-5.122-5.643.387-.648 1.236-.228 2.825 1.4m246.101 5.164c-.696.636-1.924 1.521-2.73 1.968-3.175 1.759-11.664 8.398-11.664 9.122 0 .183-1.395 1.471-3.1 2.864-1.705 1.393-3.336 2.859-3.623 3.258-.288.399-1.548 1.423-2.8 2.276-1.253.852-3.116 2.427-4.142 3.499-3.101 3.24-9.16 7.634-12.35 8.955-2.934 1.215-2.617 11.569.355 11.601.659.008 2.839 1.324 5.86 3.538 1.97 1.445 5.145 2.99 8.68 4.225 1.474.515 3.184 1.323 3.8 1.797.616.473 2.086 1.619 3.267 2.547 1.182.927 2.548 1.956 3.036 2.286 3.325 2.247 10.599 10.489 10.627 12.041.021 1.144 2.825 4.956 4.085 5.553 1.231.582 1.307.762 1.963 4.606.426 2.493 1.305 5.507 2.336 8 2.455 5.94 7.206 20.21 7.206 21.644 0 .315 1.01 1.599 2.244 2.853l2.243 2.28 3.057.037c4.138.05 4.614-.18 5.932-2.865 1.117-2.275 2.048-2.916 1.787-1.231-.075.485-.473 1.433-.885 2.106-2.801 4.576-2.203 9.955 1.805 16.265 2.196 3.457 2.217 3.519 2.217 6.576 0 1.698.173 4.088.385 5.311.212 1.223.599 3.748.862 5.61.453 3.221 1.383 5.936 3.204 9.355 2.693 5.057 3.212 12.502 1.344 19.256-.896 3.239-.995 4.34-.995 11.063v7.465l-1.414 3.938c-1.793 4.993-3.375 10.458-3.381 11.683-.007 1.331-1.656 6.658-3.793 12.254-1.731 4.533-6.492 10.116-10.612 12.444-3.882 2.194-13.422 6.956-13.936 6.956-.851 0-5.869 2.172-7.464 3.231-.88.585-2.77 1.651-4.2 2.371-1.43.719-3.59 1.977-4.8 2.795-1.21.818-2.83 1.811-3.6 2.207-.77.396-2.03 1.21-2.8 1.808-1.611 1.253-3.296 1.889-6.38 2.406-1.656.278-3.096.976-6 2.908-2.101 1.398-4.99 3.042-6.42 3.654-5.04 2.155-10.222 4.782-12.135 6.153-2.101 1.505-6.497 3.859-18.865 10.102-4.4 2.221-10.07 5.195-12.6 6.609-2.53 1.413-5.05 2.769-5.6 3.012-9.396 4.146-12.895 4.891-22.8 4.851-6.965-.029-18.907-.679-19.529-1.063-.285-.176-2.622-.459-5.195-.627-6.389-.42-15.86-2.481-19.676-4.282-1.65-.778-3.81-1.662-4.8-1.964-.99-.302-3.51-1.567-5.6-2.812-5.936-3.534-10.744-5.257-16-5.732-1.43-.13-2.81-.37-3.066-.534-.256-.164-2.201-.749-4.321-1.3-2.121-.551-5.061-1.62-6.535-2.376-1.473-.757-4.442-2.191-6.598-3.189-3.441-1.591-4.429-2.302-8.092-5.82-2.294-2.205-4.49-4.009-4.88-4.009-.389-.001-1.248-.331-1.908-.733-3.363-2.05-9.964-5.266-10.808-5.266-2.529 0-7.909-1.71-12.392-3.938-5.09-2.529-8.32-3.662-10.442-3.662-.872 0-1.913-.47-3.177-1.435-1.034-.79-2.54-1.668-3.347-1.953-2.708-.956-8.145-5.23-10.285-8.087-.793-1.059-2.29-2.825-3.327-3.925-2.421-2.567-4.984-6.916-6.412-10.878a368.53 368.53 0 00-2.168-5.84c-.573-1.495-1.042-3.326-1.042-4.068 0-.754-.625-2.58-1.415-4.135-.781-1.539-1.596-3.911-1.82-5.302-.223-1.385-.511-2.689-.639-2.897-.685-1.108-1.311-7.228-1.318-12.88-.005-4.101-.221-7.406-.601-9.2-.69-3.257-.849-27.551-.212-32.448.367-2.826 2.883-9.975 5.191-14.752.638-1.32 1.278-2.882 1.423-3.471.145-.588.607-1.381 1.027-1.762.42-.38.766-.888.768-1.129.008-.887 2.045-4.789 3.169-6.068.744-.848 1.334-2.151 1.651-3.645.816-3.856 1.009-4.019 4.938-4.183 4.164-.174 4.247-.254 4.679-4.507.356-3.513 1.197-6.235 1.928-6.235.225 0 1.089-.982 1.92-2.182 3.779-5.456 6.992-9.476 10.411-13.025 3.574-3.709 3.7-3.903 3.7-5.68 0-2.005.4-2.528 7.441-9.742 1.563-1.601 3.52-3.934 4.35-5.184 2.629-3.961 9.651-10.186 12.87-11.41.885-.337.939-.555.939-3.82 0-3.439.01-3.471 1.4-4.783 3.008-2.837 1.678-9.246-2.531-12.189-1.623-1.135-3.614-3.951-4.14-5.858-.465-1.682-3.072-6.527-3.513-6.527-.17 0-.809-.765-1.418-1.7-.61-.935-2.083-2.662-3.274-3.837-1.19-1.175-2.76-3.065-3.487-4.2-4.473-6.975-4.336-6.663-2.926-6.663.864 0 10.305 6.256 18.112 12 1.943 1.43 5.433 4.46 7.755 6.733 4.035 3.95 8.616 7.521 11.622 9.061.77.394 1.996 1.236 2.724 1.87.728.634 3.332 2.16 5.787 3.392l4.464 2.238 6.613.334c10.569.533 16.983.453 19.681-.246 1.853-.48 3.876-.578 9.058-.44 27.03.722 35.652 1.057 36.87 1.43 3.508 1.075 22.229.535 26.803-.772 2.309-.66 5.556-1.37 7.216-1.578 1.66-.208 3.517-.568 4.127-.8 3.395-1.291 14.886-.182 21.362 2.061 3.202 1.11 4.153.795 6.084-2.013 1.376-2.001 2.98-3.276 5.819-4.629.665-.316 1.547-.95 1.962-1.408.415-.458.982-.833 1.261-.833.279 0 1.292-.599 2.25-1.33.959-.732 2.293-1.522 2.965-1.756 1.103-.385 2.132-1.101 6.588-4.58 1.172-.915 6.686-4.148 10.006-5.867.566-.292 2.364-1.8 3.995-3.349 4.938-4.693 6.53-5.809 9.064-6.362 3.286-.716 8.315-3.112 9.208-4.388.299-.426.775-.635 1.134-.497.493.189.363.471-.647 1.393M111.749 85.298c.169 1.541 1.21 2.702 2.423 2.702 1.077 0 1.78.735 1.103 1.154-.266.164-.097.526.449.958l2.245 1.785c.915.729 1.423.927 1.533.596.091-.271.499-.493.908-.493.408 0 .844-.164.968-.365.124-.201-.09-.318-.476-.262-.386.057-1.152-.191-1.702-.551a29 29 0 00-1.8-1.081c-.44-.235-.864-.754-.943-1.155-.164-.836-1.607-2.153-2.381-2.173-.288-.007-.42-.181-.293-.386.127-.205-.131-.626-.574-.936-.442-.309-.715-.652-.606-.76.108-.109-.068-.198-.392-.198-.414 0-.552.348-.462 1.165m13.442 9.486c.231.431.396.926.367 1.1-.156.936.144 1.316 1.042 1.316 1.169 0 1.243-.269.345-1.261-.565-.624-.579-.822-.1-1.431.514-.656.499-.664-.21-.108-.584.458-.805.482-.933.1-.093-.275-.34-.5-.549-.5-.228 0-.213.315.038.784m3.288 1.488c-.389.156-.339.342.2.736.396.29.721.754.721 1.03 0 1.258 5.039 3.199 7.99 3.078 1.909-.079 2.78-.269 2.718-.593-.055-.283.673-.595 1.8-.771 1.604-.249 1.74-.335.892-.56-.55-.147-1.303-.115-1.674.071-.37.185-1.574.337-2.674.337-1.1 0-2.489.186-3.087.413-.957.364-1.229.269-2.274-.8-.652-.667-1.409-1.213-1.682-1.213-.274 0-.835-.45-1.248-1-.784-1.044-.836-1.067-1.682-.728m131.528 1.009c-.049 2.038 2.386 3.497 3.877 2.324.563-.443.83-.805.594-.805-.237 0-.542.18-.678.4-.542.878-2.124.396-2.954-.9-.458-.715-.836-1.173-.839-1.019m110.035 3.319c-.063 3.006-.591 4.639-1.506 4.662-.584.014-1.794 3.585-1.383 4.084.206.249.555 1.084.775 1.854.373 1.306.402 1.326.436.3.02-.605.227-1.1.46-1.1s.315-.175.183-.389c-.132-.213.079-.875.469-1.471.715-1.091 1.257-7.799.82-10.14-.103-.55-.217.44-.254 2.2M173.6 98.367c-.935.269-.903.307.5.579.913.176 1.5.518 1.5.872 0 .495 1.63.583 10.9.585 5.995.002 11.8.07 12.9.15 1.1.081 1.505.068.9-.028-.605-.097-1.1-.344-1.1-.55 0-.224-4.344-.375-10.774-.375-7.752 0-11.09-.14-11.9-.5-.942-.418.898-.534 11.274-.709l12.4-.208-12.8-.052c-7.04-.028-13.25.078-13.8.236m-27.4 1.243c-1.534.231-1.555.254-.517.555.595.172 1.576.149 2.18-.053 1.479-.493.414-.815-1.663-.502m61.2.79c-.157.253.751.383 2.476.353 2.098-.037 2.448-.118 1.524-.353-1.784-.454-3.719-.454-4 0M34.839 115.9c.733 1.927 1.193 5.028.802 5.419-.469.469-.988-.526-1.651-3.168-.709-2.819-.041-4.588.849-2.251m132.257 13.537c-.103.104-2.567.453-5.473.775-11.266 1.251-21.371 5.384-34.023 13.917-2.51 1.693-8.499 6.891-11.6 10.069-2.495 2.557-4.86 4.094-8.013 5.207-10.119 3.57-22.984 14.768-31.472 27.395-5.698 8.476-18.097 34.245-19.469 40.462-5.815 26.354.064 48.049 17.554 64.775 15.748 15.061 16.869 15.845 25.392 17.752 3.347.75 5.841 1.632 9.2 3.257 2.534 1.225 6.336 2.834 8.447 3.576 2.112.741 5.442 2.139 7.4 3.107 4.842 2.394 11.934 4.581 23.561 7.267 2.2.508 4.99 1.312 6.2 1.787 1.21.475 5.89 1.576 10.4 2.447 4.51.871 9.73 2.026 11.6 2.567 6.942 2.01 10.023 2.314 25.374 2.499 15.659.19 17.58.042 25.263-1.939 2.567-.662 6.039-1.361 7.715-1.554 5.937-.681 14.057-3 19.734-5.636 2.923-1.357 8.194-3.53 11.714-4.829 20.993-7.746 30.392-13.109 41.6-23.739 11.378-10.79 18.392-19.941 22.861-29.828 5.089-11.255 6.575-18.562 6.832-33.592.238-13.919-.01-15.484-3.661-23.151-1.422-2.985-3.147-6.958-3.833-8.828-.687-1.87-2.162-5.02-3.279-7l-3.5-6.2c-.808-1.43-3.756-5.998-6.55-10.152-2.794-4.153-6.372-9.643-7.95-12.2-2.205-3.57-3.699-5.437-6.441-8.048a4702.36 4702.36 0 01-8.424-8.051c-9.347-8.955-19.825-15.112-31.525-18.522-13.155-3.835-11.518-3.629-27.53-3.454-19.037.209-20.842.206-46.057-.079-12.022-.135-21.943-.161-22.047-.057M193 130.473c24.256.48 24.178.48 40.114.121 15.504-.349 16.054-.291 27.147 2.839 13.339 3.763 22.988 9.172 32.37 18.146 2.657 2.542 6.456 6.095 8.443 7.897 2.234 2.027 4.333 4.391 5.503 6.2 1.04 1.608 3.361 5.207 5.157 7.997a825.151 825.151 0 006.7 10.2c4.9 7.318 9.192 15.143 11.478 20.927 1.087 2.75 2.696 6.44 3.576 8.2 3.15 6.3 3.112 6.052 3.112 20.6v13l-1.317 5.8c-2.134 9.398-6.216 19.588-10.222 25.518-4.326 6.402-19.863 22.889-25.296 26.841-8.019 5.833-19.342 11.386-34.669 17.004-2.808 1.029-7.578 3.015-10.6 4.412-5.648 2.612-14.252 5.042-19.844 5.607-1.292.13-4.802.852-7.8 1.605-12.953 3.253-38.446 2.947-49.819-.598-1.522-.474-6.382-1.568-10.8-2.429-4.418-.862-9.563-2.091-11.433-2.733-1.87-.642-4.66-1.434-6.2-1.761-9.257-1.964-18.32-4.76-23.756-7.329-2.114-1-5.284-2.314-7.044-2.921-1.76-.606-5-2.003-7.2-3.103-4.584-2.292-6.525-2.969-11.718-4.086-6.392-1.375-8.971-3.203-22.107-15.677-6.793-6.45-8.504-8.481-11.677-13.853-4.452-7.537-5.951-11.199-7.243-17.697-.328-1.65-.835-4.17-1.126-5.6-1.766-8.679-.155-25.376 3.304-34.233 1.618-4.144 10.572-22.197 14.367-28.967 6.42-11.455 15.352-21.297 24.2-26.666 4.127-2.503 8.434-4.861 9.4-5.145 3.147-.924 5.971-2.904 10.912-7.651 12.414-11.928 27.62-19.805 41.561-21.531 2.628-.325 4.989-.721 5.246-.88.658-.407 5.879-.875 7.081-.634.55.11 9.64.371 20.2.58M41.6 173.339c0 .386 1.303 2.677 1.642 2.887.215.133.284.631.154 1.108-.208.759-.173.788.283.231.287-.349.746-.559 1.021-.467.689.232.635-.671-.056-.936-.323-.124-.47-.54-.352-.994.152-.581.047-.719-.413-.543-.383.147-.787-.079-1.062-.594-.371-.692-1.217-1.173-1.217-.692m314.214 2.49c-.329.786-.772 1.32-.986 1.188-.214-.132-.613.53-.886 1.471-.273.942-.749 2.111-1.057 2.599-.872 1.382-.291 4.251.749 3.695.421-.226.766-.594.766-.82 0-.225-.151-.316-.335-.202-.462.285-.288-1.999.201-2.64.218-.286.712-1.375 1.098-2.42.386-1.045.837-1.9 1.002-1.9.166 0 .309-.225.32-.5.01-.275.149-.815.309-1.2.173-.417.114-.7-.147-.7-.24 0-.706.643-1.034 1.429M132.81 201.59c-.434.434-.899 1.289-1.033 1.9-.134.61-.408 1.632-.61 2.27-.848 2.681.003 4.783 2.448 6.048 3.563 1.842 8.629-4.694 6.674-8.608-1.1-2.201-5.863-3.226-7.479-1.61m139.515.139c-4.001 2.02-4.318 7.757-.533 9.636 3.79 1.881 8.947-5.156 5.994-8.179-2.173-2.226-3.327-2.534-5.461-1.457m-133.626.485c2.351 1.647 1.942 4.79-1.024 7.886-4.246 4.431-8.092-1.69-4.858-7.731.531-.993 4.536-1.098 5.882-.155m136.627-.165c3.88 1.993 3.909 3.793.128 7.851-1.836 1.971-5.854.901-5.854-1.559 0-4.279 3.073-7.655 5.726-6.292m81.473 4.953c-.721 1.898-.493 4.192.501 5.021 1.1.918 1.35.945 1.643.182.132-.344.023-.555-.257-.5-.335.065-.486-.608-.486-2.168 0-1.276-.16-2.163-.368-2.034-.202.125-.255-.066-.117-.425.137-.359.078-.759-.133-.889-.211-.131-.563.235-.783.813M30.083 228.8c-.098 3.347-.728 6.143-1.305 5.787-.208-.129-.378-.059-.378.156 0 .634.951.763 1.51.204.376-.376.482-1.692.389-4.832-.103-3.443-.147-3.709-.216-1.315m330.418 21.8c.004.88.086 1.193.182.695.096-.497.092-1.217-.008-1.6-.1-.382-.179.025-.174.905m.966-1.133c-.435.435-.305 1.929.233 2.664.427.584.5.42.5-1.124 0-1.745-.17-2.103-.733-1.54M90.937 325.38c.136.354-.092.679-.588.836-1.179.374-.544.761 1.073.652 1.125-.076 1.465.082 1.761.819.392.977.512.771.593-1.017.043-.964-.081-1.105-.843-.959-.515.098-.981-.058-1.1-.37-.115-.298-.413-.541-.663-.541-.251 0-.356.261-.233.58M293 328.876c-1.231.695-2.752 2.305-2.457 2.6.145.146-.128.682-.608 1.193-.479.51-.759 1.04-.622 1.177.344.345 2.875-1.18 2.937-1.768.028-.263.072-.653.1-.868.07-.547 2.45-1.73 2.45-1.217 0 .258.297.228.79-.079 1.008-.63.059-1.31-1.248-.896-.566.18-.752.122-.568-.175.336-.544.241-.54-.774.033" fill="#cc9c8c"/><path d="M128.6 194.038c-.88.216-2.72.551-4.089.746-6.325.897-13.523 4.984-15.527 8.816-.517.99-1.49 2.61-2.161 3.6-.846 1.249-1.223 2.29-1.231 3.4-.006.88-.456 2.68-1 4-.865 2.101-.989 3.006-.99 7.275l-.002 4.876 2.256 4.455c1.719 3.393 2.6 4.685 3.7 5.42.794.531 1.84 1.254 2.325 1.606 1.368.995 6.316 2.075 10.719 2.339 2.2.132 5.666.349 7.702.482 4.126.27 4.027.296 10.471-2.763 2.296-1.09 4.906-2.296 5.8-2.681 1.052-.452 2.263-1.516 3.427-3.009.99-1.271 2.272-2.871 2.848-3.555 3.605-4.283 4.543-9.702 2.499-14.445-.569-1.32-1.174-3.425-1.344-4.677-1.303-9.566-15.352-18.351-25.403-15.885m142.956.14c-.098.097-1.724.37-3.614.604-6.218.773-8.574 1.592-13.007 4.522-7.036 4.651-7.93 6.127-12.05 19.896-2.138 7.143 3.261 17.425 10.209 19.445 1.245.361 3.51 1.309 5.034 2.106 3.368 1.762 11.014 2.304 15.223 1.081 1.194-.348 2.523-.632 2.951-.632 1.151 0 4.574-1.915 5.526-3.091.635-.786 1.368-1.097 3.153-1.339 4.992-.677 8.175-5.655 10.448-16.336 2.469-11.605-9.173-26.434-20.752-26.434-1.619 0-3.024.08-3.121.178M141.712 198.7c8.27 3.87 10.292 7.137 10.282 16.615-.011 10.412-3.076 16.778-9.609 19.959-9.264 4.51-12.634 4.716-22.654 1.386-6.302-2.094-6.463-2.214-9.731-7.248l-1.8-2.772-.136-5.909c-.263-11.371 2.526-16.048 13.073-21.923.756-.422 2.872-.653 7.333-.804 3.448-.116 6.418-.361 6.6-.546.616-.626 4.006.008 6.642 1.242m133.118-.783c3.635.505 7.552 3.641 12.288 9.837 2.073 2.712 1.066 15.13-1.666 20.546-4.933 9.783-6.293 10.622-16.852 10.403-8.875-.184-11.61-.889-14.314-3.689-6.503-6.734-6.362-6.403-6.19-14.474.207-9.661 1.052-11.832 7.043-18.095 2.547-2.663 3.33-3.244 4.661-3.462.88-.144 2.95-.594 4.6-1.001 3.014-.744 5.437-.759 10.43-.065" fill="#14ccb4"/><path d="M37.2 41.527c0 .579 1.751 1.955 3 2.359 1.183.382 1.171.392-.787.688-2.401.364-7.468 4.972-10.08 9.165-2.997 4.812-3.247 33.126-.352 39.972.351.831.801 3.351 1 5.6.198 2.249.621 5.259.938 6.689.318 1.43.705 4.56.86 6.957.604 9.32 6.328 22.759 10.424 24.47 1.658.693 2.264 1.475 2.337 3.019.085 1.791-.633 1.83-2.509.134-2.841-2.566-3.494-.626-2.362 7.02.244 1.65.485 4.44.534 6.2.104 3.645 1.342 9.449 2.647 12.4l1.856 4.2c.535 1.21 1.428 2.874 1.986 3.698 1.099 1.623 1.121 1.199-.353 6.902-.227.88-.838 2.051-1.357 2.602-.518.55-1.592 2.35-2.385 4a223.41 223.41 0 01-1.963 3.998c-1.335 2.567-3.058 6.402-3.773 8.4a535.51 535.51 0 01-2.032 5.534c-1.976 5.29-2.209 8.843-1.654 25.266.977 28.907 1.148 31.469 2.428 36.4 1.269 4.892 1.745 6.327 2.588 7.8.503.88 1.043 2.59 1.199 3.8.156 1.21.988 3.863 1.847 5.896.86 2.033 1.563 3.975 1.563 4.316 0 1.459 3.924 8.155 6.204 10.588.928.99 2.453 2.79 3.389 4 2.346 3.031 9.553 8.8 10.994 8.8.248 0 1.684.81 3.191 1.8 2.001 1.314 3.14 1.8 4.219 1.8 1.99 0 4.933 1.06 10.203 3.676 4.345 2.157 8.484 3.481 11.6 3.711 1.051.077 3.258 1.015 6.433 2.732 2.657 1.438 5.504 2.895 6.326 3.238.821.343 3.182 2.255 5.246 4.248 3.313 3.199 4.26 3.86 8.074 5.635 2.377 1.106 5.491 2.602 6.921 3.323 1.43.722 3.77 1.622 5.2 2.002 1.43.379 3.77 1.04 5.2 1.468 1.43.428 3.177.776 3.882.773 3.536-.016 9.618 2.225 15.718 5.792 2.09 1.223 4.514 2.415 5.387 2.651.873.236 2.776 1.027 4.229 1.759 2.344 1.18 4.49 1.788 10.724 3.035.958.191 2.488.558 3.4.816.913.257 3.1.5 4.86.539 1.76.039 4.28.287 5.6.551 3.607.721 17.972 1.342 25.03 1.083 7.707-.283 13.15-1.739 19.77-5.289.66-.354 2.908-1.539 4.995-2.634 2.088-1.095 4.281-2.336 4.874-2.758.593-.422 1.822-1.03 2.731-1.351.909-.321 2.136-.927 2.726-1.347.591-.42 2.784-1.53 4.874-2.465 2.09-.935 4.25-2.011 4.8-2.391.55-.379 3.07-1.76 5.6-3.069 2.53-1.308 5.447-3.026 6.482-3.817 1.036-.79 2.566-1.659 3.4-1.93.835-.27 1.968-.806 2.518-1.191.55-.384 2.514-1.296 4.364-2.026 1.85-.73 5.253-2.551 7.562-4.046 2.699-1.747 4.608-2.718 5.344-2.718 1.437 0 5.635-1.685 7.285-2.924.685-.514 1.564-1.052 1.953-1.196.389-.144 1.829-1.026 3.2-1.96 4.53-3.09 15.241-8.717 16.604-8.724.711-.003 10.223-4.708 15.008-7.424 2.578-1.462 6.627-5.429 8.959-8.776 1.118-1.604 3.627-7.731 4.551-11.111.408-1.494.857-2.902.998-3.131.142-.228.411-1.527.6-2.885.386-2.779 1.255-5.825 3.328-11.669l1.419-4 .013-7.421c.011-6.595.123-7.842 1.005-11.2 1.874-7.139 1.332-13.838-1.582-19.523-2.869-5.595-3.371-7.956-4.146-19.479-.258-3.837-.347-4.141-1.935-6.6-4.59-7.107-5.094-10.471-2.34-15.643.531-.998 1.673-3.866 2.538-6.374l1.572-4.56.264-8.6c.169-5.473.497-9.645.904-11.473.952-4.283.481-4.953-2.061-2.933-2.084 1.657-3.234.566-1.442-1.368 3.569-3.854 8.272-14.33 8.684-19.346.104-1.254.443-3.27.754-4.48.311-1.21 1.203-4.63 1.982-7.6.78-2.97 1.421-6.21 1.426-7.2.004-.99.453-2.88.997-4.2.71-1.724.989-3.148.99-5.057.001-1.462.26-3.982.576-5.6.406-2.085.624-7.101.749-17.196l.176-14.254-1.072-2.746c-1.913-4.901-7.479-11.209-9.562-10.838-.586.105-2.865.494-5.065.864-4.029.68-15.095 5.212-17.2 7.046-.44.383-1.88 1.392-3.2 2.241-1.32.85-2.85 1.962-3.4 2.472-2.191 2.03-4.513 3.668-5.2 3.668-.398 0-1.452.585-2.341 1.3-2.605 2.094-4.894 3.362-7.459 4.133-3.101.932-5.884 2.97-12.038 8.813-.49.466-2.93 1.996-5.422 3.4-2.492 1.405-6.061 3.706-7.932 5.115-1.871 1.408-3.992 2.807-4.713 3.109-.721.301-2.131 1.173-3.134 1.939-1.002.765-2.056 1.391-2.343 1.391-.286 0-.765.295-1.063.655-.299.36-1.266.993-2.149 1.406-2.282 1.069-4.929 3.042-5.455 4.066-1.39 2.704-3.077 3.542-5.071 2.518-6.458-3.315-21.561-3.226-32.88.194-3.617 1.093-23.601 1.613-27.914.727-1.257-.259-8.406-.634-15.886-.833-7.48-.2-16.477-.456-19.994-.568-5.141-.165-6.929-.074-9.119.463-2.31.566-3.896.623-10.406.377-4.225-.159-9.571-.335-11.881-.39-4.567-.11-9.329-1.952-13.308-5.15a32.463 32.463 0 00-3.282-2.258c-4.001-2.334-6.669-4.415-11.013-8.587-5.035-4.835-6.861-6.236-21.421-16.441-4.132-2.896-4.648-3.358-6.45-5.779-2.288-3.075-4.099-4.669-5.681-5.003-.745-.156-3.085-1.091-5.2-2.077-7.883-3.674-7.799-3.629-12.434-6.684-2.658-1.752-11.333-5.836-12.397-5.836-.228 0-.414-.203-.414-.451 0-.587 2.853-.149 4.467.686.651.336 2.072.632 3.158.656 1.254.029 1.975.222 1.975.53 0 1.421 3.822 3.225 5.354 2.527 1.947-.887 1.323-1.444-.77-.688-1.314.475-3.423-.457-3.302-1.46.104-.859-.583-2.553-1.118-2.759-.31-.119-.564-.042-.564.172 0 .213-.27.387-.6.387-.33 0-.6.18-.6.4 0 .66-1.34.455-3.225-.493-1.428-.718-2.616-.92-6.075-1.035-2.937-.098-4.3-.291-4.3-.611 0-.258-.36-.693-.8-.968-.44-.275-.8-.35-.8-.166m-6.556 3.202c-.112.18.047.81.353 1.4.305.589.419 1.071.252 1.071-.397 0-4.049 5.078-4.049 5.63 0 .233-.315.326-.7.206-.385-.12-.97-.045-1.3.167-.455.292-.292.386.673.391 1.781.008 6.272-5.627 5.93-7.442a12.439 12.439 0 01-.172-1.252c-.035-.562-.676-.674-.987-.171m18.7 2.97c2.389 1.024 5.604 2.636 7.144 3.582 1.54.945 3.635 2.236 4.656 2.869 2.776 1.72 12.812 6.25 13.845 6.25.993 0 3.828 2.807 5.364 5.312.51.832 2.021 2.272 3.358 3.2 16.713 11.604 18.636 13.064 23.886 18.132 4.521 4.365 7.456 6.646 11.944 9.284 1.242.73 2.709 1.746 3.259 2.259.55.512 2.71 1.799 4.8 2.859l3.8 1.928 6 .316c16.031.845 16.678.843 20.33-.072 2.997-.751 4.18-.832 9.546-.654 3.368.113 11.974.382 19.124.599 7.15.216 14.35.572 16 .791 6.732.89 24.657.54 28.169-.55 1.743-.542 4.578-1.178 6.3-1.413 1.722-.236 3.985-.689 5.031-1.006 2.144-.651 10.859-.807 12.74-.228.638.196 2.69.676 4.56 1.067 1.87.39 3.886.95 4.48 1.243 2.549 1.258 3.368.833 6.65-3.452.512-.668 1.116-1.215 1.343-1.215.226 0 .946-.45 1.6-1 .654-.55 1.411-1 1.682-1 .272 0 .86-.341 1.307-.757.447-.417 1.426-1.075 2.176-1.462.749-.388 1.992-1.196 2.762-1.796.77-.6 1.85-1.196 2.4-1.324.928-.217 4.349-2.57 6.2-4.265.44-.403 2.96-1.949 5.6-3.436 5.097-2.87 6.971-4.217 9.333-6.707 2.684-2.831 5.919-5.033 8.615-5.866 2.646-.817 7.8-3.67 8.365-4.631.173-.293 1.012-.72 1.866-.95 1.495-.403 2.852-1.347 5.339-3.718.642-.611 1.643-1.38 2.224-1.708.582-.328 1.868-1.226 2.858-1.996.99-.769 2.61-1.778 3.6-2.24.99-.462 3.835-1.801 6.322-2.975 4.077-1.924 4.998-2.196 9.371-2.765l4.849-.631 1.757 1.714c5.413 5.278 7.507 10.053 6.929 15.796-.235 2.341-.429 8.5-.43 13.686-.002 5.187-.201 10.511-.444 11.831-.243 1.32-.568 4.02-.723 6-.173 2.217-.617 4.412-1.156 5.715-.481 1.163-.875 2.945-.875 3.961 0 1.604-1.442 7.691-3.402 14.359-.329 1.119-.598 3.189-.598 4.6 0 2.496-.99 6.356-2.3 8.965-1.012 2.017-2.155 3.969-2.692 4.6-.282.33-.83 1.23-1.219 2-.388.77-1.294 2.089-2.012 2.93-2.949 3.457-1.525 6.118 2.387 4.459.673-.285.724-.207.431.644-.35 1.016-.668 9.52-.598 15.967.042 3.851-1.779 10.373-4.331 15.509-2.623 5.282-2.027 9.185 2.455 16.07 1.646 2.527 1.684 2.666 1.94 7 .555 9.401 1.229 12.819 3.439 17.433 3.701 7.729 4.266 12.769 2.296 20.499-.88 3.456-.997 4.759-1.002 11.2l-.007 7.289-1.595 4.6c-2.281 6.578-2.769 8.287-3.16 11.069-.191 1.358-.475 2.677-.632 2.931-.157.254-.543 1.565-.857 2.913-.526 2.253-.981 3.448-3.544 9.311-1.243 2.842-6.862 8.977-9.504 10.378-5.118 2.712-14.528 7.395-14.864 7.396-.825.004-5.738 2.178-7.231 3.201-.88.602-2.95 1.769-4.6 2.592-1.65.823-3.54 1.897-4.2 2.386-.66.49-2.1 1.4-3.2 2.023-1.1.623-2.389 1.48-2.865 1.903-1.081.963-5.785 2.697-7.315 2.697-.737 0-2.614.961-5.282 2.704-2.276 1.488-5.128 3.126-6.338 3.64-1.21.515-3.64 1.641-5.4 2.503-1.76.861-3.38 1.564-3.6 1.561-.22-.002-1.32.693-2.445 1.546-1.125.853-3.735 2.398-5.8 3.435-2.065 1.036-4.565 2.39-5.555 3.009-.99.618-3.33 1.806-5.2 2.639-1.87.833-3.865 1.831-4.433 2.218-.568.388-2.368 1.35-4 2.139-1.632.789-4.497 2.288-6.367 3.33-5.922 3.301-6.528 3.604-10 5.011-5.943 2.408-8.862 3.04-15.2 3.291-6.63.264-21.623-.371-24.6-1.04-1.1-.248-3.53-.503-5.4-.567-1.87-.065-4.57-.402-6-.75-1.43-.348-4.337-.989-6.46-1.425-2.197-.451-4.955-1.347-6.4-2.08-1.397-.708-3.559-1.599-4.805-1.979-1.246-.38-4.289-1.903-6.763-3.384-4.895-2.931-9.001-4.352-14.383-4.979-1.656-.192-3.636-.614-4.4-.937-.764-.323-2.739-.902-4.389-1.287-1.65-.385-3.758-1.14-4.684-1.678-.926-.537-3.163-1.592-4.971-2.343-4.981-2.069-7.333-3.626-11.599-7.677-2.143-2.035-4.192-3.7-4.554-3.7-.362 0-1.703-.613-2.982-1.362-1.278-.75-3.109-1.735-4.067-2.191a52.707 52.707 0 01-3.137-1.638c-.766-.445-2.026-.811-2.8-.814-2.579-.008-7.363-1.515-11.406-3.593-5.031-2.585-7.86-3.602-10.022-3.602-1.358 0-2.122-.319-3.823-1.597-1.169-.879-2.753-1.804-3.519-2.057-2.927-.966-8.257-5.332-11.02-9.027-1.02-1.364-2.385-2.926-3.032-3.471-1.501-1.263-5.374-7.891-5.988-10.248-.257-.99-1.009-3.039-1.67-4.553-.661-1.515-1.35-3.799-1.53-5.076-.182-1.289-.978-3.636-1.787-5.273-.802-1.623-1.591-3.934-1.754-5.135-.163-1.201-.444-2.422-.624-2.713-.642-1.039-1.1-5.574-1.418-14.05-.177-4.73-.519-9.32-.758-10.2-.581-2.134-.596-26.045-.019-29.893.24-1.599 1.074-4.617 1.853-6.707.779-2.09 1.74-4.7 2.137-5.8.396-1.1 1.183-2.886 1.747-3.968.565-1.082 1.027-2.269 1.027-2.638 0-.368.339-.977.754-1.352.414-.375 1.14-1.744 1.613-3.041.473-1.297 1.481-3.101 2.239-4.009.759-.907 1.552-2.312 1.763-3.121 1.634-6.262 1.653-6.556.504-7.823-1.939-2.137-4.775-8.734-5.277-12.275-.209-1.473-.574-3.189-.812-3.814-.237-.625-.399-2.401-.36-3.947.039-1.547-.16-4.837-.443-7.312-.583-5.115-.494-5.402 1.233-3.95 2.941 2.475 5.022.304 3.409-3.557-.414-.99-1.018-1.557-2.133-2.004-4.5-1.8-10.186-14.891-10.721-24.679-.135-2.48-.415-5.14-.623-5.91-.207-.77-.544-3.509-.75-6.086-.274-3.429-.636-5.308-1.349-7.002-.789-1.876-1.024-3.302-1.236-7.514-.144-2.859-.428-6.908-.63-8.998-.247-2.544-.22-5.32.082-8.4.248-2.53.417-5.986.375-7.681-.096-3.929 1.628-7.087 6.408-11.739l3.144-3.06 3.505.158c3.094.14 4.014.376 7.849 2.021m313.936-.419c-1.52 1.52.179 4.19 2.36 3.711 1.095-.24 1.188-.344.603-.671-.38-.213-.934-.294-1.23-.18-.972.372-1.889-1.088-1.434-2.284.448-1.179.399-1.274-.299-.576M23.6 61.8c0 .676.183 1.006.5.9.275-.092.5-.497.5-.9s-.225-.808-.5-.9c-.317-.106-.5.224-.5.9m-.228 17.8c.028 1.859.04 1.877.885 1.243.492-.369.685-.75.454-.895-.248-.155-.255-.308-.018-.4.211-.081-.006-.527-.483-.991l-.866-.843.028 1.886m86.917 5.069c-.214 1.119 2.446 4.531 3.533 4.531.271 0 .591.256.711.569.816 2.128 5.483 4.215 6.7 2.998.979-.979.493-1.253-.925-.52-1.112.576-1.247.562-2.075-.216-.486-.457-1.067-.831-1.289-.831-.223 0-.827-.45-1.344-1-.517-.55-.734-1-.482-1s.348-.283.214-.632c-.145-.378-.54-.554-.982-.439-.926.242-2.808-1.191-2.722-2.072.234-2.403-.917-3.597-1.339-1.388M123.883 94.7c-.235 1.226 1.651 3.253 3.055 3.284.406.009 1.216.355 1.8.77 4.465 3.168 7.063 3.858 10.862 2.882 2.536-.651 4.78-.793 4.687-.296-.194 1.03 3.939.785 4.634-.275.779-1.189.516-1.535-.788-1.039-1.355.514-2.378.468-3.004-.136-.575-.554-.559-.553-3.004-.104-.922.17-1.771.557-1.888.861-.739 1.926-10.362-.51-10.954-2.774-.154-.587-.444-.701-1.335-.523-1.729.346-2.317-.073-2.801-1.995-.506-2.009-.96-2.245-1.264-.655m244.284 2.467c-.092.091-.167 1.656-.167 3.477 0 2.672-.166 3.592-.863 4.772-.988 1.675-1.599 7.384-.79 7.384.249 0 .453.264.453.587 0 .358-.235.498-.6.358-.38-.146-.6.005-.6.412 0 .354.29.643.644.643.5 0 .607.312.48 1.4-.195 1.67.343 1.322.618-.4.106-.66.23-1.245.275-1.3.046-.055.106-.265.133-.467a1.27 1.27 0 01.303-.619c.296-.296-.409-3.407-.923-4.068-.422-.545 1.017-4.388 1.596-4.26.666.147 1.223-1.959 1.356-5.138.124-2.95-.636-4.054-1.915-2.781m-108.56.879c-.024 2.243 3.193 3.554 4.793 1.954 1.205-1.205.961-1.711-.274-.566-.591.547-1.325.898-1.633.78-.307-.118-.706-.214-.886-.214-.181 0-.703-.585-1.161-1.3-.504-.786-.835-1.045-.839-.654m-87.47 1.333c.627 1.329 2.607 1.496 15.863 1.335l10.6-.128-11.687-.093c-9.693-.077-11.652-.186-11.478-.64.145-.379-.342-.686-1.59-1-2.325-.585-2.244-.61-1.708.526m33.859 1.216c.271.327.389.867.261 1.2-.469 1.222 5.38.803 6.294-.451.735-1.008.735-1.026 0-.822-2.816.781-6.597.66-5.289-.169.369-.234.178-.343-.611-.347-.972-.005-1.073.086-.655.589m-39.961 29.867c-.531.198-3.051.63-5.6.96-14.061 1.821-29.037 9.556-41.359 21.363-5.109 4.896-7.852 6.831-11.076 7.816-.55.168-2.44 1.118-4.2 2.111-16.523 9.321-23.119 17.058-35.88 42.088-8.696 17.054-9.438 19.129-11.593 32.4-1.841 11.339 1.588 29.456 7.473 39.481 4.246 7.233 5.074 8.297 10.948 14.061 13.528 13.274 17.539 16.215 24.073 17.652 5.314 1.168 7.193 1.828 11.979 4.206 2.31 1.147 5.46 2.5 7 3.006 1.54.505 4.608 1.777 6.818 2.825 5.608 2.659 14.576 5.44 23.982 7.435 1.54.327 4.33 1.118 6.2 1.758 1.87.64 7.09 1.886 11.6 2.771 4.51.884 9.37 1.979 10.8 2.433 10.952 3.478 36.892 3.781 49.6.58 2.97-.748 6.84-1.542 8.6-1.764 6.374-.803 13.293-2.784 19.096-5.468 3.022-1.398 7.792-3.384 10.6-4.413 13.005-4.766 19.408-7.662 27.002-12.211 7.925-4.747 8.17-4.934 15.018-11.427 21.905-20.774 29.163-36.22 29.567-62.925.214-14.182.029-15.408-3.441-22.767-1.306-2.768-3.027-6.737-3.826-8.82-1.69-4.406-6.264-12.679-10.586-19.146-2.675-4.002-5.012-7.585-12.255-18.791-1.17-1.812-3.264-4.171-5.501-6.2-1.987-1.802-5.786-5.355-8.443-7.897-11.029-10.549-26.348-17.996-42.664-20.737-3.428-.576-21.545-.569-28.41.01-3.974.336-6.802.336-10.957.003-7.022-.564-43.252-.883-44.565-.393m10.122 1.716c.464.648 1.386 1.738 2.051 2.421 2.897 2.982 6.167 10.021 6.968 15.001.669 4.159.557 9.574-.203 9.866-1.128.433-1.436-.511-1.538-4.718-.16-6.56-2.173-12.598-5.474-16.416-1.079-1.248-1.961-2.429-1.961-2.626 0-1.294-3.512-3.306-5.77-3.306-3.608 0-9.532 6.699-10.789 12.2-.151.66-.62 1.92-1.043 2.8-1.309 2.724-3.115 9.49-3.439 12.885-.204 2.136-1.283 3.876-2.023 3.262-.444-.369-.544-.903-.362-1.928.139-.781.514-2.949.834-4.819.319-1.87 1.029-4.66 1.578-6.2.548-1.54 1.002-3.16 1.007-3.6.006-.44.341-1.342.745-2.005.404-.662 1.052-2.192 1.441-3.4 1.149-3.573 5.163-8.581 8.149-10.169 2.183-1.16 8.824-.652 9.829.752m57.643.762c3.395 1.582 6.514 6.011 7.03 9.985.177 1.361.593 3.825.925 5.475.902 4.488.917 25.121.018 25.466-1.405.539-2.315-3.509-1.502-6.682.442-1.726.005-14.549-.66-19.382-.794-5.763-3.295-10.867-5.7-11.63-.493-.157-1.366-.633-1.942-1.058-2.515-1.859-7.837 2.116-10.868 8.118-2.356 4.666-4.783 10.798-5.054 12.768-.282 2.052-1.12 2.4-1.929.8-.77-1.521-.622-2.862.498-4.51.559-.822 1.466-2.833 2.015-4.469.549-1.635 1.612-3.991 2.36-5.235.749-1.243 1.477-2.787 1.619-3.43.158-.72.687-1.393 1.375-1.748.615-.318 1.478-1.188 1.918-1.933 1.78-3.018 6.35-4.188 9.897-2.535M40 169.353c0 .894.444 1.847.86 1.847.734 0 2.023-1.501 1.543-1.798-.251-.155-.558-.18-.682-.056s-.563.046-.974-.174c-.57-.305-.747-.263-.747.181m1.7 2.912c-.275.111-.5.377-.5.592 0 .215.172.284.382.154.211-.13.674.208 1.031.752.417.637.873.902 1.281.745.491-.188.584-.05.411.611-.132.505-.045.818.212.767 1.035-.205.617 1.151-.508 1.648-1.272.561-1.713 1.419-.509.993 2.132-.756 2.484-1.819 1.3-3.927-.44-.783-.8-1.689-.8-2.012 0-.576-1.241-.75-2.3-.323m314.161 1.475c-1.098.452-1.932 1.971-2.559 4.658-.128.548-.563 1.538-.966 2.2-.403.661-.734 1.517-.735 1.902 0 .385-.181.7-.401.7-.738 0-.384.993.613 1.719.977.711.987.709.987-.277 0-.547-.163-1.096-.362-1.219-.427-.264.33-3.023.829-3.023.183 0 .333-.339.333-.754 0-1.169 1.06-3.455 1.3-2.803.131.356.373.124.67-.643.256-.66.747-1.414 1.09-1.675 1.02-.776.476-1.311-.799-.785M143.4 188.372c6.912 3.827 10.79 9.662 14.508 21.828 2.599 8.508 3.269 11.03 3.878 14.603.319 1.868.793 4.607 1.054 6.087.616 3.492.308 3.91-2.88 3.91-2.209 0-6.949 1.395-8.163 2.402-.256.213-1.171.637-2.032.941-.861.305-3.635 1.544-6.165 2.753-8.295 3.965-12.523 4.794-17.8 3.49-.88-.218-3.22-.575-5.2-.795-8.379-.928-9.409-1.102-10.282-1.742-.505-.37-1.998-1.376-3.318-2.237-6.086-3.969-7.684-6.386-9.131-13.812-1.375-7.059-1.874-10.52-1.874-13 0-1.529-.246-3.072-.597-3.746-.918-1.759-.77-2.101 1.702-3.925 1.265-.934 3.2-2.522 4.3-3.531 1.1-1.008 3.62-2.974 5.6-4.369 1.98-1.394 4.633-3.512 5.895-4.706 4.809-4.547 10.011-6.081 20.305-5.987l7 .064 3.2 1.772m137.148-.099c4.841 1.606 11.665 6.32 17.73 12.25 5.676 5.548 5.708 5.625 4.384 10.504-1.731 6.383-2.193 9.578-2.257 15.635-.003.254-.59 1.179-1.305 2.054-.715.875-1.604 2.149-1.977 2.829-.372.681-1.201 1.557-1.843 1.948-.641.39-2.221 1.93-3.511 3.422-2.578 2.983-9.721 6.97-14.559 8.128-5.854 1.4-19.352.401-21.559-1.596-.397-.36-2.305-1.189-4.24-1.843-1.936-.655-5.023-2.003-6.861-2.997-3.292-1.78-3.4-1.807-7.124-1.807-5.537 0-5.751-.413-3.107-6 1.082-2.288 1.46-3.665 1.592-5.8.114-1.837.709-4.363 1.731-7.344.857-2.5 1.558-4.953 1.558-5.453 0-1.453 1.89-6.071 3.406-8.322.767-1.139 1.394-2.206 1.394-2.372 0-2.011 8.257-9.105 10.601-9.108.441-.001 3.672-.991 7.181-2.201 4.184-1.443 7.074-2.214 8.399-2.24 1.11-.022 2.469-.184 3.019-.36 1.884-.603 4.115-.399 7.348.673m70.48.082c-.121.195.049.577.376.849.496.411.596.351.596-.355 0-.858-.568-1.147-.972-.494m-218.323 12.074c-2.359 1.375-3.454 8.219-1.657 10.355 3.21 3.815 7.707 2.411 10.101-3.154 2.105-4.893-3.784-9.916-8.444-7.201m139.199.396c-4.067 2.148-5.017 8.498-1.608 10.756 3.138 2.078 5.643 1.038 8.571-3.559 1.585-2.488 1.478-3.524-.567-5.492-2.858-2.751-3.892-3.027-6.396-1.705m-133.334.641c2.007.957 2.897 4.081 1.784 6.26-.752 1.473-4.08 4.674-4.859 4.674-2.075 0-4.695-2.506-4.695-4.492 0-5.755 3.364-8.543 7.77-6.442m136.95-.1c4.092 2.144 4.444 4.496 1.204 8.041-2.516 2.753-3.368 2.995-5.714 1.62-3.254-1.907-2.459-7.417 1.361-9.436 1.747-.924 1.807-.928 3.149-.225m80.73 4.666c-.867.682-1.035 1.085-.879 2.106.107.694.304 2.128.44 3.186.157 1.23.415 1.863.717 1.754.26-.093.776-.014 1.148.177 1.193.613 1.109-.259-.103-1.071-1.369-.917-1.631-3.497-.563-5.544.778-1.492.573-1.656-.76-.608M29.2 222.516c0 .162.166.607.37.989.203.382.555 1.505.782 2.495l.412 1.8-.219-1.986c-.175-1.582-1.345-4.451-1.345-3.298m1.393 8.761c-.167 1.892-.523 3.51-.841 3.829-.304.303-.552.743-.552.977 0 .233.337-.004.75-.529.692-.88 1.693-7.554 1.133-7.554-.11 0-.33 1.475-.49 3.277m253.761 6.604c-.575.089-1.565.704-2.2 1.368L281 240.455l2.791-1.251c3.722-1.67 3.786-1.82.563-1.323M29.239 239.8c.013 1.396.068 1.49.431.741.29-.6.286-1.083-.015-1.6-.358-.616-.428-.472-.416.859m98.561 2.438c1.98.308 3.78.498 4 .423.6-.204-4.658-1.067-6.233-1.022-.752.021.253.291 2.233.599m-97.624 3.712c.123.743.224 1.507.224 1.7 0 .193.36-.01.8-.45.912-.912 1.031-1.347.3-1.092-.275.096-.736-.204-1.024-.667-.481-.772-.506-.73-.3.509m331.324 2.337c-1.961.296-2.456 3.097-.773 4.376 1.159.881 1.812.671 1.096-.352-.992-1.415-.354-4.309.714-3.241.145.145.263-.037.263-.403 0-.367-.045-.64-.1-.607-.055.033-.595.135-1.2.227m-.817 3.008c-.096.498-.178.185-.182-.695-.005-.88.074-1.287.174-.905.1.383.104 1.103.008 1.6m-145.856 15.749c5.491 1.628 9.973 5.546 9.973 8.717 0 1.448-.8 2.985-1.703 3.272-.43.136-1.887 1.18-3.239 2.32-1.352 1.14-3.268 2.544-4.258 3.12-.99.575-2.284 1.59-2.875 2.255-2.415 2.716-7.89 4.858-12.438 4.867-3.249.006-3.603.456-2.342 2.981.47.941.855 2.175.855 2.742 0 .566.183 1.511.406 2.099.735 1.931 2.492 11.115 2.787 14.563.201 2.341.462 3.437.848 3.564 4.28 1.407 16.119 8.566 18.331 11.085 1.406 1.601 1.466 1.876.599 2.742-.939.94-1.102.86-4.451-2.193-1.703-1.552-4.451-3.56-6.108-4.462-5.768-3.14-9.228-4.716-10.316-4.7-2.092.031-9.427 4.112-11.348 6.313-1.491 1.708-7.346 5.671-8.379 5.671-2.995 0-2.429-2.283 1.031-4.156.66-.357 2.46-1.555 4-2.66 6.655-4.779 7.686-5.456 10.343-6.784 3.909-1.955 3.834-1.644 2.285-9.438-2.631-13.243-4.314-16.497-10.216-19.755-2.985-1.648-4.955-3.672-8.612-8.848-.77-1.089-1.985-2.333-2.7-2.764-2.503-1.508-1.643-4.455 2.036-6.983 1.135-.78 2.442-1.691 2.903-2.023 3.125-2.254 26.465-3.36 32.588-1.545m-28.171 2.545c-1.07.422-2.25 1.044-2.624 1.382-.374.338-1.479 1.036-2.456 1.552-2.424 1.279-2.43 2.042-.05 5.558 4.432 6.543 7.991 9.004 14.971 10.35l4.662.899 3.832-1.516c2.58-1.021 4.711-2.215 6.521-3.653 4.099-3.257 4.845-3.825 7.451-5.668 4.124-2.917 3.523-4.889-2.405-7.893L213.4 269l-12.4-.09c-11.41-.082-12.555-.028-14.344.679m171.494.198c-.183.476-.11.826.194.928.314.104.127.523-.528 1.178-1.203 1.203-1.237 1.61-.239 2.807 1.013 1.214 1.338 1.132 1.032-.261-.199-.906-.071-1.29.585-1.75.905-.634 1.627-3.489.882-3.489-.236 0-.552.199-.702.443-.192.31-.373.283-.602-.089-.254-.411-.396-.358-.622.233m-310.814 33.32c-.603.384.726 2.093 1.628 2.093.611 0 .804.434.666 1.5-.125.958.676.492 1.16-.676.584-1.409.289-2.024-.971-2.024-.513 0-1.037-.27-1.164-.6-.253-.661-.615-.741-1.319-.293m42.734 22.219c-1.087 1.157-1.119 1.635-.07 1.074.44-.235.8-.692.8-1.014 0-.662 1.022-.798 1.4-.186.136.22.604.4 1.041.4.437 0 .765.225.729.5-.17 1.314.04 2.05.464 1.626.737-.737.266-2.312-.734-2.454-.495-.07-.9-.295-.9-.5 0-.734-1.878-.353-2.73.554M293.6 327.8c-.274.33-.711.6-.971.6s-1.141.612-1.957 1.36c-.816.747-1.763 1.466-2.104 1.597-.421.161-.579.645-.494 1.509.174 1.761.975 1.866 1.293.17.19-1.012.426-1.337.852-1.173.419.161.518.038.34-.425-.599-1.561 3.606-3.22 5.539-2.185.781.417.782.406.061-.815-.793-1.343-1.772-1.587-2.559-.638m-48.087 25.62c-.125.126.046.776.38 1.446.334.67.722 1.064.862.876.14-.188.387-.446.548-.574.162-.127-.124-.624-.634-1.103-.511-.48-1.031-.77-1.156-.645" fill="#746c5c"/><path d="M27.714 72.6c.003 1.1.081 1.503.173.895.092-.609.09-1.509-.005-2-.095-.492-.171.005-.168 1.105M127 97.2c-.504.217-.578.344-.2.344.33 0 .96-.155 1.4-.344.504-.217.578-.344.2-.344-.33 0-.96.155-1.4.344M353.693 212c0 .77.082 1.085.183.7.1-.385.1-1.015 0-1.4-.101-.385-.183-.07-.183.7M30.514 229.4c.003 1.1.081 1.503.173.895.092-.609.09-1.509-.005-2-.095-.492-.171.005-.168 1.105m329.239 6c0 2.64.065 3.668.144 2.284.078-1.383.077-3.543-.002-4.8-.079-1.256-.143-.124-.142 2.516m-1.988 19.6c.001 3.96.061 5.526.133 3.48.073-2.046.073-5.286 0-7.2-.074-1.914-.133-.24-.133 3.72M110.2 332.4c1.528 1.54 2.869 2.8 2.979 2.8.11 0-1.051-1.26-2.579-2.8-1.528-1.54-2.869-2.8-2.979-2.8-.11 0 1.051 1.26 2.579 2.8m28.505 13.483c.497.096 1.217.092 1.6-.008.382-.1-.025-.179-.905-.174-.88.004-1.193.086-.695.182m56.795 16.013c1.375.078 3.625.078 5 0s.25-.142-2.5-.142-3.875.064-2.5.142m23.2-.014a5.661 5.661 0 001.8 0c.495-.095.09-.173-.9-.173s-1.395.078-.9.173" fill="#9858a0"/><path d="M130.756 192.578c-.098.097-2.062.477-4.365.843-8.3 1.319-15.901 5.339-18.075 9.558-.447.869-1.419 2.492-2.16 3.607-.871 1.313-1.433 2.731-1.593 4.021-.136 1.096-.696 3.149-1.245 4.561-.906 2.332-.983 2.996-.837 7.2l.161 4.632 2.321 4.519c2.277 4.432 3.447 5.751 6.952 7.84 1.621.966 8.008 2.241 11.214 2.238 1.909-.001 4.86.209 6.558.468 3.816.58 4.643.366 11.715-3.042 2.861-1.379 5.601-2.633 6.088-2.788 1.336-.424 7.228-7.676 8.641-10.635 1.79-3.75 1.875-6.429.341-10.8-.656-1.87-1.397-4.384-1.647-5.588-1.625-7.824-13.077-16.812-21.421-16.812-1.359 0-2.551.08-2.648.178m139.976.824c-.111.11-1.626.377-3.367.592-9.193 1.135-17.781 6.084-20.756 11.961-1.614 3.187-5.384 14.836-5.397 16.675-.045 6.154 6.018 15.203 11.215 16.737 1.195.353 3.681 1.405 5.523 2.338l3.351 1.695 5.449-.004c7.765-.005 12.736-1.342 15.404-4.141.881-.925 1.638-1.271 3.207-1.467 4.902-.613 8.787-6.527 10.894-16.588 2.661-12.701-8.951-28-21.252-28-2.238 0-4.16.091-4.271.202M141.6 195.663c6.141 3.012 11.749 9.459 12.403 14.26.17 1.252.775 3.357 1.344 4.677 2.044 4.743 1.106 10.162-2.499 14.445-.576.684-1.858 2.284-2.848 3.555-1.164 1.493-2.375 2.557-3.427 3.009-.894.385-3.504 1.591-5.8 2.681-6.444 3.059-6.345 3.033-10.471 2.763-2.036-.133-5.502-.35-7.702-.482-4.403-.264-9.351-1.344-10.719-2.339a93.088 93.088 0 00-2.325-1.606c-1.1-.735-1.981-2.027-3.7-5.42l-2.256-4.455.002-4.876c.001-4.269.125-5.174.99-7.275.544-1.32.994-3.12 1-4 .008-1.11.385-2.151 1.231-3.4.671-.99 1.644-2.61 2.161-3.6 2.004-3.832 9.202-7.919 15.527-8.816 1.369-.195 3.209-.53 4.089-.746 4.05-.994 8.894-.388 13 1.625m138.254-.878c9.656 3.394 17.545 16.386 15.575 25.649-2.273 10.681-5.456 15.659-10.448 16.336-1.785.242-2.518.553-3.153 1.339-.952 1.176-4.375 3.091-5.526 3.091-.428 0-1.757.284-2.951.632-4.209 1.223-11.855.681-15.223-1.081-1.524-.797-3.789-1.745-5.034-2.106-6.948-2.02-12.347-12.302-10.209-19.445 4.12-13.769 5.014-15.245 12.05-19.896 4.433-2.93 6.789-3.749 13.007-4.522 1.89-.234 3.516-.507 3.614-.604.523-.524 6.278-.103 8.298.607m-144.784 2.673c-.182.185-3.152.43-6.6.546-4.461.151-6.577.382-7.333.804-10.547 5.875-13.336 10.552-13.073 21.923l.136 5.909 1.8 2.772c3.268 5.034 3.429 5.154 9.731 7.248 10.02 3.33 13.39 3.124 22.654-1.386 2.091-1.018 6.122-4.969 7.326-7.181 3.299-6.062 3.201-19.591-.173-23.881-2.934-3.73-12.876-8.371-14.468-6.754m129.33.524c-1.65.407-3.72.857-4.6 1.001-1.331.218-2.114.799-4.661 3.462-5.991 6.263-6.836 8.434-7.043 18.095-.172 8.071-.313 7.74 6.19 14.474 2.704 2.8 5.439 3.505 14.314 3.689 10.559.219 11.919-.62 16.852-10.403 2.732-5.416 3.739-17.834 1.666-20.546-2.463-3.222-6.196-7.049-8.016-8.217-3.184-2.043-9.861-2.75-14.702-1.555m-122.892 1.639c7.649 3.49 9.493 6.517 9.49 15.579-.003 10.323-2.901 16.53-8.998 19.273-8.015 3.607-7.762 3.527-11.158 3.527-3.995 0-11.889-2.052-15.929-4.142-5.137-2.656-7.846-14.205-5.112-21.786 2.022-5.605 3.001-6.81 8.399-10.339 4.281-2.798 4.75-2.928 10.687-2.973 2.922-.022 5.763-.183 6.313-.359 1.458-.465 3.465-.077 6.308 1.22m132.557-.881c3.888.545 6.884 2.77 11.576 8.596l1.559 1.936v5.339c0 6.451-.638 9.537-2.839 13.738-4.729 9.022-5.699 9.647-14.961 9.635-10.969-.014-13.41-1.21-19.3-9.455l-1.3-1.819v-5.349c0-5.171 1.094-11.103 2.347-12.728 5.208-6.752 7.023-8.501 9.165-8.83.818-.126 2.928-.581 4.688-1.01 3.171-.774 3.901-.778 9.065-.053" fill="#3c90a0"/></g></svg>